{
  "header": {
    "PPQ": 96,
    "bpm": 90.00009000009,
    "timeSignature": [
      12,
      8
    ],
    "name": "Norwegian Wood"
  },
  "startTime": 0,
  "duration": 127.99292756250037,
  "tracks": [
    {
      "startTime": 0,
      "duration": 0,
      "length": 0,
      "notes": [],
      "controlChanges": {},
      "id": 0,
      "name": "Norwegian Wood"
    },
    {
      "startTime": 11.888877,
      "duration": 127.99292756250037,
      "length": 193,
      "notes": [
        {
          "name": "B1",
          "midi": 35,
          "time": 11.888877,
          "velocity": 0.905511811023622,
          "duration": 0.09027768750000043
        },
        {
          "name": "E2",
          "midi": 40,
          "time": 11.999988000000002,
          "velocity": 0.905511811023622,
          "duration": 0.8194436249999999
        },
        {
          "name": "E2",
          "midi": 40,
          "time": 12.888876000000002,
          "velocity": 0.905511811023622,
          "duration": 0.09027768750000043
        },
        {
          "name": "B1",
          "midi": 35,
          "time": 12.999987000000003,
          "velocity": 0.905511811023622,
          "duration": 0.8194436249999999
        },
        {
          "name": "B1",
          "midi": 35,
          "time": 13.888875000000002,
          "velocity": 0.905511811023622,
          "duration": 0.09027768750000043
        },
        {
          "name": "E2",
          "midi": 40,
          "time": 13.999986000000003,
          "velocity": 0.905511811023622,
          "duration": 0.8194436249999999
        },
        {
          "name": "E2",
          "midi": 40,
          "time": 14.888874000000003,
          "velocity": 0.905511811023622,
          "duration": 0.09027768750000043
        },
        {
          "name": "B1",
          "midi": 35,
          "time": 14.999985000000004,
          "velocity": 0.905511811023622,
          "duration": 0.8194436249999999
        },
        {
          "name": "B1",
          "midi": 35,
          "time": 15.888873000000004,
          "velocity": 0.905511811023622,
          "duration": 0.09027768750000043
        },
        {
          "name": "E2",
          "midi": 40,
          "time": 15.999984000000005,
          "velocity": 0.905511811023622,
          "duration": 0.8194436250000017
        },
        {
          "name": "E2",
          "midi": 40,
          "time": 16.888872000000006,
          "velocity": 0.905511811023622,
          "duration": 0.09027768749999865
        },
        {
          "name": "B1",
          "midi": 35,
          "time": 16.999983000000004,
          "velocity": 0.905511811023622,
          "duration": 0.6111104999999988
        },
        {
          "name": "E2",
          "midi": 40,
          "time": 17.666649000000003,
          "velocity": 0.905511811023622,
          "duration": 0.29861081250000154
        },
        {
          "name": "E2",
          "midi": 40,
          "time": 17.999982000000006,
          "velocity": 0.905511811023622,
          "duration": 0.8194436250000017
        },
        {
          "name": "E2",
          "midi": 40,
          "time": 18.888870000000008,
          "velocity": 0.905511811023622,
          "duration": 0.09027768749999865
        },
        {
          "name": "B1",
          "midi": 35,
          "time": 18.999981000000005,
          "velocity": 0.905511811023622,
          "duration": 0.8194436250000017
        },
        {
          "name": "E2",
          "midi": 40,
          "time": 19.999980000000008,
          "velocity": 0.905511811023622,
          "duration": 0.8194436250000017
        },
        {
          "name": "E2",
          "midi": 40,
          "time": 20.88886800000001,
          "velocity": 0.905511811023622,
          "duration": 0.09027768749999865
        },
        {
          "name": "B1",
          "midi": 35,
          "time": 20.999979000000007,
          "velocity": 0.905511811023622,
          "duration": 0.8194436250000017
        },
        {
          "name": "B1",
          "midi": 35,
          "time": 21.88886700000001,
          "velocity": 0.905511811023622,
          "duration": 0.09027768749999865
        },
        {
          "name": "E2",
          "midi": 40,
          "time": 21.999978000000006,
          "velocity": 0.905511811023622,
          "duration": 0.8194436250000017
        },
        {
          "name": "E2",
          "midi": 40,
          "time": 22.888866000000007,
          "velocity": 0.905511811023622,
          "duration": 0.09027768749999865
        },
        {
          "name": "B1",
          "midi": 35,
          "time": 22.999977000000005,
          "velocity": 0.905511811023622,
          "duration": 0.8194436250000017
        },
        {
          "name": "B1",
          "midi": 35,
          "time": 23.888865000000006,
          "velocity": 0.905511811023622,
          "duration": 0.09027768749999865
        },
        {
          "name": "E2",
          "midi": 40,
          "time": 23.999976000000004,
          "velocity": 0.905511811023622,
          "duration": 0.9236101874999996
        },
        {
          "name": "B2",
          "midi": 47,
          "time": 24.999975000000003,
          "velocity": 0.984251968503937,
          "duration": 0.29861081250000154
        },
        {
          "name": "D3",
          "midi": 50,
          "time": 25.333308000000006,
          "velocity": 0.984251968503937,
          "duration": 0.29861081250000154
        },
        {
          "name": "E3",
          "midi": 52,
          "time": 25.66664100000001,
          "velocity": 0.984251968503937,
          "duration": 0.29861081250000154
        },
        {
          "name": "E2",
          "midi": 40,
          "time": 25.999974000000012,
          "velocity": 0.905511811023622,
          "duration": 0.8194436250000017
        },
        {
          "name": "E2",
          "midi": 40,
          "time": 26.888862000000014,
          "velocity": 0.905511811023622,
          "duration": 0.09027768749999865
        },
        {
          "name": "B1",
          "midi": 35,
          "time": 26.99997300000001,
          "velocity": 0.905511811023622,
          "duration": 0.9236101874999996
        },
        {
          "name": "E2",
          "midi": 40,
          "time": 27.99997200000001,
          "velocity": 0.905511811023622,
          "duration": 0.8194436250000017
        },
        {
          "name": "E2",
          "midi": 40,
          "time": 28.88886000000001,
          "velocity": 0.905511811023622,
          "duration": 0.09027768749999865
        },
        {
          "name": "B1",
          "midi": 35,
          "time": 28.99997100000001,
          "velocity": 0.905511811023622,
          "duration": 0.8194436250000017
        },
        {
          "name": "B1",
          "midi": 35,
          "time": 29.88885900000001,
          "velocity": 0.905511811023622,
          "duration": 0.09027768749999865
        },
        {
          "name": "E2",
          "midi": 40,
          "time": 29.99997000000001,
          "velocity": 0.905511811023622,
          "duration": 0.8194436250000017
        },
        {
          "name": "E2",
          "midi": 40,
          "time": 30.88885800000001,
          "velocity": 0.905511811023622,
          "duration": 0.09027768749999865
        },
        {
          "name": "B1",
          "midi": 35,
          "time": 30.999969000000007,
          "velocity": 0.905511811023622,
          "duration": 0.8194436250000017
        },
        {
          "name": "B1",
          "midi": 35,
          "time": 31.88885700000001,
          "velocity": 0.905511811023622,
          "duration": 0.09027768749999865
        },
        {
          "name": "E2",
          "midi": 40,
          "time": 31.999968000000006,
          "velocity": 0.905511811023622,
          "duration": 0.9236101874999996
        },
        {
          "name": "E2",
          "midi": 40,
          "time": 32.999967000000005,
          "velocity": 0.905511811023622,
          "duration": 0.29861081250000154
        },
        {
          "name": "A2",
          "midi": 45,
          "time": 33.33330000000001,
          "velocity": 0.984251968503937,
          "duration": 0.29861081250000154
        },
        {
          "name": "B2",
          "midi": 47,
          "time": 33.66663300000001,
          "velocity": 0.984251968503937,
          "duration": 0.29861081250000154
        },
        {
          "name": "B1",
          "midi": 35,
          "time": 33.999966000000015,
          "velocity": 0.905511811023622,
          "duration": 0.9236101875000031
        },
        {
          "name": "B1",
          "midi": 35,
          "time": 34.99996500000002,
          "velocity": 0.905511811023622,
          "duration": 0.9236101875000031
        },
        {
          "name": "E2",
          "midi": 40,
          "time": 35.99996400000002,
          "velocity": 0.905511811023622,
          "duration": 0.9236101875000031
        },
        {
          "name": "E2",
          "midi": 40,
          "time": 36.99996300000002,
          "velocity": 0.905511811023622,
          "duration": 0.9236101875000031
        },
        {
          "name": "E2",
          "midi": 40,
          "time": 37.999962000000025,
          "velocity": 0.905511811023622,
          "duration": 0.9236101875000031
        },
        {
          "name": "E2",
          "midi": 40,
          "time": 38.99996100000003,
          "velocity": 0.905511811023622,
          "duration": 0.9236101875000031
        },
        {
          "name": "A2",
          "midi": 45,
          "time": 39.99996000000003,
          "velocity": 0.984251968503937,
          "duration": 0.9236101875000031
        },
        {
          "name": "E2",
          "midi": 40,
          "time": 40.99995900000003,
          "velocity": 0.905511811023622,
          "duration": 0.6111105000000023
        },
        {
          "name": "G2",
          "midi": 43,
          "time": 41.66662500000003,
          "velocity": 0.984251968503937,
          "duration": 0.29861081250000154
        },
        {
          "name": "A2",
          "midi": 45,
          "time": 41.999958000000035,
          "velocity": 0.984251968503937,
          "duration": 0.9236101875000031
        },
        {
          "name": "E2",
          "midi": 40,
          "time": 42.99995700000004,
          "velocity": 0.905511811023622,
          "duration": 0.6111105000000023
        },
        {
          "name": "A2",
          "midi": 45,
          "time": 43.66662300000004,
          "velocity": 0.984251968503937,
          "duration": 0.29861081250000154
        },
        {
          "name": "E2",
          "midi": 40,
          "time": 43.99995600000004,
          "velocity": 0.905511811023622,
          "duration": 0.9236101875000031
        },
        {
          "name": "B1",
          "midi": 35,
          "time": 44.99995500000004,
          "velocity": 0.905511811023622,
          "duration": 0.9236101875000031
        },
        {
          "name": "E2",
          "midi": 40,
          "time": 45.999954000000045,
          "velocity": 0.905511811023622,
          "duration": 0.9236101875000031
        },
        {
          "name": "E2",
          "midi": 40,
          "time": 46.99995300000005,
          "velocity": 0.905511811023622,
          "duration": 0.9236101875000031
        },
        {
          "name": "F#2",
          "midi": 42,
          "time": 47.99995200000005,
          "velocity": 0.984251968503937,
          "duration": 0.9236101875000031
        },
        {
          "name": "F#2",
          "midi": 42,
          "time": 48.99995100000005,
          "velocity": 0.984251968503937,
          "duration": 0.9236101875000031
        },
        {
          "name": "B1",
          "midi": 35,
          "time": 49.999950000000055,
          "velocity": 0.905511811023622,
          "duration": 0.8194436249999981
        },
        {
          "name": "B1",
          "midi": 35,
          "time": 50.88883800000006,
          "velocity": 0.905511811023622,
          "duration": 0.09027768749999865
        },
        {
          "name": "B1",
          "midi": 35,
          "time": 50.99994900000006,
          "velocity": 0.905511811023622,
          "duration": 0.6111105000000023
        },
        {
          "name": "D#2",
          "midi": 39,
          "time": 51.66661500000006,
          "velocity": 0.905511811023622,
          "duration": 0.29861081250000154
        },
        {
          "name": "E2",
          "midi": 40,
          "time": 51.99994800000006,
          "velocity": 0.905511811023622,
          "duration": 0.8194436249999981
        },
        {
          "name": "E2",
          "midi": 40,
          "time": 52.88883600000006,
          "velocity": 0.905511811023622,
          "duration": 0.09027768749999865
        },
        {
          "name": "B1",
          "midi": 35,
          "time": 52.99994700000006,
          "velocity": 0.905511811023622,
          "duration": 0.8194436249999981
        },
        {
          "name": "B1",
          "midi": 35,
          "time": 53.888835000000064,
          "velocity": 0.905511811023622,
          "duration": 0.09027768749999865
        },
        {
          "name": "E2",
          "midi": 40,
          "time": 53.999946000000065,
          "velocity": 0.905511811023622,
          "duration": 0.8194436249999981
        },
        {
          "name": "E2",
          "midi": 40,
          "time": 54.88883400000007,
          "velocity": 0.905511811023622,
          "duration": 0.09027768749999865
        },
        {
          "name": "B1",
          "midi": 35,
          "time": 54.99994500000007,
          "velocity": 0.905511811023622,
          "duration": 0.8194436249999981
        },
        {
          "name": "B1",
          "midi": 35,
          "time": 55.88883300000007,
          "velocity": 0.905511811023622,
          "duration": 0.09027768749999865
        },
        {
          "name": "E2",
          "midi": 40,
          "time": 55.99994400000007,
          "velocity": 0.905511811023622,
          "duration": 0.9236101875000031
        },
        {
          "name": "B2",
          "midi": 47,
          "time": 56.99994300000007,
          "velocity": 0.984251968503937,
          "duration": 0.29861081250000154
        },
        {
          "name": "D3",
          "midi": 50,
          "time": 57.333276000000076,
          "velocity": 0.984251968503937,
          "duration": 0.29861081250000154
        },
        {
          "name": "E3",
          "midi": 52,
          "time": 57.66660900000008,
          "velocity": 0.984251968503937,
          "duration": 0.29861081250000154
        },
        {
          "name": "E2",
          "midi": 40,
          "time": 57.99994200000008,
          "velocity": 0.905511811023622,
          "duration": 0.8194436249999981
        },
        {
          "name": "E2",
          "midi": 40,
          "time": 58.888830000000084,
          "velocity": 0.905511811023622,
          "duration": 0.09027768749999865
        },
        {
          "name": "B1",
          "midi": 35,
          "time": 58.999941000000085,
          "velocity": 0.905511811023622,
          "duration": 0.9236101875000031
        },
        {
          "name": "E2",
          "midi": 40,
          "time": 59.99994000000009,
          "velocity": 0.905511811023622,
          "duration": 0.8194436249999981
        },
        {
          "name": "E2",
          "midi": 40,
          "time": 60.88882800000009,
          "velocity": 0.905511811023622,
          "duration": 0.09027768749999865
        },
        {
          "name": "B1",
          "midi": 35,
          "time": 60.99993900000009,
          "velocity": 0.905511811023622,
          "duration": 0.8194436249999981
        },
        {
          "name": "B1",
          "midi": 35,
          "time": 61.88882700000009,
          "velocity": 0.905511811023622,
          "duration": 0.09027768749999865
        },
        {
          "name": "E2",
          "midi": 40,
          "time": 61.99993800000009,
          "velocity": 0.905511811023622,
          "duration": 0.8194436249999981
        },
        {
          "name": "E2",
          "midi": 40,
          "time": 62.888826000000094,
          "velocity": 0.905511811023622,
          "duration": 0.09027768749999865
        },
        {
          "name": "B1",
          "midi": 35,
          "time": 62.999937000000095,
          "velocity": 0.905511811023622,
          "duration": 0.8194436249999981
        },
        {
          "name": "B1",
          "midi": 35,
          "time": 63.8888250000001,
          "velocity": 0.905511811023622,
          "duration": 0.09027768749999865
        },
        {
          "name": "E2",
          "midi": 40,
          "time": 63.9999360000001,
          "velocity": 0.905511811023622,
          "duration": 0.923610187499996
        },
        {
          "name": "B2",
          "midi": 47,
          "time": 64.9999350000001,
          "velocity": 0.984251968503937,
          "duration": 0.29861081250000154
        },
        {
          "name": "D3",
          "midi": 50,
          "time": 65.33326800000009,
          "velocity": 0.984251968503937,
          "duration": 0.29861081250000154
        },
        {
          "name": "E3",
          "midi": 52,
          "time": 65.66660100000009,
          "velocity": 0.984251968503937,
          "duration": 0.29861081250000154
        },
        {
          "name": "E2",
          "midi": 40,
          "time": 65.99993400000008,
          "velocity": 0.905511811023622,
          "duration": 0.9236101875000031
        },
        {
          "name": "E2",
          "midi": 40,
          "time": 66.99993300000008,
          "velocity": 0.905511811023622,
          "duration": 0.29861081250000154
        },
        {
          "name": "B2",
          "midi": 47,
          "time": 67.33326600000008,
          "velocity": 0.984251968503937,
          "duration": 0.19444425000000365
        },
        {
          "name": "A2",
          "midi": 45,
          "time": 67.55548800000008,
          "velocity": 0.984251968503937,
          "duration": 0.09027768750000575
        },
        {
          "name": "G2",
          "midi": 43,
          "time": 67.66659900000009,
          "velocity": 0.984251968503937,
          "duration": 0.29861081250000154
        },
        {
          "name": "E2",
          "midi": 40,
          "time": 67.99993200000009,
          "velocity": 0.905511811023622,
          "duration": 0.8194436250000052
        },
        {
          "name": "E2",
          "midi": 40,
          "time": 68.8888200000001,
          "velocity": 0.905511811023622,
          "duration": 0.09027768750000575
        },
        {
          "name": "B1",
          "midi": 35,
          "time": 68.9999310000001,
          "velocity": 0.905511811023622,
          "duration": 0.8194436250000052
        },
        {
          "name": "B1",
          "midi": 35,
          "time": 69.88881900000011,
          "velocity": 0.905511811023622,
          "duration": 0.09027768750000575
        },
        {
          "name": "E2",
          "midi": 40,
          "time": 69.99993000000012,
          "velocity": 0.905511811023622,
          "duration": 0.8194436250000052
        },
        {
          "name": "E2",
          "midi": 40,
          "time": 70.88881800000013,
          "velocity": 0.905511811023622,
          "duration": 0.09027768750000575
        },
        {
          "name": "B1",
          "midi": 35,
          "time": 70.99992900000014,
          "velocity": 0.905511811023622,
          "duration": 0.8194436250000052
        },
        {
          "name": "D#2",
          "midi": 39,
          "time": 71.88881700000015,
          "velocity": 0.905511811023622,
          "duration": 0.09027768750000575
        },
        {
          "name": "E2",
          "midi": 40,
          "time": 71.99992800000015,
          "velocity": 0.905511811023622,
          "duration": 0.9236101875000031
        },
        {
          "name": "A2",
          "midi": 45,
          "time": 72.99992700000016,
          "velocity": 0.984251968503937,
          "duration": 0.29861081250000154
        },
        {
          "name": "A#2",
          "midi": 46,
          "time": 73.33326000000015,
          "velocity": 0.984251968503937,
          "duration": 0.29861081250000154
        },
        {
          "name": "B2",
          "midi": 47,
          "time": 73.66659300000015,
          "velocity": 0.984251968503937,
          "duration": 0.29861081250000154
        },
        {
          "name": "E2",
          "midi": 40,
          "time": 73.99992600000014,
          "velocity": 0.905511811023622,
          "duration": 0.9236101875000031
        },
        {
          "name": "B1",
          "midi": 35,
          "time": 74.99992500000015,
          "velocity": 0.905511811023622,
          "duration": 0.29861081250000154
        },
        {
          "name": "D2",
          "midi": 38,
          "time": 75.33325800000014,
          "velocity": 0.905511811023622,
          "duration": 0.29861081250000154
        },
        {
          "name": "B1",
          "midi": 35,
          "time": 75.66659100000014,
          "velocity": 0.905511811023622,
          "duration": 0.29861081250000154
        },
        {
          "name": "E2",
          "midi": 40,
          "time": 75.99992400000014,
          "velocity": 0.905511811023622,
          "duration": 0.9236101875000031
        },
        {
          "name": "B1",
          "midi": 35,
          "time": 76.99992300000014,
          "velocity": 0.905511811023622,
          "duration": 0.6111104999999952
        },
        {
          "name": "D#2",
          "midi": 39,
          "time": 77.66658900000013,
          "velocity": 0.905511811023622,
          "duration": 0.29861081250000154
        },
        {
          "name": "E2",
          "midi": 40,
          "time": 77.99992200000013,
          "velocity": 0.905511811023622,
          "duration": 0.8194436250000052
        },
        {
          "name": "E2",
          "midi": 40,
          "time": 78.88881000000013,
          "velocity": 0.905511811023622,
          "duration": 0.09027768750000575
        },
        {
          "name": "B1",
          "midi": 35,
          "time": 78.99992100000014,
          "velocity": 0.905511811023622,
          "duration": 0.6111104999999952
        },
        {
          "name": "D#2",
          "midi": 39,
          "time": 79.66658700000013,
          "velocity": 0.905511811023622,
          "duration": 0.29861081250000154
        },
        {
          "name": "E2",
          "midi": 40,
          "time": 79.99992000000013,
          "velocity": 0.905511811023622,
          "duration": 0.9236101875000031
        },
        {
          "name": "B2",
          "midi": 47,
          "time": 80.99991900000013,
          "velocity": 0.984251968503937,
          "duration": 0.29861081250000154
        },
        {
          "name": "D3",
          "midi": 50,
          "time": 81.33325200000013,
          "velocity": 0.984251968503937,
          "duration": 0.29861081250000154
        },
        {
          "name": "E3",
          "midi": 52,
          "time": 81.66658500000013,
          "velocity": 0.984251968503937,
          "duration": 0.29861081250000154
        },
        {
          "name": "E2",
          "midi": 40,
          "time": 81.99991800000012,
          "velocity": 0.905511811023622,
          "duration": 0.8194436250000052
        },
        {
          "name": "E2",
          "midi": 40,
          "time": 82.88880600000013,
          "velocity": 0.905511811023622,
          "duration": 0.09027768750000575
        },
        {
          "name": "B1",
          "midi": 35,
          "time": 82.99991700000014,
          "velocity": 0.905511811023622,
          "duration": 0.8194436250000052
        },
        {
          "name": "B1",
          "midi": 35,
          "time": 83.88880500000015,
          "velocity": 0.905511811023622,
          "duration": 0.09027768750000575
        },
        {
          "name": "E2",
          "midi": 40,
          "time": 83.99991600000016,
          "velocity": 0.905511811023622,
          "duration": 0.9236101875000031
        },
        {
          "name": "E2",
          "midi": 40,
          "time": 84.99991500000016,
          "velocity": 0.905511811023622,
          "duration": 0.9236101875000031
        },
        {
          "name": "E2",
          "midi": 40,
          "time": 85.99991400000016,
          "velocity": 0.905511811023622,
          "duration": 0.9236101875000031
        },
        {
          "name": "E2",
          "midi": 40,
          "time": 86.99991300000016,
          "velocity": 0.905511811023622,
          "duration": 0.9236101875000031
        },
        {
          "name": "A2",
          "midi": 45,
          "time": 87.99991200000017,
          "velocity": 0.984251968503937,
          "duration": 0.9236101875000031
        },
        {
          "name": "E2",
          "midi": 40,
          "time": 88.99991100000017,
          "velocity": 0.905511811023622,
          "duration": 0.6111104999999952
        },
        {
          "name": "G2",
          "midi": 43,
          "time": 89.66657700000016,
          "velocity": 0.984251968503937,
          "duration": 0.29861081250000154
        },
        {
          "name": "A2",
          "midi": 45,
          "time": 89.99991000000016,
          "velocity": 0.984251968503937,
          "duration": 0.9236101875000031
        },
        {
          "name": "E2",
          "midi": 40,
          "time": 90.99990900000016,
          "velocity": 0.905511811023622,
          "duration": 0.6111104999999952
        },
        {
          "name": "A2",
          "midi": 45,
          "time": 91.66657500000015,
          "velocity": 0.984251968503937,
          "duration": 0.29861081250000154
        },
        {
          "name": "E2",
          "midi": 40,
          "time": 91.99990800000015,
          "velocity": 0.905511811023622,
          "duration": 0.9236101875000031
        },
        {
          "name": "B1",
          "midi": 35,
          "time": 92.99990700000015,
          "velocity": 0.905511811023622,
          "duration": 0.9236101875000031
        },
        {
          "name": "E2",
          "midi": 40,
          "time": 93.99990600000015,
          "velocity": 0.905511811023622,
          "duration": 0.9236101875000031
        },
        {
          "name": "E2",
          "midi": 40,
          "time": 94.99990500000015,
          "velocity": 0.905511811023622,
          "duration": 0.9236101875000031
        },
        {
          "name": "F#2",
          "midi": 42,
          "time": 95.99990400000016,
          "velocity": 0.984251968503937,
          "duration": 0.9236101875000031
        },
        {
          "name": "F#2",
          "midi": 42,
          "time": 96.99990300000016,
          "velocity": 0.984251968503937,
          "duration": 0.9236101875000031
        },
        {
          "name": "B1",
          "midi": 35,
          "time": 97.99990200000016,
          "velocity": 0.905511811023622,
          "duration": 0.8194436250000052
        },
        {
          "name": "B1",
          "midi": 35,
          "time": 98.88879000000017,
          "velocity": 0.905511811023622,
          "duration": 0.09027768750000575
        },
        {
          "name": "B1",
          "midi": 35,
          "time": 98.99990100000018,
          "velocity": 0.905511811023622,
          "duration": 0.6111104999999952
        },
        {
          "name": "D#2",
          "midi": 39,
          "time": 99.66656700000017,
          "velocity": 0.905511811023622,
          "duration": 0.29861081250000154
        },
        {
          "name": "E2",
          "midi": 40,
          "time": 99.99990000000017,
          "velocity": 0.905511811023622,
          "duration": 0.8194436250000052
        },
        {
          "name": "E2",
          "midi": 40,
          "time": 100.88878800000018,
          "velocity": 0.905511811023622,
          "duration": 0.09027768750000575
        },
        {
          "name": "B1",
          "midi": 35,
          "time": 100.99989900000018,
          "velocity": 0.905511811023622,
          "duration": 0.8194436250000052
        },
        {
          "name": "B1",
          "midi": 35,
          "time": 101.88878700000019,
          "velocity": 0.905511811023622,
          "duration": 0.09027768750000575
        },
        {
          "name": "E2",
          "midi": 40,
          "time": 101.9998980000002,
          "velocity": 0.905511811023622,
          "duration": 0.8194436250000052
        },
        {
          "name": "E2",
          "midi": 40,
          "time": 102.88878600000021,
          "velocity": 0.905511811023622,
          "duration": 0.09027768750000575
        },
        {
          "name": "B1",
          "midi": 35,
          "time": 102.99989700000022,
          "velocity": 0.905511811023622,
          "duration": 0.8194436250000052
        },
        {
          "name": "B1",
          "midi": 35,
          "time": 103.88878500000023,
          "velocity": 0.905511811023622,
          "duration": 0.09027768750000575
        },
        {
          "name": "E2",
          "midi": 40,
          "time": 103.99989600000023,
          "velocity": 0.905511811023622,
          "duration": 0.9236101875000031
        },
        {
          "name": "B2",
          "midi": 47,
          "time": 104.99989500000024,
          "velocity": 0.984251968503937,
          "duration": 0.29861081250000154
        },
        {
          "name": "D3",
          "midi": 50,
          "time": 105.33322800000023,
          "velocity": 0.984251968503937,
          "duration": 0.29861081250000154
        },
        {
          "name": "E3",
          "midi": 52,
          "time": 105.66656100000023,
          "velocity": 0.984251968503937,
          "duration": 0.29861081250000154
        },
        {
          "name": "E2",
          "midi": 40,
          "time": 105.99989400000022,
          "velocity": 0.905511811023622,
          "duration": 0.8194436250000052
        },
        {
          "name": "E2",
          "midi": 40,
          "time": 106.88878200000023,
          "velocity": 0.905511811023622,
          "duration": 0.09027768750000575
        },
        {
          "name": "B1",
          "midi": 35,
          "time": 106.99989300000024,
          "velocity": 0.905511811023622,
          "duration": 0.9236101875000031
        },
        {
          "name": "E2",
          "midi": 40,
          "time": 107.99989200000024,
          "velocity": 0.905511811023622,
          "duration": 0.8194436250000052
        },
        {
          "name": "E2",
          "midi": 40,
          "time": 108.88878000000025,
          "velocity": 0.905511811023622,
          "duration": 0.09027768750000575
        },
        {
          "name": "B1",
          "midi": 35,
          "time": 108.99989100000026,
          "velocity": 0.905511811023622,
          "duration": 0.8194436250000052
        },
        {
          "name": "B1",
          "midi": 35,
          "time": 109.88877900000027,
          "velocity": 0.905511811023622,
          "duration": 0.09027768750000575
        },
        {
          "name": "E2",
          "midi": 40,
          "time": 109.99989000000028,
          "velocity": 0.905511811023622,
          "duration": 0.8194436250000052
        },
        {
          "name": "E2",
          "midi": 40,
          "time": 110.88877800000029,
          "velocity": 0.905511811023622,
          "duration": 0.09027768750000575
        },
        {
          "name": "B1",
          "midi": 35,
          "time": 110.9998890000003,
          "velocity": 0.905511811023622,
          "duration": 0.8194436250000052
        },
        {
          "name": "B1",
          "midi": 35,
          "time": 111.8887770000003,
          "velocity": 0.905511811023622,
          "duration": 0.09027768750000575
        },
        {
          "name": "E2",
          "midi": 40,
          "time": 111.99988800000031,
          "velocity": 0.905511811023622,
          "duration": 0.9236101875000031
        },
        {
          "name": "B2",
          "midi": 47,
          "time": 112.99988700000031,
          "velocity": 0.984251968503937,
          "duration": 0.29861081250000154
        },
        {
          "name": "D3",
          "midi": 50,
          "time": 113.33322000000031,
          "velocity": 0.984251968503937,
          "duration": 0.29861081250000154
        },
        {
          "name": "E3",
          "midi": 52,
          "time": 113.6665530000003,
          "velocity": 0.984251968503937,
          "duration": 0.29861081250000154
        },
        {
          "name": "E2",
          "midi": 40,
          "time": 113.9998860000003,
          "velocity": 0.905511811023622,
          "duration": 0.8194436250000052
        },
        {
          "name": "E2",
          "midi": 40,
          "time": 114.88877400000031,
          "velocity": 0.905511811023622,
          "duration": 0.09027768750000575
        },
        {
          "name": "B1",
          "midi": 35,
          "time": 114.99988500000032,
          "velocity": 0.905511811023622,
          "duration": 0.29861081250000154
        },
        {
          "name": "D#2",
          "midi": 39,
          "time": 115.33321800000031,
          "velocity": 0.905511811023622,
          "duration": 0.29861081250000154
        },
        {
          "name": "B1",
          "midi": 35,
          "time": 115.66655100000031,
          "velocity": 0.905511811023622,
          "duration": 0.29861081250000154
        },
        {
          "name": "E2",
          "midi": 40,
          "time": 115.9998840000003,
          "velocity": 0.905511811023622,
          "duration": 0.8194436250000052
        },
        {
          "name": "E2",
          "midi": 40,
          "time": 116.88877200000032,
          "velocity": 0.905511811023622,
          "duration": 0.09027768750000575
        },
        {
          "name": "B1",
          "midi": 35,
          "time": 116.99988300000032,
          "velocity": 0.905511811023622,
          "duration": 0.8194436250000052
        },
        {
          "name": "B1",
          "midi": 35,
          "time": 117.88877100000033,
          "velocity": 0.905511811023622,
          "duration": 0.09027768750000575
        },
        {
          "name": "E2",
          "midi": 40,
          "time": 117.99988200000034,
          "velocity": 0.905511811023622,
          "duration": 0.8194436250000052
        },
        {
          "name": "E2",
          "midi": 40,
          "time": 118.88877000000035,
          "velocity": 0.905511811023622,
          "duration": 0.09027768750000575
        },
        {
          "name": "B1",
          "midi": 35,
          "time": 118.99988100000036,
          "velocity": 0.905511811023622,
          "duration": 0.8194436250000052
        },
        {
          "name": "D#2",
          "midi": 39,
          "time": 119.88876900000037,
          "velocity": 0.905511811023622,
          "duration": 0.09027768750000575
        },
        {
          "name": "E2",
          "midi": 40,
          "time": 119.99988000000037,
          "velocity": 0.905511811023622,
          "duration": 0.9236101875000031
        },
        {
          "name": "A2",
          "midi": 45,
          "time": 120.99987900000038,
          "velocity": 0.984251968503937,
          "duration": 0.29861081250000154
        },
        {
          "name": "A#2",
          "midi": 46,
          "time": 121.33321200000037,
          "velocity": 0.984251968503937,
          "duration": 0.29861081250000154
        },
        {
          "name": "B2",
          "midi": 47,
          "time": 121.66654500000037,
          "velocity": 0.984251968503937,
          "duration": 0.29861081250000154
        },
        {
          "name": "E2",
          "midi": 40,
          "time": 121.99987800000036,
          "velocity": 0.905511811023622,
          "duration": 5.993049562500005
        }
      ],
      "controlChanges": {
        "7": [
          {
            "number": 7,
            "time": 0.333333,
            "value": 0.7874015748031497
          }
        ],
        "10": [
          {
            "number": 10,
            "time": 0.3402774375,
            "value": 0.3937007874015748
          }
        ],
        "32": [
          {
            "number": 32,
            "time": 0.36111075000000004,
            "value": 0
          }
        ],
        "91": [
          {
            "number": 91,
            "time": 0.347221875,
            "value": 0.15748031496062992
          }
        ],
        "93": [
          {
            "number": 93,
            "time": 0.3541663125,
            "value": 0.13385826771653545
          }
        ],
        "121": [
          {
            "number": 121,
            "time": 0.333333,
            "value": 0
          }
        ]
      },
      "id": 1,
      "name": "Fretless Bass",
      "instrumentNumber": 35,
      "instrument": "fretless bass",
      "instrumentFamily": "bass",
      "channelNumber": 0,
      "isPercussion": false
    },
    {
      "startTime": 19.99998,
      "duration": 114.99294056250001,
      "length": 136,
      "notes": [
        {
          "name": "B4",
          "midi": 71,
          "time": 19.99998,
          "velocity": 0.8661417322834646,
          "duration": 0.9930545624999993
        },
        {
          "name": "B4",
          "midi": 71,
          "time": 20.999979,
          "velocity": 0.8661417322834646,
          "duration": 0.21527756249999896
        },
        {
          "name": "C#5",
          "midi": 73,
          "time": 21.222201,
          "velocity": 0.8661417322834646,
          "duration": 0.10416656250000145
        },
        {
          "name": "B4",
          "midi": 71,
          "time": 21.333312,
          "velocity": 0.8661417322834646,
          "duration": 0.32638856250000003
        },
        {
          "name": "A4",
          "midi": 69,
          "time": 21.666645,
          "velocity": 0.8661417322834646,
          "duration": 0.21527756249999896
        },
        {
          "name": "G#4",
          "midi": 68,
          "time": 21.888866999999998,
          "velocity": 0.8661417322834646,
          "duration": 1.1041655625000004
        },
        {
          "name": "F#4",
          "midi": 66,
          "time": 22.999976999999998,
          "velocity": 0.8661417322834646,
          "duration": 0.32638856250000003
        },
        {
          "name": "A4",
          "midi": 69,
          "time": 23.333309999999997,
          "velocity": 0.8661417322834646,
          "duration": 0.21527756249999896
        },
        {
          "name": "G#4",
          "midi": 68,
          "time": 23.555531999999996,
          "velocity": 0.8661417322834646,
          "duration": 0.4374995625000011
        },
        {
          "name": "E4",
          "midi": 64,
          "time": 23.999975999999997,
          "velocity": 0.8661417322834646,
          "duration": 0.9930545624999993
        },
        {
          "name": "D4",
          "midi": 62,
          "time": 24.999974999999996,
          "velocity": 0.8661417322834646,
          "duration": 0.32638856250000003
        },
        {
          "name": "A4",
          "midi": 69,
          "time": 25.333307999999995,
          "velocity": 0.8661417322834646,
          "duration": 0.32638856250000003
        },
        {
          "name": "C#4",
          "midi": 61,
          "time": 25.666640999999995,
          "velocity": 0.8661417322834646,
          "duration": 0.32638856250000003
        },
        {
          "name": "B3",
          "midi": 59,
          "time": 25.999973999999995,
          "velocity": 0.8661417322834646,
          "duration": 0.9930545624999993
        },
        {
          "name": "B4",
          "midi": 71,
          "time": 27.999971999999993,
          "velocity": 0.8661417322834646,
          "duration": 0.9930545624999993
        },
        {
          "name": "B4",
          "midi": 71,
          "time": 28.99997099999999,
          "velocity": 0.8661417322834646,
          "duration": 0.21527756249999896
        },
        {
          "name": "C#5",
          "midi": 73,
          "time": 29.22219299999999,
          "velocity": 0.8661417322834646,
          "duration": 0.10416656250000145
        },
        {
          "name": "B4",
          "midi": 71,
          "time": 29.33330399999999,
          "velocity": 0.8661417322834646,
          "duration": 0.32638856250000003
        },
        {
          "name": "A4",
          "midi": 69,
          "time": 29.66663699999999,
          "velocity": 0.8661417322834646,
          "duration": 0.32638856250000003
        },
        {
          "name": "G#4",
          "midi": 68,
          "time": 29.99996999999999,
          "velocity": 0.8661417322834646,
          "duration": 0.9930545624999993
        },
        {
          "name": "F#4",
          "midi": 66,
          "time": 30.99996899999999,
          "velocity": 0.8661417322834646,
          "duration": 0.32638856250000003
        },
        {
          "name": "A4",
          "midi": 69,
          "time": 31.33330199999999,
          "velocity": 0.8661417322834646,
          "duration": 0.32638856250000003
        },
        {
          "name": "G#4",
          "midi": 68,
          "time": 31.66663499999999,
          "velocity": 0.8661417322834646,
          "duration": 0.32638856250000003
        },
        {
          "name": "E4",
          "midi": 64,
          "time": 31.99996799999999,
          "velocity": 0.8661417322834646,
          "duration": 0.9930545624999993
        },
        {
          "name": "D4",
          "midi": 62,
          "time": 32.99996699999999,
          "velocity": 0.8661417322834646,
          "duration": 0.32638856250000003
        },
        {
          "name": "A4",
          "midi": 69,
          "time": 33.333299999999994,
          "velocity": 0.8661417322834646,
          "duration": 0.32638856250000003
        },
        {
          "name": "C#4",
          "midi": 61,
          "time": 33.666633,
          "velocity": 0.8661417322834646,
          "duration": 0.32638856250000003
        },
        {
          "name": "B3",
          "midi": 59,
          "time": 33.999966,
          "velocity": 0.8661417322834646,
          "duration": 0.9930545624999993
        },
        {
          "name": "B4",
          "midi": 71,
          "time": 35.666631,
          "velocity": 0.8661417322834646,
          "duration": 0.32638856250000003
        },
        {
          "name": "G5",
          "midi": 79,
          "time": 35.999964000000006,
          "velocity": 0.8661417322834646,
          "duration": 0.32638856250000003
        },
        {
          "name": "G5",
          "midi": 79,
          "time": 36.33329700000001,
          "velocity": 0.8661417322834646,
          "duration": 0.32638856250000003
        },
        {
          "name": "G5",
          "midi": 79,
          "time": 36.66663000000001,
          "velocity": 0.8661417322834646,
          "duration": 0.32638856250000003
        },
        {
          "name": "G5",
          "midi": 79,
          "time": 36.999963000000015,
          "velocity": 0.8661417322834646,
          "duration": 0.32638856250000003
        },
        {
          "name": "F#5",
          "midi": 78,
          "time": 37.33329600000002,
          "velocity": 0.8661417322834646,
          "duration": 0.32638856250000003
        },
        {
          "name": "F#5",
          "midi": 78,
          "time": 37.66662900000002,
          "velocity": 0.8661417322834646,
          "duration": 0.32638856250000003
        },
        {
          "name": "F#5",
          "midi": 78,
          "time": 37.999962000000025,
          "velocity": 0.8661417322834646,
          "duration": 0.32638856250000003
        },
        {
          "name": "E5",
          "midi": 76,
          "time": 38.33329500000003,
          "velocity": 0.8661417322834646,
          "duration": 0.32638856250000003
        },
        {
          "name": "E5",
          "midi": 76,
          "time": 38.66662800000003,
          "velocity": 0.8661417322834646,
          "duration": 0.32638856250000003
        },
        {
          "name": "D5",
          "midi": 74,
          "time": 38.999961000000035,
          "velocity": 0.8661417322834646,
          "duration": 0.32638856250000003
        },
        {
          "name": "E5",
          "midi": 76,
          "time": 39.33329400000004,
          "velocity": 0.8661417322834646,
          "duration": 0.32638856250000003
        },
        {
          "name": "D5",
          "midi": 74,
          "time": 39.66662700000004,
          "velocity": 0.8661417322834646,
          "duration": 0.21527756249999896
        },
        {
          "name": "E5",
          "midi": 76,
          "time": 39.88884900000004,
          "velocity": 0.8661417322834646,
          "duration": 1.1041655625000004
        },
        {
          "name": "A4",
          "midi": 69,
          "time": 43.666623000000044,
          "velocity": 0.8661417322834646,
          "duration": 0.32638856250000003
        },
        {
          "name": "G5",
          "midi": 79,
          "time": 43.99995600000005,
          "velocity": 0.8661417322834646,
          "duration": 0.32638856250000003
        },
        {
          "name": "G5",
          "midi": 79,
          "time": 44.33328900000005,
          "velocity": 0.8661417322834646,
          "duration": 0.32638856250000003
        },
        {
          "name": "G5",
          "midi": 79,
          "time": 44.666622000000054,
          "velocity": 0.8661417322834646,
          "duration": 0.32638856250000003
        },
        {
          "name": "G5",
          "midi": 79,
          "time": 44.99995500000006,
          "velocity": 0.8661417322834646,
          "duration": 0.32638856250000003
        },
        {
          "name": "F#5",
          "midi": 78,
          "time": 45.33328800000006,
          "velocity": 0.8661417322834646,
          "duration": 0.21527756249999896
        },
        {
          "name": "F#5",
          "midi": 78,
          "time": 45.55551000000006,
          "velocity": 0.8661417322834646,
          "duration": 0.4374995625000011
        },
        {
          "name": "F#5",
          "midi": 78,
          "time": 45.999954000000066,
          "velocity": 0.8661417322834646,
          "duration": 0.32638856250000003
        },
        {
          "name": "E5",
          "midi": 76,
          "time": 46.33328700000007,
          "velocity": 0.8661417322834646,
          "duration": 0.32638856250000003
        },
        {
          "name": "E5",
          "midi": 76,
          "time": 46.66662000000007,
          "velocity": 0.8661417322834646,
          "duration": 0.32638856250000003
        },
        {
          "name": "D5",
          "midi": 74,
          "time": 46.999953000000076,
          "velocity": 0.8661417322834646,
          "duration": 0.21527756249999896
        },
        {
          "name": "E5",
          "midi": 76,
          "time": 47.22217500000008,
          "velocity": 0.8661417322834646,
          "duration": 0.4374995625000011
        },
        {
          "name": "D5",
          "midi": 74,
          "time": 47.66661900000008,
          "velocity": 0.8661417322834646,
          "duration": 0.21527756249999896
        },
        {
          "name": "E5",
          "midi": 76,
          "time": 47.888841000000085,
          "velocity": 0.8661417322834646,
          "duration": 1.1041655625000004
        },
        {
          "name": "B4",
          "midi": 71,
          "time": 51.99994800000009,
          "velocity": 0.8661417322834646,
          "duration": 0.9930545624999993
        },
        {
          "name": "C#5",
          "midi": 73,
          "time": 52.99994700000009,
          "velocity": 0.8661417322834646,
          "duration": 0.32638856250000003
        },
        {
          "name": "B4",
          "midi": 71,
          "time": 53.333280000000094,
          "velocity": 0.8661417322834646,
          "duration": 0.32638856250000003
        },
        {
          "name": "A4",
          "midi": 69,
          "time": 53.6666130000001,
          "velocity": 0.8661417322834646,
          "duration": 0.32638856250000003
        },
        {
          "name": "G#4",
          "midi": 68,
          "time": 53.9999460000001,
          "velocity": 0.8661417322834646,
          "duration": 0.9930545624999993
        },
        {
          "name": "F#4",
          "midi": 66,
          "time": 54.9999450000001,
          "velocity": 0.8661417322834646,
          "duration": 0.32638856250000003
        },
        {
          "name": "A4",
          "midi": 69,
          "time": 55.33327800000011,
          "velocity": 0.8661417322834646,
          "duration": 0.32638856250000003
        },
        {
          "name": "G#4",
          "midi": 68,
          "time": 55.66661100000011,
          "velocity": 0.8661417322834646,
          "duration": 0.32638856250000003
        },
        {
          "name": "E4",
          "midi": 64,
          "time": 55.99994400000011,
          "velocity": 0.8661417322834646,
          "duration": 0.9930545624999993
        },
        {
          "name": "D4",
          "midi": 62,
          "time": 56.999943000000115,
          "velocity": 0.8661417322834646,
          "duration": 0.32638856250000003
        },
        {
          "name": "A4",
          "midi": 69,
          "time": 57.33327600000012,
          "velocity": 0.8661417322834646,
          "duration": 0.32638856250000003
        },
        {
          "name": "C#4",
          "midi": 61,
          "time": 57.66660900000012,
          "velocity": 0.8661417322834646,
          "duration": 0.32638856250000003
        },
        {
          "name": "B3",
          "midi": 59,
          "time": 57.999942000000125,
          "velocity": 0.8661417322834646,
          "duration": 0.9930545624999993
        },
        {
          "name": "B4",
          "midi": 71,
          "time": 59.99994000000012,
          "velocity": 0.8661417322834646,
          "duration": 0.9930545624999993
        },
        {
          "name": "C#5",
          "midi": 73,
          "time": 60.999939000000126,
          "velocity": 0.8661417322834646,
          "duration": 0.32638856250000003
        },
        {
          "name": "B4",
          "midi": 71,
          "time": 61.33327200000013,
          "velocity": 0.8661417322834646,
          "duration": 0.32638856250000003
        },
        {
          "name": "A4",
          "midi": 69,
          "time": 61.66660500000013,
          "velocity": 0.8661417322834646,
          "duration": 0.32638856250000003
        },
        {
          "name": "G#4",
          "midi": 68,
          "time": 61.999938000000135,
          "velocity": 0.8661417322834646,
          "duration": 0.9930545624999993
        },
        {
          "name": "F#4",
          "midi": 66,
          "time": 62.99993700000014,
          "velocity": 0.8661417322834646,
          "duration": 0.32638856250000003
        },
        {
          "name": "A4",
          "midi": 69,
          "time": 63.33327000000014,
          "velocity": 0.8661417322834646,
          "duration": 0.32638856250000003
        },
        {
          "name": "G#4",
          "midi": 68,
          "time": 63.666603000000144,
          "velocity": 0.8661417322834646,
          "duration": 0.32638856250000003
        },
        {
          "name": "E4",
          "midi": 64,
          "time": 63.99993600000015,
          "velocity": 0.8661417322834646,
          "duration": 0.9930545625000065
        },
        {
          "name": "D4",
          "midi": 62,
          "time": 64.99993500000015,
          "velocity": 0.8661417322834646,
          "duration": 0.32638856250000003
        },
        {
          "name": "A4",
          "midi": 69,
          "time": 65.33326800000015,
          "velocity": 0.8661417322834646,
          "duration": 0.32638856250000003
        },
        {
          "name": "C#4",
          "midi": 61,
          "time": 65.66660100000014,
          "velocity": 0.8661417322834646,
          "duration": 0.21527756250000607
        },
        {
          "name": "B3",
          "midi": 59,
          "time": 65.88882300000014,
          "velocity": 0.8661417322834646,
          "duration": 1.1041655625000004
        },
        {
          "name": "B4",
          "midi": 71,
          "time": 83.66658300000014,
          "velocity": 0.8661417322834646,
          "duration": 0.32638856250000003
        },
        {
          "name": "G5",
          "midi": 79,
          "time": 83.99991600000014,
          "velocity": 0.8661417322834646,
          "duration": 0.32638856250000003
        },
        {
          "name": "G5",
          "midi": 79,
          "time": 84.33324900000014,
          "velocity": 0.8661417322834646,
          "duration": 0.32638856250000003
        },
        {
          "name": "G5",
          "midi": 79,
          "time": 84.66658200000013,
          "velocity": 0.8661417322834646,
          "duration": 0.32638856250000003
        },
        {
          "name": "G5",
          "midi": 79,
          "time": 84.99991500000013,
          "velocity": 0.8661417322834646,
          "duration": 0.32638856250000003
        },
        {
          "name": "F#5",
          "midi": 78,
          "time": 85.33324800000013,
          "velocity": 0.8661417322834646,
          "duration": 0.32638856250000003
        },
        {
          "name": "F#5",
          "midi": 78,
          "time": 85.66658100000012,
          "velocity": 0.8661417322834646,
          "duration": 0.32638856250000003
        },
        {
          "name": "F#5",
          "midi": 78,
          "time": 85.99991400000012,
          "velocity": 0.8661417322834646,
          "duration": 0.32638856250000003
        },
        {
          "name": "E5",
          "midi": 76,
          "time": 86.33324700000011,
          "velocity": 0.8661417322834646,
          "duration": 0.32638856250000003
        },
        {
          "name": "E5",
          "midi": 76,
          "time": 86.66658000000011,
          "velocity": 0.8661417322834646,
          "duration": 0.32638856250000003
        },
        {
          "name": "D5",
          "midi": 74,
          "time": 86.9999130000001,
          "velocity": 0.8661417322834646,
          "duration": 0.32638856250000003
        },
        {
          "name": "E5",
          "midi": 76,
          "time": 87.3332460000001,
          "velocity": 0.8661417322834646,
          "duration": 0.32638856250000003
        },
        {
          "name": "D5",
          "midi": 74,
          "time": 87.6665790000001,
          "velocity": 0.8661417322834646,
          "duration": 0.21527756250000607
        },
        {
          "name": "E5",
          "midi": 76,
          "time": 87.8888010000001,
          "velocity": 0.8661417322834646,
          "duration": 1.1041655625000004
        },
        {
          "name": "A4",
          "midi": 69,
          "time": 91.6665750000001,
          "velocity": 0.8661417322834646,
          "duration": 0.32638856250000003
        },
        {
          "name": "G5",
          "midi": 79,
          "time": 91.99990800000009,
          "velocity": 0.8661417322834646,
          "duration": 0.32638856250000003
        },
        {
          "name": "G5",
          "midi": 79,
          "time": 92.33324100000009,
          "velocity": 0.8661417322834646,
          "duration": 0.32638856250000003
        },
        {
          "name": "G5",
          "midi": 79,
          "time": 92.66657400000008,
          "velocity": 0.8661417322834646,
          "duration": 0.32638856250000003
        },
        {
          "name": "G5",
          "midi": 79,
          "time": 92.99990700000008,
          "velocity": 0.8661417322834646,
          "duration": 0.32638856250000003
        },
        {
          "name": "F#5",
          "midi": 78,
          "time": 93.33324000000007,
          "velocity": 0.8661417322834646,
          "duration": 0.21527756250000607
        },
        {
          "name": "F#5",
          "midi": 78,
          "time": 93.55546200000008,
          "velocity": 0.8661417322834646,
          "duration": 0.437499562499994
        },
        {
          "name": "F#5",
          "midi": 78,
          "time": 93.99990600000007,
          "velocity": 0.8661417322834646,
          "duration": 0.32638856250000003
        },
        {
          "name": "E5",
          "midi": 76,
          "time": 94.33323900000006,
          "velocity": 0.8661417322834646,
          "duration": 0.32638856250000003
        },
        {
          "name": "E5",
          "midi": 76,
          "time": 94.66657200000006,
          "velocity": 0.8661417322834646,
          "duration": 0.32638856250000003
        },
        {
          "name": "D5",
          "midi": 74,
          "time": 94.99990500000006,
          "velocity": 0.8661417322834646,
          "duration": 0.21527756250000607
        },
        {
          "name": "E5",
          "midi": 76,
          "time": 95.22212700000006,
          "velocity": 0.8661417322834646,
          "duration": 0.437499562499994
        },
        {
          "name": "D5",
          "midi": 74,
          "time": 95.66657100000005,
          "velocity": 0.8661417322834646,
          "duration": 0.21527756250000607
        },
        {
          "name": "E5",
          "midi": 76,
          "time": 95.88879300000005,
          "velocity": 0.8661417322834646,
          "duration": 1.1041655625000004
        },
        {
          "name": "B4",
          "midi": 71,
          "time": 99.99990000000005,
          "velocity": 0.8661417322834646,
          "duration": 0.9930545625000065
        },
        {
          "name": "C#5",
          "midi": 73,
          "time": 100.99989900000006,
          "velocity": 0.8661417322834646,
          "duration": 0.32638856250000003
        },
        {
          "name": "B4",
          "midi": 71,
          "time": 101.33323200000005,
          "velocity": 0.8661417322834646,
          "duration": 0.32638856250000003
        },
        {
          "name": "A4",
          "midi": 69,
          "time": 101.66656500000005,
          "velocity": 0.8661417322834646,
          "duration": 0.32638856250000003
        },
        {
          "name": "G#4",
          "midi": 68,
          "time": 101.99989800000004,
          "velocity": 0.8661417322834646,
          "duration": 0.9930545625000065
        },
        {
          "name": "F#4",
          "midi": 66,
          "time": 102.99989700000005,
          "velocity": 0.8661417322834646,
          "duration": 0.32638856250000003
        },
        {
          "name": "A4",
          "midi": 69,
          "time": 103.33323000000004,
          "velocity": 0.8661417322834646,
          "duration": 0.32638856250000003
        },
        {
          "name": "G#4",
          "midi": 68,
          "time": 103.66656300000004,
          "velocity": 0.8661417322834646,
          "duration": 0.32638856250000003
        },
        {
          "name": "E4",
          "midi": 64,
          "time": 103.99989600000004,
          "velocity": 0.8661417322834646,
          "duration": 0.9930545625000065
        },
        {
          "name": "D4",
          "midi": 62,
          "time": 104.99989500000004,
          "velocity": 0.8661417322834646,
          "duration": 0.32638856250000003
        },
        {
          "name": "A4",
          "midi": 69,
          "time": 105.33322800000003,
          "velocity": 0.8661417322834646,
          "duration": 0.32638856250000003
        },
        {
          "name": "C#4",
          "midi": 61,
          "time": 105.66656100000003,
          "velocity": 0.8661417322834646,
          "duration": 0.32638856250000003
        },
        {
          "name": "B3",
          "midi": 59,
          "time": 105.99989400000003,
          "velocity": 0.8661417322834646,
          "duration": 0.9930545625000065
        },
        {
          "name": "B4",
          "midi": 71,
          "time": 107.99989200000003,
          "velocity": 0.8661417322834646,
          "duration": 0.9930545625000065
        },
        {
          "name": "C#5",
          "midi": 73,
          "time": 108.99989100000003,
          "velocity": 0.8661417322834646,
          "duration": 0.32638856250000003
        },
        {
          "name": "B4",
          "midi": 71,
          "time": 109.33322400000003,
          "velocity": 0.8661417322834646,
          "duration": 0.32638856250000003
        },
        {
          "name": "A4",
          "midi": 69,
          "time": 109.66655700000003,
          "velocity": 0.8661417322834646,
          "duration": 0.32638856250000003
        },
        {
          "name": "G#4",
          "midi": 68,
          "time": 109.99989000000002,
          "velocity": 0.8661417322834646,
          "duration": 0.9930545625000065
        },
        {
          "name": "F#4",
          "midi": 66,
          "time": 110.99988900000002,
          "velocity": 0.8661417322834646,
          "duration": 0.32638856250000003
        },
        {
          "name": "A4",
          "midi": 69,
          "time": 111.33322200000002,
          "velocity": 0.8661417322834646,
          "duration": 0.32638856250000003
        },
        {
          "name": "G#4",
          "midi": 68,
          "time": 111.66655500000002,
          "velocity": 0.8661417322834646,
          "duration": 0.32638856250000003
        },
        {
          "name": "E4",
          "midi": 64,
          "time": 111.99988800000001,
          "velocity": 0.8661417322834646,
          "duration": 0.9930545625000065
        },
        {
          "name": "D4",
          "midi": 62,
          "time": 112.99988700000002,
          "velocity": 0.8661417322834646,
          "duration": 0.32638856250000003
        },
        {
          "name": "A4",
          "midi": 69,
          "time": 113.33322000000001,
          "velocity": 0.8661417322834646,
          "duration": 0.32638856250000003
        },
        {
          "name": "C#4",
          "midi": 61,
          "time": 113.66655300000001,
          "velocity": 0.8661417322834646,
          "duration": 0.32638856250000003
        },
        {
          "name": "B3",
          "midi": 59,
          "time": 113.999886,
          "velocity": 0.8661417322834646,
          "duration": 0.9930545625000065
        }
      ],
      "controlChanges": {
        "7": [
          {
            "number": 7,
            "time": 0.333333,
            "value": 1
          }
        ],
        "10": [
          {
            "number": 10,
            "time": 0.3402774375,
            "value": 0.3700787401574803
          }
        ],
        "32": [
          {
            "number": 32,
            "time": 0.36111075000000004,
            "value": 0
          }
        ],
        "91": [
          {
            "number": 91,
            "time": 0.347221875,
            "value": 0.3543307086614173
          }
        ],
        "93": [
          {
            "number": 93,
            "time": 0.3541663125,
            "value": 0.07874015748031496
          }
        ],
        "121": [
          {
            "number": 121,
            "time": 0.333333,
            "value": 0
          }
        ]
      },
      "id": 2,
      "name": "Flute Lead",
      "instrumentNumber": 73,
      "instrument": "flute",
      "instrumentFamily": "pipe",
      "channelNumber": 1,
      "isPercussion": false
    },
    {
      "startTime": 35.666631,
      "duration": 96.9929585625,
      "length": 56,
      "notes": [
        {
          "name": "E4",
          "midi": 64,
          "time": 35.666631,
          "velocity": 0.8661417322834646,
          "duration": 0.32638856250000003
        },
        {
          "name": "B4",
          "midi": 71,
          "time": 35.999964000000006,
          "velocity": 0.8661417322834646,
          "duration": 0.32638856250000003
        },
        {
          "name": "B4",
          "midi": 71,
          "time": 36.33329700000001,
          "velocity": 0.8661417322834646,
          "duration": 0.32638856250000003
        },
        {
          "name": "B4",
          "midi": 71,
          "time": 36.66663000000001,
          "velocity": 0.8661417322834646,
          "duration": 0.32638856250000003
        },
        {
          "name": "B4",
          "midi": 71,
          "time": 36.999963000000015,
          "velocity": 0.8661417322834646,
          "duration": 0.32638856250000003
        },
        {
          "name": "A4",
          "midi": 69,
          "time": 37.33329600000002,
          "velocity": 0.8661417322834646,
          "duration": 0.32638856250000003
        },
        {
          "name": "A4",
          "midi": 69,
          "time": 37.66662900000002,
          "velocity": 0.8661417322834646,
          "duration": 0.32638856250000003
        },
        {
          "name": "A4",
          "midi": 69,
          "time": 37.999962000000025,
          "velocity": 0.8661417322834646,
          "duration": 0.32638856250000003
        },
        {
          "name": "G4",
          "midi": 67,
          "time": 38.33329500000003,
          "velocity": 0.8661417322834646,
          "duration": 0.32638856250000003
        },
        {
          "name": "G4",
          "midi": 67,
          "time": 38.66662800000003,
          "velocity": 0.8661417322834646,
          "duration": 0.32638856250000003
        },
        {
          "name": "G4",
          "midi": 67,
          "time": 38.999961000000035,
          "velocity": 0.8661417322834646,
          "duration": 0.32638856250000003
        },
        {
          "name": "G4",
          "midi": 67,
          "time": 39.33329400000004,
          "velocity": 0.8661417322834646,
          "duration": 0.32638856250000003
        },
        {
          "name": "G4",
          "midi": 67,
          "time": 39.66662700000004,
          "velocity": 0.8661417322834646,
          "duration": 0.21527756249999896
        },
        {
          "name": "A4",
          "midi": 69,
          "time": 39.88884900000004,
          "velocity": 0.8661417322834646,
          "duration": 1.1041655625000004
        },
        {
          "name": "E4",
          "midi": 64,
          "time": 43.666623000000044,
          "velocity": 0.8661417322834646,
          "duration": 0.32638856250000003
        },
        {
          "name": "B4",
          "midi": 71,
          "time": 43.99995600000005,
          "velocity": 0.8661417322834646,
          "duration": 0.32638856250000003
        },
        {
          "name": "B4",
          "midi": 71,
          "time": 44.33328900000005,
          "velocity": 0.8661417322834646,
          "duration": 0.32638856250000003
        },
        {
          "name": "B4",
          "midi": 71,
          "time": 44.666622000000054,
          "velocity": 0.8661417322834646,
          "duration": 0.32638856250000003
        },
        {
          "name": "B4",
          "midi": 71,
          "time": 44.99995500000006,
          "velocity": 0.8661417322834646,
          "duration": 0.32638856250000003
        },
        {
          "name": "A4",
          "midi": 69,
          "time": 45.33328800000006,
          "velocity": 0.8661417322834646,
          "duration": 0.21527756249999896
        },
        {
          "name": "A4",
          "midi": 69,
          "time": 45.55551000000006,
          "velocity": 0.8661417322834646,
          "duration": 0.4374995625000011
        },
        {
          "name": "A4",
          "midi": 69,
          "time": 45.999954000000066,
          "velocity": 0.8661417322834646,
          "duration": 0.32638856250000003
        },
        {
          "name": "G4",
          "midi": 67,
          "time": 46.33328700000007,
          "velocity": 0.8661417322834646,
          "duration": 0.32638856250000003
        },
        {
          "name": "G4",
          "midi": 67,
          "time": 46.66662000000007,
          "velocity": 0.8661417322834646,
          "duration": 0.32638856250000003
        },
        {
          "name": "G4",
          "midi": 67,
          "time": 46.999953000000076,
          "velocity": 0.8661417322834646,
          "duration": 0.21527756249999896
        },
        {
          "name": "A4",
          "midi": 69,
          "time": 47.22217500000008,
          "velocity": 0.8661417322834646,
          "duration": 0.4374995625000011
        },
        {
          "name": "G4",
          "midi": 67,
          "time": 47.66661900000008,
          "velocity": 0.8661417322834646,
          "duration": 0.21527756249999896
        },
        {
          "name": "A4",
          "midi": 69,
          "time": 47.888841000000085,
          "velocity": 0.8661417322834646,
          "duration": 1.1041655625000004
        },
        {
          "name": "E4",
          "midi": 64,
          "time": 83.66658300000009,
          "velocity": 0.8661417322834646,
          "duration": 0.32638856250000003
        },
        {
          "name": "B4",
          "midi": 71,
          "time": 83.99991600000008,
          "velocity": 0.8661417322834646,
          "duration": 0.32638856250000003
        },
        {
          "name": "B4",
          "midi": 71,
          "time": 84.33324900000008,
          "velocity": 0.8661417322834646,
          "duration": 0.32638856250000003
        },
        {
          "name": "B4",
          "midi": 71,
          "time": 84.66658200000008,
          "velocity": 0.8661417322834646,
          "duration": 0.32638856250000003
        },
        {
          "name": "B4",
          "midi": 71,
          "time": 84.99991500000007,
          "velocity": 0.8661417322834646,
          "duration": 0.32638856250000003
        },
        {
          "name": "A4",
          "midi": 69,
          "time": 85.33324800000007,
          "velocity": 0.8661417322834646,
          "duration": 0.32638856250000003
        },
        {
          "name": "A4",
          "midi": 69,
          "time": 85.66658100000006,
          "velocity": 0.8661417322834646,
          "duration": 0.32638856250000003
        },
        {
          "name": "A4",
          "midi": 69,
          "time": 85.99991400000006,
          "velocity": 0.8661417322834646,
          "duration": 0.32638856250000003
        },
        {
          "name": "G4",
          "midi": 67,
          "time": 86.33324700000006,
          "velocity": 0.8661417322834646,
          "duration": 0.32638856250000003
        },
        {
          "name": "G4",
          "midi": 67,
          "time": 86.66658000000005,
          "velocity": 0.8661417322834646,
          "duration": 0.32638856250000003
        },
        {
          "name": "G4",
          "midi": 67,
          "time": 86.99991300000005,
          "velocity": 0.8661417322834646,
          "duration": 0.32638856250000003
        },
        {
          "name": "G4",
          "midi": 67,
          "time": 87.33324600000005,
          "velocity": 0.8661417322834646,
          "duration": 0.32638856250000003
        },
        {
          "name": "G4",
          "midi": 67,
          "time": 87.66657900000004,
          "velocity": 0.8661417322834646,
          "duration": 0.21527756250000607
        },
        {
          "name": "A4",
          "midi": 69,
          "time": 87.88880100000004,
          "velocity": 0.8661417322834646,
          "duration": 1.1041655625000004
        },
        {
          "name": "E4",
          "midi": 64,
          "time": 91.66657500000004,
          "velocity": 0.8661417322834646,
          "duration": 0.32638856250000003
        },
        {
          "name": "B4",
          "midi": 71,
          "time": 91.99990800000003,
          "velocity": 0.8661417322834646,
          "duration": 0.32638856250000003
        },
        {
          "name": "B4",
          "midi": 71,
          "time": 92.33324100000003,
          "velocity": 0.8661417322834646,
          "duration": 0.32638856250000003
        },
        {
          "name": "B4",
          "midi": 71,
          "time": 92.66657400000003,
          "velocity": 0.8661417322834646,
          "duration": 0.32638856250000003
        },
        {
          "name": "B4",
          "midi": 71,
          "time": 92.99990700000002,
          "velocity": 0.8661417322834646,
          "duration": 0.32638856250000003
        },
        {
          "name": "A4",
          "midi": 69,
          "time": 93.33324000000002,
          "velocity": 0.8661417322834646,
          "duration": 0.21527756250000607
        },
        {
          "name": "A4",
          "midi": 69,
          "time": 93.55546200000002,
          "velocity": 0.8661417322834646,
          "duration": 0.437499562499994
        },
        {
          "name": "A4",
          "midi": 69,
          "time": 93.99990600000001,
          "velocity": 0.8661417322834646,
          "duration": 0.32638856250000003
        },
        {
          "name": "G4",
          "midi": 67,
          "time": 94.333239,
          "velocity": 0.8661417322834646,
          "duration": 0.32638856250000003
        },
        {
          "name": "G4",
          "midi": 67,
          "time": 94.666572,
          "velocity": 0.8661417322834646,
          "duration": 0.32638856250000003
        },
        {
          "name": "G4",
          "midi": 67,
          "time": 94.999905,
          "velocity": 0.8661417322834646,
          "duration": 0.21527756250000607
        },
        {
          "name": "A4",
          "midi": 69,
          "time": 95.222127,
          "velocity": 0.8661417322834646,
          "duration": 0.437499562499994
        },
        {
          "name": "G4",
          "midi": 67,
          "time": 95.66657099999999,
          "velocity": 0.8661417322834646,
          "duration": 0.21527756250000607
        },
        {
          "name": "A4",
          "midi": 69,
          "time": 95.88879299999999,
          "velocity": 0.8661417322834646,
          "duration": 1.1041655625000004
        }
      ],
      "controlChanges": {
        "7": [
          {
            "number": 7,
            "time": 0.333333,
            "value": 1
          }
        ],
        "10": [
          {
            "number": 10,
            "time": 0.3402774375,
            "value": 0.5984251968503937
          }
        ],
        "32": [
          {
            "number": 32,
            "time": 0.36111075000000004,
            "value": 0
          }
        ],
        "91": [
          {
            "number": 91,
            "time": 0.347221875,
            "value": 0.3543307086614173
          }
        ],
        "93": [
          {
            "number": 93,
            "time": 0.3541663125,
            "value": 0.07874015748031496
          }
        ],
        "121": [
          {
            "number": 121,
            "time": 0.333333,
            "value": 0
          }
        ]
      },
      "id": 3,
      "name": "Flute Harmony",
      "instrumentNumber": 73,
      "instrument": "flute",
      "instrumentFamily": "pipe",
      "channelNumber": 2,
      "isPercussion": false
    },
    {
      "startTime": 3.9999959999999994,
      "duration": 127.9929275624996,
      "length": 1732,
      "notes": [
        {
          "name": "B2",
          "midi": 47,
          "time": 3.9999959999999994,
          "velocity": 0.7716535433070866,
          "duration": 2.659719562499994
        },
        {
          "name": "E3",
          "midi": 52,
          "time": 3.9999959999999994,
          "velocity": 0.8661417322834646,
          "duration": 0.9930545624999976
        },
        {
          "name": "B3",
          "midi": 59,
          "time": 3.9999959999999994,
          "velocity": 0.8661417322834646,
          "duration": 0.32638856250000003
        },
        {
          "name": "B3",
          "midi": 59,
          "time": 4.333328999999999,
          "velocity": 0.6299212598425197,
          "duration": 0.32638856249999915
        },
        {
          "name": "E4",
          "midi": 64,
          "time": 4.333328999999999,
          "velocity": 0.6141732283464567,
          "duration": 0.21527756249999985
        },
        {
          "name": "E4",
          "midi": 64,
          "time": 4.555550999999999,
          "velocity": 0.6141732283464567,
          "duration": 0.10416656249999967
        },
        {
          "name": "G#4",
          "midi": 68,
          "time": 4.555550999999999,
          "velocity": 0.5984251968503937,
          "duration": 0.32638856249999915
        },
        {
          "name": "E4",
          "midi": 64,
          "time": 4.666661999999998,
          "velocity": 0.6141732283464567,
          "duration": 0.21527756249999985
        },
        {
          "name": "B3",
          "midi": 59,
          "time": 4.666661999999998,
          "velocity": 0.6299212598425197,
          "duration": 0.32638856249999915
        },
        {
          "name": "E4",
          "midi": 64,
          "time": 4.888883999999997,
          "velocity": 0.6141732283464567,
          "duration": 0.10416656249999967
        },
        {
          "name": "G#4",
          "midi": 68,
          "time": 4.888883999999997,
          "velocity": 0.5984251968503937,
          "duration": 0.32638856249999915
        },
        {
          "name": "G#4",
          "midi": 68,
          "time": 4.999994999999997,
          "velocity": 0.6141732283464567,
          "duration": 0.32638856249999915
        },
        {
          "name": "E4",
          "midi": 64,
          "time": 4.999994999999997,
          "velocity": 0.6299212598425197,
          "duration": 0.32638856249999915
        },
        {
          "name": "B3",
          "midi": 59,
          "time": 4.999994999999997,
          "velocity": 0.8661417322834646,
          "duration": 0.21527756249999985
        },
        {
          "name": "C#4",
          "midi": 61,
          "time": 5.222216999999996,
          "velocity": 0.8661417322834646,
          "duration": 0.10416656249999967
        },
        {
          "name": "G#4",
          "midi": 68,
          "time": 5.333327999999995,
          "velocity": 0.6141732283464567,
          "duration": 0.32638856250000003
        },
        {
          "name": "B3",
          "midi": 59,
          "time": 5.333327999999995,
          "velocity": 0.8661417322834646,
          "duration": 0.32638856250000003
        },
        {
          "name": "E4",
          "midi": 64,
          "time": 5.333327999999995,
          "velocity": 0.6299212598425197,
          "duration": 0.32638856250000003
        },
        {
          "name": "G#4",
          "midi": 68,
          "time": 5.666660999999995,
          "velocity": 0.6141732283464567,
          "duration": 0.32638856250000003
        },
        {
          "name": "A3",
          "midi": 57,
          "time": 5.666660999999995,
          "velocity": 0.8661417322834646,
          "duration": 0.32638856250000003
        },
        {
          "name": "E4",
          "midi": 64,
          "time": 5.666660999999995,
          "velocity": 0.6299212598425197,
          "duration": 0.32638856250000003
        },
        {
          "name": "E4",
          "midi": 64,
          "time": 5.999993999999995,
          "velocity": 0.6141732283464567,
          "duration": 0.32638856250000003
        },
        {
          "name": "G#3",
          "midi": 56,
          "time": 5.999993999999995,
          "velocity": 0.8661417322834646,
          "duration": 0.6597215624999988
        },
        {
          "name": "A3",
          "midi": 57,
          "time": 5.999993999999995,
          "velocity": 0.6299212598425197,
          "duration": 0.32638856250000003
        },
        {
          "name": "B3",
          "midi": 59,
          "time": 6.333326999999994,
          "velocity": 0.6299212598425197,
          "duration": 0.32638856249999915
        },
        {
          "name": "E4",
          "midi": 64,
          "time": 6.333326999999994,
          "velocity": 0.6141732283464567,
          "duration": 0.21527756249999985
        },
        {
          "name": "G#4",
          "midi": 68,
          "time": 6.555548999999994,
          "velocity": 0.5984251968503937,
          "duration": 1.770831562499998
        },
        {
          "name": "E4",
          "midi": 64,
          "time": 6.555548999999994,
          "velocity": 0.6141732283464567,
          "duration": 0.770832562499999
        },
        {
          "name": "B3",
          "midi": 59,
          "time": 6.666659999999993,
          "velocity": 0.6299212598425197,
          "duration": 0.9930545624999993
        },
        {
          "name": "B2",
          "midi": 47,
          "time": 6.666659999999993,
          "velocity": 0.7716535433070866,
          "duration": 1.326387562499999
        },
        {
          "name": "E3",
          "midi": 52,
          "time": 6.666659999999993,
          "velocity": 0.8661417322834646,
          "duration": 0.32638856250000003
        },
        {
          "name": "F#3",
          "midi": 54,
          "time": 6.999992999999993,
          "velocity": 0.8661417322834646,
          "duration": 0.32638856250000003
        },
        {
          "name": "A3",
          "midi": 57,
          "time": 7.3333259999999925,
          "velocity": 0.8661417322834646,
          "duration": 0.32638856250000003
        },
        {
          "name": "E4",
          "midi": 64,
          "time": 7.3333259999999925,
          "velocity": 0.6141732283464567,
          "duration": 0.32638856250000003
        },
        {
          "name": "A3",
          "midi": 57,
          "time": 7.666658999999992,
          "velocity": 0.6299212598425197,
          "duration": 0.32638856250000003
        },
        {
          "name": "G#3",
          "midi": 56,
          "time": 7.666658999999992,
          "velocity": 0.8661417322834646,
          "duration": 0.32638856250000003
        },
        {
          "name": "E4",
          "midi": 64,
          "time": 7.666658999999992,
          "velocity": 0.6141732283464567,
          "duration": 0.32638856250000003
        },
        {
          "name": "B2",
          "midi": 47,
          "time": 7.999991999999992,
          "velocity": 0.7716535433070866,
          "duration": 0.6597215624999997
        },
        {
          "name": "B3",
          "midi": 59,
          "time": 7.999991999999992,
          "velocity": 0.6299212598425197,
          "duration": 0.32638856250000003
        },
        {
          "name": "E4",
          "midi": 64,
          "time": 7.999991999999992,
          "velocity": 0.6141732283464567,
          "duration": 0.32638856250000003
        },
        {
          "name": "E3",
          "midi": 52,
          "time": 7.999991999999992,
          "velocity": 0.8661417322834646,
          "duration": 0.6597215624999997
        },
        {
          "name": "B3",
          "midi": 59,
          "time": 8.333324999999991,
          "velocity": 0.6299212598425197,
          "duration": 0.9930545624999993
        },
        {
          "name": "E4",
          "midi": 64,
          "time": 8.333324999999991,
          "velocity": 0.6141732283464567,
          "duration": 0.21527756250000074
        },
        {
          "name": "G#4",
          "midi": 68,
          "time": 8.555546999999992,
          "velocity": 0.5984251968503937,
          "duration": 1.1041655624999986
        },
        {
          "name": "E4",
          "midi": 64,
          "time": 8.555546999999992,
          "velocity": 0.6141732283464567,
          "duration": 0.770832562499999
        },
        {
          "name": "E3",
          "midi": 52,
          "time": 8.666657999999991,
          "velocity": 0.8661417322834646,
          "duration": 0.32638856250000003
        },
        {
          "name": "B2",
          "midi": 47,
          "time": 8.666657999999991,
          "velocity": 0.7716535433070866,
          "duration": 0.9930545624999993
        },
        {
          "name": "D3",
          "midi": 50,
          "time": 8.99999099999999,
          "velocity": 0.8661417322834646,
          "duration": 0.32638856250000003
        },
        {
          "name": "F#4",
          "midi": 66,
          "time": 9.33332399999999,
          "velocity": 0.6141732283464567,
          "duration": 0.32638856250000003
        },
        {
          "name": "A3",
          "midi": 57,
          "time": 9.33332399999999,
          "velocity": 0.8661417322834646,
          "duration": 0.32638856250000003
        },
        {
          "name": "E4",
          "midi": 64,
          "time": 9.33332399999999,
          "velocity": 0.6299212598425197,
          "duration": 0.32638856250000003
        },
        {
          "name": "F#4",
          "midi": 66,
          "time": 9.66665699999999,
          "velocity": 0.5984251968503937,
          "duration": 0.32638856250000003
        },
        {
          "name": "E3",
          "midi": 52,
          "time": 9.66665699999999,
          "velocity": 0.8661417322834646,
          "duration": 0.32638856250000003
        },
        {
          "name": "C#3",
          "midi": 49,
          "time": 9.66665699999999,
          "velocity": 0.7716535433070866,
          "duration": 0.32638856250000003
        },
        {
          "name": "A3",
          "midi": 57,
          "time": 9.66665699999999,
          "velocity": 0.6299212598425197,
          "duration": 0.32638856250000003
        },
        {
          "name": "E4",
          "midi": 64,
          "time": 9.66665699999999,
          "velocity": 0.6141732283464567,
          "duration": 0.32638856250000003
        },
        {
          "name": "E4",
          "midi": 64,
          "time": 9.99998999999999,
          "velocity": 0.6141732283464567,
          "duration": 0.32638856250000003
        },
        {
          "name": "B3",
          "midi": 59,
          "time": 9.99998999999999,
          "velocity": 0.6299212598425197,
          "duration": 0.32638856250000003
        },
        {
          "name": "F#4",
          "midi": 66,
          "time": 9.99998999999999,
          "velocity": 0.5984251968503937,
          "duration": 0.21527756250000074
        },
        {
          "name": "B2",
          "midi": 47,
          "time": 9.99998999999999,
          "velocity": 0.7716535433070866,
          "duration": 0.9930545624999993
        },
        {
          "name": "E3",
          "midi": 52,
          "time": 9.99998999999999,
          "velocity": 0.8661417322834646,
          "duration": 0.9930545624999993
        },
        {
          "name": "G#4",
          "midi": 68,
          "time": 10.22221199999999,
          "velocity": 0.5984251968503937,
          "duration": 0.10416656249999967
        },
        {
          "name": "B3",
          "midi": 59,
          "time": 10.33332299999999,
          "velocity": 0.6299212598425197,
          "duration": 0.21527756250000074
        },
        {
          "name": "E4",
          "midi": 64,
          "time": 10.33332299999999,
          "velocity": 0.6141732283464567,
          "duration": 0.21527756250000074
        },
        {
          "name": "G#4",
          "midi": 68,
          "time": 10.33332299999999,
          "velocity": 0.5984251968503937,
          "duration": 0.21527756250000074
        },
        {
          "name": "B3",
          "midi": 59,
          "time": 10.55554499999999,
          "velocity": 0.6299212598425197,
          "duration": 0.10416656249999967
        },
        {
          "name": "E4",
          "midi": 64,
          "time": 10.55554499999999,
          "velocity": 0.6141732283464567,
          "duration": 0.10416656249999967
        },
        {
          "name": "G#4",
          "midi": 68,
          "time": 10.55554499999999,
          "velocity": 0.5984251968503937,
          "duration": 0.10416656249999967
        },
        {
          "name": "G#4",
          "midi": 68,
          "time": 10.666655999999989,
          "velocity": 0.5984251968503937,
          "duration": 0.21527756250000074
        },
        {
          "name": "B3",
          "midi": 59,
          "time": 10.666655999999989,
          "velocity": 0.6299212598425197,
          "duration": 0.21527756250000074
        },
        {
          "name": "E4",
          "midi": 64,
          "time": 10.666655999999989,
          "velocity": 0.6141732283464567,
          "duration": 0.21527756250000074
        },
        {
          "name": "E4",
          "midi": 64,
          "time": 10.88887799999999,
          "velocity": 0.6141732283464567,
          "duration": 0.10416656249999967
        },
        {
          "name": "G#4",
          "midi": 68,
          "time": 10.88887799999999,
          "velocity": 0.5984251968503937,
          "duration": 0.10416656249999967
        },
        {
          "name": "B3",
          "midi": 59,
          "time": 10.88887799999999,
          "velocity": 0.6299212598425197,
          "duration": 0.10416656249999967
        },
        {
          "name": "B3",
          "midi": 59,
          "time": 10.999988999999989,
          "velocity": 0.6299212598425197,
          "duration": 0.32638856250000003
        },
        {
          "name": "B2",
          "midi": 47,
          "time": 10.999988999999989,
          "velocity": 0.7716535433070866,
          "duration": 0.9930545624999993
        },
        {
          "name": "E3",
          "midi": 52,
          "time": 10.999988999999989,
          "velocity": 0.8661417322834646,
          "duration": 0.9930545624999993
        },
        {
          "name": "G#4",
          "midi": 68,
          "time": 10.999988999999989,
          "velocity": 0.5984251968503937,
          "duration": 0.32638856250000003
        },
        {
          "name": "E4",
          "midi": 64,
          "time": 10.999988999999989,
          "velocity": 0.6141732283464567,
          "duration": 0.32638856250000003
        },
        {
          "name": "G#4",
          "midi": 68,
          "time": 11.333321999999988,
          "velocity": 0.5984251968503937,
          "duration": 0.21527756250000074
        },
        {
          "name": "B3",
          "midi": 59,
          "time": 11.333321999999988,
          "velocity": 0.6299212598425197,
          "duration": 0.21527756250000074
        },
        {
          "name": "E4",
          "midi": 64,
          "time": 11.333321999999988,
          "velocity": 0.6141732283464567,
          "duration": 0.21527756250000074
        },
        {
          "name": "G#4",
          "midi": 68,
          "time": 11.555543999999989,
          "velocity": 0.5984251968503937,
          "duration": 0.10416656249999967
        },
        {
          "name": "B3",
          "midi": 59,
          "time": 11.555543999999989,
          "velocity": 0.6299212598425197,
          "duration": 0.10416656249999967
        },
        {
          "name": "E4",
          "midi": 64,
          "time": 11.555543999999989,
          "velocity": 0.6141732283464567,
          "duration": 0.10416656249999967
        },
        {
          "name": "E4",
          "midi": 64,
          "time": 11.666654999999988,
          "velocity": 0.6141732283464567,
          "duration": 0.21527756250000074
        },
        {
          "name": "B3",
          "midi": 59,
          "time": 11.666654999999988,
          "velocity": 0.6299212598425197,
          "duration": 0.21527756250000074
        },
        {
          "name": "G#4",
          "midi": 68,
          "time": 11.666654999999988,
          "velocity": 0.5984251968503937,
          "duration": 0.21527756250000074
        },
        {
          "name": "B3",
          "midi": 59,
          "time": 11.888876999999988,
          "velocity": 0.6299212598425197,
          "duration": 0.10416656249999967
        },
        {
          "name": "E4",
          "midi": 64,
          "time": 11.888876999999988,
          "velocity": 0.6141732283464567,
          "duration": 0.10416656249999967
        },
        {
          "name": "G#4",
          "midi": 68,
          "time": 11.888876999999988,
          "velocity": 0.5984251968503937,
          "duration": 0.10416656249999967
        },
        {
          "name": "B3",
          "midi": 59,
          "time": 11.999987999999988,
          "velocity": 0.8661417322834646,
          "duration": 0.32638856250000003
        },
        {
          "name": "B2",
          "midi": 47,
          "time": 11.999987999999988,
          "velocity": 0.7716535433070866,
          "duration": 2.6597195624999976
        },
        {
          "name": "E3",
          "midi": 52,
          "time": 11.999987999999988,
          "velocity": 0.8661417322834646,
          "duration": 0.9930545624999993
        },
        {
          "name": "B3",
          "midi": 59,
          "time": 12.333320999999987,
          "velocity": 0.6299212598425197,
          "duration": 0.32638856250000003
        },
        {
          "name": "E4",
          "midi": 64,
          "time": 12.333320999999987,
          "velocity": 0.6141732283464567,
          "duration": 0.21527756250000074
        },
        {
          "name": "G#4",
          "midi": 68,
          "time": 12.555542999999988,
          "velocity": 0.5984251968503937,
          "duration": 0.32638856250000003
        },
        {
          "name": "E4",
          "midi": 64,
          "time": 12.555542999999988,
          "velocity": 0.6141732283464567,
          "duration": 0.10416656249999967
        },
        {
          "name": "E4",
          "midi": 64,
          "time": 12.666653999999987,
          "velocity": 0.6141732283464567,
          "duration": 0.21527756250000074
        },
        {
          "name": "B3",
          "midi": 59,
          "time": 12.666653999999987,
          "velocity": 0.6299212598425197,
          "duration": 0.32638856250000003
        },
        {
          "name": "G#4",
          "midi": 68,
          "time": 12.888875999999987,
          "velocity": 0.5984251968503937,
          "duration": 0.32638856250000003
        },
        {
          "name": "E4",
          "midi": 64,
          "time": 12.888875999999987,
          "velocity": 0.6141732283464567,
          "duration": 0.10416656249999967
        },
        {
          "name": "B3",
          "midi": 59,
          "time": 12.999986999999987,
          "velocity": 0.8661417322834646,
          "duration": 0.21527756250000074
        },
        {
          "name": "E4",
          "midi": 64,
          "time": 12.999986999999987,
          "velocity": 0.6299212598425197,
          "duration": 0.32638856250000003
        },
        {
          "name": "G#4",
          "midi": 68,
          "time": 12.999986999999987,
          "velocity": 0.6141732283464567,
          "duration": 0.32638856250000003
        },
        {
          "name": "C#4",
          "midi": 61,
          "time": 13.222208999999987,
          "velocity": 0.8661417322834646,
          "duration": 0.10416656249999967
        },
        {
          "name": "G#4",
          "midi": 68,
          "time": 13.333319999999986,
          "velocity": 0.6141732283464567,
          "duration": 0.32638856250000003
        },
        {
          "name": "B3",
          "midi": 59,
          "time": 13.333319999999986,
          "velocity": 0.8661417322834646,
          "duration": 0.32638856250000003
        },
        {
          "name": "E4",
          "midi": 64,
          "time": 13.333319999999986,
          "velocity": 0.6299212598425197,
          "duration": 0.32638856250000003
        },
        {
          "name": "E4",
          "midi": 64,
          "time": 13.666652999999986,
          "velocity": 0.6299212598425197,
          "duration": 0.32638856250000003
        },
        {
          "name": "G#4",
          "midi": 68,
          "time": 13.666652999999986,
          "velocity": 0.6141732283464567,
          "duration": 0.32638856250000003
        },
        {
          "name": "A3",
          "midi": 57,
          "time": 13.666652999999986,
          "velocity": 0.8661417322834646,
          "duration": 0.32638856250000003
        },
        {
          "name": "A3",
          "midi": 57,
          "time": 13.999985999999986,
          "velocity": 0.6299212598425197,
          "duration": 0.32638856250000003
        },
        {
          "name": "G#3",
          "midi": 56,
          "time": 13.999985999999986,
          "velocity": 0.8661417322834646,
          "duration": 0.6597215624999997
        },
        {
          "name": "E4",
          "midi": 64,
          "time": 13.999985999999986,
          "velocity": 0.6141732283464567,
          "duration": 0.32638856250000003
        },
        {
          "name": "E4",
          "midi": 64,
          "time": 14.333318999999985,
          "velocity": 0.6141732283464567,
          "duration": 0.21527756250000074
        },
        {
          "name": "B3",
          "midi": 59,
          "time": 14.333318999999985,
          "velocity": 0.6299212598425197,
          "duration": 0.32638856250000003
        },
        {
          "name": "E4",
          "midi": 64,
          "time": 14.555540999999986,
          "velocity": 0.6141732283464567,
          "duration": 0.770832562499999
        },
        {
          "name": "G#4",
          "midi": 68,
          "time": 14.555540999999986,
          "velocity": 0.5984251968503937,
          "duration": 1.770831562499998
        },
        {
          "name": "B2",
          "midi": 47,
          "time": 14.666651999999985,
          "velocity": 0.7716535433070866,
          "duration": 1.326387562499999
        },
        {
          "name": "B3",
          "midi": 59,
          "time": 14.666651999999985,
          "velocity": 0.6299212598425197,
          "duration": 0.9930545624999993
        },
        {
          "name": "E3",
          "midi": 52,
          "time": 14.666651999999985,
          "velocity": 0.8661417322834646,
          "duration": 0.32638856250000003
        },
        {
          "name": "F#3",
          "midi": 54,
          "time": 14.999984999999985,
          "velocity": 0.8661417322834646,
          "duration": 0.32638856250000003
        },
        {
          "name": "A3",
          "midi": 57,
          "time": 15.333317999999984,
          "velocity": 0.8661417322834646,
          "duration": 0.32638856250000003
        },
        {
          "name": "E4",
          "midi": 64,
          "time": 15.333317999999984,
          "velocity": 0.6141732283464567,
          "duration": 0.32638856250000003
        },
        {
          "name": "A3",
          "midi": 57,
          "time": 15.666650999999984,
          "velocity": 0.6299212598425197,
          "duration": 0.32638856250000003
        },
        {
          "name": "E4",
          "midi": 64,
          "time": 15.666650999999984,
          "velocity": 0.6141732283464567,
          "duration": 0.32638856250000003
        },
        {
          "name": "G#3",
          "midi": 56,
          "time": 15.666650999999984,
          "velocity": 0.8661417322834646,
          "duration": 0.32638856250000003
        },
        {
          "name": "B2",
          "midi": 47,
          "time": 15.999983999999984,
          "velocity": 0.7716535433070866,
          "duration": 0.6597215624999997
        },
        {
          "name": "E4",
          "midi": 64,
          "time": 15.999983999999984,
          "velocity": 0.6141732283464567,
          "duration": 0.32638856250000003
        },
        {
          "name": "B3",
          "midi": 59,
          "time": 15.999983999999984,
          "velocity": 0.6299212598425197,
          "duration": 0.32638856250000003
        },
        {
          "name": "E3",
          "midi": 52,
          "time": 15.999983999999984,
          "velocity": 0.8661417322834646,
          "duration": 0.6597215624999997
        },
        {
          "name": "E4",
          "midi": 64,
          "time": 16.333316999999983,
          "velocity": 0.6141732283464567,
          "duration": 0.21527756249999896
        },
        {
          "name": "B3",
          "midi": 59,
          "time": 16.333316999999983,
          "velocity": 0.6299212598425197,
          "duration": 0.9930545624999993
        },
        {
          "name": "E4",
          "midi": 64,
          "time": 16.555538999999982,
          "velocity": 0.6141732283464567,
          "duration": 0.7708325625000008
        },
        {
          "name": "G#4",
          "midi": 68,
          "time": 16.555538999999982,
          "velocity": 0.5984251968503937,
          "duration": 1.1041655625000004
        },
        {
          "name": "B2",
          "midi": 47,
          "time": 16.666649999999983,
          "velocity": 0.7716535433070866,
          "duration": 0.9930545624999993
        },
        {
          "name": "E3",
          "midi": 52,
          "time": 16.666649999999983,
          "velocity": 0.8661417322834646,
          "duration": 0.32638856250000003
        },
        {
          "name": "D3",
          "midi": 50,
          "time": 16.999982999999983,
          "velocity": 0.8661417322834646,
          "duration": 0.32638856250000003
        },
        {
          "name": "F#4",
          "midi": 66,
          "time": 17.333315999999982,
          "velocity": 0.6141732283464567,
          "duration": 0.32638856250000003
        },
        {
          "name": "A3",
          "midi": 57,
          "time": 17.333315999999982,
          "velocity": 0.8661417322834646,
          "duration": 0.32638856250000003
        },
        {
          "name": "E4",
          "midi": 64,
          "time": 17.333315999999982,
          "velocity": 0.6299212598425197,
          "duration": 0.32638856250000003
        },
        {
          "name": "F#4",
          "midi": 66,
          "time": 17.666648999999982,
          "velocity": 0.5984251968503937,
          "duration": 0.32638856250000003
        },
        {
          "name": "E4",
          "midi": 64,
          "time": 17.666648999999982,
          "velocity": 0.6141732283464567,
          "duration": 0.32638856250000003
        },
        {
          "name": "A3",
          "midi": 57,
          "time": 17.666648999999982,
          "velocity": 0.6299212598425197,
          "duration": 0.32638856250000003
        },
        {
          "name": "C#3",
          "midi": 49,
          "time": 17.666648999999982,
          "velocity": 0.7716535433070866,
          "duration": 0.32638856250000003
        },
        {
          "name": "E3",
          "midi": 52,
          "time": 17.666648999999982,
          "velocity": 0.8661417322834646,
          "duration": 0.32638856250000003
        },
        {
          "name": "E3",
          "midi": 52,
          "time": 17.99998199999998,
          "velocity": 0.8661417322834646,
          "duration": 0.9930545624999993
        },
        {
          "name": "B2",
          "midi": 47,
          "time": 17.99998199999998,
          "velocity": 0.7716535433070866,
          "duration": 0.9930545624999993
        },
        {
          "name": "B3",
          "midi": 59,
          "time": 17.99998199999998,
          "velocity": 0.6299212598425197,
          "duration": 0.32638856250000003
        },
        {
          "name": "E4",
          "midi": 64,
          "time": 17.99998199999998,
          "velocity": 0.6141732283464567,
          "duration": 0.32638856250000003
        },
        {
          "name": "F#4",
          "midi": 66,
          "time": 17.99998199999998,
          "velocity": 0.5984251968503937,
          "duration": 0.21527756249999896
        },
        {
          "name": "G#4",
          "midi": 68,
          "time": 18.22220399999998,
          "velocity": 0.5984251968503937,
          "duration": 0.10416656250000145
        },
        {
          "name": "B3",
          "midi": 59,
          "time": 18.33331499999998,
          "velocity": 0.6299212598425197,
          "duration": 0.21527756249999896
        },
        {
          "name": "E4",
          "midi": 64,
          "time": 18.33331499999998,
          "velocity": 0.6141732283464567,
          "duration": 0.21527756249999896
        },
        {
          "name": "G#4",
          "midi": 68,
          "time": 18.33331499999998,
          "velocity": 0.5984251968503937,
          "duration": 0.21527756249999896
        },
        {
          "name": "G#4",
          "midi": 68,
          "time": 18.55553699999998,
          "velocity": 0.5984251968503937,
          "duration": 0.10416656250000145
        },
        {
          "name": "B3",
          "midi": 59,
          "time": 18.55553699999998,
          "velocity": 0.6299212598425197,
          "duration": 0.10416656250000145
        },
        {
          "name": "E4",
          "midi": 64,
          "time": 18.55553699999998,
          "velocity": 0.6141732283464567,
          "duration": 0.10416656250000145
        },
        {
          "name": "E4",
          "midi": 64,
          "time": 18.66664799999998,
          "velocity": 0.6141732283464567,
          "duration": 0.21527756249999896
        },
        {
          "name": "G#4",
          "midi": 68,
          "time": 18.66664799999998,
          "velocity": 0.5984251968503937,
          "duration": 0.21527756249999896
        },
        {
          "name": "B3",
          "midi": 59,
          "time": 18.66664799999998,
          "velocity": 0.6299212598425197,
          "duration": 0.21527756249999896
        },
        {
          "name": "G#4",
          "midi": 68,
          "time": 18.88886999999998,
          "velocity": 0.5984251968503937,
          "duration": 0.10416656250000145
        },
        {
          "name": "E4",
          "midi": 64,
          "time": 18.88886999999998,
          "velocity": 0.6141732283464567,
          "duration": 0.10416656250000145
        },
        {
          "name": "B3",
          "midi": 59,
          "time": 18.88886999999998,
          "velocity": 0.6299212598425197,
          "duration": 0.10416656250000145
        },
        {
          "name": "E3",
          "midi": 52,
          "time": 18.99998099999998,
          "velocity": 0.8661417322834646,
          "duration": 0.9930545624999993
        },
        {
          "name": "B3",
          "midi": 59,
          "time": 18.99998099999998,
          "velocity": 0.6299212598425197,
          "duration": 0.32638856250000003
        },
        {
          "name": "E4",
          "midi": 64,
          "time": 18.99998099999998,
          "velocity": 0.6141732283464567,
          "duration": 0.32638856250000003
        },
        {
          "name": "B2",
          "midi": 47,
          "time": 18.99998099999998,
          "velocity": 0.7716535433070866,
          "duration": 0.9930545624999993
        },
        {
          "name": "G#4",
          "midi": 68,
          "time": 18.99998099999998,
          "velocity": 0.5984251968503937,
          "duration": 0.32638856250000003
        },
        {
          "name": "B3",
          "midi": 59,
          "time": 19.33331399999998,
          "velocity": 0.6299212598425197,
          "duration": 0.21527756249999896
        },
        {
          "name": "E4",
          "midi": 64,
          "time": 19.33331399999998,
          "velocity": 0.6141732283464567,
          "duration": 0.21527756249999896
        },
        {
          "name": "G#4",
          "midi": 68,
          "time": 19.33331399999998,
          "velocity": 0.5984251968503937,
          "duration": 0.21527756249999896
        },
        {
          "name": "E4",
          "midi": 64,
          "time": 19.55553599999998,
          "velocity": 0.6141732283464567,
          "duration": 0.10416656250000145
        },
        {
          "name": "G#4",
          "midi": 68,
          "time": 19.55553599999998,
          "velocity": 0.5984251968503937,
          "duration": 0.10416656250000145
        },
        {
          "name": "B3",
          "midi": 59,
          "time": 19.55553599999998,
          "velocity": 0.6299212598425197,
          "duration": 0.10416656250000145
        },
        {
          "name": "G#4",
          "midi": 68,
          "time": 19.66664699999998,
          "velocity": 0.5984251968503937,
          "duration": 0.21527756249999896
        },
        {
          "name": "E4",
          "midi": 64,
          "time": 19.66664699999998,
          "velocity": 0.6141732283464567,
          "duration": 0.21527756249999896
        },
        {
          "name": "B3",
          "midi": 59,
          "time": 19.66664699999998,
          "velocity": 0.6299212598425197,
          "duration": 0.21527756249999896
        },
        {
          "name": "G#4",
          "midi": 68,
          "time": 19.88886899999998,
          "velocity": 0.5984251968503937,
          "duration": 0.10416656250000145
        },
        {
          "name": "E4",
          "midi": 64,
          "time": 19.88886899999998,
          "velocity": 0.6141732283464567,
          "duration": 0.10416656250000145
        },
        {
          "name": "B3",
          "midi": 59,
          "time": 19.88886899999998,
          "velocity": 0.6299212598425197,
          "duration": 0.10416656250000145
        },
        {
          "name": "B2",
          "midi": 47,
          "time": 19.99997999999998,
          "velocity": 0.7716535433070866,
          "duration": 2.6597195624999976
        },
        {
          "name": "E3",
          "midi": 52,
          "time": 19.99997999999998,
          "velocity": 0.8661417322834646,
          "duration": 0.9930545624999993
        },
        {
          "name": "B3",
          "midi": 59,
          "time": 19.99997999999998,
          "velocity": 0.8661417322834646,
          "duration": 0.32638856250000003
        },
        {
          "name": "B3",
          "midi": 59,
          "time": 20.33331299999998,
          "velocity": 0.6299212598425197,
          "duration": 0.32638856250000003
        },
        {
          "name": "E4",
          "midi": 64,
          "time": 20.33331299999998,
          "velocity": 0.6141732283464567,
          "duration": 0.21527756249999896
        },
        {
          "name": "E4",
          "midi": 64,
          "time": 20.555534999999978,
          "velocity": 0.6141732283464567,
          "duration": 0.10416656250000145
        },
        {
          "name": "G#4",
          "midi": 68,
          "time": 20.555534999999978,
          "velocity": 0.5984251968503937,
          "duration": 0.32638856250000003
        },
        {
          "name": "E4",
          "midi": 64,
          "time": 20.66664599999998,
          "velocity": 0.6141732283464567,
          "duration": 0.21527756249999896
        },
        {
          "name": "B3",
          "midi": 59,
          "time": 20.66664599999998,
          "velocity": 0.6299212598425197,
          "duration": 0.32638856250000003
        },
        {
          "name": "E4",
          "midi": 64,
          "time": 20.888867999999977,
          "velocity": 0.6141732283464567,
          "duration": 0.10416656250000145
        },
        {
          "name": "G#4",
          "midi": 68,
          "time": 20.888867999999977,
          "velocity": 0.5984251968503937,
          "duration": 0.32638856250000003
        },
        {
          "name": "G#4",
          "midi": 68,
          "time": 20.99997899999998,
          "velocity": 0.6141732283464567,
          "duration": 0.32638856250000003
        },
        {
          "name": "B3",
          "midi": 59,
          "time": 20.99997899999998,
          "velocity": 0.8661417322834646,
          "duration": 0.21527756249999896
        },
        {
          "name": "E4",
          "midi": 64,
          "time": 20.99997899999998,
          "velocity": 0.6299212598425197,
          "duration": 0.32638856250000003
        },
        {
          "name": "C#4",
          "midi": 61,
          "time": 21.222200999999977,
          "velocity": 0.8661417322834646,
          "duration": 0.10416656250000145
        },
        {
          "name": "B3",
          "midi": 59,
          "time": 21.333311999999978,
          "velocity": 0.8661417322834646,
          "duration": 0.32638856250000003
        },
        {
          "name": "E4",
          "midi": 64,
          "time": 21.333311999999978,
          "velocity": 0.6299212598425197,
          "duration": 0.32638856250000003
        },
        {
          "name": "G#4",
          "midi": 68,
          "time": 21.333311999999978,
          "velocity": 0.6141732283464567,
          "duration": 0.32638856250000003
        },
        {
          "name": "G#4",
          "midi": 68,
          "time": 21.666644999999978,
          "velocity": 0.6141732283464567,
          "duration": 0.32638856250000003
        },
        {
          "name": "E4",
          "midi": 64,
          "time": 21.666644999999978,
          "velocity": 0.6299212598425197,
          "duration": 0.32638856250000003
        },
        {
          "name": "A3",
          "midi": 57,
          "time": 21.666644999999978,
          "velocity": 0.8661417322834646,
          "duration": 0.32638856250000003
        },
        {
          "name": "G#3",
          "midi": 56,
          "time": 21.999977999999977,
          "velocity": 0.8661417322834646,
          "duration": 0.6597215624999997
        },
        {
          "name": "A3",
          "midi": 57,
          "time": 21.999977999999977,
          "velocity": 0.6299212598425197,
          "duration": 0.32638856250000003
        },
        {
          "name": "E4",
          "midi": 64,
          "time": 21.999977999999977,
          "velocity": 0.6141732283464567,
          "duration": 0.32638856250000003
        },
        {
          "name": "B3",
          "midi": 59,
          "time": 22.333310999999977,
          "velocity": 0.6299212598425197,
          "duration": 0.32638856250000003
        },
        {
          "name": "E4",
          "midi": 64,
          "time": 22.333310999999977,
          "velocity": 0.6141732283464567,
          "duration": 0.21527756249999896
        },
        {
          "name": "E4",
          "midi": 64,
          "time": 22.555532999999976,
          "velocity": 0.6141732283464567,
          "duration": 0.7708325625000008
        },
        {
          "name": "G#4",
          "midi": 68,
          "time": 22.555532999999976,
          "velocity": 0.5984251968503937,
          "duration": 1.7708315624999997
        },
        {
          "name": "E3",
          "midi": 52,
          "time": 22.666643999999977,
          "velocity": 0.8661417322834646,
          "duration": 0.32638856250000003
        },
        {
          "name": "B3",
          "midi": 59,
          "time": 22.666643999999977,
          "velocity": 0.6299212598425197,
          "duration": 0.9930545624999993
        },
        {
          "name": "B2",
          "midi": 47,
          "time": 22.666643999999977,
          "velocity": 0.7716535433070866,
          "duration": 1.326387562499999
        },
        {
          "name": "F#3",
          "midi": 54,
          "time": 22.999976999999976,
          "velocity": 0.8661417322834646,
          "duration": 0.32638856250000003
        },
        {
          "name": "E4",
          "midi": 64,
          "time": 23.333309999999976,
          "velocity": 0.6141732283464567,
          "duration": 0.32638856250000003
        },
        {
          "name": "A3",
          "midi": 57,
          "time": 23.333309999999976,
          "velocity": 0.8661417322834646,
          "duration": 0.32638856250000003
        },
        {
          "name": "E4",
          "midi": 64,
          "time": 23.666642999999976,
          "velocity": 0.6141732283464567,
          "duration": 0.32638856250000003
        },
        {
          "name": "A3",
          "midi": 57,
          "time": 23.666642999999976,
          "velocity": 0.6299212598425197,
          "duration": 0.32638856250000003
        },
        {
          "name": "G#3",
          "midi": 56,
          "time": 23.666642999999976,
          "velocity": 0.8661417322834646,
          "duration": 0.32638856250000003
        },
        {
          "name": "B3",
          "midi": 59,
          "time": 23.999975999999975,
          "velocity": 0.6299212598425197,
          "duration": 0.32638856250000003
        },
        {
          "name": "E3",
          "midi": 52,
          "time": 23.999975999999975,
          "velocity": 0.8661417322834646,
          "duration": 0.6597215624999997
        },
        {
          "name": "B2",
          "midi": 47,
          "time": 23.999975999999975,
          "velocity": 0.7716535433070866,
          "duration": 0.6597215624999997
        },
        {
          "name": "E4",
          "midi": 64,
          "time": 23.999975999999975,
          "velocity": 0.6141732283464567,
          "duration": 0.32638856250000003
        },
        {
          "name": "B3",
          "midi": 59,
          "time": 24.333308999999975,
          "velocity": 0.6299212598425197,
          "duration": 0.9930545624999993
        },
        {
          "name": "E4",
          "midi": 64,
          "time": 24.333308999999975,
          "velocity": 0.6141732283464567,
          "duration": 0.21527756249999896
        },
        {
          "name": "E4",
          "midi": 64,
          "time": 24.555530999999974,
          "velocity": 0.6141732283464567,
          "duration": 0.7708325625000008
        },
        {
          "name": "G#4",
          "midi": 68,
          "time": 24.555530999999974,
          "velocity": 0.5984251968503937,
          "duration": 1.1041655625000004
        },
        {
          "name": "E3",
          "midi": 52,
          "time": 24.666641999999975,
          "velocity": 0.8661417322834646,
          "duration": 0.32638856250000003
        },
        {
          "name": "B2",
          "midi": 47,
          "time": 24.666641999999975,
          "velocity": 0.7716535433070866,
          "duration": 0.9930545624999993
        },
        {
          "name": "D3",
          "midi": 50,
          "time": 24.999974999999974,
          "velocity": 0.8661417322834646,
          "duration": 0.32638856250000003
        },
        {
          "name": "A3",
          "midi": 57,
          "time": 25.333307999999974,
          "velocity": 0.8661417322834646,
          "duration": 0.32638856250000003
        },
        {
          "name": "F#4",
          "midi": 66,
          "time": 25.333307999999974,
          "velocity": 0.6141732283464567,
          "duration": 0.32638856250000003
        },
        {
          "name": "E4",
          "midi": 64,
          "time": 25.333307999999974,
          "velocity": 0.6299212598425197,
          "duration": 0.32638856250000003
        },
        {
          "name": "E3",
          "midi": 52,
          "time": 25.666640999999974,
          "velocity": 0.8661417322834646,
          "duration": 0.32638856250000003
        },
        {
          "name": "F#4",
          "midi": 66,
          "time": 25.666640999999974,
          "velocity": 0.5984251968503937,
          "duration": 0.32638856250000003
        },
        {
          "name": "A3",
          "midi": 57,
          "time": 25.666640999999974,
          "velocity": 0.6299212598425197,
          "duration": 0.32638856250000003
        },
        {
          "name": "C#3",
          "midi": 49,
          "time": 25.666640999999974,
          "velocity": 0.7716535433070866,
          "duration": 0.32638856250000003
        },
        {
          "name": "E4",
          "midi": 64,
          "time": 25.666640999999974,
          "velocity": 0.6141732283464567,
          "duration": 0.32638856250000003
        },
        {
          "name": "F#4",
          "midi": 66,
          "time": 25.999973999999973,
          "velocity": 0.5984251968503937,
          "duration": 0.21527756249999896
        },
        {
          "name": "E4",
          "midi": 64,
          "time": 25.999973999999973,
          "velocity": 0.6141732283464567,
          "duration": 0.32638856250000003
        },
        {
          "name": "B3",
          "midi": 59,
          "time": 25.999973999999973,
          "velocity": 0.6299212598425197,
          "duration": 0.32638856250000003
        },
        {
          "name": "B2",
          "midi": 47,
          "time": 25.999973999999973,
          "velocity": 0.7716535433070866,
          "duration": 0.9930545624999993
        },
        {
          "name": "E3",
          "midi": 52,
          "time": 25.999973999999973,
          "velocity": 0.8661417322834646,
          "duration": 0.9930545624999993
        },
        {
          "name": "G#4",
          "midi": 68,
          "time": 26.222195999999972,
          "velocity": 0.5984251968503937,
          "duration": 0.10416656250000145
        },
        {
          "name": "G#4",
          "midi": 68,
          "time": 26.333306999999973,
          "velocity": 0.5984251968503937,
          "duration": 0.21527756249999896
        },
        {
          "name": "E4",
          "midi": 64,
          "time": 26.333306999999973,
          "velocity": 0.6141732283464567,
          "duration": 0.21527756249999896
        },
        {
          "name": "B3",
          "midi": 59,
          "time": 26.333306999999973,
          "velocity": 0.6299212598425197,
          "duration": 0.21527756249999896
        },
        {
          "name": "B3",
          "midi": 59,
          "time": 26.55552899999997,
          "velocity": 0.6299212598425197,
          "duration": 0.10416656250000145
        },
        {
          "name": "E4",
          "midi": 64,
          "time": 26.55552899999997,
          "velocity": 0.6141732283464567,
          "duration": 0.10416656250000145
        },
        {
          "name": "G#4",
          "midi": 68,
          "time": 26.55552899999997,
          "velocity": 0.5984251968503937,
          "duration": 0.10416656250000145
        },
        {
          "name": "B3",
          "midi": 59,
          "time": 26.666639999999973,
          "velocity": 0.6299212598425197,
          "duration": 0.21527756249999896
        },
        {
          "name": "E4",
          "midi": 64,
          "time": 26.666639999999973,
          "velocity": 0.6141732283464567,
          "duration": 0.21527756249999896
        },
        {
          "name": "G#4",
          "midi": 68,
          "time": 26.666639999999973,
          "velocity": 0.5984251968503937,
          "duration": 0.21527756249999896
        },
        {
          "name": "G#4",
          "midi": 68,
          "time": 26.88886199999997,
          "velocity": 0.5984251968503937,
          "duration": 0.10416656250000145
        },
        {
          "name": "E4",
          "midi": 64,
          "time": 26.88886199999997,
          "velocity": 0.6141732283464567,
          "duration": 0.10416656250000145
        },
        {
          "name": "B3",
          "midi": 59,
          "time": 26.88886199999997,
          "velocity": 0.6299212598425197,
          "duration": 0.10416656250000145
        },
        {
          "name": "B3",
          "midi": 59,
          "time": 26.999972999999972,
          "velocity": 0.6299212598425197,
          "duration": 0.32638856250000003
        },
        {
          "name": "B2",
          "midi": 47,
          "time": 26.999972999999972,
          "velocity": 0.7716535433070866,
          "duration": 0.9930545624999993
        },
        {
          "name": "E3",
          "midi": 52,
          "time": 26.999972999999972,
          "velocity": 0.8661417322834646,
          "duration": 0.9930545624999993
        },
        {
          "name": "G#4",
          "midi": 68,
          "time": 26.999972999999972,
          "velocity": 0.5984251968503937,
          "duration": 0.32638856250000003
        },
        {
          "name": "E4",
          "midi": 64,
          "time": 26.999972999999972,
          "velocity": 0.6141732283464567,
          "duration": 0.32638856250000003
        },
        {
          "name": "E4",
          "midi": 64,
          "time": 27.333305999999972,
          "velocity": 0.6141732283464567,
          "duration": 0.21527756249999896
        },
        {
          "name": "B3",
          "midi": 59,
          "time": 27.333305999999972,
          "velocity": 0.6299212598425197,
          "duration": 0.21527756249999896
        },
        {
          "name": "G#4",
          "midi": 68,
          "time": 27.333305999999972,
          "velocity": 0.5984251968503937,
          "duration": 0.21527756249999896
        },
        {
          "name": "E4",
          "midi": 64,
          "time": 27.55552799999997,
          "velocity": 0.6141732283464567,
          "duration": 0.10416656250000145
        },
        {
          "name": "B3",
          "midi": 59,
          "time": 27.55552799999997,
          "velocity": 0.6299212598425197,
          "duration": 0.10416656250000145
        },
        {
          "name": "G#4",
          "midi": 68,
          "time": 27.55552799999997,
          "velocity": 0.5984251968503937,
          "duration": 0.10416656250000145
        },
        {
          "name": "E4",
          "midi": 64,
          "time": 27.66663899999997,
          "velocity": 0.6141732283464567,
          "duration": 0.21527756249999896
        },
        {
          "name": "G#4",
          "midi": 68,
          "time": 27.66663899999997,
          "velocity": 0.5984251968503937,
          "duration": 0.21527756249999896
        },
        {
          "name": "B3",
          "midi": 59,
          "time": 27.66663899999997,
          "velocity": 0.6299212598425197,
          "duration": 0.21527756249999896
        },
        {
          "name": "E4",
          "midi": 64,
          "time": 27.88886099999997,
          "velocity": 0.6141732283464567,
          "duration": 0.10416656250000145
        },
        {
          "name": "B3",
          "midi": 59,
          "time": 27.88886099999997,
          "velocity": 0.6299212598425197,
          "duration": 0.10416656250000145
        },
        {
          "name": "G#4",
          "midi": 68,
          "time": 27.88886099999997,
          "velocity": 0.5984251968503937,
          "duration": 0.10416656250000145
        },
        {
          "name": "E3",
          "midi": 52,
          "time": 27.99997199999997,
          "velocity": 0.8661417322834646,
          "duration": 0.9930545624999993
        },
        {
          "name": "B3",
          "midi": 59,
          "time": 27.99997199999997,
          "velocity": 0.8661417322834646,
          "duration": 0.32638856250000003
        },
        {
          "name": "B2",
          "midi": 47,
          "time": 27.99997199999997,
          "velocity": 0.7716535433070866,
          "duration": 2.6597195624999976
        },
        {
          "name": "B3",
          "midi": 59,
          "time": 28.33330499999997,
          "velocity": 0.6299212598425197,
          "duration": 0.32638856250000003
        },
        {
          "name": "E4",
          "midi": 64,
          "time": 28.33330499999997,
          "velocity": 0.6141732283464567,
          "duration": 0.21527756249999896
        },
        {
          "name": "E4",
          "midi": 64,
          "time": 28.55552699999997,
          "velocity": 0.6141732283464567,
          "duration": 0.10416656250000145
        },
        {
          "name": "G#4",
          "midi": 68,
          "time": 28.55552699999997,
          "velocity": 0.5984251968503937,
          "duration": 0.32638856250000003
        },
        {
          "name": "E4",
          "midi": 64,
          "time": 28.66663799999997,
          "velocity": 0.6141732283464567,
          "duration": 0.21527756249999896
        },
        {
          "name": "B3",
          "midi": 59,
          "time": 28.66663799999997,
          "velocity": 0.6299212598425197,
          "duration": 0.32638856250000003
        },
        {
          "name": "G#4",
          "midi": 68,
          "time": 28.88885999999997,
          "velocity": 0.5984251968503937,
          "duration": 0.32638856250000003
        },
        {
          "name": "E4",
          "midi": 64,
          "time": 28.88885999999997,
          "velocity": 0.6141732283464567,
          "duration": 0.10416656250000145
        },
        {
          "name": "E4",
          "midi": 64,
          "time": 28.99997099999997,
          "velocity": 0.6299212598425197,
          "duration": 0.32638856250000003
        },
        {
          "name": "B3",
          "midi": 59,
          "time": 28.99997099999997,
          "velocity": 0.8661417322834646,
          "duration": 0.21527756249999896
        },
        {
          "name": "G#4",
          "midi": 68,
          "time": 28.99997099999997,
          "velocity": 0.6141732283464567,
          "duration": 0.32638856250000003
        },
        {
          "name": "C#4",
          "midi": 61,
          "time": 29.22219299999997,
          "velocity": 0.8661417322834646,
          "duration": 0.10416656250000145
        },
        {
          "name": "G#4",
          "midi": 68,
          "time": 29.33330399999997,
          "velocity": 0.6141732283464567,
          "duration": 0.32638856250000003
        },
        {
          "name": "B3",
          "midi": 59,
          "time": 29.33330399999997,
          "velocity": 0.8661417322834646,
          "duration": 0.32638856250000003
        },
        {
          "name": "E4",
          "midi": 64,
          "time": 29.33330399999997,
          "velocity": 0.6299212598425197,
          "duration": 0.32638856250000003
        },
        {
          "name": "E4",
          "midi": 64,
          "time": 29.66663699999997,
          "velocity": 0.6299212598425197,
          "duration": 0.32638856250000003
        },
        {
          "name": "G#4",
          "midi": 68,
          "time": 29.66663699999997,
          "velocity": 0.6141732283464567,
          "duration": 0.32638856250000003
        },
        {
          "name": "A3",
          "midi": 57,
          "time": 29.66663699999997,
          "velocity": 0.8661417322834646,
          "duration": 0.32638856250000003
        },
        {
          "name": "G#3",
          "midi": 56,
          "time": 29.99996999999997,
          "velocity": 0.8661417322834646,
          "duration": 0.6597215624999997
        },
        {
          "name": "A3",
          "midi": 57,
          "time": 29.99996999999997,
          "velocity": 0.6299212598425197,
          "duration": 0.32638856250000003
        },
        {
          "name": "E4",
          "midi": 64,
          "time": 29.99996999999997,
          "velocity": 0.6141732283464567,
          "duration": 0.32638856250000003
        },
        {
          "name": "B3",
          "midi": 59,
          "time": 30.33330299999997,
          "velocity": 0.6299212598425197,
          "duration": 0.32638856250000003
        },
        {
          "name": "E4",
          "midi": 64,
          "time": 30.33330299999997,
          "velocity": 0.6141732283464567,
          "duration": 0.21527756249999896
        },
        {
          "name": "E4",
          "midi": 64,
          "time": 30.555524999999967,
          "velocity": 0.6141732283464567,
          "duration": 0.7708325625000008
        },
        {
          "name": "G#4",
          "midi": 68,
          "time": 30.555524999999967,
          "velocity": 0.5984251968503937,
          "duration": 1.7708315624999997
        },
        {
          "name": "B2",
          "midi": 47,
          "time": 30.66663599999997,
          "velocity": 0.7716535433070866,
          "duration": 1.326387562499999
        },
        {
          "name": "B3",
          "midi": 59,
          "time": 30.66663599999997,
          "velocity": 0.6299212598425197,
          "duration": 0.9930545624999993
        },
        {
          "name": "E3",
          "midi": 52,
          "time": 30.66663599999997,
          "velocity": 0.8661417322834646,
          "duration": 0.32638856250000003
        },
        {
          "name": "F#3",
          "midi": 54,
          "time": 30.999968999999968,
          "velocity": 0.8661417322834646,
          "duration": 0.32638856250000003
        },
        {
          "name": "E4",
          "midi": 64,
          "time": 31.333301999999968,
          "velocity": 0.6141732283464567,
          "duration": 0.32638856250000003
        },
        {
          "name": "A3",
          "midi": 57,
          "time": 31.333301999999968,
          "velocity": 0.8661417322834646,
          "duration": 0.32638856250000003
        },
        {
          "name": "A3",
          "midi": 57,
          "time": 31.666634999999967,
          "velocity": 0.6299212598425197,
          "duration": 0.32638856250000003
        },
        {
          "name": "G#3",
          "midi": 56,
          "time": 31.666634999999967,
          "velocity": 0.8661417322834646,
          "duration": 0.32638856250000003
        },
        {
          "name": "E4",
          "midi": 64,
          "time": 31.666634999999967,
          "velocity": 0.6141732283464567,
          "duration": 0.32638856250000003
        },
        {
          "name": "B2",
          "midi": 47,
          "time": 31.999967999999967,
          "velocity": 0.7716535433070866,
          "duration": 0.6597215625000032
        },
        {
          "name": "E4",
          "midi": 64,
          "time": 31.999967999999967,
          "velocity": 0.6141732283464567,
          "duration": 0.32638856250000003
        },
        {
          "name": "E3",
          "midi": 52,
          "time": 31.999967999999967,
          "velocity": 0.8661417322834646,
          "duration": 0.6597215625000032
        },
        {
          "name": "B3",
          "midi": 59,
          "time": 31.999967999999967,
          "velocity": 0.6299212598425197,
          "duration": 0.32638856250000003
        },
        {
          "name": "B3",
          "midi": 59,
          "time": 32.33330099999997,
          "velocity": 0.6299212598425197,
          "duration": 0.9930545625000065
        },
        {
          "name": "E4",
          "midi": 64,
          "time": 32.33330099999997,
          "velocity": 0.6141732283464567,
          "duration": 0.21527756249999896
        },
        {
          "name": "G#4",
          "midi": 68,
          "time": 32.55552299999997,
          "velocity": 0.5984251968503937,
          "duration": 1.1041655625000075
        },
        {
          "name": "E4",
          "midi": 64,
          "time": 32.55552299999997,
          "velocity": 0.6141732283464567,
          "duration": 0.7708325625000043
        },
        {
          "name": "B2",
          "midi": 47,
          "time": 32.66663399999997,
          "velocity": 0.7716535433070866,
          "duration": 0.9930545625000065
        },
        {
          "name": "E3",
          "midi": 52,
          "time": 32.66663399999997,
          "velocity": 0.8661417322834646,
          "duration": 0.32638856250000003
        },
        {
          "name": "D3",
          "midi": 50,
          "time": 32.99996699999998,
          "velocity": 0.8661417322834646,
          "duration": 0.32638856250000003
        },
        {
          "name": "F#4",
          "midi": 66,
          "time": 33.33329999999998,
          "velocity": 0.6141732283464567,
          "duration": 0.32638856250000003
        },
        {
          "name": "E4",
          "midi": 64,
          "time": 33.33329999999998,
          "velocity": 0.6299212598425197,
          "duration": 0.32638856250000003
        },
        {
          "name": "A3",
          "midi": 57,
          "time": 33.33329999999998,
          "velocity": 0.8661417322834646,
          "duration": 0.32638856250000003
        },
        {
          "name": "F#4",
          "midi": 66,
          "time": 33.66663299999998,
          "velocity": 0.5984251968503937,
          "duration": 0.32638856250000003
        },
        {
          "name": "C#3",
          "midi": 49,
          "time": 33.66663299999998,
          "velocity": 0.7716535433070866,
          "duration": 0.32638856250000003
        },
        {
          "name": "E3",
          "midi": 52,
          "time": 33.66663299999998,
          "velocity": 0.8661417322834646,
          "duration": 0.32638856250000003
        },
        {
          "name": "E4",
          "midi": 64,
          "time": 33.66663299999998,
          "velocity": 0.6141732283464567,
          "duration": 0.32638856250000003
        },
        {
          "name": "A3",
          "midi": 57,
          "time": 33.66663299999998,
          "velocity": 0.6299212598425197,
          "duration": 0.32638856250000003
        },
        {
          "name": "B3",
          "midi": 59,
          "time": 33.999965999999986,
          "velocity": 0.6299212598425197,
          "duration": 0.32638856250000003
        },
        {
          "name": "E3",
          "midi": 52,
          "time": 33.999965999999986,
          "velocity": 0.8661417322834646,
          "duration": 0.9930545625000065
        },
        {
          "name": "F#4",
          "midi": 66,
          "time": 33.999965999999986,
          "velocity": 0.5984251968503937,
          "duration": 0.21527756249999896
        },
        {
          "name": "E4",
          "midi": 64,
          "time": 33.999965999999986,
          "velocity": 0.6141732283464567,
          "duration": 0.32638856250000003
        },
        {
          "name": "B2",
          "midi": 47,
          "time": 33.999965999999986,
          "velocity": 0.7716535433070866,
          "duration": 0.9930545625000065
        },
        {
          "name": "G#4",
          "midi": 68,
          "time": 34.22218799999999,
          "velocity": 0.5984251968503937,
          "duration": 0.1041665624999979
        },
        {
          "name": "B3",
          "midi": 59,
          "time": 34.33329899999999,
          "velocity": 0.6299212598425197,
          "duration": 0.21527756249999896
        },
        {
          "name": "E4",
          "midi": 64,
          "time": 34.33329899999999,
          "velocity": 0.6141732283464567,
          "duration": 0.21527756249999896
        },
        {
          "name": "G#4",
          "midi": 68,
          "time": 34.33329899999999,
          "velocity": 0.5984251968503937,
          "duration": 0.21527756249999896
        },
        {
          "name": "E4",
          "midi": 64,
          "time": 34.55552099999999,
          "velocity": 0.6141732283464567,
          "duration": 0.1041665624999979
        },
        {
          "name": "B3",
          "midi": 59,
          "time": 34.55552099999999,
          "velocity": 0.6299212598425197,
          "duration": 0.1041665624999979
        },
        {
          "name": "G#4",
          "midi": 68,
          "time": 34.55552099999999,
          "velocity": 0.5984251968503937,
          "duration": 0.1041665624999979
        },
        {
          "name": "E4",
          "midi": 64,
          "time": 34.66663199999999,
          "velocity": 0.6141732283464567,
          "duration": 0.21527756249999896
        },
        {
          "name": "B3",
          "midi": 59,
          "time": 34.66663199999999,
          "velocity": 0.6299212598425197,
          "duration": 0.21527756249999896
        },
        {
          "name": "G#4",
          "midi": 68,
          "time": 34.66663199999999,
          "velocity": 0.5984251968503937,
          "duration": 0.21527756249999896
        },
        {
          "name": "G#4",
          "midi": 68,
          "time": 34.888853999999995,
          "velocity": 0.5984251968503937,
          "duration": 0.1041665624999979
        },
        {
          "name": "E4",
          "midi": 64,
          "time": 34.888853999999995,
          "velocity": 0.6141732283464567,
          "duration": 0.1041665624999979
        },
        {
          "name": "B3",
          "midi": 59,
          "time": 34.888853999999995,
          "velocity": 0.6299212598425197,
          "duration": 0.1041665624999979
        },
        {
          "name": "E3",
          "midi": 52,
          "time": 34.999964999999996,
          "velocity": 0.8661417322834646,
          "duration": 0.9930545625000065
        },
        {
          "name": "B2",
          "midi": 47,
          "time": 34.999964999999996,
          "velocity": 0.7716535433070866,
          "duration": 0.9930545625000065
        },
        {
          "name": "B3",
          "midi": 59,
          "time": 34.999964999999996,
          "velocity": 0.6299212598425197,
          "duration": 0.32638856250000003
        },
        {
          "name": "E4",
          "midi": 64,
          "time": 34.999964999999996,
          "velocity": 0.6141732283464567,
          "duration": 0.32638856250000003
        },
        {
          "name": "G#4",
          "midi": 68,
          "time": 34.999964999999996,
          "velocity": 0.5984251968503937,
          "duration": 0.32638856250000003
        },
        {
          "name": "G#4",
          "midi": 68,
          "time": 35.333298,
          "velocity": 0.5984251968503937,
          "duration": 0.21527756249999896
        },
        {
          "name": "B3",
          "midi": 59,
          "time": 35.333298,
          "velocity": 0.6299212598425197,
          "duration": 0.21527756249999896
        },
        {
          "name": "E4",
          "midi": 64,
          "time": 35.333298,
          "velocity": 0.6141732283464567,
          "duration": 0.21527756249999896
        },
        {
          "name": "B3",
          "midi": 59,
          "time": 35.55552,
          "velocity": 0.6299212598425197,
          "duration": 0.1041665624999979
        },
        {
          "name": "G#4",
          "midi": 68,
          "time": 35.55552,
          "velocity": 0.5984251968503937,
          "duration": 0.1041665624999979
        },
        {
          "name": "E4",
          "midi": 64,
          "time": 35.55552,
          "velocity": 0.6141732283464567,
          "duration": 0.1041665624999979
        },
        {
          "name": "B3",
          "midi": 59,
          "time": 35.666631,
          "velocity": 0.6299212598425197,
          "duration": 0.21527756249999896
        },
        {
          "name": "E4",
          "midi": 64,
          "time": 35.666631,
          "velocity": 0.6141732283464567,
          "duration": 0.21527756249999896
        },
        {
          "name": "G#4",
          "midi": 68,
          "time": 35.666631,
          "velocity": 0.5984251968503937,
          "duration": 0.21527756249999896
        },
        {
          "name": "G#4",
          "midi": 68,
          "time": 35.888853000000005,
          "velocity": 0.5984251968503937,
          "duration": 0.1041665624999979
        },
        {
          "name": "E4",
          "midi": 64,
          "time": 35.888853000000005,
          "velocity": 0.6141732283464567,
          "duration": 0.1041665624999979
        },
        {
          "name": "B3",
          "midi": 59,
          "time": 35.888853000000005,
          "velocity": 0.6299212598425197,
          "duration": 0.1041665624999979
        },
        {
          "name": "G4",
          "midi": 67,
          "time": 35.999964000000006,
          "velocity": 0.6141732283464567,
          "duration": 0.32638856250000003
        },
        {
          "name": "E3",
          "midi": 52,
          "time": 35.999964000000006,
          "velocity": 0.7716535433070866,
          "duration": 0.32638856250000003
        },
        {
          "name": "B3",
          "midi": 59,
          "time": 35.999964000000006,
          "velocity": 0.7874015748031497,
          "duration": 0.32638856250000003
        },
        {
          "name": "E4",
          "midi": 64,
          "time": 35.999964000000006,
          "velocity": 0.6299212598425197,
          "duration": 0.32638856250000003
        },
        {
          "name": "E4",
          "midi": 64,
          "time": 36.33329700000001,
          "velocity": 0.6299212598425197,
          "duration": 0.21527756249999896
        },
        {
          "name": "G4",
          "midi": 67,
          "time": 36.33329700000001,
          "velocity": 0.6141732283464567,
          "duration": 0.21527756249999896
        },
        {
          "name": "B3",
          "midi": 59,
          "time": 36.33329700000001,
          "velocity": 0.7874015748031497,
          "duration": 0.21527756249999896
        },
        {
          "name": "E3",
          "midi": 52,
          "time": 36.33329700000001,
          "velocity": 0.7716535433070866,
          "duration": 0.21527756249999896
        },
        {
          "name": "G4",
          "midi": 67,
          "time": 36.55551900000001,
          "velocity": 0.6141732283464567,
          "duration": 0.1041665624999979
        },
        {
          "name": "E3",
          "midi": 52,
          "time": 36.55551900000001,
          "velocity": 0.7716535433070866,
          "duration": 0.1041665624999979
        },
        {
          "name": "E4",
          "midi": 64,
          "time": 36.55551900000001,
          "velocity": 0.6299212598425197,
          "duration": 0.1041665624999979
        },
        {
          "name": "B3",
          "midi": 59,
          "time": 36.55551900000001,
          "velocity": 0.7874015748031497,
          "duration": 0.1041665624999979
        },
        {
          "name": "E3",
          "midi": 52,
          "time": 36.66663000000001,
          "velocity": 0.7716535433070866,
          "duration": 0.21527756249999896
        },
        {
          "name": "E4",
          "midi": 64,
          "time": 36.66663000000001,
          "velocity": 0.6299212598425197,
          "duration": 0.21527756249999896
        },
        {
          "name": "G4",
          "midi": 67,
          "time": 36.66663000000001,
          "velocity": 0.6141732283464567,
          "duration": 0.21527756249999896
        },
        {
          "name": "B3",
          "midi": 59,
          "time": 36.66663000000001,
          "velocity": 0.7874015748031497,
          "duration": 0.21527756249999896
        },
        {
          "name": "E4",
          "midi": 64,
          "time": 36.888852000000014,
          "velocity": 0.6299212598425197,
          "duration": 0.1041665624999979
        },
        {
          "name": "B3",
          "midi": 59,
          "time": 36.888852000000014,
          "velocity": 0.7874015748031497,
          "duration": 0.1041665624999979
        },
        {
          "name": "G4",
          "midi": 67,
          "time": 36.888852000000014,
          "velocity": 0.6141732283464567,
          "duration": 0.1041665624999979
        },
        {
          "name": "E3",
          "midi": 52,
          "time": 36.888852000000014,
          "velocity": 0.7716535433070866,
          "duration": 0.1041665624999979
        },
        {
          "name": "B3",
          "midi": 59,
          "time": 36.999963000000015,
          "velocity": 0.7874015748031497,
          "duration": 0.32638856250000003
        },
        {
          "name": "G4",
          "midi": 67,
          "time": 36.999963000000015,
          "velocity": 0.6141732283464567,
          "duration": 0.32638856250000003
        },
        {
          "name": "E3",
          "midi": 52,
          "time": 36.999963000000015,
          "velocity": 0.7716535433070866,
          "duration": 0.32638856250000003
        },
        {
          "name": "E4",
          "midi": 64,
          "time": 36.999963000000015,
          "velocity": 0.6299212598425197,
          "duration": 0.32638856250000003
        },
        {
          "name": "G4",
          "midi": 67,
          "time": 37.33329600000002,
          "velocity": 0.6141732283464567,
          "duration": 0.21527756249999896
        },
        {
          "name": "B3",
          "midi": 59,
          "time": 37.33329600000002,
          "velocity": 0.7874015748031497,
          "duration": 0.21527756249999896
        },
        {
          "name": "E3",
          "midi": 52,
          "time": 37.33329600000002,
          "velocity": 0.7716535433070866,
          "duration": 0.21527756249999896
        },
        {
          "name": "E4",
          "midi": 64,
          "time": 37.33329600000002,
          "velocity": 0.6299212598425197,
          "duration": 0.21527756249999896
        },
        {
          "name": "E4",
          "midi": 64,
          "time": 37.55551800000002,
          "velocity": 0.6299212598425197,
          "duration": 0.1041665624999979
        },
        {
          "name": "B3",
          "midi": 59,
          "time": 37.55551800000002,
          "velocity": 0.7874015748031497,
          "duration": 0.1041665624999979
        },
        {
          "name": "E3",
          "midi": 52,
          "time": 37.55551800000002,
          "velocity": 0.7716535433070866,
          "duration": 0.1041665624999979
        },
        {
          "name": "G4",
          "midi": 67,
          "time": 37.55551800000002,
          "velocity": 0.6141732283464567,
          "duration": 0.1041665624999979
        },
        {
          "name": "E3",
          "midi": 52,
          "time": 37.66662900000002,
          "velocity": 0.7716535433070866,
          "duration": 0.21527756249999896
        },
        {
          "name": "B3",
          "midi": 59,
          "time": 37.66662900000002,
          "velocity": 0.7874015748031497,
          "duration": 0.21527756249999896
        },
        {
          "name": "E4",
          "midi": 64,
          "time": 37.66662900000002,
          "velocity": 0.6299212598425197,
          "duration": 0.21527756249999896
        },
        {
          "name": "G4",
          "midi": 67,
          "time": 37.66662900000002,
          "velocity": 0.6141732283464567,
          "duration": 0.21527756249999896
        },
        {
          "name": "E4",
          "midi": 64,
          "time": 37.888851000000024,
          "velocity": 0.6299212598425197,
          "duration": 0.1041665624999979
        },
        {
          "name": "B3",
          "midi": 59,
          "time": 37.888851000000024,
          "velocity": 0.7874015748031497,
          "duration": 0.1041665624999979
        },
        {
          "name": "E3",
          "midi": 52,
          "time": 37.888851000000024,
          "velocity": 0.7716535433070866,
          "duration": 0.1041665624999979
        },
        {
          "name": "G4",
          "midi": 67,
          "time": 37.888851000000024,
          "velocity": 0.6141732283464567,
          "duration": 0.1041665624999979
        },
        {
          "name": "E4",
          "midi": 64,
          "time": 37.999962000000025,
          "velocity": 0.6299212598425197,
          "duration": 0.32638856250000003
        },
        {
          "name": "G4",
          "midi": 67,
          "time": 37.999962000000025,
          "velocity": 0.6141732283464567,
          "duration": 0.32638856250000003
        },
        {
          "name": "E3",
          "midi": 52,
          "time": 37.999962000000025,
          "velocity": 0.7716535433070866,
          "duration": 0.32638856250000003
        },
        {
          "name": "B3",
          "midi": 59,
          "time": 37.999962000000025,
          "velocity": 0.7874015748031497,
          "duration": 0.32638856250000003
        },
        {
          "name": "B3",
          "midi": 59,
          "time": 38.33329500000003,
          "velocity": 0.7874015748031497,
          "duration": 0.21527756249999896
        },
        {
          "name": "G4",
          "midi": 67,
          "time": 38.33329500000003,
          "velocity": 0.6141732283464567,
          "duration": 0.21527756249999896
        },
        {
          "name": "E3",
          "midi": 52,
          "time": 38.33329500000003,
          "velocity": 0.7716535433070866,
          "duration": 0.21527756249999896
        },
        {
          "name": "E4",
          "midi": 64,
          "time": 38.33329500000003,
          "velocity": 0.6299212598425197,
          "duration": 0.21527756249999896
        },
        {
          "name": "G4",
          "midi": 67,
          "time": 38.55551700000003,
          "velocity": 0.6141732283464567,
          "duration": 0.1041665624999979
        },
        {
          "name": "E3",
          "midi": 52,
          "time": 38.55551700000003,
          "velocity": 0.7716535433070866,
          "duration": 0.1041665624999979
        },
        {
          "name": "B3",
          "midi": 59,
          "time": 38.55551700000003,
          "velocity": 0.7874015748031497,
          "duration": 0.1041665624999979
        },
        {
          "name": "E4",
          "midi": 64,
          "time": 38.55551700000003,
          "velocity": 0.6299212598425197,
          "duration": 0.1041665624999979
        },
        {
          "name": "E3",
          "midi": 52,
          "time": 38.66662800000003,
          "velocity": 0.7716535433070866,
          "duration": 0.21527756249999896
        },
        {
          "name": "G4",
          "midi": 67,
          "time": 38.66662800000003,
          "velocity": 0.6141732283464567,
          "duration": 0.21527756249999896
        },
        {
          "name": "E4",
          "midi": 64,
          "time": 38.66662800000003,
          "velocity": 0.6299212598425197,
          "duration": 0.21527756249999896
        },
        {
          "name": "B3",
          "midi": 59,
          "time": 38.66662800000003,
          "velocity": 0.7874015748031497,
          "duration": 0.21527756249999896
        },
        {
          "name": "B3",
          "midi": 59,
          "time": 38.88885000000003,
          "velocity": 0.7874015748031497,
          "duration": 0.1041665624999979
        },
        {
          "name": "G4",
          "midi": 67,
          "time": 38.88885000000003,
          "velocity": 0.6141732283464567,
          "duration": 0.1041665624999979
        },
        {
          "name": "E3",
          "midi": 52,
          "time": 38.88885000000003,
          "velocity": 0.7716535433070866,
          "duration": 0.1041665624999979
        },
        {
          "name": "E4",
          "midi": 64,
          "time": 38.88885000000003,
          "velocity": 0.6299212598425197,
          "duration": 0.1041665624999979
        },
        {
          "name": "B3",
          "midi": 59,
          "time": 38.999961000000035,
          "velocity": 0.7874015748031497,
          "duration": 0.32638856250000003
        },
        {
          "name": "E4",
          "midi": 64,
          "time": 38.999961000000035,
          "velocity": 0.6299212598425197,
          "duration": 0.32638856250000003
        },
        {
          "name": "G4",
          "midi": 67,
          "time": 38.999961000000035,
          "velocity": 0.6141732283464567,
          "duration": 0.32638856250000003
        },
        {
          "name": "E3",
          "midi": 52,
          "time": 38.999961000000035,
          "velocity": 0.7716535433070866,
          "duration": 0.32638856250000003
        },
        {
          "name": "B3",
          "midi": 59,
          "time": 39.33329400000004,
          "velocity": 0.7874015748031497,
          "duration": 0.21527756249999896
        },
        {
          "name": "E4",
          "midi": 64,
          "time": 39.33329400000004,
          "velocity": 0.6299212598425197,
          "duration": 0.21527756249999896
        },
        {
          "name": "E3",
          "midi": 52,
          "time": 39.33329400000004,
          "velocity": 0.7716535433070866,
          "duration": 0.21527756249999896
        },
        {
          "name": "G4",
          "midi": 67,
          "time": 39.33329400000004,
          "velocity": 0.6141732283464567,
          "duration": 0.21527756249999896
        },
        {
          "name": "E4",
          "midi": 64,
          "time": 39.55551600000004,
          "velocity": 0.6299212598425197,
          "duration": 0.1041665624999979
        },
        {
          "name": "G4",
          "midi": 67,
          "time": 39.55551600000004,
          "velocity": 0.6141732283464567,
          "duration": 0.1041665624999979
        },
        {
          "name": "E3",
          "midi": 52,
          "time": 39.55551600000004,
          "velocity": 0.7716535433070866,
          "duration": 0.1041665624999979
        },
        {
          "name": "B3",
          "midi": 59,
          "time": 39.55551600000004,
          "velocity": 0.7874015748031497,
          "duration": 0.1041665624999979
        },
        {
          "name": "G4",
          "midi": 67,
          "time": 39.66662700000004,
          "velocity": 0.6141732283464567,
          "duration": 0.21527756249999896
        },
        {
          "name": "E4",
          "midi": 64,
          "time": 39.66662700000004,
          "velocity": 0.6299212598425197,
          "duration": 0.21527756249999896
        },
        {
          "name": "E3",
          "midi": 52,
          "time": 39.66662700000004,
          "velocity": 0.7716535433070866,
          "duration": 0.21527756249999896
        },
        {
          "name": "B3",
          "midi": 59,
          "time": 39.66662700000004,
          "velocity": 0.7874015748031497,
          "duration": 0.21527756249999896
        },
        {
          "name": "G4",
          "midi": 67,
          "time": 39.88884900000004,
          "velocity": 0.6141732283464567,
          "duration": 0.1041665624999979
        },
        {
          "name": "E3",
          "midi": 52,
          "time": 39.88884900000004,
          "velocity": 0.7716535433070866,
          "duration": 0.1041665624999979
        },
        {
          "name": "E4",
          "midi": 64,
          "time": 39.88884900000004,
          "velocity": 0.6299212598425197,
          "duration": 0.1041665624999979
        },
        {
          "name": "B3",
          "midi": 59,
          "time": 39.88884900000004,
          "velocity": 0.7874015748031497,
          "duration": 0.1041665624999979
        },
        {
          "name": "E3",
          "midi": 52,
          "time": 39.999960000000044,
          "velocity": 0.6299212598425197,
          "duration": 0.32638856250000003
        },
        {
          "name": "C#3",
          "midi": 49,
          "time": 39.999960000000044,
          "velocity": 0.7874015748031497,
          "duration": 0.32638856250000003
        },
        {
          "name": "A2",
          "midi": 45,
          "time": 39.999960000000044,
          "velocity": 0.7716535433070866,
          "duration": 0.32638856250000003
        },
        {
          "name": "A3",
          "midi": 57,
          "time": 39.999960000000044,
          "velocity": 0.6141732283464567,
          "duration": 0.32638856250000003
        },
        {
          "name": "E4",
          "midi": 64,
          "time": 39.999960000000044,
          "velocity": 0.5984251968503937,
          "duration": 0.32638856250000003
        },
        {
          "name": "A4",
          "midi": 69,
          "time": 39.999960000000044,
          "velocity": 0.5826771653543307,
          "duration": 0.32638856250000003
        },
        {
          "name": "E3",
          "midi": 52,
          "time": 40.33329300000005,
          "velocity": 0.6299212598425197,
          "duration": 0.21527756249999896
        },
        {
          "name": "A2",
          "midi": 45,
          "time": 40.33329300000005,
          "velocity": 0.7716535433070866,
          "duration": 0.21527756249999896
        },
        {
          "name": "E4",
          "midi": 64,
          "time": 40.33329300000005,
          "velocity": 0.5984251968503937,
          "duration": 0.21527756249999896
        },
        {
          "name": "A3",
          "midi": 57,
          "time": 40.33329300000005,
          "velocity": 0.6141732283464567,
          "duration": 0.21527756249999896
        },
        {
          "name": "C#3",
          "midi": 49,
          "time": 40.33329300000005,
          "velocity": 0.7874015748031497,
          "duration": 0.21527756249999896
        },
        {
          "name": "A4",
          "midi": 69,
          "time": 40.33329300000005,
          "velocity": 0.5826771653543307,
          "duration": 0.21527756249999896
        },
        {
          "name": "E4",
          "midi": 64,
          "time": 40.55551500000005,
          "velocity": 0.5984251968503937,
          "duration": 0.1041665624999979
        },
        {
          "name": "A3",
          "midi": 57,
          "time": 40.55551500000005,
          "velocity": 0.6141732283464567,
          "duration": 0.1041665624999979
        },
        {
          "name": "C#3",
          "midi": 49,
          "time": 40.55551500000005,
          "velocity": 0.7874015748031497,
          "duration": 0.1041665624999979
        },
        {
          "name": "A2",
          "midi": 45,
          "time": 40.55551500000005,
          "velocity": 0.7716535433070866,
          "duration": 0.1041665624999979
        },
        {
          "name": "A4",
          "midi": 69,
          "time": 40.55551500000005,
          "velocity": 0.5826771653543307,
          "duration": 0.1041665624999979
        },
        {
          "name": "E3",
          "midi": 52,
          "time": 40.55551500000005,
          "velocity": 0.6299212598425197,
          "duration": 0.1041665624999979
        },
        {
          "name": "A2",
          "midi": 45,
          "time": 40.66662600000005,
          "velocity": 0.7716535433070866,
          "duration": 0.21527756249999896
        },
        {
          "name": "E4",
          "midi": 64,
          "time": 40.66662600000005,
          "velocity": 0.5984251968503937,
          "duration": 0.21527756249999896
        },
        {
          "name": "A3",
          "midi": 57,
          "time": 40.66662600000005,
          "velocity": 0.6141732283464567,
          "duration": 0.21527756249999896
        },
        {
          "name": "C#3",
          "midi": 49,
          "time": 40.66662600000005,
          "velocity": 0.7874015748031497,
          "duration": 0.21527756249999896
        },
        {
          "name": "E3",
          "midi": 52,
          "time": 40.66662600000005,
          "velocity": 0.6299212598425197,
          "duration": 0.21527756249999896
        },
        {
          "name": "A4",
          "midi": 69,
          "time": 40.66662600000005,
          "velocity": 0.5826771653543307,
          "duration": 0.21527756249999896
        },
        {
          "name": "C#3",
          "midi": 49,
          "time": 40.88884800000005,
          "velocity": 0.7874015748031497,
          "duration": 0.1041665624999979
        },
        {
          "name": "A4",
          "midi": 69,
          "time": 40.88884800000005,
          "velocity": 0.5826771653543307,
          "duration": 0.1041665624999979
        },
        {
          "name": "A3",
          "midi": 57,
          "time": 40.88884800000005,
          "velocity": 0.6141732283464567,
          "duration": 0.1041665624999979
        },
        {
          "name": "E4",
          "midi": 64,
          "time": 40.88884800000005,
          "velocity": 0.5984251968503937,
          "duration": 0.1041665624999979
        },
        {
          "name": "A2",
          "midi": 45,
          "time": 40.88884800000005,
          "velocity": 0.7716535433070866,
          "duration": 0.1041665624999979
        },
        {
          "name": "E3",
          "midi": 52,
          "time": 40.88884800000005,
          "velocity": 0.6299212598425197,
          "duration": 0.1041665624999979
        },
        {
          "name": "E4",
          "midi": 64,
          "time": 40.999959000000054,
          "velocity": 0.5984251968503937,
          "duration": 0.32638856250000003
        },
        {
          "name": "A2",
          "midi": 45,
          "time": 40.999959000000054,
          "velocity": 0.7716535433070866,
          "duration": 0.32638856250000003
        },
        {
          "name": "A4",
          "midi": 69,
          "time": 40.999959000000054,
          "velocity": 0.5826771653543307,
          "duration": 0.32638856250000003
        },
        {
          "name": "E3",
          "midi": 52,
          "time": 40.999959000000054,
          "velocity": 0.6299212598425197,
          "duration": 0.32638856250000003
        },
        {
          "name": "A3",
          "midi": 57,
          "time": 40.999959000000054,
          "velocity": 0.6141732283464567,
          "duration": 0.32638856250000003
        },
        {
          "name": "C#3",
          "midi": 49,
          "time": 40.999959000000054,
          "velocity": 0.7874015748031497,
          "duration": 0.32638856250000003
        },
        {
          "name": "A2",
          "midi": 45,
          "time": 41.33329200000006,
          "velocity": 0.7716535433070866,
          "duration": 0.21527756249999896
        },
        {
          "name": "A3",
          "midi": 57,
          "time": 41.33329200000006,
          "velocity": 0.6141732283464567,
          "duration": 0.21527756249999896
        },
        {
          "name": "C#3",
          "midi": 49,
          "time": 41.33329200000006,
          "velocity": 0.7874015748031497,
          "duration": 0.21527756249999896
        },
        {
          "name": "E4",
          "midi": 64,
          "time": 41.33329200000006,
          "velocity": 0.5984251968503937,
          "duration": 0.21527756249999896
        },
        {
          "name": "E3",
          "midi": 52,
          "time": 41.33329200000006,
          "velocity": 0.6299212598425197,
          "duration": 0.21527756249999896
        },
        {
          "name": "A4",
          "midi": 69,
          "time": 41.33329200000006,
          "velocity": 0.5826771653543307,
          "duration": 0.21527756249999896
        },
        {
          "name": "E3",
          "midi": 52,
          "time": 41.55551400000006,
          "velocity": 0.6299212598425197,
          "duration": 0.1041665624999979
        },
        {
          "name": "A3",
          "midi": 57,
          "time": 41.55551400000006,
          "velocity": 0.6141732283464567,
          "duration": 0.1041665624999979
        },
        {
          "name": "E4",
          "midi": 64,
          "time": 41.55551400000006,
          "velocity": 0.5984251968503937,
          "duration": 0.1041665624999979
        },
        {
          "name": "A2",
          "midi": 45,
          "time": 41.55551400000006,
          "velocity": 0.7716535433070866,
          "duration": 0.1041665624999979
        },
        {
          "name": "C#3",
          "midi": 49,
          "time": 41.55551400000006,
          "velocity": 0.7874015748031497,
          "duration": 0.1041665624999979
        },
        {
          "name": "A4",
          "midi": 69,
          "time": 41.55551400000006,
          "velocity": 0.5826771653543307,
          "duration": 0.1041665624999979
        },
        {
          "name": "E4",
          "midi": 64,
          "time": 41.66662500000006,
          "velocity": 0.5984251968503937,
          "duration": 0.21527756249999896
        },
        {
          "name": "A4",
          "midi": 69,
          "time": 41.66662500000006,
          "velocity": 0.5826771653543307,
          "duration": 0.21527756249999896
        },
        {
          "name": "E3",
          "midi": 52,
          "time": 41.66662500000006,
          "velocity": 0.6299212598425197,
          "duration": 0.21527756249999896
        },
        {
          "name": "C#3",
          "midi": 49,
          "time": 41.66662500000006,
          "velocity": 0.7874015748031497,
          "duration": 0.21527756249999896
        },
        {
          "name": "A2",
          "midi": 45,
          "time": 41.66662500000006,
          "velocity": 0.7716535433070866,
          "duration": 0.21527756249999896
        },
        {
          "name": "A3",
          "midi": 57,
          "time": 41.66662500000006,
          "velocity": 0.6141732283464567,
          "duration": 0.21527756249999896
        },
        {
          "name": "E4",
          "midi": 64,
          "time": 41.88884700000006,
          "velocity": 0.5984251968503937,
          "duration": 0.1041665624999979
        },
        {
          "name": "E3",
          "midi": 52,
          "time": 41.88884700000006,
          "velocity": 0.6299212598425197,
          "duration": 0.1041665624999979
        },
        {
          "name": "A4",
          "midi": 69,
          "time": 41.88884700000006,
          "velocity": 0.5826771653543307,
          "duration": 0.1041665624999979
        },
        {
          "name": "A3",
          "midi": 57,
          "time": 41.88884700000006,
          "velocity": 0.6141732283464567,
          "duration": 0.1041665624999979
        },
        {
          "name": "C#3",
          "midi": 49,
          "time": 41.88884700000006,
          "velocity": 0.7874015748031497,
          "duration": 0.1041665624999979
        },
        {
          "name": "A2",
          "midi": 45,
          "time": 41.88884700000006,
          "velocity": 0.7716535433070866,
          "duration": 0.1041665624999979
        },
        {
          "name": "E3",
          "midi": 52,
          "time": 41.99995800000006,
          "velocity": 0.6299212598425197,
          "duration": 0.32638856250000003
        },
        {
          "name": "A2",
          "midi": 45,
          "time": 41.99995800000006,
          "velocity": 0.7716535433070866,
          "duration": 0.32638856250000003
        },
        {
          "name": "A3",
          "midi": 57,
          "time": 41.99995800000006,
          "velocity": 0.6141732283464567,
          "duration": 0.32638856250000003
        },
        {
          "name": "C#3",
          "midi": 49,
          "time": 41.99995800000006,
          "velocity": 0.7874015748031497,
          "duration": 0.32638856250000003
        },
        {
          "name": "A4",
          "midi": 69,
          "time": 41.99995800000006,
          "velocity": 0.5826771653543307,
          "duration": 0.32638856250000003
        },
        {
          "name": "E4",
          "midi": 64,
          "time": 41.99995800000006,
          "velocity": 0.5984251968503937,
          "duration": 0.32638856250000003
        },
        {
          "name": "C#3",
          "midi": 49,
          "time": 42.33329100000007,
          "velocity": 0.7874015748031497,
          "duration": 0.21527756249999896
        },
        {
          "name": "E3",
          "midi": 52,
          "time": 42.33329100000007,
          "velocity": 0.6299212598425197,
          "duration": 0.21527756249999896
        },
        {
          "name": "A4",
          "midi": 69,
          "time": 42.33329100000007,
          "velocity": 0.5826771653543307,
          "duration": 0.21527756249999896
        },
        {
          "name": "E4",
          "midi": 64,
          "time": 42.33329100000007,
          "velocity": 0.5984251968503937,
          "duration": 0.21527756249999896
        },
        {
          "name": "A3",
          "midi": 57,
          "time": 42.33329100000007,
          "velocity": 0.6141732283464567,
          "duration": 0.21527756249999896
        },
        {
          "name": "A2",
          "midi": 45,
          "time": 42.33329100000007,
          "velocity": 0.7716535433070866,
          "duration": 0.21527756249999896
        },
        {
          "name": "A4",
          "midi": 69,
          "time": 42.55551300000007,
          "velocity": 0.5826771653543307,
          "duration": 0.1041665624999979
        },
        {
          "name": "E4",
          "midi": 64,
          "time": 42.55551300000007,
          "velocity": 0.5984251968503937,
          "duration": 0.1041665624999979
        },
        {
          "name": "C#3",
          "midi": 49,
          "time": 42.55551300000007,
          "velocity": 0.7874015748031497,
          "duration": 0.1041665624999979
        },
        {
          "name": "E3",
          "midi": 52,
          "time": 42.55551300000007,
          "velocity": 0.6299212598425197,
          "duration": 0.1041665624999979
        },
        {
          "name": "A2",
          "midi": 45,
          "time": 42.55551300000007,
          "velocity": 0.7716535433070866,
          "duration": 0.1041665624999979
        },
        {
          "name": "A3",
          "midi": 57,
          "time": 42.55551300000007,
          "velocity": 0.6141732283464567,
          "duration": 0.1041665624999979
        },
        {
          "name": "A3",
          "midi": 57,
          "time": 42.66662400000007,
          "velocity": 0.6141732283464567,
          "duration": 0.21527756249999896
        },
        {
          "name": "E4",
          "midi": 64,
          "time": 42.66662400000007,
          "velocity": 0.5984251968503937,
          "duration": 0.21527756249999896
        },
        {
          "name": "A2",
          "midi": 45,
          "time": 42.66662400000007,
          "velocity": 0.7716535433070866,
          "duration": 0.21527756249999896
        },
        {
          "name": "E3",
          "midi": 52,
          "time": 42.66662400000007,
          "velocity": 0.6299212598425197,
          "duration": 0.21527756249999896
        },
        {
          "name": "C#3",
          "midi": 49,
          "time": 42.66662400000007,
          "velocity": 0.7874015748031497,
          "duration": 0.21527756249999896
        },
        {
          "name": "A4",
          "midi": 69,
          "time": 42.66662400000007,
          "velocity": 0.5826771653543307,
          "duration": 0.21527756249999896
        },
        {
          "name": "A2",
          "midi": 45,
          "time": 42.88884600000007,
          "velocity": 0.7716535433070866,
          "duration": 0.1041665624999979
        },
        {
          "name": "E4",
          "midi": 64,
          "time": 42.88884600000007,
          "velocity": 0.5984251968503937,
          "duration": 0.1041665624999979
        },
        {
          "name": "A3",
          "midi": 57,
          "time": 42.88884600000007,
          "velocity": 0.6141732283464567,
          "duration": 0.1041665624999979
        },
        {
          "name": "E3",
          "midi": 52,
          "time": 42.88884600000007,
          "velocity": 0.6299212598425197,
          "duration": 0.1041665624999979
        },
        {
          "name": "C#3",
          "midi": 49,
          "time": 42.88884600000007,
          "velocity": 0.7874015748031497,
          "duration": 0.1041665624999979
        },
        {
          "name": "A4",
          "midi": 69,
          "time": 42.88884600000007,
          "velocity": 0.5826771653543307,
          "duration": 0.1041665624999979
        },
        {
          "name": "A2",
          "midi": 45,
          "time": 42.99995700000007,
          "velocity": 0.7716535433070866,
          "duration": 0.32638856250000003
        },
        {
          "name": "E3",
          "midi": 52,
          "time": 42.99995700000007,
          "velocity": 0.6299212598425197,
          "duration": 0.32638856250000003
        },
        {
          "name": "A3",
          "midi": 57,
          "time": 42.99995700000007,
          "velocity": 0.6141732283464567,
          "duration": 0.32638856250000003
        },
        {
          "name": "A4",
          "midi": 69,
          "time": 42.99995700000007,
          "velocity": 0.5826771653543307,
          "duration": 0.32638856250000003
        },
        {
          "name": "E4",
          "midi": 64,
          "time": 42.99995700000007,
          "velocity": 0.5984251968503937,
          "duration": 0.32638856250000003
        },
        {
          "name": "C#3",
          "midi": 49,
          "time": 42.99995700000007,
          "velocity": 0.7874015748031497,
          "duration": 0.32638856250000003
        },
        {
          "name": "A2",
          "midi": 45,
          "time": 43.333290000000076,
          "velocity": 0.7716535433070866,
          "duration": 0.21527756249999896
        },
        {
          "name": "A4",
          "midi": 69,
          "time": 43.333290000000076,
          "velocity": 0.5826771653543307,
          "duration": 0.21527756249999896
        },
        {
          "name": "E4",
          "midi": 64,
          "time": 43.333290000000076,
          "velocity": 0.5984251968503937,
          "duration": 0.21527756249999896
        },
        {
          "name": "A3",
          "midi": 57,
          "time": 43.333290000000076,
          "velocity": 0.6141732283464567,
          "duration": 0.21527756249999896
        },
        {
          "name": "E3",
          "midi": 52,
          "time": 43.333290000000076,
          "velocity": 0.6299212598425197,
          "duration": 0.21527756249999896
        },
        {
          "name": "C#3",
          "midi": 49,
          "time": 43.333290000000076,
          "velocity": 0.7874015748031497,
          "duration": 0.21527756249999896
        },
        {
          "name": "C#3",
          "midi": 49,
          "time": 43.55551200000008,
          "velocity": 0.7874015748031497,
          "duration": 0.1041665624999979
        },
        {
          "name": "E3",
          "midi": 52,
          "time": 43.55551200000008,
          "velocity": 0.6299212598425197,
          "duration": 0.1041665624999979
        },
        {
          "name": "A3",
          "midi": 57,
          "time": 43.55551200000008,
          "velocity": 0.6141732283464567,
          "duration": 0.1041665624999979
        },
        {
          "name": "A4",
          "midi": 69,
          "time": 43.55551200000008,
          "velocity": 0.5826771653543307,
          "duration": 0.1041665624999979
        },
        {
          "name": "A2",
          "midi": 45,
          "time": 43.55551200000008,
          "velocity": 0.7716535433070866,
          "duration": 0.1041665624999979
        },
        {
          "name": "E4",
          "midi": 64,
          "time": 43.55551200000008,
          "velocity": 0.5984251968503937,
          "duration": 0.1041665624999979
        },
        {
          "name": "A2",
          "midi": 45,
          "time": 43.66662300000008,
          "velocity": 0.7716535433070866,
          "duration": 0.21527756249999896
        },
        {
          "name": "E4",
          "midi": 64,
          "time": 43.66662300000008,
          "velocity": 0.5984251968503937,
          "duration": 0.21527756249999896
        },
        {
          "name": "C#3",
          "midi": 49,
          "time": 43.66662300000008,
          "velocity": 0.7874015748031497,
          "duration": 0.21527756249999896
        },
        {
          "name": "E3",
          "midi": 52,
          "time": 43.66662300000008,
          "velocity": 0.6299212598425197,
          "duration": 0.21527756249999896
        },
        {
          "name": "A4",
          "midi": 69,
          "time": 43.66662300000008,
          "velocity": 0.5826771653543307,
          "duration": 0.21527756249999896
        },
        {
          "name": "A3",
          "midi": 57,
          "time": 43.66662300000008,
          "velocity": 0.6141732283464567,
          "duration": 0.21527756249999896
        },
        {
          "name": "A4",
          "midi": 69,
          "time": 43.88884500000008,
          "velocity": 0.5826771653543307,
          "duration": 0.1041665624999979
        },
        {
          "name": "A2",
          "midi": 45,
          "time": 43.88884500000008,
          "velocity": 0.7716535433070866,
          "duration": 0.1041665624999979
        },
        {
          "name": "A3",
          "midi": 57,
          "time": 43.88884500000008,
          "velocity": 0.6141732283464567,
          "duration": 0.1041665624999979
        },
        {
          "name": "E4",
          "midi": 64,
          "time": 43.88884500000008,
          "velocity": 0.5984251968503937,
          "duration": 0.1041665624999979
        },
        {
          "name": "E3",
          "midi": 52,
          "time": 43.88884500000008,
          "velocity": 0.6299212598425197,
          "duration": 0.1041665624999979
        },
        {
          "name": "C#3",
          "midi": 49,
          "time": 43.88884500000008,
          "velocity": 0.7874015748031497,
          "duration": 0.1041665624999979
        },
        {
          "name": "B3",
          "midi": 59,
          "time": 43.99995600000008,
          "velocity": 0.7874015748031497,
          "duration": 0.32638856250000003
        },
        {
          "name": "E3",
          "midi": 52,
          "time": 43.99995600000008,
          "velocity": 0.7716535433070866,
          "duration": 0.32638856250000003
        },
        {
          "name": "G4",
          "midi": 67,
          "time": 43.99995600000008,
          "velocity": 0.6141732283464567,
          "duration": 0.32638856250000003
        },
        {
          "name": "E4",
          "midi": 64,
          "time": 43.99995600000008,
          "velocity": 0.6299212598425197,
          "duration": 0.32638856250000003
        },
        {
          "name": "E4",
          "midi": 64,
          "time": 44.333289000000086,
          "velocity": 0.6299212598425197,
          "duration": 0.21527756249999896
        },
        {
          "name": "B3",
          "midi": 59,
          "time": 44.333289000000086,
          "velocity": 0.7874015748031497,
          "duration": 0.21527756249999896
        },
        {
          "name": "G4",
          "midi": 67,
          "time": 44.333289000000086,
          "velocity": 0.6141732283464567,
          "duration": 0.21527756249999896
        },
        {
          "name": "E3",
          "midi": 52,
          "time": 44.333289000000086,
          "velocity": 0.7716535433070866,
          "duration": 0.21527756249999896
        },
        {
          "name": "B3",
          "midi": 59,
          "time": 44.55551100000009,
          "velocity": 0.7874015748031497,
          "duration": 0.1041665624999979
        },
        {
          "name": "E4",
          "midi": 64,
          "time": 44.55551100000009,
          "velocity": 0.6299212598425197,
          "duration": 0.1041665624999979
        },
        {
          "name": "G4",
          "midi": 67,
          "time": 44.55551100000009,
          "velocity": 0.6141732283464567,
          "duration": 0.1041665624999979
        },
        {
          "name": "E3",
          "midi": 52,
          "time": 44.55551100000009,
          "velocity": 0.7716535433070866,
          "duration": 0.1041665624999979
        },
        {
          "name": "G4",
          "midi": 67,
          "time": 44.66662200000009,
          "velocity": 0.6141732283464567,
          "duration": 0.21527756249999896
        },
        {
          "name": "E3",
          "midi": 52,
          "time": 44.66662200000009,
          "velocity": 0.7716535433070866,
          "duration": 0.21527756249999896
        },
        {
          "name": "E4",
          "midi": 64,
          "time": 44.66662200000009,
          "velocity": 0.6299212598425197,
          "duration": 0.21527756249999896
        },
        {
          "name": "B3",
          "midi": 59,
          "time": 44.66662200000009,
          "velocity": 0.7874015748031497,
          "duration": 0.21527756249999896
        },
        {
          "name": "E3",
          "midi": 52,
          "time": 44.88884400000009,
          "velocity": 0.7716535433070866,
          "duration": 0.1041665624999979
        },
        {
          "name": "G4",
          "midi": 67,
          "time": 44.88884400000009,
          "velocity": 0.6141732283464567,
          "duration": 0.1041665624999979
        },
        {
          "name": "E4",
          "midi": 64,
          "time": 44.88884400000009,
          "velocity": 0.6299212598425197,
          "duration": 0.1041665624999979
        },
        {
          "name": "B3",
          "midi": 59,
          "time": 44.88884400000009,
          "velocity": 0.7874015748031497,
          "duration": 0.1041665624999979
        },
        {
          "name": "E3",
          "midi": 52,
          "time": 44.99995500000009,
          "velocity": 0.7716535433070866,
          "duration": 0.32638856250000003
        },
        {
          "name": "G4",
          "midi": 67,
          "time": 44.99995500000009,
          "velocity": 0.6141732283464567,
          "duration": 0.32638856250000003
        },
        {
          "name": "B3",
          "midi": 59,
          "time": 44.99995500000009,
          "velocity": 0.7874015748031497,
          "duration": 0.32638856250000003
        },
        {
          "name": "E4",
          "midi": 64,
          "time": 44.99995500000009,
          "velocity": 0.6299212598425197,
          "duration": 0.32638856250000003
        },
        {
          "name": "E4",
          "midi": 64,
          "time": 45.333288000000096,
          "velocity": 0.6299212598425197,
          "duration": 0.21527756249999896
        },
        {
          "name": "B3",
          "midi": 59,
          "time": 45.333288000000096,
          "velocity": 0.7874015748031497,
          "duration": 0.21527756249999896
        },
        {
          "name": "G4",
          "midi": 67,
          "time": 45.333288000000096,
          "velocity": 0.6141732283464567,
          "duration": 0.21527756249999896
        },
        {
          "name": "E3",
          "midi": 52,
          "time": 45.333288000000096,
          "velocity": 0.7716535433070866,
          "duration": 0.21527756249999896
        },
        {
          "name": "G4",
          "midi": 67,
          "time": 45.5555100000001,
          "velocity": 0.6141732283464567,
          "duration": 0.1041665624999979
        },
        {
          "name": "E3",
          "midi": 52,
          "time": 45.5555100000001,
          "velocity": 0.7716535433070866,
          "duration": 0.1041665624999979
        },
        {
          "name": "E4",
          "midi": 64,
          "time": 45.5555100000001,
          "velocity": 0.6299212598425197,
          "duration": 0.1041665624999979
        },
        {
          "name": "B3",
          "midi": 59,
          "time": 45.5555100000001,
          "velocity": 0.7874015748031497,
          "duration": 0.1041665624999979
        },
        {
          "name": "E4",
          "midi": 64,
          "time": 45.6666210000001,
          "velocity": 0.6299212598425197,
          "duration": 0.21527756249999896
        },
        {
          "name": "G4",
          "midi": 67,
          "time": 45.6666210000001,
          "velocity": 0.6141732283464567,
          "duration": 0.21527756249999896
        },
        {
          "name": "E3",
          "midi": 52,
          "time": 45.6666210000001,
          "velocity": 0.7716535433070866,
          "duration": 0.21527756249999896
        },
        {
          "name": "B3",
          "midi": 59,
          "time": 45.6666210000001,
          "velocity": 0.7874015748031497,
          "duration": 0.21527756249999896
        },
        {
          "name": "B3",
          "midi": 59,
          "time": 45.8888430000001,
          "velocity": 0.7874015748031497,
          "duration": 0.1041665624999979
        },
        {
          "name": "E3",
          "midi": 52,
          "time": 45.8888430000001,
          "velocity": 0.7716535433070866,
          "duration": 0.1041665624999979
        },
        {
          "name": "E4",
          "midi": 64,
          "time": 45.8888430000001,
          "velocity": 0.6299212598425197,
          "duration": 0.1041665624999979
        },
        {
          "name": "G4",
          "midi": 67,
          "time": 45.8888430000001,
          "velocity": 0.6141732283464567,
          "duration": 0.1041665624999979
        },
        {
          "name": "E4",
          "midi": 64,
          "time": 45.9999540000001,
          "velocity": 0.6299212598425197,
          "duration": 0.32638856250000003
        },
        {
          "name": "B3",
          "midi": 59,
          "time": 45.9999540000001,
          "velocity": 0.7874015748031497,
          "duration": 0.32638856250000003
        },
        {
          "name": "G4",
          "midi": 67,
          "time": 45.9999540000001,
          "velocity": 0.6141732283464567,
          "duration": 0.32638856250000003
        },
        {
          "name": "E3",
          "midi": 52,
          "time": 45.9999540000001,
          "velocity": 0.7716535433070866,
          "duration": 0.32638856250000003
        },
        {
          "name": "E3",
          "midi": 52,
          "time": 46.333287000000105,
          "velocity": 0.7716535433070866,
          "duration": 0.21527756249999896
        },
        {
          "name": "E4",
          "midi": 64,
          "time": 46.333287000000105,
          "velocity": 0.6299212598425197,
          "duration": 0.21527756249999896
        },
        {
          "name": "G4",
          "midi": 67,
          "time": 46.333287000000105,
          "velocity": 0.6141732283464567,
          "duration": 0.21527756249999896
        },
        {
          "name": "B3",
          "midi": 59,
          "time": 46.333287000000105,
          "velocity": 0.7874015748031497,
          "duration": 0.21527756249999896
        },
        {
          "name": "G4",
          "midi": 67,
          "time": 46.55550900000011,
          "velocity": 0.6141732283464567,
          "duration": 0.1041665624999979
        },
        {
          "name": "B3",
          "midi": 59,
          "time": 46.55550900000011,
          "velocity": 0.7874015748031497,
          "duration": 0.1041665624999979
        },
        {
          "name": "E4",
          "midi": 64,
          "time": 46.55550900000011,
          "velocity": 0.6299212598425197,
          "duration": 0.1041665624999979
        },
        {
          "name": "E3",
          "midi": 52,
          "time": 46.55550900000011,
          "velocity": 0.7716535433070866,
          "duration": 0.1041665624999979
        },
        {
          "name": "G4",
          "midi": 67,
          "time": 46.66662000000011,
          "velocity": 0.6141732283464567,
          "duration": 0.21527756249999896
        },
        {
          "name": "E4",
          "midi": 64,
          "time": 46.66662000000011,
          "velocity": 0.6299212598425197,
          "duration": 0.21527756249999896
        },
        {
          "name": "E3",
          "midi": 52,
          "time": 46.66662000000011,
          "velocity": 0.7716535433070866,
          "duration": 0.21527756249999896
        },
        {
          "name": "B3",
          "midi": 59,
          "time": 46.66662000000011,
          "velocity": 0.7874015748031497,
          "duration": 0.21527756249999896
        },
        {
          "name": "E4",
          "midi": 64,
          "time": 46.88884200000011,
          "velocity": 0.6299212598425197,
          "duration": 0.1041665624999979
        },
        {
          "name": "E3",
          "midi": 52,
          "time": 46.88884200000011,
          "velocity": 0.7716535433070866,
          "duration": 0.1041665624999979
        },
        {
          "name": "B3",
          "midi": 59,
          "time": 46.88884200000011,
          "velocity": 0.7874015748031497,
          "duration": 0.1041665624999979
        },
        {
          "name": "G4",
          "midi": 67,
          "time": 46.88884200000011,
          "velocity": 0.6141732283464567,
          "duration": 0.1041665624999979
        },
        {
          "name": "B3",
          "midi": 59,
          "time": 46.99995300000011,
          "velocity": 0.7874015748031497,
          "duration": 0.32638856250000003
        },
        {
          "name": "E3",
          "midi": 52,
          "time": 46.99995300000011,
          "velocity": 0.7716535433070866,
          "duration": 0.32638856250000003
        },
        {
          "name": "G4",
          "midi": 67,
          "time": 46.99995300000011,
          "velocity": 0.6141732283464567,
          "duration": 0.32638856250000003
        },
        {
          "name": "E4",
          "midi": 64,
          "time": 46.99995300000011,
          "velocity": 0.6299212598425197,
          "duration": 0.32638856250000003
        },
        {
          "name": "G4",
          "midi": 67,
          "time": 47.333286000000115,
          "velocity": 0.6141732283464567,
          "duration": 0.21527756249999896
        },
        {
          "name": "E4",
          "midi": 64,
          "time": 47.333286000000115,
          "velocity": 0.6299212598425197,
          "duration": 0.21527756249999896
        },
        {
          "name": "B3",
          "midi": 59,
          "time": 47.333286000000115,
          "velocity": 0.7874015748031497,
          "duration": 0.21527756249999896
        },
        {
          "name": "E3",
          "midi": 52,
          "time": 47.333286000000115,
          "velocity": 0.7716535433070866,
          "duration": 0.21527756249999896
        },
        {
          "name": "E4",
          "midi": 64,
          "time": 47.55550800000012,
          "velocity": 0.6299212598425197,
          "duration": 0.1041665624999979
        },
        {
          "name": "E3",
          "midi": 52,
          "time": 47.55550800000012,
          "velocity": 0.7716535433070866,
          "duration": 0.1041665624999979
        },
        {
          "name": "G4",
          "midi": 67,
          "time": 47.55550800000012,
          "velocity": 0.6141732283464567,
          "duration": 0.1041665624999979
        },
        {
          "name": "B3",
          "midi": 59,
          "time": 47.55550800000012,
          "velocity": 0.7874015748031497,
          "duration": 0.1041665624999979
        },
        {
          "name": "G4",
          "midi": 67,
          "time": 47.66661900000012,
          "velocity": 0.6141732283464567,
          "duration": 0.21527756249999896
        },
        {
          "name": "B3",
          "midi": 59,
          "time": 47.66661900000012,
          "velocity": 0.7874015748031497,
          "duration": 0.21527756249999896
        },
        {
          "name": "E4",
          "midi": 64,
          "time": 47.66661900000012,
          "velocity": 0.6299212598425197,
          "duration": 0.21527756249999896
        },
        {
          "name": "E3",
          "midi": 52,
          "time": 47.66661900000012,
          "velocity": 0.7716535433070866,
          "duration": 0.21527756249999896
        },
        {
          "name": "E4",
          "midi": 64,
          "time": 47.88884100000012,
          "velocity": 0.6299212598425197,
          "duration": 0.1041665624999979
        },
        {
          "name": "E3",
          "midi": 52,
          "time": 47.88884100000012,
          "velocity": 0.7716535433070866,
          "duration": 0.1041665624999979
        },
        {
          "name": "B3",
          "midi": 59,
          "time": 47.88884100000012,
          "velocity": 0.7874015748031497,
          "duration": 0.1041665624999979
        },
        {
          "name": "G4",
          "midi": 67,
          "time": 47.88884100000012,
          "velocity": 0.6141732283464567,
          "duration": 0.1041665624999979
        },
        {
          "name": "F#4",
          "midi": 66,
          "time": 47.99995200000012,
          "velocity": 0.7165354330708661,
          "duration": 0.32638856250000003
        },
        {
          "name": "C#4",
          "midi": 61,
          "time": 47.99995200000012,
          "velocity": 0.7322834645669292,
          "duration": 0.32638856250000003
        },
        {
          "name": "C#3",
          "midi": 49,
          "time": 47.99995200000012,
          "velocity": 0.889763779527559,
          "duration": 0.32638856250000003
        },
        {
          "name": "F#3",
          "midi": 54,
          "time": 47.99995200000012,
          "velocity": 0.905511811023622,
          "duration": 0.32638856250000003
        },
        {
          "name": "A3",
          "midi": 57,
          "time": 47.99995200000012,
          "velocity": 0.7480314960629921,
          "duration": 0.32638856250000003
        },
        {
          "name": "F#4",
          "midi": 66,
          "time": 48.333285000000124,
          "velocity": 0.5984251968503937,
          "duration": 0.21527756249999896
        },
        {
          "name": "C#3",
          "midi": 49,
          "time": 48.333285000000124,
          "velocity": 0.7716535433070866,
          "duration": 0.21527756249999896
        },
        {
          "name": "A3",
          "midi": 57,
          "time": 48.333285000000124,
          "velocity": 0.6299212598425197,
          "duration": 0.21527756249999896
        },
        {
          "name": "F#3",
          "midi": 54,
          "time": 48.333285000000124,
          "velocity": 0.7874015748031497,
          "duration": 0.21527756249999896
        },
        {
          "name": "C#4",
          "midi": 61,
          "time": 48.333285000000124,
          "velocity": 0.6141732283464567,
          "duration": 0.21527756249999896
        },
        {
          "name": "F#3",
          "midi": 54,
          "time": 48.55550700000013,
          "velocity": 0.905511811023622,
          "duration": 0.1041665624999979
        },
        {
          "name": "F#4",
          "midi": 66,
          "time": 48.55550700000013,
          "velocity": 0.7165354330708661,
          "duration": 0.1041665624999979
        },
        {
          "name": "C#4",
          "midi": 61,
          "time": 48.55550700000013,
          "velocity": 0.7322834645669292,
          "duration": 0.1041665624999979
        },
        {
          "name": "A3",
          "midi": 57,
          "time": 48.55550700000013,
          "velocity": 0.7480314960629921,
          "duration": 0.1041665624999979
        },
        {
          "name": "C#3",
          "midi": 49,
          "time": 48.55550700000013,
          "velocity": 0.889763779527559,
          "duration": 0.1041665624999979
        },
        {
          "name": "F#3",
          "midi": 54,
          "time": 48.66661800000013,
          "velocity": 0.7874015748031497,
          "duration": 0.21527756249999896
        },
        {
          "name": "C#3",
          "midi": 49,
          "time": 48.66661800000013,
          "velocity": 0.7716535433070866,
          "duration": 0.21527756249999896
        },
        {
          "name": "C#4",
          "midi": 61,
          "time": 48.66661800000013,
          "velocity": 0.6141732283464567,
          "duration": 0.21527756249999896
        },
        {
          "name": "A3",
          "midi": 57,
          "time": 48.66661800000013,
          "velocity": 0.6299212598425197,
          "duration": 0.21527756249999896
        },
        {
          "name": "F#4",
          "midi": 66,
          "time": 48.66661800000013,
          "velocity": 0.5984251968503937,
          "duration": 0.21527756249999896
        },
        {
          "name": "F#4",
          "midi": 66,
          "time": 48.88884000000013,
          "velocity": 0.5984251968503937,
          "duration": 0.1041665624999979
        },
        {
          "name": "A3",
          "midi": 57,
          "time": 48.88884000000013,
          "velocity": 0.6299212598425197,
          "duration": 0.1041665624999979
        },
        {
          "name": "F#3",
          "midi": 54,
          "time": 48.88884000000013,
          "velocity": 0.7874015748031497,
          "duration": 0.1041665624999979
        },
        {
          "name": "C#3",
          "midi": 49,
          "time": 48.88884000000013,
          "velocity": 0.7716535433070866,
          "duration": 0.1041665624999979
        },
        {
          "name": "C#4",
          "midi": 61,
          "time": 48.88884000000013,
          "velocity": 0.6141732283464567,
          "duration": 0.1041665624999979
        },
        {
          "name": "C#4",
          "midi": 61,
          "time": 48.99995100000013,
          "velocity": 0.7322834645669292,
          "duration": 0.32638856250000003
        },
        {
          "name": "C#3",
          "midi": 49,
          "time": 48.99995100000013,
          "velocity": 0.889763779527559,
          "duration": 0.32638856250000003
        },
        {
          "name": "F#3",
          "midi": 54,
          "time": 48.99995100000013,
          "velocity": 0.905511811023622,
          "duration": 0.32638856250000003
        },
        {
          "name": "F#4",
          "midi": 66,
          "time": 48.99995100000013,
          "velocity": 0.7165354330708661,
          "duration": 0.32638856250000003
        },
        {
          "name": "A3",
          "midi": 57,
          "time": 48.99995100000013,
          "velocity": 0.7480314960629921,
          "duration": 0.32638856250000003
        },
        {
          "name": "C#3",
          "midi": 49,
          "time": 49.333284000000134,
          "velocity": 0.7716535433070866,
          "duration": 0.21527756249999896
        },
        {
          "name": "A3",
          "midi": 57,
          "time": 49.333284000000134,
          "velocity": 0.6299212598425197,
          "duration": 0.21527756249999896
        },
        {
          "name": "F#3",
          "midi": 54,
          "time": 49.333284000000134,
          "velocity": 0.7874015748031497,
          "duration": 0.21527756249999896
        },
        {
          "name": "F#4",
          "midi": 66,
          "time": 49.333284000000134,
          "velocity": 0.5984251968503937,
          "duration": 0.21527756249999896
        },
        {
          "name": "C#4",
          "midi": 61,
          "time": 49.333284000000134,
          "velocity": 0.6141732283464567,
          "duration": 0.21527756249999896
        },
        {
          "name": "F#3",
          "midi": 54,
          "time": 49.555506000000136,
          "velocity": 0.905511811023622,
          "duration": 0.1041665624999979
        },
        {
          "name": "F#4",
          "midi": 66,
          "time": 49.555506000000136,
          "velocity": 0.7165354330708661,
          "duration": 0.1041665624999979
        },
        {
          "name": "C#4",
          "midi": 61,
          "time": 49.555506000000136,
          "velocity": 0.7322834645669292,
          "duration": 0.1041665624999979
        },
        {
          "name": "C#3",
          "midi": 49,
          "time": 49.555506000000136,
          "velocity": 0.889763779527559,
          "duration": 0.1041665624999979
        },
        {
          "name": "A3",
          "midi": 57,
          "time": 49.555506000000136,
          "velocity": 0.7480314960629921,
          "duration": 0.1041665624999979
        },
        {
          "name": "C#3",
          "midi": 49,
          "time": 49.66661700000014,
          "velocity": 0.7716535433070866,
          "duration": 0.21527756249999896
        },
        {
          "name": "F#4",
          "midi": 66,
          "time": 49.66661700000014,
          "velocity": 0.5984251968503937,
          "duration": 0.21527756249999896
        },
        {
          "name": "C#4",
          "midi": 61,
          "time": 49.66661700000014,
          "velocity": 0.6141732283464567,
          "duration": 0.21527756249999896
        },
        {
          "name": "A3",
          "midi": 57,
          "time": 49.66661700000014,
          "velocity": 0.6299212598425197,
          "duration": 0.21527756249999896
        },
        {
          "name": "F#3",
          "midi": 54,
          "time": 49.66661700000014,
          "velocity": 0.7874015748031497,
          "duration": 0.21527756249999896
        },
        {
          "name": "F#3",
          "midi": 54,
          "time": 49.88883900000014,
          "velocity": 0.7874015748031497,
          "duration": 0.1041665624999979
        },
        {
          "name": "C#4",
          "midi": 61,
          "time": 49.88883900000014,
          "velocity": 0.6141732283464567,
          "duration": 0.1041665624999979
        },
        {
          "name": "A3",
          "midi": 57,
          "time": 49.88883900000014,
          "velocity": 0.6299212598425197,
          "duration": 0.1041665624999979
        },
        {
          "name": "C#3",
          "midi": 49,
          "time": 49.88883900000014,
          "velocity": 0.7716535433070866,
          "duration": 0.1041665624999979
        },
        {
          "name": "F#4",
          "midi": 66,
          "time": 49.88883900000014,
          "velocity": 0.5984251968503937,
          "duration": 0.1041665624999979
        },
        {
          "name": "F#4",
          "midi": 66,
          "time": 49.99995000000014,
          "velocity": 0.7165354330708661,
          "duration": 0.32638856250000003
        },
        {
          "name": "B2",
          "midi": 47,
          "time": 49.99995000000014,
          "velocity": 0.889763779527559,
          "duration": 0.32638856250000003
        },
        {
          "name": "D#4",
          "midi": 63,
          "time": 49.99995000000014,
          "velocity": 0.7322834645669292,
          "duration": 0.32638856250000003
        },
        {
          "name": "F#3",
          "midi": 54,
          "time": 49.99995000000014,
          "velocity": 0.905511811023622,
          "duration": 0.32638856250000003
        },
        {
          "name": "A3",
          "midi": 57,
          "time": 49.99995000000014,
          "velocity": 0.7480314960629921,
          "duration": 0.32638856250000003
        },
        {
          "name": "F#3",
          "midi": 54,
          "time": 50.333283000000144,
          "velocity": 0.7874015748031497,
          "duration": 0.21527756249999896
        },
        {
          "name": "D#4",
          "midi": 63,
          "time": 50.333283000000144,
          "velocity": 0.6141732283464567,
          "duration": 0.21527756249999896
        },
        {
          "name": "A3",
          "midi": 57,
          "time": 50.333283000000144,
          "velocity": 0.6299212598425197,
          "duration": 0.21527756249999896
        },
        {
          "name": "F#4",
          "midi": 66,
          "time": 50.333283000000144,
          "velocity": 0.5984251968503937,
          "duration": 0.21527756249999896
        },
        {
          "name": "B2",
          "midi": 47,
          "time": 50.333283000000144,
          "velocity": 0.7716535433070866,
          "duration": 0.21527756249999896
        },
        {
          "name": "F#3",
          "midi": 54,
          "time": 50.555505000000146,
          "velocity": 0.905511811023622,
          "duration": 0.1041665624999979
        },
        {
          "name": "F#4",
          "midi": 66,
          "time": 50.555505000000146,
          "velocity": 0.7165354330708661,
          "duration": 0.1041665624999979
        },
        {
          "name": "B2",
          "midi": 47,
          "time": 50.555505000000146,
          "velocity": 0.889763779527559,
          "duration": 0.1041665624999979
        },
        {
          "name": "D#4",
          "midi": 63,
          "time": 50.555505000000146,
          "velocity": 0.7322834645669292,
          "duration": 0.1041665624999979
        },
        {
          "name": "A3",
          "midi": 57,
          "time": 50.555505000000146,
          "velocity": 0.7480314960629921,
          "duration": 0.1041665624999979
        },
        {
          "name": "F#4",
          "midi": 66,
          "time": 50.66661600000015,
          "velocity": 0.5984251968503937,
          "duration": 0.21527756249999896
        },
        {
          "name": "A3",
          "midi": 57,
          "time": 50.66661600000015,
          "velocity": 0.6299212598425197,
          "duration": 0.21527756249999896
        },
        {
          "name": "D#4",
          "midi": 63,
          "time": 50.66661600000015,
          "velocity": 0.6141732283464567,
          "duration": 0.21527756249999896
        },
        {
          "name": "F#3",
          "midi": 54,
          "time": 50.66661600000015,
          "velocity": 0.7874015748031497,
          "duration": 0.21527756249999896
        },
        {
          "name": "B2",
          "midi": 47,
          "time": 50.66661600000015,
          "velocity": 0.7716535433070866,
          "duration": 0.21527756249999896
        },
        {
          "name": "F#4",
          "midi": 66,
          "time": 50.88883800000015,
          "velocity": 0.5984251968503937,
          "duration": 0.1041665624999979
        },
        {
          "name": "F#3",
          "midi": 54,
          "time": 50.88883800000015,
          "velocity": 0.7874015748031497,
          "duration": 0.1041665624999979
        },
        {
          "name": "B2",
          "midi": 47,
          "time": 50.88883800000015,
          "velocity": 0.7716535433070866,
          "duration": 0.1041665624999979
        },
        {
          "name": "A3",
          "midi": 57,
          "time": 50.88883800000015,
          "velocity": 0.6299212598425197,
          "duration": 0.1041665624999979
        },
        {
          "name": "D#4",
          "midi": 63,
          "time": 50.88883800000015,
          "velocity": 0.6141732283464567,
          "duration": 0.1041665624999979
        },
        {
          "name": "F#4",
          "midi": 66,
          "time": 50.99994900000015,
          "velocity": 0.7165354330708661,
          "duration": 0.32638856250000003
        },
        {
          "name": "A3",
          "midi": 57,
          "time": 50.99994900000015,
          "velocity": 0.7480314960629921,
          "duration": 0.32638856250000003
        },
        {
          "name": "D#4",
          "midi": 63,
          "time": 50.99994900000015,
          "velocity": 0.7322834645669292,
          "duration": 0.32638856250000003
        },
        {
          "name": "B2",
          "midi": 47,
          "time": 50.99994900000015,
          "velocity": 0.889763779527559,
          "duration": 0.32638856250000003
        },
        {
          "name": "F#3",
          "midi": 54,
          "time": 50.99994900000015,
          "velocity": 0.905511811023622,
          "duration": 0.32638856250000003
        },
        {
          "name": "F#4",
          "midi": 66,
          "time": 51.33328200000015,
          "velocity": 0.5984251968503937,
          "duration": 0.21527756249999896
        },
        {
          "name": "F#3",
          "midi": 54,
          "time": 51.33328200000015,
          "velocity": 0.7874015748031497,
          "duration": 0.21527756249999896
        },
        {
          "name": "D#4",
          "midi": 63,
          "time": 51.33328200000015,
          "velocity": 0.6141732283464567,
          "duration": 0.21527756249999896
        },
        {
          "name": "A3",
          "midi": 57,
          "time": 51.33328200000015,
          "velocity": 0.6299212598425197,
          "duration": 0.21527756249999896
        },
        {
          "name": "B2",
          "midi": 47,
          "time": 51.33328200000015,
          "velocity": 0.7716535433070866,
          "duration": 0.21527756249999896
        },
        {
          "name": "F#4",
          "midi": 66,
          "time": 51.555504000000155,
          "velocity": 0.7165354330708661,
          "duration": 0.1041665624999979
        },
        {
          "name": "A3",
          "midi": 57,
          "time": 51.555504000000155,
          "velocity": 0.7480314960629921,
          "duration": 0.1041665624999979
        },
        {
          "name": "D#4",
          "midi": 63,
          "time": 51.555504000000155,
          "velocity": 0.7322834645669292,
          "duration": 0.1041665624999979
        },
        {
          "name": "F#3",
          "midi": 54,
          "time": 51.555504000000155,
          "velocity": 0.905511811023622,
          "duration": 0.1041665624999979
        },
        {
          "name": "B2",
          "midi": 47,
          "time": 51.555504000000155,
          "velocity": 0.889763779527559,
          "duration": 0.1041665624999979
        },
        {
          "name": "A3",
          "midi": 57,
          "time": 51.66661500000016,
          "velocity": 0.6299212598425197,
          "duration": 0.21527756249999896
        },
        {
          "name": "F#4",
          "midi": 66,
          "time": 51.66661500000016,
          "velocity": 0.5984251968503937,
          "duration": 0.21527756249999896
        },
        {
          "name": "B2",
          "midi": 47,
          "time": 51.66661500000016,
          "velocity": 0.7716535433070866,
          "duration": 0.21527756249999896
        },
        {
          "name": "D#4",
          "midi": 63,
          "time": 51.66661500000016,
          "velocity": 0.6141732283464567,
          "duration": 0.21527756249999896
        },
        {
          "name": "F#3",
          "midi": 54,
          "time": 51.66661500000016,
          "velocity": 0.7874015748031497,
          "duration": 0.21527756249999896
        },
        {
          "name": "F#3",
          "midi": 54,
          "time": 51.88883700000016,
          "velocity": 0.7874015748031497,
          "duration": 0.1041665624999979
        },
        {
          "name": "F#4",
          "midi": 66,
          "time": 51.88883700000016,
          "velocity": 0.5984251968503937,
          "duration": 0.1041665624999979
        },
        {
          "name": "B2",
          "midi": 47,
          "time": 51.88883700000016,
          "velocity": 0.7716535433070866,
          "duration": 0.1041665624999979
        },
        {
          "name": "A3",
          "midi": 57,
          "time": 51.88883700000016,
          "velocity": 0.6299212598425197,
          "duration": 0.1041665624999979
        },
        {
          "name": "D#4",
          "midi": 63,
          "time": 51.88883700000016,
          "velocity": 0.6141732283464567,
          "duration": 0.1041665624999979
        },
        {
          "name": "B2",
          "midi": 47,
          "time": 51.99994800000016,
          "velocity": 0.7716535433070866,
          "duration": 2.6597195625000225
        },
        {
          "name": "B3",
          "midi": 59,
          "time": 51.99994800000016,
          "velocity": 0.8661417322834646,
          "duration": 0.32638856250000003
        },
        {
          "name": "E3",
          "midi": 52,
          "time": 51.99994800000016,
          "velocity": 0.8661417322834646,
          "duration": 0.9930545625000065
        },
        {
          "name": "B3",
          "midi": 59,
          "time": 52.33328100000016,
          "velocity": 0.6299212598425197,
          "duration": 0.32638856250000003
        },
        {
          "name": "E4",
          "midi": 64,
          "time": 52.33328100000016,
          "velocity": 0.6141732283464567,
          "duration": 0.21527756249999896
        },
        {
          "name": "E4",
          "midi": 64,
          "time": 52.555503000000165,
          "velocity": 0.6141732283464567,
          "duration": 0.1041665624999979
        },
        {
          "name": "G#4",
          "midi": 68,
          "time": 52.555503000000165,
          "velocity": 0.5984251968503937,
          "duration": 0.32638856250000003
        },
        {
          "name": "E4",
          "midi": 64,
          "time": 52.666614000000166,
          "velocity": 0.6141732283464567,
          "duration": 0.21527756249999896
        },
        {
          "name": "B3",
          "midi": 59,
          "time": 52.666614000000166,
          "velocity": 0.6299212598425197,
          "duration": 0.32638856250000003
        },
        {
          "name": "E4",
          "midi": 64,
          "time": 52.88883600000017,
          "velocity": 0.6141732283464567,
          "duration": 0.1041665624999979
        },
        {
          "name": "G#4",
          "midi": 68,
          "time": 52.88883600000017,
          "velocity": 0.5984251968503937,
          "duration": 0.32638856250000003
        },
        {
          "name": "G#4",
          "midi": 68,
          "time": 52.99994700000017,
          "velocity": 0.6141732283464567,
          "duration": 0.32638856250000003
        },
        {
          "name": "B3",
          "midi": 59,
          "time": 52.99994700000017,
          "velocity": 0.8661417322834646,
          "duration": 0.21527756249999896
        },
        {
          "name": "E4",
          "midi": 64,
          "time": 52.99994700000017,
          "velocity": 0.6299212598425197,
          "duration": 0.32638856250000003
        },
        {
          "name": "C#4",
          "midi": 61,
          "time": 53.22216900000017,
          "velocity": 0.8661417322834646,
          "duration": 0.1041665624999979
        },
        {
          "name": "B3",
          "midi": 59,
          "time": 53.33328000000017,
          "velocity": 0.8661417322834646,
          "duration": 0.32638856250000003
        },
        {
          "name": "G#4",
          "midi": 68,
          "time": 53.33328000000017,
          "velocity": 0.6141732283464567,
          "duration": 0.32638856250000003
        },
        {
          "name": "E4",
          "midi": 64,
          "time": 53.33328000000017,
          "velocity": 0.6299212598425197,
          "duration": 0.32638856250000003
        },
        {
          "name": "E4",
          "midi": 64,
          "time": 53.666613000000176,
          "velocity": 0.6299212598425197,
          "duration": 0.32638856250000003
        },
        {
          "name": "G#4",
          "midi": 68,
          "time": 53.666613000000176,
          "velocity": 0.6141732283464567,
          "duration": 0.32638856250000003
        },
        {
          "name": "A3",
          "midi": 57,
          "time": 53.666613000000176,
          "velocity": 0.8661417322834646,
          "duration": 0.32638856250000003
        },
        {
          "name": "E4",
          "midi": 64,
          "time": 53.99994600000018,
          "velocity": 0.6141732283464567,
          "duration": 0.32638856250000003
        },
        {
          "name": "A3",
          "midi": 57,
          "time": 53.99994600000018,
          "velocity": 0.6299212598425197,
          "duration": 0.32638856250000003
        },
        {
          "name": "G#3",
          "midi": 56,
          "time": 53.99994600000018,
          "velocity": 0.8661417322834646,
          "duration": 0.6597215625000032
        },
        {
          "name": "B3",
          "midi": 59,
          "time": 54.33327900000018,
          "velocity": 0.6299212598425197,
          "duration": 0.32638856250000003
        },
        {
          "name": "E4",
          "midi": 64,
          "time": 54.33327900000018,
          "velocity": 0.6141732283464567,
          "duration": 0.21527756249999896
        },
        {
          "name": "G#4",
          "midi": 68,
          "time": 54.555501000000184,
          "velocity": 0.5984251968503937,
          "duration": 1.770831562500014
        },
        {
          "name": "E4",
          "midi": 64,
          "time": 54.555501000000184,
          "velocity": 0.6141732283464567,
          "duration": 0.7708325625000043
        },
        {
          "name": "B2",
          "midi": 47,
          "time": 54.666612000000185,
          "velocity": 0.7716535433070866,
          "duration": 1.3263875625000097
        },
        {
          "name": "E3",
          "midi": 52,
          "time": 54.666612000000185,
          "velocity": 0.8661417322834646,
          "duration": 0.32638856250000003
        },
        {
          "name": "B3",
          "midi": 59,
          "time": 54.666612000000185,
          "velocity": 0.6299212598425197,
          "duration": 0.9930545625000065
        },
        {
          "name": "F#3",
          "midi": 54,
          "time": 54.99994500000019,
          "velocity": 0.8661417322834646,
          "duration": 0.32638856250000003
        },
        {
          "name": "E4",
          "midi": 64,
          "time": 55.33327800000019,
          "velocity": 0.6141732283464567,
          "duration": 0.32638856250000003
        },
        {
          "name": "A3",
          "midi": 57,
          "time": 55.33327800000019,
          "velocity": 0.8661417322834646,
          "duration": 0.32638856250000003
        },
        {
          "name": "A3",
          "midi": 57,
          "time": 55.666611000000195,
          "velocity": 0.6299212598425197,
          "duration": 0.32638856250000003
        },
        {
          "name": "G#3",
          "midi": 56,
          "time": 55.666611000000195,
          "velocity": 0.8661417322834646,
          "duration": 0.32638856250000003
        },
        {
          "name": "E4",
          "midi": 64,
          "time": 55.666611000000195,
          "velocity": 0.6141732283464567,
          "duration": 0.32638856250000003
        },
        {
          "name": "B2",
          "midi": 47,
          "time": 55.9999440000002,
          "velocity": 0.7716535433070866,
          "duration": 0.6597215625000032
        },
        {
          "name": "E3",
          "midi": 52,
          "time": 55.9999440000002,
          "velocity": 0.8661417322834646,
          "duration": 0.6597215625000032
        },
        {
          "name": "B3",
          "midi": 59,
          "time": 55.9999440000002,
          "velocity": 0.6299212598425197,
          "duration": 0.32638856250000003
        },
        {
          "name": "E4",
          "midi": 64,
          "time": 55.9999440000002,
          "velocity": 0.6141732283464567,
          "duration": 0.32638856250000003
        },
        {
          "name": "B3",
          "midi": 59,
          "time": 56.3332770000002,
          "velocity": 0.6299212598425197,
          "duration": 0.9930545625000065
        },
        {
          "name": "E4",
          "midi": 64,
          "time": 56.3332770000002,
          "velocity": 0.6141732283464567,
          "duration": 0.21527756249999896
        },
        {
          "name": "E4",
          "midi": 64,
          "time": 56.555499000000204,
          "velocity": 0.6141732283464567,
          "duration": 0.7708325625000043
        },
        {
          "name": "G#4",
          "midi": 68,
          "time": 56.555499000000204,
          "velocity": 0.5984251968503937,
          "duration": 1.1041655625000075
        },
        {
          "name": "E3",
          "midi": 52,
          "time": 56.666610000000205,
          "velocity": 0.8661417322834646,
          "duration": 0.32638856250000003
        },
        {
          "name": "B2",
          "midi": 47,
          "time": 56.666610000000205,
          "velocity": 0.7716535433070866,
          "duration": 0.9930545625000065
        },
        {
          "name": "D3",
          "midi": 50,
          "time": 56.99994300000021,
          "velocity": 0.8661417322834646,
          "duration": 0.32638856250000003
        },
        {
          "name": "A3",
          "midi": 57,
          "time": 57.33327600000021,
          "velocity": 0.8661417322834646,
          "duration": 0.32638856250000003
        },
        {
          "name": "E4",
          "midi": 64,
          "time": 57.33327600000021,
          "velocity": 0.6299212598425197,
          "duration": 0.32638856250000003
        },
        {
          "name": "F#4",
          "midi": 66,
          "time": 57.33327600000021,
          "velocity": 0.6141732283464567,
          "duration": 0.32638856250000003
        },
        {
          "name": "E4",
          "midi": 64,
          "time": 57.666609000000214,
          "velocity": 0.6141732283464567,
          "duration": 0.32638856250000003
        },
        {
          "name": "A3",
          "midi": 57,
          "time": 57.666609000000214,
          "velocity": 0.6299212598425197,
          "duration": 0.32638856250000003
        },
        {
          "name": "E3",
          "midi": 52,
          "time": 57.666609000000214,
          "velocity": 0.8661417322834646,
          "duration": 0.32638856250000003
        },
        {
          "name": "F#4",
          "midi": 66,
          "time": 57.666609000000214,
          "velocity": 0.5984251968503937,
          "duration": 0.32638856250000003
        },
        {
          "name": "C#3",
          "midi": 49,
          "time": 57.666609000000214,
          "velocity": 0.7716535433070866,
          "duration": 0.32638856250000003
        },
        {
          "name": "E3",
          "midi": 52,
          "time": 57.99994200000022,
          "velocity": 0.8661417322834646,
          "duration": 0.9930545625000065
        },
        {
          "name": "B3",
          "midi": 59,
          "time": 57.99994200000022,
          "velocity": 0.6299212598425197,
          "duration": 0.32638856250000003
        },
        {
          "name": "E4",
          "midi": 64,
          "time": 57.99994200000022,
          "velocity": 0.6141732283464567,
          "duration": 0.32638856250000003
        },
        {
          "name": "F#4",
          "midi": 66,
          "time": 57.99994200000022,
          "velocity": 0.5984251968503937,
          "duration": 0.21527756249999896
        },
        {
          "name": "B2",
          "midi": 47,
          "time": 57.99994200000022,
          "velocity": 0.7716535433070866,
          "duration": 0.9930545625000065
        },
        {
          "name": "G#4",
          "midi": 68,
          "time": 58.22216400000022,
          "velocity": 0.5984251968503937,
          "duration": 0.1041665624999979
        },
        {
          "name": "E4",
          "midi": 64,
          "time": 58.33327500000022,
          "velocity": 0.6141732283464567,
          "duration": 0.21527756249999896
        },
        {
          "name": "B3",
          "midi": 59,
          "time": 58.33327500000022,
          "velocity": 0.6299212598425197,
          "duration": 0.21527756249999896
        },
        {
          "name": "G#4",
          "midi": 68,
          "time": 58.33327500000022,
          "velocity": 0.5984251968503937,
          "duration": 0.21527756249999896
        },
        {
          "name": "B3",
          "midi": 59,
          "time": 58.55549700000022,
          "velocity": 0.6299212598425197,
          "duration": 0.1041665624999979
        },
        {
          "name": "E4",
          "midi": 64,
          "time": 58.55549700000022,
          "velocity": 0.6141732283464567,
          "duration": 0.1041665624999979
        },
        {
          "name": "G#4",
          "midi": 68,
          "time": 58.55549700000022,
          "velocity": 0.5984251968503937,
          "duration": 0.1041665624999979
        },
        {
          "name": "G#4",
          "midi": 68,
          "time": 58.666608000000224,
          "velocity": 0.5984251968503937,
          "duration": 0.21527756249999896
        },
        {
          "name": "B3",
          "midi": 59,
          "time": 58.666608000000224,
          "velocity": 0.6299212598425197,
          "duration": 0.21527756249999896
        },
        {
          "name": "E4",
          "midi": 64,
          "time": 58.666608000000224,
          "velocity": 0.6141732283464567,
          "duration": 0.21527756249999896
        },
        {
          "name": "E4",
          "midi": 64,
          "time": 58.888830000000226,
          "velocity": 0.6141732283464567,
          "duration": 0.1041665624999979
        },
        {
          "name": "G#4",
          "midi": 68,
          "time": 58.888830000000226,
          "velocity": 0.5984251968503937,
          "duration": 0.1041665624999979
        },
        {
          "name": "B3",
          "midi": 59,
          "time": 58.888830000000226,
          "velocity": 0.6299212598425197,
          "duration": 0.1041665624999979
        },
        {
          "name": "E3",
          "midi": 52,
          "time": 58.99994100000023,
          "velocity": 0.8661417322834646,
          "duration": 0.9930545625000065
        },
        {
          "name": "B2",
          "midi": 47,
          "time": 58.99994100000023,
          "velocity": 0.7716535433070866,
          "duration": 0.9930545625000065
        },
        {
          "name": "E4",
          "midi": 64,
          "time": 58.99994100000023,
          "velocity": 0.6141732283464567,
          "duration": 0.32638856250000003
        },
        {
          "name": "B3",
          "midi": 59,
          "time": 58.99994100000023,
          "velocity": 0.6299212598425197,
          "duration": 0.32638856250000003
        },
        {
          "name": "G#4",
          "midi": 68,
          "time": 58.99994100000023,
          "velocity": 0.5984251968503937,
          "duration": 0.32638856250000003
        },
        {
          "name": "E4",
          "midi": 64,
          "time": 59.33327400000023,
          "velocity": 0.6141732283464567,
          "duration": 0.21527756249999896
        },
        {
          "name": "B3",
          "midi": 59,
          "time": 59.33327400000023,
          "velocity": 0.6299212598425197,
          "duration": 0.21527756249999896
        },
        {
          "name": "G#4",
          "midi": 68,
          "time": 59.33327400000023,
          "velocity": 0.5984251968503937,
          "duration": 0.21527756249999896
        },
        {
          "name": "G#4",
          "midi": 68,
          "time": 59.55549600000023,
          "velocity": 0.5984251968503937,
          "duration": 0.1041665624999979
        },
        {
          "name": "E4",
          "midi": 64,
          "time": 59.55549600000023,
          "velocity": 0.6141732283464567,
          "duration": 0.1041665624999979
        },
        {
          "name": "B3",
          "midi": 59,
          "time": 59.55549600000023,
          "velocity": 0.6299212598425197,
          "duration": 0.1041665624999979
        },
        {
          "name": "B3",
          "midi": 59,
          "time": 59.66660700000023,
          "velocity": 0.6299212598425197,
          "duration": 0.21527756249999896
        },
        {
          "name": "E4",
          "midi": 64,
          "time": 59.66660700000023,
          "velocity": 0.6141732283464567,
          "duration": 0.21527756249999896
        },
        {
          "name": "G#4",
          "midi": 68,
          "time": 59.66660700000023,
          "velocity": 0.5984251968503937,
          "duration": 0.21527756249999896
        },
        {
          "name": "E4",
          "midi": 64,
          "time": 59.888829000000236,
          "velocity": 0.6141732283464567,
          "duration": 0.1041665624999979
        },
        {
          "name": "G#4",
          "midi": 68,
          "time": 59.888829000000236,
          "velocity": 0.5984251968503937,
          "duration": 0.1041665624999979
        },
        {
          "name": "B3",
          "midi": 59,
          "time": 59.888829000000236,
          "velocity": 0.6299212598425197,
          "duration": 0.1041665624999979
        },
        {
          "name": "E3",
          "midi": 52,
          "time": 59.99994000000024,
          "velocity": 0.8661417322834646,
          "duration": 0.9930545625000065
        },
        {
          "name": "B3",
          "midi": 59,
          "time": 59.99994000000024,
          "velocity": 0.8661417322834646,
          "duration": 0.32638856250000003
        },
        {
          "name": "B2",
          "midi": 47,
          "time": 59.99994000000024,
          "velocity": 0.7716535433070866,
          "duration": 2.6597195625000225
        },
        {
          "name": "B3",
          "midi": 59,
          "time": 60.33327300000024,
          "velocity": 0.6299212598425197,
          "duration": 0.32638856250000003
        },
        {
          "name": "E4",
          "midi": 64,
          "time": 60.33327300000024,
          "velocity": 0.6141732283464567,
          "duration": 0.21527756249999896
        },
        {
          "name": "G#4",
          "midi": 68,
          "time": 60.55549500000024,
          "velocity": 0.5984251968503937,
          "duration": 0.32638856250000003
        },
        {
          "name": "E4",
          "midi": 64,
          "time": 60.55549500000024,
          "velocity": 0.6141732283464567,
          "duration": 0.1041665624999979
        },
        {
          "name": "B3",
          "midi": 59,
          "time": 60.66660600000024,
          "velocity": 0.6299212598425197,
          "duration": 0.32638856250000003
        },
        {
          "name": "E4",
          "midi": 64,
          "time": 60.66660600000024,
          "velocity": 0.6141732283464567,
          "duration": 0.21527756249999896
        },
        {
          "name": "E4",
          "midi": 64,
          "time": 60.888828000000245,
          "velocity": 0.6141732283464567,
          "duration": 0.1041665624999979
        },
        {
          "name": "G#4",
          "midi": 68,
          "time": 60.888828000000245,
          "velocity": 0.5984251968503937,
          "duration": 0.32638856250000003
        },
        {
          "name": "G#4",
          "midi": 68,
          "time": 60.999939000000246,
          "velocity": 0.6141732283464567,
          "duration": 0.32638856250000003
        },
        {
          "name": "E4",
          "midi": 64,
          "time": 60.999939000000246,
          "velocity": 0.6299212598425197,
          "duration": 0.32638856250000003
        },
        {
          "name": "B3",
          "midi": 59,
          "time": 60.999939000000246,
          "velocity": 0.8661417322834646,
          "duration": 0.21527756249999896
        },
        {
          "name": "C#4",
          "midi": 61,
          "time": 61.22216100000025,
          "velocity": 0.8661417322834646,
          "duration": 0.1041665624999979
        },
        {
          "name": "B3",
          "midi": 59,
          "time": 61.33327200000025,
          "velocity": 0.8661417322834646,
          "duration": 0.32638856250000003
        },
        {
          "name": "E4",
          "midi": 64,
          "time": 61.33327200000025,
          "velocity": 0.6299212598425197,
          "duration": 0.32638856250000003
        },
        {
          "name": "G#4",
          "midi": 68,
          "time": 61.33327200000025,
          "velocity": 0.6141732283464567,
          "duration": 0.32638856250000003
        },
        {
          "name": "E4",
          "midi": 64,
          "time": 61.66660500000025,
          "velocity": 0.6299212598425197,
          "duration": 0.32638856250000003
        },
        {
          "name": "G#4",
          "midi": 68,
          "time": 61.66660500000025,
          "velocity": 0.6141732283464567,
          "duration": 0.32638856250000003
        },
        {
          "name": "A3",
          "midi": 57,
          "time": 61.66660500000025,
          "velocity": 0.8661417322834646,
          "duration": 0.32638856250000003
        },
        {
          "name": "G#3",
          "midi": 56,
          "time": 61.999938000000256,
          "velocity": 0.8661417322834646,
          "duration": 0.6597215625000032
        },
        {
          "name": "E4",
          "midi": 64,
          "time": 61.999938000000256,
          "velocity": 0.6141732283464567,
          "duration": 0.32638856250000003
        },
        {
          "name": "A3",
          "midi": 57,
          "time": 61.999938000000256,
          "velocity": 0.6299212598425197,
          "duration": 0.32638856250000003
        },
        {
          "name": "B3",
          "midi": 59,
          "time": 62.33327100000026,
          "velocity": 0.6299212598425197,
          "duration": 0.32638856250000003
        },
        {
          "name": "E4",
          "midi": 64,
          "time": 62.33327100000026,
          "velocity": 0.6141732283464567,
          "duration": 0.21527756249999896
        },
        {
          "name": "G#4",
          "midi": 68,
          "time": 62.55549300000026,
          "velocity": 0.5984251968503937,
          "duration": 1.770831562500014
        },
        {
          "name": "E4",
          "midi": 64,
          "time": 62.55549300000026,
          "velocity": 0.6141732283464567,
          "duration": 0.7708325625000043
        },
        {
          "name": "E3",
          "midi": 52,
          "time": 62.66660400000026,
          "velocity": 0.8661417322834646,
          "duration": 0.32638856250000003
        },
        {
          "name": "B3",
          "midi": 59,
          "time": 62.66660400000026,
          "velocity": 0.6299212598425197,
          "duration": 0.9930545625000065
        },
        {
          "name": "B2",
          "midi": 47,
          "time": 62.66660400000026,
          "velocity": 0.7716535433070866,
          "duration": 1.3263875625000097
        },
        {
          "name": "F#3",
          "midi": 54,
          "time": 62.999937000000266,
          "velocity": 0.8661417322834646,
          "duration": 0.32638856250000003
        },
        {
          "name": "E4",
          "midi": 64,
          "time": 63.33327000000027,
          "velocity": 0.6141732283464567,
          "duration": 0.32638856250000003
        },
        {
          "name": "A3",
          "midi": 57,
          "time": 63.33327000000027,
          "velocity": 0.8661417322834646,
          "duration": 0.32638856250000003
        },
        {
          "name": "E4",
          "midi": 64,
          "time": 63.66660300000027,
          "velocity": 0.6141732283464567,
          "duration": 0.32638856250000003
        },
        {
          "name": "A3",
          "midi": 57,
          "time": 63.66660300000027,
          "velocity": 0.6299212598425197,
          "duration": 0.32638856250000003
        },
        {
          "name": "G#3",
          "midi": 56,
          "time": 63.66660300000027,
          "velocity": 0.8661417322834646,
          "duration": 0.32638856250000003
        },
        {
          "name": "B2",
          "midi": 47,
          "time": 63.999936000000275,
          "velocity": 0.7716535433070866,
          "duration": 0.6597215624999961
        },
        {
          "name": "B3",
          "midi": 59,
          "time": 63.999936000000275,
          "velocity": 0.6299212598425197,
          "duration": 0.32638856250000003
        },
        {
          "name": "E3",
          "midi": 52,
          "time": 63.999936000000275,
          "velocity": 0.8661417322834646,
          "duration": 0.6597215624999961
        },
        {
          "name": "E4",
          "midi": 64,
          "time": 63.999936000000275,
          "velocity": 0.6141732283464567,
          "duration": 0.32638856250000003
        },
        {
          "name": "B3",
          "midi": 59,
          "time": 64.33326900000027,
          "velocity": 0.6299212598425197,
          "duration": 0.9930545624999922
        },
        {
          "name": "E4",
          "midi": 64,
          "time": 64.33326900000027,
          "velocity": 0.6141732283464567,
          "duration": 0.21527756250000607
        },
        {
          "name": "E4",
          "midi": 64,
          "time": 64.55549100000027,
          "velocity": 0.6141732283464567,
          "duration": 0.7708325624999901
        },
        {
          "name": "G#4",
          "midi": 68,
          "time": 64.55549100000027,
          "velocity": 0.5984251968503937,
          "duration": 1.1041655624999862
        },
        {
          "name": "B2",
          "midi": 47,
          "time": 64.66660200000027,
          "velocity": 0.7716535433070866,
          "duration": 0.9930545624999922
        },
        {
          "name": "E3",
          "midi": 52,
          "time": 64.66660200000027,
          "velocity": 0.8661417322834646,
          "duration": 0.32638856250000003
        },
        {
          "name": "D3",
          "midi": 50,
          "time": 64.99993500000026,
          "velocity": 0.8661417322834646,
          "duration": 0.32638856250000003
        },
        {
          "name": "F#4",
          "midi": 66,
          "time": 65.33326800000026,
          "velocity": 0.6141732283464567,
          "duration": 0.32638856250000003
        },
        {
          "name": "A3",
          "midi": 57,
          "time": 65.33326800000026,
          "velocity": 0.8661417322834646,
          "duration": 0.32638856250000003
        },
        {
          "name": "E4",
          "midi": 64,
          "time": 65.33326800000026,
          "velocity": 0.6299212598425197,
          "duration": 0.32638856250000003
        },
        {
          "name": "C#3",
          "midi": 49,
          "time": 65.66660100000026,
          "velocity": 0.7716535433070866,
          "duration": 0.32638856250000003
        },
        {
          "name": "E3",
          "midi": 52,
          "time": 65.66660100000026,
          "velocity": 0.8661417322834646,
          "duration": 0.32638856250000003
        },
        {
          "name": "F#4",
          "midi": 66,
          "time": 65.66660100000026,
          "velocity": 0.5984251968503937,
          "duration": 0.32638856250000003
        },
        {
          "name": "A3",
          "midi": 57,
          "time": 65.66660100000026,
          "velocity": 0.6299212598425197,
          "duration": 0.32638856250000003
        },
        {
          "name": "E4",
          "midi": 64,
          "time": 65.66660100000026,
          "velocity": 0.6141732283464567,
          "duration": 0.32638856250000003
        },
        {
          "name": "E3",
          "midi": 52,
          "time": 65.99993400000025,
          "velocity": 0.8661417322834646,
          "duration": 0.9930545624999922
        },
        {
          "name": "B3",
          "midi": 59,
          "time": 65.99993400000025,
          "velocity": 0.6299212598425197,
          "duration": 0.32638856250000003
        },
        {
          "name": "B2",
          "midi": 47,
          "time": 65.99993400000025,
          "velocity": 0.7716535433070866,
          "duration": 0.9930545624999922
        },
        {
          "name": "F#4",
          "midi": 66,
          "time": 65.99993400000025,
          "velocity": 0.5984251968503937,
          "duration": 0.21527756250000607
        },
        {
          "name": "E4",
          "midi": 64,
          "time": 65.99993400000025,
          "velocity": 0.6141732283464567,
          "duration": 0.32638856250000003
        },
        {
          "name": "G#4",
          "midi": 68,
          "time": 66.22215600000025,
          "velocity": 0.5984251968503937,
          "duration": 0.1041665624999979
        },
        {
          "name": "B3",
          "midi": 59,
          "time": 66.33326700000025,
          "velocity": 0.6299212598425197,
          "duration": 0.21527756250000607
        },
        {
          "name": "G#4",
          "midi": 68,
          "time": 66.33326700000025,
          "velocity": 0.5984251968503937,
          "duration": 0.21527756250000607
        },
        {
          "name": "E4",
          "midi": 64,
          "time": 66.33326700000025,
          "velocity": 0.6141732283464567,
          "duration": 0.21527756250000607
        },
        {
          "name": "B3",
          "midi": 59,
          "time": 66.55548900000025,
          "velocity": 0.6299212598425197,
          "duration": 0.1041665624999979
        },
        {
          "name": "E4",
          "midi": 64,
          "time": 66.55548900000025,
          "velocity": 0.6141732283464567,
          "duration": 0.1041665624999979
        },
        {
          "name": "G#4",
          "midi": 68,
          "time": 66.55548900000025,
          "velocity": 0.5984251968503937,
          "duration": 0.1041665624999979
        },
        {
          "name": "G#4",
          "midi": 68,
          "time": 66.66660000000024,
          "velocity": 0.5984251968503937,
          "duration": 0.21527756250000607
        },
        {
          "name": "E4",
          "midi": 64,
          "time": 66.66660000000024,
          "velocity": 0.6141732283464567,
          "duration": 0.21527756250000607
        },
        {
          "name": "B3",
          "midi": 59,
          "time": 66.66660000000024,
          "velocity": 0.6299212598425197,
          "duration": 0.21527756250000607
        },
        {
          "name": "G#4",
          "midi": 68,
          "time": 66.88882200000025,
          "velocity": 0.5984251968503937,
          "duration": 0.1041665624999979
        },
        {
          "name": "B3",
          "midi": 59,
          "time": 66.88882200000025,
          "velocity": 0.6299212598425197,
          "duration": 0.1041665624999979
        },
        {
          "name": "E4",
          "midi": 64,
          "time": 66.88882200000025,
          "velocity": 0.6141732283464567,
          "duration": 0.1041665624999979
        },
        {
          "name": "B2",
          "midi": 47,
          "time": 66.99993300000024,
          "velocity": 0.7716535433070866,
          "duration": 0.9930545624999922
        },
        {
          "name": "G#4",
          "midi": 68,
          "time": 66.99993300000024,
          "velocity": 0.5984251968503937,
          "duration": 0.32638856250000003
        },
        {
          "name": "E3",
          "midi": 52,
          "time": 66.99993300000024,
          "velocity": 0.8661417322834646,
          "duration": 0.9930545624999922
        },
        {
          "name": "B3",
          "midi": 59,
          "time": 66.99993300000024,
          "velocity": 0.6299212598425197,
          "duration": 0.32638856250000003
        },
        {
          "name": "E4",
          "midi": 64,
          "time": 66.99993300000024,
          "velocity": 0.6141732283464567,
          "duration": 0.32638856250000003
        },
        {
          "name": "G#4",
          "midi": 68,
          "time": 67.33326600000024,
          "velocity": 0.5984251968503937,
          "duration": 0.21527756250000607
        },
        {
          "name": "B3",
          "midi": 59,
          "time": 67.33326600000024,
          "velocity": 0.6299212598425197,
          "duration": 0.21527756250000607
        },
        {
          "name": "E4",
          "midi": 64,
          "time": 67.33326600000024,
          "velocity": 0.6141732283464567,
          "duration": 0.21527756250000607
        },
        {
          "name": "G#4",
          "midi": 68,
          "time": 67.55548800000024,
          "velocity": 0.5984251968503937,
          "duration": 0.1041665624999979
        },
        {
          "name": "B3",
          "midi": 59,
          "time": 67.55548800000024,
          "velocity": 0.6299212598425197,
          "duration": 0.1041665624999979
        },
        {
          "name": "E4",
          "midi": 64,
          "time": 67.55548800000024,
          "velocity": 0.6141732283464567,
          "duration": 0.1041665624999979
        },
        {
          "name": "B3",
          "midi": 59,
          "time": 67.66659900000023,
          "velocity": 0.6299212598425197,
          "duration": 0.21527756250000607
        },
        {
          "name": "G#4",
          "midi": 68,
          "time": 67.66659900000023,
          "velocity": 0.5984251968503937,
          "duration": 0.21527756250000607
        },
        {
          "name": "E4",
          "midi": 64,
          "time": 67.66659900000023,
          "velocity": 0.6141732283464567,
          "duration": 0.21527756250000607
        },
        {
          "name": "G#4",
          "midi": 68,
          "time": 67.88882100000023,
          "velocity": 0.5984251968503937,
          "duration": 0.1041665624999979
        },
        {
          "name": "E4",
          "midi": 64,
          "time": 67.88882100000023,
          "velocity": 0.6141732283464567,
          "duration": 0.1041665624999979
        },
        {
          "name": "B3",
          "midi": 59,
          "time": 67.88882100000023,
          "velocity": 0.6299212598425197,
          "duration": 0.1041665624999979
        },
        {
          "name": "B2",
          "midi": 47,
          "time": 67.99993200000023,
          "velocity": 0.7716535433070866,
          "duration": 2.6597195624999728
        },
        {
          "name": "B3",
          "midi": 59,
          "time": 67.99993200000023,
          "velocity": 0.8661417322834646,
          "duration": 0.32638856250000003
        },
        {
          "name": "E3",
          "midi": 52,
          "time": 67.99993200000023,
          "velocity": 0.8661417322834646,
          "duration": 0.9930545624999922
        },
        {
          "name": "B3",
          "midi": 59,
          "time": 68.33326500000022,
          "velocity": 0.6299212598425197,
          "duration": 0.32638856250000003
        },
        {
          "name": "E4",
          "midi": 64,
          "time": 68.33326500000022,
          "velocity": 0.6141732283464567,
          "duration": 0.21527756250000607
        },
        {
          "name": "G#4",
          "midi": 68,
          "time": 68.55548700000023,
          "velocity": 0.5984251968503937,
          "duration": 0.32638856250000003
        },
        {
          "name": "E4",
          "midi": 64,
          "time": 68.55548700000023,
          "velocity": 0.6141732283464567,
          "duration": 0.1041665624999979
        },
        {
          "name": "E4",
          "midi": 64,
          "time": 68.66659800000022,
          "velocity": 0.6141732283464567,
          "duration": 0.21527756250000607
        },
        {
          "name": "B3",
          "midi": 59,
          "time": 68.66659800000022,
          "velocity": 0.6299212598425197,
          "duration": 0.32638856250000003
        },
        {
          "name": "E4",
          "midi": 64,
          "time": 68.88882000000022,
          "velocity": 0.6141732283464567,
          "duration": 0.1041665624999979
        },
        {
          "name": "G#4",
          "midi": 68,
          "time": 68.88882000000022,
          "velocity": 0.5984251968503937,
          "duration": 0.32638856250000003
        },
        {
          "name": "E4",
          "midi": 64,
          "time": 68.99993100000022,
          "velocity": 0.6299212598425197,
          "duration": 0.32638856250000003
        },
        {
          "name": "B3",
          "midi": 59,
          "time": 68.99993100000022,
          "velocity": 0.8661417322834646,
          "duration": 0.21527756250000607
        },
        {
          "name": "G#4",
          "midi": 68,
          "time": 68.99993100000022,
          "velocity": 0.6141732283464567,
          "duration": 0.32638856250000003
        },
        {
          "name": "C#4",
          "midi": 61,
          "time": 69.22215300000022,
          "velocity": 0.8661417322834646,
          "duration": 0.1041665624999979
        },
        {
          "name": "G#4",
          "midi": 68,
          "time": 69.33326400000021,
          "velocity": 0.6141732283464567,
          "duration": 0.32638856250000003
        },
        {
          "name": "E4",
          "midi": 64,
          "time": 69.33326400000021,
          "velocity": 0.6299212598425197,
          "duration": 0.32638856250000003
        },
        {
          "name": "B3",
          "midi": 59,
          "time": 69.33326400000021,
          "velocity": 0.8661417322834646,
          "duration": 0.32638856250000003
        },
        {
          "name": "E4",
          "midi": 64,
          "time": 69.66659700000021,
          "velocity": 0.6299212598425197,
          "duration": 0.32638856250000003
        },
        {
          "name": "G#4",
          "midi": 68,
          "time": 69.66659700000021,
          "velocity": 0.6141732283464567,
          "duration": 0.32638856250000003
        },
        {
          "name": "A3",
          "midi": 57,
          "time": 69.66659700000021,
          "velocity": 0.8661417322834646,
          "duration": 0.32638856250000003
        },
        {
          "name": "E4",
          "midi": 64,
          "time": 69.9999300000002,
          "velocity": 0.6141732283464567,
          "duration": 0.32638856250000003
        },
        {
          "name": "A3",
          "midi": 57,
          "time": 69.9999300000002,
          "velocity": 0.6299212598425197,
          "duration": 0.32638856250000003
        },
        {
          "name": "G#3",
          "midi": 56,
          "time": 69.9999300000002,
          "velocity": 0.8661417322834646,
          "duration": 0.6597215624999961
        },
        {
          "name": "E4",
          "midi": 64,
          "time": 70.3332630000002,
          "velocity": 0.6141732283464567,
          "duration": 0.21527756250000607
        },
        {
          "name": "B3",
          "midi": 59,
          "time": 70.3332630000002,
          "velocity": 0.6299212598425197,
          "duration": 0.32638856250000003
        },
        {
          "name": "E4",
          "midi": 64,
          "time": 70.5554850000002,
          "velocity": 0.6141732283464567,
          "duration": 0.7708325624999901
        },
        {
          "name": "G#4",
          "midi": 68,
          "time": 70.5554850000002,
          "velocity": 0.5984251968503937,
          "duration": 1.7708315624999784
        },
        {
          "name": "E3",
          "midi": 52,
          "time": 70.6665960000002,
          "velocity": 0.8661417322834646,
          "duration": 0.32638856250000003
        },
        {
          "name": "B2",
          "midi": 47,
          "time": 70.6665960000002,
          "velocity": 0.7716535433070866,
          "duration": 1.3263875624999883
        },
        {
          "name": "B3",
          "midi": 59,
          "time": 70.6665960000002,
          "velocity": 0.6299212598425197,
          "duration": 0.9930545624999922
        },
        {
          "name": "F#3",
          "midi": 54,
          "time": 70.9999290000002,
          "velocity": 0.8661417322834646,
          "duration": 0.32638856250000003
        },
        {
          "name": "A3",
          "midi": 57,
          "time": 71.33326200000019,
          "velocity": 0.8661417322834646,
          "duration": 0.32638856250000003
        },
        {
          "name": "E4",
          "midi": 64,
          "time": 71.33326200000019,
          "velocity": 0.6141732283464567,
          "duration": 0.32638856250000003
        },
        {
          "name": "G#3",
          "midi": 56,
          "time": 71.66659500000019,
          "velocity": 0.8661417322834646,
          "duration": 0.32638856250000003
        },
        {
          "name": "A3",
          "midi": 57,
          "time": 71.66659500000019,
          "velocity": 0.6299212598425197,
          "duration": 0.32638856250000003
        },
        {
          "name": "E4",
          "midi": 64,
          "time": 71.66659500000019,
          "velocity": 0.6141732283464567,
          "duration": 0.32638856250000003
        },
        {
          "name": "E4",
          "midi": 64,
          "time": 71.99992800000018,
          "velocity": 0.6141732283464567,
          "duration": 0.32638856250000003
        },
        {
          "name": "B3",
          "midi": 59,
          "time": 71.99992800000018,
          "velocity": 0.6299212598425197,
          "duration": 0.32638856250000003
        },
        {
          "name": "E3",
          "midi": 52,
          "time": 71.99992800000018,
          "velocity": 0.8661417322834646,
          "duration": 0.6597215624999961
        },
        {
          "name": "B2",
          "midi": 47,
          "time": 71.99992800000018,
          "velocity": 0.7716535433070866,
          "duration": 0.6597215624999961
        },
        {
          "name": "E4",
          "midi": 64,
          "time": 72.33326100000018,
          "velocity": 0.6141732283464567,
          "duration": 0.21527756250000607
        },
        {
          "name": "B3",
          "midi": 59,
          "time": 72.33326100000018,
          "velocity": 0.6299212598425197,
          "duration": 0.9930545624999922
        },
        {
          "name": "G#4",
          "midi": 68,
          "time": 72.55548300000018,
          "velocity": 0.5984251968503937,
          "duration": 1.1041655624999862
        },
        {
          "name": "E4",
          "midi": 64,
          "time": 72.55548300000018,
          "velocity": 0.6141732283464567,
          "duration": 0.7708325624999901
        },
        {
          "name": "E3",
          "midi": 52,
          "time": 72.66659400000017,
          "velocity": 0.8661417322834646,
          "duration": 0.32638856250000003
        },
        {
          "name": "B2",
          "midi": 47,
          "time": 72.66659400000017,
          "velocity": 0.7716535433070866,
          "duration": 0.9930545624999922
        },
        {
          "name": "D3",
          "midi": 50,
          "time": 72.99992700000017,
          "velocity": 0.8661417322834646,
          "duration": 0.32638856250000003
        },
        {
          "name": "E4",
          "midi": 64,
          "time": 73.33326000000017,
          "velocity": 0.6299212598425197,
          "duration": 0.32638856250000003
        },
        {
          "name": "A3",
          "midi": 57,
          "time": 73.33326000000017,
          "velocity": 0.8661417322834646,
          "duration": 0.32638856250000003
        },
        {
          "name": "F#4",
          "midi": 66,
          "time": 73.33326000000017,
          "velocity": 0.6141732283464567,
          "duration": 0.32638856250000003
        },
        {
          "name": "E4",
          "midi": 64,
          "time": 73.66659300000016,
          "velocity": 0.6141732283464567,
          "duration": 0.32638856250000003
        },
        {
          "name": "A3",
          "midi": 57,
          "time": 73.66659300000016,
          "velocity": 0.6299212598425197,
          "duration": 0.32638856250000003
        },
        {
          "name": "E3",
          "midi": 52,
          "time": 73.66659300000016,
          "velocity": 0.8661417322834646,
          "duration": 0.32638856250000003
        },
        {
          "name": "C#3",
          "midi": 49,
          "time": 73.66659300000016,
          "velocity": 0.7716535433070866,
          "duration": 0.32638856250000003
        },
        {
          "name": "F#4",
          "midi": 66,
          "time": 73.66659300000016,
          "velocity": 0.5984251968503937,
          "duration": 0.32638856250000003
        },
        {
          "name": "B3",
          "midi": 59,
          "time": 73.99992600000016,
          "velocity": 0.6299212598425197,
          "duration": 0.32638856250000003
        },
        {
          "name": "E4",
          "midi": 64,
          "time": 73.99992600000016,
          "velocity": 0.6141732283464567,
          "duration": 0.32638856250000003
        },
        {
          "name": "F#4",
          "midi": 66,
          "time": 73.99992600000016,
          "velocity": 0.5984251968503937,
          "duration": 0.21527756250000607
        },
        {
          "name": "B2",
          "midi": 47,
          "time": 73.99992600000016,
          "velocity": 0.7716535433070866,
          "duration": 0.9930545624999922
        },
        {
          "name": "E3",
          "midi": 52,
          "time": 73.99992600000016,
          "velocity": 0.8661417322834646,
          "duration": 0.9930545624999922
        },
        {
          "name": "G#4",
          "midi": 68,
          "time": 74.22214800000016,
          "velocity": 0.5984251968503937,
          "duration": 0.1041665624999979
        },
        {
          "name": "G#4",
          "midi": 68,
          "time": 74.33325900000015,
          "velocity": 0.5984251968503937,
          "duration": 0.21527756250000607
        },
        {
          "name": "E4",
          "midi": 64,
          "time": 74.33325900000015,
          "velocity": 0.6141732283464567,
          "duration": 0.21527756250000607
        },
        {
          "name": "B3",
          "midi": 59,
          "time": 74.33325900000015,
          "velocity": 0.6299212598425197,
          "duration": 0.21527756250000607
        },
        {
          "name": "B3",
          "midi": 59,
          "time": 74.55548100000016,
          "velocity": 0.6299212598425197,
          "duration": 0.1041665624999979
        },
        {
          "name": "G#4",
          "midi": 68,
          "time": 74.55548100000016,
          "velocity": 0.5984251968503937,
          "duration": 0.1041665624999979
        },
        {
          "name": "E4",
          "midi": 64,
          "time": 74.55548100000016,
          "velocity": 0.6141732283464567,
          "duration": 0.1041665624999979
        },
        {
          "name": "E4",
          "midi": 64,
          "time": 74.66659200000015,
          "velocity": 0.6141732283464567,
          "duration": 0.21527756250000607
        },
        {
          "name": "G#4",
          "midi": 68,
          "time": 74.66659200000015,
          "velocity": 0.5984251968503937,
          "duration": 0.21527756250000607
        },
        {
          "name": "B3",
          "midi": 59,
          "time": 74.66659200000015,
          "velocity": 0.6299212598425197,
          "duration": 0.21527756250000607
        },
        {
          "name": "G#4",
          "midi": 68,
          "time": 74.88881400000015,
          "velocity": 0.5984251968503937,
          "duration": 0.1041665624999979
        },
        {
          "name": "E4",
          "midi": 64,
          "time": 74.88881400000015,
          "velocity": 0.6141732283464567,
          "duration": 0.1041665624999979
        },
        {
          "name": "B3",
          "midi": 59,
          "time": 74.88881400000015,
          "velocity": 0.6299212598425197,
          "duration": 0.1041665624999979
        },
        {
          "name": "E3",
          "midi": 52,
          "time": 74.99992500000015,
          "velocity": 0.8661417322834646,
          "duration": 0.9930545624999922
        },
        {
          "name": "G#4",
          "midi": 68,
          "time": 74.99992500000015,
          "velocity": 0.5984251968503937,
          "duration": 0.32638856250000003
        },
        {
          "name": "B2",
          "midi": 47,
          "time": 74.99992500000015,
          "velocity": 0.7716535433070866,
          "duration": 0.9930545624999922
        },
        {
          "name": "B3",
          "midi": 59,
          "time": 74.99992500000015,
          "velocity": 0.6299212598425197,
          "duration": 0.32638856250000003
        },
        {
          "name": "E4",
          "midi": 64,
          "time": 74.99992500000015,
          "velocity": 0.6141732283464567,
          "duration": 0.32638856250000003
        },
        {
          "name": "B3",
          "midi": 59,
          "time": 75.33325800000014,
          "velocity": 0.6299212598425197,
          "duration": 0.21527756250000607
        },
        {
          "name": "G#4",
          "midi": 68,
          "time": 75.33325800000014,
          "velocity": 0.5984251968503937,
          "duration": 0.21527756250000607
        },
        {
          "name": "E4",
          "midi": 64,
          "time": 75.33325800000014,
          "velocity": 0.6141732283464567,
          "duration": 0.21527756250000607
        },
        {
          "name": "E4",
          "midi": 64,
          "time": 75.55548000000014,
          "velocity": 0.6141732283464567,
          "duration": 0.1041665624999979
        },
        {
          "name": "B3",
          "midi": 59,
          "time": 75.55548000000014,
          "velocity": 0.6299212598425197,
          "duration": 0.1041665624999979
        },
        {
          "name": "G#4",
          "midi": 68,
          "time": 75.55548000000014,
          "velocity": 0.5984251968503937,
          "duration": 0.1041665624999979
        },
        {
          "name": "E4",
          "midi": 64,
          "time": 75.66659100000014,
          "velocity": 0.6141732283464567,
          "duration": 0.21527756250000607
        },
        {
          "name": "B3",
          "midi": 59,
          "time": 75.66659100000014,
          "velocity": 0.6299212598425197,
          "duration": 0.21527756250000607
        },
        {
          "name": "G#4",
          "midi": 68,
          "time": 75.66659100000014,
          "velocity": 0.5984251968503937,
          "duration": 0.21527756250000607
        },
        {
          "name": "G#4",
          "midi": 68,
          "time": 75.88881300000014,
          "velocity": 0.5984251968503937,
          "duration": 0.1041665624999979
        },
        {
          "name": "B3",
          "midi": 59,
          "time": 75.88881300000014,
          "velocity": 0.6299212598425197,
          "duration": 0.1041665624999979
        },
        {
          "name": "E4",
          "midi": 64,
          "time": 75.88881300000014,
          "velocity": 0.6141732283464567,
          "duration": 0.1041665624999979
        },
        {
          "name": "B3",
          "midi": 59,
          "time": 75.99992400000014,
          "velocity": 0.8661417322834646,
          "duration": 0.32638856250000003
        },
        {
          "name": "E3",
          "midi": 52,
          "time": 75.99992400000014,
          "velocity": 0.8661417322834646,
          "duration": 0.9930545624999922
        },
        {
          "name": "B2",
          "midi": 47,
          "time": 75.99992400000014,
          "velocity": 0.7716535433070866,
          "duration": 2.6597195624999728
        },
        {
          "name": "B3",
          "midi": 59,
          "time": 76.33325700000013,
          "velocity": 0.6299212598425197,
          "duration": 0.32638856250000003
        },
        {
          "name": "E4",
          "midi": 64,
          "time": 76.33325700000013,
          "velocity": 0.6141732283464567,
          "duration": 0.21527756250000607
        },
        {
          "name": "G#4",
          "midi": 68,
          "time": 76.55547900000013,
          "velocity": 0.5984251968503937,
          "duration": 0.32638856250000003
        },
        {
          "name": "E4",
          "midi": 64,
          "time": 76.55547900000013,
          "velocity": 0.6141732283464567,
          "duration": 0.1041665624999979
        },
        {
          "name": "E4",
          "midi": 64,
          "time": 76.66659000000013,
          "velocity": 0.6141732283464567,
          "duration": 0.21527756250000607
        },
        {
          "name": "B3",
          "midi": 59,
          "time": 76.66659000000013,
          "velocity": 0.6299212598425197,
          "duration": 0.32638856250000003
        },
        {
          "name": "G#4",
          "midi": 68,
          "time": 76.88881200000013,
          "velocity": 0.5984251968503937,
          "duration": 0.32638856250000003
        },
        {
          "name": "E4",
          "midi": 64,
          "time": 76.88881200000013,
          "velocity": 0.6141732283464567,
          "duration": 0.1041665624999979
        },
        {
          "name": "E4",
          "midi": 64,
          "time": 76.99992300000012,
          "velocity": 0.6299212598425197,
          "duration": 0.32638856250000003
        },
        {
          "name": "B3",
          "midi": 59,
          "time": 76.99992300000012,
          "velocity": 0.8661417322834646,
          "duration": 0.21527756250000607
        },
        {
          "name": "G#4",
          "midi": 68,
          "time": 76.99992300000012,
          "velocity": 0.6141732283464567,
          "duration": 0.32638856250000003
        },
        {
          "name": "C#4",
          "midi": 61,
          "time": 77.22214500000013,
          "velocity": 0.8661417322834646,
          "duration": 0.1041665624999979
        },
        {
          "name": "B3",
          "midi": 59,
          "time": 77.33325600000012,
          "velocity": 0.8661417322834646,
          "duration": 0.32638856250000003
        },
        {
          "name": "G#4",
          "midi": 68,
          "time": 77.33325600000012,
          "velocity": 0.6141732283464567,
          "duration": 0.32638856250000003
        },
        {
          "name": "E4",
          "midi": 64,
          "time": 77.33325600000012,
          "velocity": 0.6299212598425197,
          "duration": 0.32638856250000003
        },
        {
          "name": "A3",
          "midi": 57,
          "time": 77.66658900000012,
          "velocity": 0.8661417322834646,
          "duration": 0.32638856250000003
        },
        {
          "name": "G#4",
          "midi": 68,
          "time": 77.66658900000012,
          "velocity": 0.6141732283464567,
          "duration": 0.32638856250000003
        },
        {
          "name": "E4",
          "midi": 64,
          "time": 77.66658900000012,
          "velocity": 0.6299212598425197,
          "duration": 0.32638856250000003
        },
        {
          "name": "G#3",
          "midi": 56,
          "time": 77.99992200000011,
          "velocity": 0.8661417322834646,
          "duration": 0.6597215624999961
        },
        {
          "name": "A3",
          "midi": 57,
          "time": 77.99992200000011,
          "velocity": 0.6299212598425197,
          "duration": 0.32638856250000003
        },
        {
          "name": "E4",
          "midi": 64,
          "time": 77.99992200000011,
          "velocity": 0.6141732283464567,
          "duration": 0.32638856250000003
        },
        {
          "name": "E4",
          "midi": 64,
          "time": 78.33325500000011,
          "velocity": 0.6141732283464567,
          "duration": 0.21527756250000607
        },
        {
          "name": "B3",
          "midi": 59,
          "time": 78.33325500000011,
          "velocity": 0.6299212598425197,
          "duration": 0.32638856250000003
        },
        {
          "name": "G#4",
          "midi": 68,
          "time": 78.55547700000011,
          "velocity": 0.5984251968503937,
          "duration": 1.7708315624999784
        },
        {
          "name": "E4",
          "midi": 64,
          "time": 78.55547700000011,
          "velocity": 0.6141732283464567,
          "duration": 0.7708325624999901
        },
        {
          "name": "B2",
          "midi": 47,
          "time": 78.6665880000001,
          "velocity": 0.7716535433070866,
          "duration": 1.3263875624999883
        },
        {
          "name": "E3",
          "midi": 52,
          "time": 78.6665880000001,
          "velocity": 0.8661417322834646,
          "duration": 0.32638856250000003
        },
        {
          "name": "B3",
          "midi": 59,
          "time": 78.6665880000001,
          "velocity": 0.6299212598425197,
          "duration": 0.9930545624999922
        },
        {
          "name": "F#3",
          "midi": 54,
          "time": 78.9999210000001,
          "velocity": 0.8661417322834646,
          "duration": 0.32638856250000003
        },
        {
          "name": "E4",
          "midi": 64,
          "time": 79.3332540000001,
          "velocity": 0.6141732283464567,
          "duration": 0.32638856250000003
        },
        {
          "name": "A3",
          "midi": 57,
          "time": 79.3332540000001,
          "velocity": 0.8661417322834646,
          "duration": 0.32638856250000003
        },
        {
          "name": "A3",
          "midi": 57,
          "time": 79.66658700000009,
          "velocity": 0.6299212598425197,
          "duration": 0.32638856250000003
        },
        {
          "name": "G#3",
          "midi": 56,
          "time": 79.66658700000009,
          "velocity": 0.8661417322834646,
          "duration": 0.32638856250000003
        },
        {
          "name": "E4",
          "midi": 64,
          "time": 79.66658700000009,
          "velocity": 0.6141732283464567,
          "duration": 0.32638856250000003
        },
        {
          "name": "E4",
          "midi": 64,
          "time": 79.99992000000009,
          "velocity": 0.6141732283464567,
          "duration": 0.32638856250000003
        },
        {
          "name": "B2",
          "midi": 47,
          "time": 79.99992000000009,
          "velocity": 0.7716535433070866,
          "duration": 0.6597215624999961
        },
        {
          "name": "B3",
          "midi": 59,
          "time": 79.99992000000009,
          "velocity": 0.6299212598425197,
          "duration": 0.32638856250000003
        },
        {
          "name": "E3",
          "midi": 52,
          "time": 79.99992000000009,
          "velocity": 0.8661417322834646,
          "duration": 0.6597215624999961
        },
        {
          "name": "B3",
          "midi": 59,
          "time": 80.33325300000008,
          "velocity": 0.6299212598425197,
          "duration": 0.9930545624999922
        },
        {
          "name": "E4",
          "midi": 64,
          "time": 80.33325300000008,
          "velocity": 0.6141732283464567,
          "duration": 0.21527756250000607
        },
        {
          "name": "E4",
          "midi": 64,
          "time": 80.55547500000009,
          "velocity": 0.6141732283464567,
          "duration": 0.7708325624999901
        },
        {
          "name": "G#4",
          "midi": 68,
          "time": 80.55547500000009,
          "velocity": 0.5984251968503937,
          "duration": 1.1041655624999862
        },
        {
          "name": "B2",
          "midi": 47,
          "time": 80.66658600000008,
          "velocity": 0.7716535433070866,
          "duration": 0.9930545624999922
        },
        {
          "name": "E3",
          "midi": 52,
          "time": 80.66658600000008,
          "velocity": 0.8661417322834646,
          "duration": 0.32638856250000003
        },
        {
          "name": "D3",
          "midi": 50,
          "time": 80.99991900000008,
          "velocity": 0.8661417322834646,
          "duration": 0.32638856250000003
        },
        {
          "name": "E4",
          "midi": 64,
          "time": 81.33325200000007,
          "velocity": 0.6299212598425197,
          "duration": 0.32638856250000003
        },
        {
          "name": "F#4",
          "midi": 66,
          "time": 81.33325200000007,
          "velocity": 0.6141732283464567,
          "duration": 0.32638856250000003
        },
        {
          "name": "A3",
          "midi": 57,
          "time": 81.33325200000007,
          "velocity": 0.8661417322834646,
          "duration": 0.32638856250000003
        },
        {
          "name": "F#4",
          "midi": 66,
          "time": 81.66658500000007,
          "velocity": 0.5984251968503937,
          "duration": 0.32638856250000003
        },
        {
          "name": "E3",
          "midi": 52,
          "time": 81.66658500000007,
          "velocity": 0.8661417322834646,
          "duration": 0.32638856250000003
        },
        {
          "name": "E4",
          "midi": 64,
          "time": 81.66658500000007,
          "velocity": 0.6141732283464567,
          "duration": 0.32638856250000003
        },
        {
          "name": "C#3",
          "midi": 49,
          "time": 81.66658500000007,
          "velocity": 0.7716535433070866,
          "duration": 0.32638856250000003
        },
        {
          "name": "A3",
          "midi": 57,
          "time": 81.66658500000007,
          "velocity": 0.6299212598425197,
          "duration": 0.32638856250000003
        },
        {
          "name": "E4",
          "midi": 64,
          "time": 81.99991800000006,
          "velocity": 0.6141732283464567,
          "duration": 0.32638856250000003
        },
        {
          "name": "B2",
          "midi": 47,
          "time": 81.99991800000006,
          "velocity": 0.7716535433070866,
          "duration": 0.9930545624999922
        },
        {
          "name": "E3",
          "midi": 52,
          "time": 81.99991800000006,
          "velocity": 0.8661417322834646,
          "duration": 0.9930545624999922
        },
        {
          "name": "F#4",
          "midi": 66,
          "time": 81.99991800000006,
          "velocity": 0.5984251968503937,
          "duration": 0.21527756250000607
        },
        {
          "name": "B3",
          "midi": 59,
          "time": 81.99991800000006,
          "velocity": 0.6299212598425197,
          "duration": 0.32638856250000003
        },
        {
          "name": "G#4",
          "midi": 68,
          "time": 82.22214000000007,
          "velocity": 0.5984251968503937,
          "duration": 0.1041665624999979
        },
        {
          "name": "B3",
          "midi": 59,
          "time": 82.33325100000006,
          "velocity": 0.6299212598425197,
          "duration": 0.21527756250000607
        },
        {
          "name": "G#4",
          "midi": 68,
          "time": 82.33325100000006,
          "velocity": 0.5984251968503937,
          "duration": 0.21527756250000607
        },
        {
          "name": "E4",
          "midi": 64,
          "time": 82.33325100000006,
          "velocity": 0.6141732283464567,
          "duration": 0.21527756250000607
        },
        {
          "name": "G#4",
          "midi": 68,
          "time": 82.55547300000006,
          "velocity": 0.5984251968503937,
          "duration": 0.1041665624999979
        },
        {
          "name": "B3",
          "midi": 59,
          "time": 82.55547300000006,
          "velocity": 0.6299212598425197,
          "duration": 0.1041665624999979
        },
        {
          "name": "E4",
          "midi": 64,
          "time": 82.55547300000006,
          "velocity": 0.6141732283464567,
          "duration": 0.1041665624999979
        },
        {
          "name": "E4",
          "midi": 64,
          "time": 82.66658400000006,
          "velocity": 0.6141732283464567,
          "duration": 0.21527756250000607
        },
        {
          "name": "G#4",
          "midi": 68,
          "time": 82.66658400000006,
          "velocity": 0.5984251968503937,
          "duration": 0.21527756250000607
        },
        {
          "name": "B3",
          "midi": 59,
          "time": 82.66658400000006,
          "velocity": 0.6299212598425197,
          "duration": 0.21527756250000607
        },
        {
          "name": "B3",
          "midi": 59,
          "time": 82.88880600000006,
          "velocity": 0.6299212598425197,
          "duration": 0.1041665624999979
        },
        {
          "name": "E4",
          "midi": 64,
          "time": 82.88880600000006,
          "velocity": 0.6141732283464567,
          "duration": 0.1041665624999979
        },
        {
          "name": "G#4",
          "midi": 68,
          "time": 82.88880600000006,
          "velocity": 0.5984251968503937,
          "duration": 0.1041665624999979
        },
        {
          "name": "B2",
          "midi": 47,
          "time": 82.99991700000005,
          "velocity": 0.7716535433070866,
          "duration": 0.9930545624999922
        },
        {
          "name": "B3",
          "midi": 59,
          "time": 82.99991700000005,
          "velocity": 0.6299212598425197,
          "duration": 0.32638856250000003
        },
        {
          "name": "G#4",
          "midi": 68,
          "time": 82.99991700000005,
          "velocity": 0.5984251968503937,
          "duration": 0.32638856250000003
        },
        {
          "name": "E3",
          "midi": 52,
          "time": 82.99991700000005,
          "velocity": 0.8661417322834646,
          "duration": 0.9930545624999922
        },
        {
          "name": "E4",
          "midi": 64,
          "time": 82.99991700000005,
          "velocity": 0.6141732283464567,
          "duration": 0.32638856250000003
        },
        {
          "name": "G#4",
          "midi": 68,
          "time": 83.33325000000005,
          "velocity": 0.5984251968503937,
          "duration": 0.21527756250000607
        },
        {
          "name": "E4",
          "midi": 64,
          "time": 83.33325000000005,
          "velocity": 0.6141732283464567,
          "duration": 0.21527756250000607
        },
        {
          "name": "B3",
          "midi": 59,
          "time": 83.33325000000005,
          "velocity": 0.6299212598425197,
          "duration": 0.21527756250000607
        },
        {
          "name": "B3",
          "midi": 59,
          "time": 83.55547200000005,
          "velocity": 0.6299212598425197,
          "duration": 0.1041665624999979
        },
        {
          "name": "G#4",
          "midi": 68,
          "time": 83.55547200000005,
          "velocity": 0.5984251968503937,
          "duration": 0.1041665624999979
        },
        {
          "name": "E4",
          "midi": 64,
          "time": 83.55547200000005,
          "velocity": 0.6141732283464567,
          "duration": 0.1041665624999979
        },
        {
          "name": "B3",
          "midi": 59,
          "time": 83.66658300000005,
          "velocity": 0.6299212598425197,
          "duration": 0.21527756250000607
        },
        {
          "name": "G#4",
          "midi": 68,
          "time": 83.66658300000005,
          "velocity": 0.5984251968503937,
          "duration": 0.21527756250000607
        },
        {
          "name": "E4",
          "midi": 64,
          "time": 83.66658300000005,
          "velocity": 0.6141732283464567,
          "duration": 0.21527756250000607
        },
        {
          "name": "G#4",
          "midi": 68,
          "time": 83.88880500000005,
          "velocity": 0.5984251968503937,
          "duration": 0.1041665624999979
        },
        {
          "name": "B3",
          "midi": 59,
          "time": 83.88880500000005,
          "velocity": 0.6299212598425197,
          "duration": 0.1041665624999979
        },
        {
          "name": "E4",
          "midi": 64,
          "time": 83.88880500000005,
          "velocity": 0.6141732283464567,
          "duration": 0.1041665624999979
        },
        {
          "name": "E4",
          "midi": 64,
          "time": 83.99991600000004,
          "velocity": 0.6299212598425197,
          "duration": 0.32638856250000003
        },
        {
          "name": "B3",
          "midi": 59,
          "time": 83.99991600000004,
          "velocity": 0.7874015748031497,
          "duration": 0.32638856250000003
        },
        {
          "name": "E3",
          "midi": 52,
          "time": 83.99991600000004,
          "velocity": 0.7716535433070866,
          "duration": 0.32638856250000003
        },
        {
          "name": "G4",
          "midi": 67,
          "time": 83.99991600000004,
          "velocity": 0.6141732283464567,
          "duration": 0.32638856250000003
        },
        {
          "name": "B3",
          "midi": 59,
          "time": 84.33324900000004,
          "velocity": 0.7874015748031497,
          "duration": 0.21527756250000607
        },
        {
          "name": "E4",
          "midi": 64,
          "time": 84.33324900000004,
          "velocity": 0.6299212598425197,
          "duration": 0.21527756250000607
        },
        {
          "name": "G4",
          "midi": 67,
          "time": 84.33324900000004,
          "velocity": 0.6141732283464567,
          "duration": 0.21527756250000607
        },
        {
          "name": "E3",
          "midi": 52,
          "time": 84.33324900000004,
          "velocity": 0.7716535433070866,
          "duration": 0.21527756250000607
        },
        {
          "name": "B3",
          "midi": 59,
          "time": 84.55547100000004,
          "velocity": 0.7874015748031497,
          "duration": 0.1041665624999979
        },
        {
          "name": "E4",
          "midi": 64,
          "time": 84.55547100000004,
          "velocity": 0.6299212598425197,
          "duration": 0.1041665624999979
        },
        {
          "name": "G4",
          "midi": 67,
          "time": 84.55547100000004,
          "velocity": 0.6141732283464567,
          "duration": 0.1041665624999979
        },
        {
          "name": "E3",
          "midi": 52,
          "time": 84.55547100000004,
          "velocity": 0.7716535433070866,
          "duration": 0.1041665624999979
        },
        {
          "name": "E4",
          "midi": 64,
          "time": 84.66658200000003,
          "velocity": 0.6299212598425197,
          "duration": 0.21527756250000607
        },
        {
          "name": "G4",
          "midi": 67,
          "time": 84.66658200000003,
          "velocity": 0.6141732283464567,
          "duration": 0.21527756250000607
        },
        {
          "name": "B3",
          "midi": 59,
          "time": 84.66658200000003,
          "velocity": 0.7874015748031497,
          "duration": 0.21527756250000607
        },
        {
          "name": "E3",
          "midi": 52,
          "time": 84.66658200000003,
          "velocity": 0.7716535433070866,
          "duration": 0.21527756250000607
        },
        {
          "name": "E4",
          "midi": 64,
          "time": 84.88880400000004,
          "velocity": 0.6299212598425197,
          "duration": 0.1041665624999979
        },
        {
          "name": "G4",
          "midi": 67,
          "time": 84.88880400000004,
          "velocity": 0.6141732283464567,
          "duration": 0.1041665624999979
        },
        {
          "name": "E3",
          "midi": 52,
          "time": 84.88880400000004,
          "velocity": 0.7716535433070866,
          "duration": 0.1041665624999979
        },
        {
          "name": "B3",
          "midi": 59,
          "time": 84.88880400000004,
          "velocity": 0.7874015748031497,
          "duration": 0.1041665624999979
        },
        {
          "name": "B3",
          "midi": 59,
          "time": 84.99991500000003,
          "velocity": 0.7874015748031497,
          "duration": 0.32638856250000003
        },
        {
          "name": "E3",
          "midi": 52,
          "time": 84.99991500000003,
          "velocity": 0.7716535433070866,
          "duration": 0.32638856250000003
        },
        {
          "name": "G4",
          "midi": 67,
          "time": 84.99991500000003,
          "velocity": 0.6141732283464567,
          "duration": 0.32638856250000003
        },
        {
          "name": "E4",
          "midi": 64,
          "time": 84.99991500000003,
          "velocity": 0.6299212598425197,
          "duration": 0.32638856250000003
        },
        {
          "name": "B3",
          "midi": 59,
          "time": 85.33324800000003,
          "velocity": 0.7874015748031497,
          "duration": 0.21527756250000607
        },
        {
          "name": "E3",
          "midi": 52,
          "time": 85.33324800000003,
          "velocity": 0.7716535433070866,
          "duration": 0.21527756250000607
        },
        {
          "name": "E4",
          "midi": 64,
          "time": 85.33324800000003,
          "velocity": 0.6299212598425197,
          "duration": 0.21527756250000607
        },
        {
          "name": "G4",
          "midi": 67,
          "time": 85.33324800000003,
          "velocity": 0.6141732283464567,
          "duration": 0.21527756250000607
        },
        {
          "name": "E3",
          "midi": 52,
          "time": 85.55547000000003,
          "velocity": 0.7716535433070866,
          "duration": 0.1041665624999979
        },
        {
          "name": "G4",
          "midi": 67,
          "time": 85.55547000000003,
          "velocity": 0.6141732283464567,
          "duration": 0.1041665624999979
        },
        {
          "name": "E4",
          "midi": 64,
          "time": 85.55547000000003,
          "velocity": 0.6299212598425197,
          "duration": 0.1041665624999979
        },
        {
          "name": "B3",
          "midi": 59,
          "time": 85.55547000000003,
          "velocity": 0.7874015748031497,
          "duration": 0.1041665624999979
        },
        {
          "name": "E3",
          "midi": 52,
          "time": 85.66658100000002,
          "velocity": 0.7716535433070866,
          "duration": 0.21527756250000607
        },
        {
          "name": "E4",
          "midi": 64,
          "time": 85.66658100000002,
          "velocity": 0.6299212598425197,
          "duration": 0.21527756250000607
        },
        {
          "name": "G4",
          "midi": 67,
          "time": 85.66658100000002,
          "velocity": 0.6141732283464567,
          "duration": 0.21527756250000607
        },
        {
          "name": "B3",
          "midi": 59,
          "time": 85.66658100000002,
          "velocity": 0.7874015748031497,
          "duration": 0.21527756250000607
        },
        {
          "name": "E4",
          "midi": 64,
          "time": 85.88880300000002,
          "velocity": 0.6299212598425197,
          "duration": 0.1041665624999979
        },
        {
          "name": "B3",
          "midi": 59,
          "time": 85.88880300000002,
          "velocity": 0.7874015748031497,
          "duration": 0.1041665624999979
        },
        {
          "name": "E3",
          "midi": 52,
          "time": 85.88880300000002,
          "velocity": 0.7716535433070866,
          "duration": 0.1041665624999979
        },
        {
          "name": "G4",
          "midi": 67,
          "time": 85.88880300000002,
          "velocity": 0.6141732283464567,
          "duration": 0.1041665624999979
        },
        {
          "name": "G4",
          "midi": 67,
          "time": 85.99991400000002,
          "velocity": 0.6141732283464567,
          "duration": 0.32638856250000003
        },
        {
          "name": "E3",
          "midi": 52,
          "time": 85.99991400000002,
          "velocity": 0.7716535433070866,
          "duration": 0.32638856250000003
        },
        {
          "name": "E4",
          "midi": 64,
          "time": 85.99991400000002,
          "velocity": 0.6299212598425197,
          "duration": 0.32638856250000003
        },
        {
          "name": "B3",
          "midi": 59,
          "time": 85.99991400000002,
          "velocity": 0.7874015748031497,
          "duration": 0.32638856250000003
        },
        {
          "name": "B3",
          "midi": 59,
          "time": 86.33324700000001,
          "velocity": 0.7874015748031497,
          "duration": 0.21527756250000607
        },
        {
          "name": "E3",
          "midi": 52,
          "time": 86.33324700000001,
          "velocity": 0.7716535433070866,
          "duration": 0.21527756250000607
        },
        {
          "name": "E4",
          "midi": 64,
          "time": 86.33324700000001,
          "velocity": 0.6299212598425197,
          "duration": 0.21527756250000607
        },
        {
          "name": "G4",
          "midi": 67,
          "time": 86.33324700000001,
          "velocity": 0.6141732283464567,
          "duration": 0.21527756250000607
        },
        {
          "name": "G4",
          "midi": 67,
          "time": 86.55546900000002,
          "velocity": 0.6141732283464567,
          "duration": 0.1041665624999979
        },
        {
          "name": "E3",
          "midi": 52,
          "time": 86.55546900000002,
          "velocity": 0.7716535433070866,
          "duration": 0.1041665624999979
        },
        {
          "name": "E4",
          "midi": 64,
          "time": 86.55546900000002,
          "velocity": 0.6299212598425197,
          "duration": 0.1041665624999979
        },
        {
          "name": "B3",
          "midi": 59,
          "time": 86.55546900000002,
          "velocity": 0.7874015748031497,
          "duration": 0.1041665624999979
        },
        {
          "name": "B3",
          "midi": 59,
          "time": 86.66658000000001,
          "velocity": 0.7874015748031497,
          "duration": 0.21527756250000607
        },
        {
          "name": "G4",
          "midi": 67,
          "time": 86.66658000000001,
          "velocity": 0.6141732283464567,
          "duration": 0.21527756250000607
        },
        {
          "name": "E3",
          "midi": 52,
          "time": 86.66658000000001,
          "velocity": 0.7716535433070866,
          "duration": 0.21527756250000607
        },
        {
          "name": "E4",
          "midi": 64,
          "time": 86.66658000000001,
          "velocity": 0.6299212598425197,
          "duration": 0.21527756250000607
        },
        {
          "name": "E4",
          "midi": 64,
          "time": 86.88880200000001,
          "velocity": 0.6299212598425197,
          "duration": 0.1041665624999979
        },
        {
          "name": "B3",
          "midi": 59,
          "time": 86.88880200000001,
          "velocity": 0.7874015748031497,
          "duration": 0.1041665624999979
        },
        {
          "name": "E3",
          "midi": 52,
          "time": 86.88880200000001,
          "velocity": 0.7716535433070866,
          "duration": 0.1041665624999979
        },
        {
          "name": "G4",
          "midi": 67,
          "time": 86.88880200000001,
          "velocity": 0.6141732283464567,
          "duration": 0.1041665624999979
        },
        {
          "name": "G4",
          "midi": 67,
          "time": 86.999913,
          "velocity": 0.6141732283464567,
          "duration": 0.32638856250000003
        },
        {
          "name": "B3",
          "midi": 59,
          "time": 86.999913,
          "velocity": 0.7874015748031497,
          "duration": 0.32638856250000003
        },
        {
          "name": "E4",
          "midi": 64,
          "time": 86.999913,
          "velocity": 0.6299212598425197,
          "duration": 0.32638856250000003
        },
        {
          "name": "E3",
          "midi": 52,
          "time": 86.999913,
          "velocity": 0.7716535433070866,
          "duration": 0.32638856250000003
        },
        {
          "name": "B3",
          "midi": 59,
          "time": 87.333246,
          "velocity": 0.7874015748031497,
          "duration": 0.21527756250000607
        },
        {
          "name": "E4",
          "midi": 64,
          "time": 87.333246,
          "velocity": 0.6299212598425197,
          "duration": 0.21527756250000607
        },
        {
          "name": "E3",
          "midi": 52,
          "time": 87.333246,
          "velocity": 0.7716535433070866,
          "duration": 0.21527756250000607
        },
        {
          "name": "G4",
          "midi": 67,
          "time": 87.333246,
          "velocity": 0.6141732283464567,
          "duration": 0.21527756250000607
        },
        {
          "name": "B3",
          "midi": 59,
          "time": 87.555468,
          "velocity": 0.7874015748031497,
          "duration": 0.1041665624999979
        },
        {
          "name": "E3",
          "midi": 52,
          "time": 87.555468,
          "velocity": 0.7716535433070866,
          "duration": 0.1041665624999979
        },
        {
          "name": "G4",
          "midi": 67,
          "time": 87.555468,
          "velocity": 0.6141732283464567,
          "duration": 0.1041665624999979
        },
        {
          "name": "E4",
          "midi": 64,
          "time": 87.555468,
          "velocity": 0.6299212598425197,
          "duration": 0.1041665624999979
        },
        {
          "name": "E3",
          "midi": 52,
          "time": 87.666579,
          "velocity": 0.7716535433070866,
          "duration": 0.21527756250000607
        },
        {
          "name": "E4",
          "midi": 64,
          "time": 87.666579,
          "velocity": 0.6299212598425197,
          "duration": 0.21527756250000607
        },
        {
          "name": "G4",
          "midi": 67,
          "time": 87.666579,
          "velocity": 0.6141732283464567,
          "duration": 0.21527756250000607
        },
        {
          "name": "B3",
          "midi": 59,
          "time": 87.666579,
          "velocity": 0.7874015748031497,
          "duration": 0.21527756250000607
        },
        {
          "name": "E3",
          "midi": 52,
          "time": 87.888801,
          "velocity": 0.7716535433070866,
          "duration": 0.1041665624999979
        },
        {
          "name": "G4",
          "midi": 67,
          "time": 87.888801,
          "velocity": 0.6141732283464567,
          "duration": 0.1041665624999979
        },
        {
          "name": "E4",
          "midi": 64,
          "time": 87.888801,
          "velocity": 0.6299212598425197,
          "duration": 0.1041665624999979
        },
        {
          "name": "B3",
          "midi": 59,
          "time": 87.888801,
          "velocity": 0.7874015748031497,
          "duration": 0.1041665624999979
        },
        {
          "name": "C#3",
          "midi": 49,
          "time": 87.999912,
          "velocity": 0.7874015748031497,
          "duration": 0.32638856250000003
        },
        {
          "name": "A3",
          "midi": 57,
          "time": 87.999912,
          "velocity": 0.6141732283464567,
          "duration": 0.32638856250000003
        },
        {
          "name": "A2",
          "midi": 45,
          "time": 87.999912,
          "velocity": 0.7716535433070866,
          "duration": 0.32638856250000003
        },
        {
          "name": "E3",
          "midi": 52,
          "time": 87.999912,
          "velocity": 0.6299212598425197,
          "duration": 0.32638856250000003
        },
        {
          "name": "E4",
          "midi": 64,
          "time": 87.999912,
          "velocity": 0.5984251968503937,
          "duration": 0.32638856250000003
        },
        {
          "name": "A4",
          "midi": 69,
          "time": 87.999912,
          "velocity": 0.5826771653543307,
          "duration": 0.32638856250000003
        },
        {
          "name": "E3",
          "midi": 52,
          "time": 88.33324499999999,
          "velocity": 0.6299212598425197,
          "duration": 0.21527756250000607
        },
        {
          "name": "C#3",
          "midi": 49,
          "time": 88.33324499999999,
          "velocity": 0.7874015748031497,
          "duration": 0.21527756250000607
        },
        {
          "name": "A2",
          "midi": 45,
          "time": 88.33324499999999,
          "velocity": 0.7716535433070866,
          "duration": 0.21527756250000607
        },
        {
          "name": "A3",
          "midi": 57,
          "time": 88.33324499999999,
          "velocity": 0.6141732283464567,
          "duration": 0.21527756250000607
        },
        {
          "name": "A4",
          "midi": 69,
          "time": 88.33324499999999,
          "velocity": 0.5826771653543307,
          "duration": 0.21527756250000607
        },
        {
          "name": "E4",
          "midi": 64,
          "time": 88.33324499999999,
          "velocity": 0.5984251968503937,
          "duration": 0.21527756250000607
        },
        {
          "name": "A4",
          "midi": 69,
          "time": 88.555467,
          "velocity": 0.5826771653543307,
          "duration": 0.1041665624999979
        },
        {
          "name": "A3",
          "midi": 57,
          "time": 88.555467,
          "velocity": 0.6141732283464567,
          "duration": 0.1041665624999979
        },
        {
          "name": "C#3",
          "midi": 49,
          "time": 88.555467,
          "velocity": 0.7874015748031497,
          "duration": 0.1041665624999979
        },
        {
          "name": "E3",
          "midi": 52,
          "time": 88.555467,
          "velocity": 0.6299212598425197,
          "duration": 0.1041665624999979
        },
        {
          "name": "A2",
          "midi": 45,
          "time": 88.555467,
          "velocity": 0.7716535433070866,
          "duration": 0.1041665624999979
        },
        {
          "name": "E4",
          "midi": 64,
          "time": 88.555467,
          "velocity": 0.5984251968503937,
          "duration": 0.1041665624999979
        },
        {
          "name": "A4",
          "midi": 69,
          "time": 88.66657799999999,
          "velocity": 0.5826771653543307,
          "duration": 0.21527756250000607
        },
        {
          "name": "A3",
          "midi": 57,
          "time": 88.66657799999999,
          "velocity": 0.6141732283464567,
          "duration": 0.21527756250000607
        },
        {
          "name": "C#3",
          "midi": 49,
          "time": 88.66657799999999,
          "velocity": 0.7874015748031497,
          "duration": 0.21527756250000607
        },
        {
          "name": "A2",
          "midi": 45,
          "time": 88.66657799999999,
          "velocity": 0.7716535433070866,
          "duration": 0.21527756250000607
        },
        {
          "name": "E4",
          "midi": 64,
          "time": 88.66657799999999,
          "velocity": 0.5984251968503937,
          "duration": 0.21527756250000607
        },
        {
          "name": "E3",
          "midi": 52,
          "time": 88.66657799999999,
          "velocity": 0.6299212598425197,
          "duration": 0.21527756250000607
        },
        {
          "name": "C#3",
          "midi": 49,
          "time": 88.88879999999999,
          "velocity": 0.7874015748031497,
          "duration": 0.1041665624999979
        },
        {
          "name": "E3",
          "midi": 52,
          "time": 88.88879999999999,
          "velocity": 0.6299212598425197,
          "duration": 0.1041665624999979
        },
        {
          "name": "A4",
          "midi": 69,
          "time": 88.88879999999999,
          "velocity": 0.5826771653543307,
          "duration": 0.1041665624999979
        },
        {
          "name": "A2",
          "midi": 45,
          "time": 88.88879999999999,
          "velocity": 0.7716535433070866,
          "duration": 0.1041665624999979
        },
        {
          "name": "E4",
          "midi": 64,
          "time": 88.88879999999999,
          "velocity": 0.5984251968503937,
          "duration": 0.1041665624999979
        },
        {
          "name": "A3",
          "midi": 57,
          "time": 88.88879999999999,
          "velocity": 0.6141732283464567,
          "duration": 0.1041665624999979
        },
        {
          "name": "A4",
          "midi": 69,
          "time": 88.99991099999998,
          "velocity": 0.5826771653543307,
          "duration": 0.32638856250000003
        },
        {
          "name": "C#3",
          "midi": 49,
          "time": 88.99991099999998,
          "velocity": 0.7874015748031497,
          "duration": 0.32638856250000003
        },
        {
          "name": "A3",
          "midi": 57,
          "time": 88.99991099999998,
          "velocity": 0.6141732283464567,
          "duration": 0.32638856250000003
        },
        {
          "name": "E4",
          "midi": 64,
          "time": 88.99991099999998,
          "velocity": 0.5984251968503937,
          "duration": 0.32638856250000003
        },
        {
          "name": "E3",
          "midi": 52,
          "time": 88.99991099999998,
          "velocity": 0.6299212598425197,
          "duration": 0.32638856250000003
        },
        {
          "name": "A2",
          "midi": 45,
          "time": 88.99991099999998,
          "velocity": 0.7716535433070866,
          "duration": 0.32638856250000003
        },
        {
          "name": "A4",
          "midi": 69,
          "time": 89.33324399999998,
          "velocity": 0.5826771653543307,
          "duration": 0.21527756250000607
        },
        {
          "name": "A2",
          "midi": 45,
          "time": 89.33324399999998,
          "velocity": 0.7716535433070866,
          "duration": 0.21527756250000607
        },
        {
          "name": "C#3",
          "midi": 49,
          "time": 89.33324399999998,
          "velocity": 0.7874015748031497,
          "duration": 0.21527756250000607
        },
        {
          "name": "E3",
          "midi": 52,
          "time": 89.33324399999998,
          "velocity": 0.6299212598425197,
          "duration": 0.21527756250000607
        },
        {
          "name": "A3",
          "midi": 57,
          "time": 89.33324399999998,
          "velocity": 0.6141732283464567,
          "duration": 0.21527756250000607
        },
        {
          "name": "E4",
          "midi": 64,
          "time": 89.33324399999998,
          "velocity": 0.5984251968503937,
          "duration": 0.21527756250000607
        },
        {
          "name": "C#3",
          "midi": 49,
          "time": 89.55546599999998,
          "velocity": 0.7874015748031497,
          "duration": 0.1041665624999979
        },
        {
          "name": "A4",
          "midi": 69,
          "time": 89.55546599999998,
          "velocity": 0.5826771653543307,
          "duration": 0.1041665624999979
        },
        {
          "name": "E3",
          "midi": 52,
          "time": 89.55546599999998,
          "velocity": 0.6299212598425197,
          "duration": 0.1041665624999979
        },
        {
          "name": "E4",
          "midi": 64,
          "time": 89.55546599999998,
          "velocity": 0.5984251968503937,
          "duration": 0.1041665624999979
        },
        {
          "name": "A2",
          "midi": 45,
          "time": 89.55546599999998,
          "velocity": 0.7716535433070866,
          "duration": 0.1041665624999979
        },
        {
          "name": "A3",
          "midi": 57,
          "time": 89.55546599999998,
          "velocity": 0.6141732283464567,
          "duration": 0.1041665624999979
        },
        {
          "name": "E3",
          "midi": 52,
          "time": 89.66657699999998,
          "velocity": 0.6299212598425197,
          "duration": 0.21527756250000607
        },
        {
          "name": "E4",
          "midi": 64,
          "time": 89.66657699999998,
          "velocity": 0.5984251968503937,
          "duration": 0.21527756250000607
        },
        {
          "name": "C#3",
          "midi": 49,
          "time": 89.66657699999998,
          "velocity": 0.7874015748031497,
          "duration": 0.21527756250000607
        },
        {
          "name": "A3",
          "midi": 57,
          "time": 89.66657699999998,
          "velocity": 0.6141732283464567,
          "duration": 0.21527756250000607
        },
        {
          "name": "A4",
          "midi": 69,
          "time": 89.66657699999998,
          "velocity": 0.5826771653543307,
          "duration": 0.21527756250000607
        },
        {
          "name": "A2",
          "midi": 45,
          "time": 89.66657699999998,
          "velocity": 0.7716535433070866,
          "duration": 0.21527756250000607
        },
        {
          "name": "E4",
          "midi": 64,
          "time": 89.88879899999998,
          "velocity": 0.5984251968503937,
          "duration": 0.1041665624999979
        },
        {
          "name": "C#3",
          "midi": 49,
          "time": 89.88879899999998,
          "velocity": 0.7874015748031497,
          "duration": 0.1041665624999979
        },
        {
          "name": "E3",
          "midi": 52,
          "time": 89.88879899999998,
          "velocity": 0.6299212598425197,
          "duration": 0.1041665624999979
        },
        {
          "name": "A3",
          "midi": 57,
          "time": 89.88879899999998,
          "velocity": 0.6141732283464567,
          "duration": 0.1041665624999979
        },
        {
          "name": "A2",
          "midi": 45,
          "time": 89.88879899999998,
          "velocity": 0.7716535433070866,
          "duration": 0.1041665624999979
        },
        {
          "name": "A4",
          "midi": 69,
          "time": 89.88879899999998,
          "velocity": 0.5826771653543307,
          "duration": 0.1041665624999979
        },
        {
          "name": "A2",
          "midi": 45,
          "time": 89.99990999999997,
          "velocity": 0.7716535433070866,
          "duration": 0.32638856250000003
        },
        {
          "name": "A3",
          "midi": 57,
          "time": 89.99990999999997,
          "velocity": 0.6141732283464567,
          "duration": 0.32638856250000003
        },
        {
          "name": "E4",
          "midi": 64,
          "time": 89.99990999999997,
          "velocity": 0.5984251968503937,
          "duration": 0.32638856250000003
        },
        {
          "name": "C#3",
          "midi": 49,
          "time": 89.99990999999997,
          "velocity": 0.7874015748031497,
          "duration": 0.32638856250000003
        },
        {
          "name": "E3",
          "midi": 52,
          "time": 89.99990999999997,
          "velocity": 0.6299212598425197,
          "duration": 0.32638856250000003
        },
        {
          "name": "A4",
          "midi": 69,
          "time": 89.99990999999997,
          "velocity": 0.5826771653543307,
          "duration": 0.32638856250000003
        },
        {
          "name": "A3",
          "midi": 57,
          "time": 90.33324299999997,
          "velocity": 0.6141732283464567,
          "duration": 0.21527756250000607
        },
        {
          "name": "C#3",
          "midi": 49,
          "time": 90.33324299999997,
          "velocity": 0.7874015748031497,
          "duration": 0.21527756250000607
        },
        {
          "name": "A4",
          "midi": 69,
          "time": 90.33324299999997,
          "velocity": 0.5826771653543307,
          "duration": 0.21527756250000607
        },
        {
          "name": "E4",
          "midi": 64,
          "time": 90.33324299999997,
          "velocity": 0.5984251968503937,
          "duration": 0.21527756250000607
        },
        {
          "name": "A2",
          "midi": 45,
          "time": 90.33324299999997,
          "velocity": 0.7716535433070866,
          "duration": 0.21527756250000607
        },
        {
          "name": "E3",
          "midi": 52,
          "time": 90.33324299999997,
          "velocity": 0.6299212598425197,
          "duration": 0.21527756250000607
        },
        {
          "name": "A3",
          "midi": 57,
          "time": 90.55546499999997,
          "velocity": 0.6141732283464567,
          "duration": 0.1041665624999979
        },
        {
          "name": "E4",
          "midi": 64,
          "time": 90.55546499999997,
          "velocity": 0.5984251968503937,
          "duration": 0.1041665624999979
        },
        {
          "name": "A2",
          "midi": 45,
          "time": 90.55546499999997,
          "velocity": 0.7716535433070866,
          "duration": 0.1041665624999979
        },
        {
          "name": "A4",
          "midi": 69,
          "time": 90.55546499999997,
          "velocity": 0.5826771653543307,
          "duration": 0.1041665624999979
        },
        {
          "name": "E3",
          "midi": 52,
          "time": 90.55546499999997,
          "velocity": 0.6299212598425197,
          "duration": 0.1041665624999979
        },
        {
          "name": "C#3",
          "midi": 49,
          "time": 90.55546499999997,
          "velocity": 0.7874015748031497,
          "duration": 0.1041665624999979
        },
        {
          "name": "A4",
          "midi": 69,
          "time": 90.66657599999996,
          "velocity": 0.5826771653543307,
          "duration": 0.21527756250000607
        },
        {
          "name": "E3",
          "midi": 52,
          "time": 90.66657599999996,
          "velocity": 0.6299212598425197,
          "duration": 0.21527756250000607
        },
        {
          "name": "C#3",
          "midi": 49,
          "time": 90.66657599999996,
          "velocity": 0.7874015748031497,
          "duration": 0.21527756250000607
        },
        {
          "name": "A2",
          "midi": 45,
          "time": 90.66657599999996,
          "velocity": 0.7716535433070866,
          "duration": 0.21527756250000607
        },
        {
          "name": "E4",
          "midi": 64,
          "time": 90.66657599999996,
          "velocity": 0.5984251968503937,
          "duration": 0.21527756250000607
        },
        {
          "name": "A3",
          "midi": 57,
          "time": 90.66657599999996,
          "velocity": 0.6141732283464567,
          "duration": 0.21527756250000607
        },
        {
          "name": "E4",
          "midi": 64,
          "time": 90.88879799999997,
          "velocity": 0.5984251968503937,
          "duration": 0.1041665624999979
        },
        {
          "name": "A2",
          "midi": 45,
          "time": 90.88879799999997,
          "velocity": 0.7716535433070866,
          "duration": 0.1041665624999979
        },
        {
          "name": "E3",
          "midi": 52,
          "time": 90.88879799999997,
          "velocity": 0.6299212598425197,
          "duration": 0.1041665624999979
        },
        {
          "name": "A3",
          "midi": 57,
          "time": 90.88879799999997,
          "velocity": 0.6141732283464567,
          "duration": 0.1041665624999979
        },
        {
          "name": "A4",
          "midi": 69,
          "time": 90.88879799999997,
          "velocity": 0.5826771653543307,
          "duration": 0.1041665624999979
        },
        {
          "name": "C#3",
          "midi": 49,
          "time": 90.88879799999997,
          "velocity": 0.7874015748031497,
          "duration": 0.1041665624999979
        },
        {
          "name": "E4",
          "midi": 64,
          "time": 90.99990899999996,
          "velocity": 0.5984251968503937,
          "duration": 0.32638856250000003
        },
        {
          "name": "A2",
          "midi": 45,
          "time": 90.99990899999996,
          "velocity": 0.7716535433070866,
          "duration": 0.32638856250000003
        },
        {
          "name": "A4",
          "midi": 69,
          "time": 90.99990899999996,
          "velocity": 0.5826771653543307,
          "duration": 0.32638856250000003
        },
        {
          "name": "A3",
          "midi": 57,
          "time": 90.99990899999996,
          "velocity": 0.6141732283464567,
          "duration": 0.32638856250000003
        },
        {
          "name": "C#3",
          "midi": 49,
          "time": 90.99990899999996,
          "velocity": 0.7874015748031497,
          "duration": 0.32638856250000003
        },
        {
          "name": "E3",
          "midi": 52,
          "time": 90.99990899999996,
          "velocity": 0.6299212598425197,
          "duration": 0.32638856250000003
        },
        {
          "name": "E3",
          "midi": 52,
          "time": 91.33324199999996,
          "velocity": 0.6299212598425197,
          "duration": 0.21527756250000607
        },
        {
          "name": "E4",
          "midi": 64,
          "time": 91.33324199999996,
          "velocity": 0.5984251968503937,
          "duration": 0.21527756250000607
        },
        {
          "name": "C#3",
          "midi": 49,
          "time": 91.33324199999996,
          "velocity": 0.7874015748031497,
          "duration": 0.21527756250000607
        },
        {
          "name": "A4",
          "midi": 69,
          "time": 91.33324199999996,
          "velocity": 0.5826771653543307,
          "duration": 0.21527756250000607
        },
        {
          "name": "A3",
          "midi": 57,
          "time": 91.33324199999996,
          "velocity": 0.6141732283464567,
          "duration": 0.21527756250000607
        },
        {
          "name": "A2",
          "midi": 45,
          "time": 91.33324199999996,
          "velocity": 0.7716535433070866,
          "duration": 0.21527756250000607
        },
        {
          "name": "E4",
          "midi": 64,
          "time": 91.55546399999996,
          "velocity": 0.5984251968503937,
          "duration": 0.1041665624999979
        },
        {
          "name": "C#3",
          "midi": 49,
          "time": 91.55546399999996,
          "velocity": 0.7874015748031497,
          "duration": 0.1041665624999979
        },
        {
          "name": "A2",
          "midi": 45,
          "time": 91.55546399999996,
          "velocity": 0.7716535433070866,
          "duration": 0.1041665624999979
        },
        {
          "name": "E3",
          "midi": 52,
          "time": 91.55546399999996,
          "velocity": 0.6299212598425197,
          "duration": 0.1041665624999979
        },
        {
          "name": "A3",
          "midi": 57,
          "time": 91.55546399999996,
          "velocity": 0.6141732283464567,
          "duration": 0.1041665624999979
        },
        {
          "name": "A4",
          "midi": 69,
          "time": 91.55546399999996,
          "velocity": 0.5826771653543307,
          "duration": 0.1041665624999979
        },
        {
          "name": "A4",
          "midi": 69,
          "time": 91.66657499999995,
          "velocity": 0.5826771653543307,
          "duration": 0.21527756250000607
        },
        {
          "name": "C#3",
          "midi": 49,
          "time": 91.66657499999995,
          "velocity": 0.7874015748031497,
          "duration": 0.21527756250000607
        },
        {
          "name": "E3",
          "midi": 52,
          "time": 91.66657499999995,
          "velocity": 0.6299212598425197,
          "duration": 0.21527756250000607
        },
        {
          "name": "E4",
          "midi": 64,
          "time": 91.66657499999995,
          "velocity": 0.5984251968503937,
          "duration": 0.21527756250000607
        },
        {
          "name": "A3",
          "midi": 57,
          "time": 91.66657499999995,
          "velocity": 0.6141732283464567,
          "duration": 0.21527756250000607
        },
        {
          "name": "A2",
          "midi": 45,
          "time": 91.66657499999995,
          "velocity": 0.7716535433070866,
          "duration": 0.21527756250000607
        },
        {
          "name": "A3",
          "midi": 57,
          "time": 91.88879699999995,
          "velocity": 0.6141732283464567,
          "duration": 0.1041665624999979
        },
        {
          "name": "A4",
          "midi": 69,
          "time": 91.88879699999995,
          "velocity": 0.5826771653543307,
          "duration": 0.1041665624999979
        },
        {
          "name": "E3",
          "midi": 52,
          "time": 91.88879699999995,
          "velocity": 0.6299212598425197,
          "duration": 0.1041665624999979
        },
        {
          "name": "C#3",
          "midi": 49,
          "time": 91.88879699999995,
          "velocity": 0.7874015748031497,
          "duration": 0.1041665624999979
        },
        {
          "name": "A2",
          "midi": 45,
          "time": 91.88879699999995,
          "velocity": 0.7716535433070866,
          "duration": 0.1041665624999979
        },
        {
          "name": "E4",
          "midi": 64,
          "time": 91.88879699999995,
          "velocity": 0.5984251968503937,
          "duration": 0.1041665624999979
        },
        {
          "name": "E4",
          "midi": 64,
          "time": 91.99990799999995,
          "velocity": 0.6299212598425197,
          "duration": 0.32638856250000003
        },
        {
          "name": "E3",
          "midi": 52,
          "time": 91.99990799999995,
          "velocity": 0.7716535433070866,
          "duration": 0.32638856250000003
        },
        {
          "name": "B3",
          "midi": 59,
          "time": 91.99990799999995,
          "velocity": 0.7874015748031497,
          "duration": 0.32638856250000003
        },
        {
          "name": "G4",
          "midi": 67,
          "time": 91.99990799999995,
          "velocity": 0.6141732283464567,
          "duration": 0.32638856250000003
        },
        {
          "name": "G4",
          "midi": 67,
          "time": 92.33324099999994,
          "velocity": 0.6141732283464567,
          "duration": 0.21527756250000607
        },
        {
          "name": "E3",
          "midi": 52,
          "time": 92.33324099999994,
          "velocity": 0.7716535433070866,
          "duration": 0.21527756250000607
        },
        {
          "name": "B3",
          "midi": 59,
          "time": 92.33324099999994,
          "velocity": 0.7874015748031497,
          "duration": 0.21527756250000607
        },
        {
          "name": "E4",
          "midi": 64,
          "time": 92.33324099999994,
          "velocity": 0.6299212598425197,
          "duration": 0.21527756250000607
        },
        {
          "name": "E4",
          "midi": 64,
          "time": 92.55546299999995,
          "velocity": 0.6299212598425197,
          "duration": 0.1041665624999979
        },
        {
          "name": "B3",
          "midi": 59,
          "time": 92.55546299999995,
          "velocity": 0.7874015748031497,
          "duration": 0.1041665624999979
        },
        {
          "name": "G4",
          "midi": 67,
          "time": 92.55546299999995,
          "velocity": 0.6141732283464567,
          "duration": 0.1041665624999979
        },
        {
          "name": "E3",
          "midi": 52,
          "time": 92.55546299999995,
          "velocity": 0.7716535433070866,
          "duration": 0.1041665624999979
        },
        {
          "name": "G4",
          "midi": 67,
          "time": 92.66657399999994,
          "velocity": 0.6141732283464567,
          "duration": 0.21527756250000607
        },
        {
          "name": "B3",
          "midi": 59,
          "time": 92.66657399999994,
          "velocity": 0.7874015748031497,
          "duration": 0.21527756250000607
        },
        {
          "name": "E3",
          "midi": 52,
          "time": 92.66657399999994,
          "velocity": 0.7716535433070866,
          "duration": 0.21527756250000607
        },
        {
          "name": "E4",
          "midi": 64,
          "time": 92.66657399999994,
          "velocity": 0.6299212598425197,
          "duration": 0.21527756250000607
        },
        {
          "name": "B3",
          "midi": 59,
          "time": 92.88879599999994,
          "velocity": 0.7874015748031497,
          "duration": 0.1041665624999979
        },
        {
          "name": "E4",
          "midi": 64,
          "time": 92.88879599999994,
          "velocity": 0.6299212598425197,
          "duration": 0.1041665624999979
        },
        {
          "name": "E3",
          "midi": 52,
          "time": 92.88879599999994,
          "velocity": 0.7716535433070866,
          "duration": 0.1041665624999979
        },
        {
          "name": "G4",
          "midi": 67,
          "time": 92.88879599999994,
          "velocity": 0.6141732283464567,
          "duration": 0.1041665624999979
        },
        {
          "name": "E4",
          "midi": 64,
          "time": 92.99990699999994,
          "velocity": 0.6299212598425197,
          "duration": 0.32638856250000003
        },
        {
          "name": "E3",
          "midi": 52,
          "time": 92.99990699999994,
          "velocity": 0.7716535433070866,
          "duration": 0.32638856250000003
        },
        {
          "name": "B3",
          "midi": 59,
          "time": 92.99990699999994,
          "velocity": 0.7874015748031497,
          "duration": 0.32638856250000003
        },
        {
          "name": "G4",
          "midi": 67,
          "time": 92.99990699999994,
          "velocity": 0.6141732283464567,
          "duration": 0.32638856250000003
        },
        {
          "name": "E4",
          "midi": 64,
          "time": 93.33323999999993,
          "velocity": 0.6299212598425197,
          "duration": 0.21527756250000607
        },
        {
          "name": "E3",
          "midi": 52,
          "time": 93.33323999999993,
          "velocity": 0.7716535433070866,
          "duration": 0.21527756250000607
        },
        {
          "name": "G4",
          "midi": 67,
          "time": 93.33323999999993,
          "velocity": 0.6141732283464567,
          "duration": 0.21527756250000607
        },
        {
          "name": "B3",
          "midi": 59,
          "time": 93.33323999999993,
          "velocity": 0.7874015748031497,
          "duration": 0.21527756250000607
        },
        {
          "name": "G4",
          "midi": 67,
          "time": 93.55546199999993,
          "velocity": 0.6141732283464567,
          "duration": 0.1041665624999979
        },
        {
          "name": "E3",
          "midi": 52,
          "time": 93.55546199999993,
          "velocity": 0.7716535433070866,
          "duration": 0.1041665624999979
        },
        {
          "name": "B3",
          "midi": 59,
          "time": 93.55546199999993,
          "velocity": 0.7874015748031497,
          "duration": 0.1041665624999979
        },
        {
          "name": "E4",
          "midi": 64,
          "time": 93.55546199999993,
          "velocity": 0.6299212598425197,
          "duration": 0.1041665624999979
        },
        {
          "name": "B3",
          "midi": 59,
          "time": 93.66657299999993,
          "velocity": 0.7874015748031497,
          "duration": 0.21527756250000607
        },
        {
          "name": "E4",
          "midi": 64,
          "time": 93.66657299999993,
          "velocity": 0.6299212598425197,
          "duration": 0.21527756250000607
        },
        {
          "name": "G4",
          "midi": 67,
          "time": 93.66657299999993,
          "velocity": 0.6141732283464567,
          "duration": 0.21527756250000607
        },
        {
          "name": "E3",
          "midi": 52,
          "time": 93.66657299999993,
          "velocity": 0.7716535433070866,
          "duration": 0.21527756250000607
        },
        {
          "name": "E4",
          "midi": 64,
          "time": 93.88879499999993,
          "velocity": 0.6299212598425197,
          "duration": 0.1041665624999979
        },
        {
          "name": "G4",
          "midi": 67,
          "time": 93.88879499999993,
          "velocity": 0.6141732283464567,
          "duration": 0.1041665624999979
        },
        {
          "name": "B3",
          "midi": 59,
          "time": 93.88879499999993,
          "velocity": 0.7874015748031497,
          "duration": 0.1041665624999979
        },
        {
          "name": "E3",
          "midi": 52,
          "time": 93.88879499999993,
          "velocity": 0.7716535433070866,
          "duration": 0.1041665624999979
        },
        {
          "name": "E3",
          "midi": 52,
          "time": 93.99990599999992,
          "velocity": 0.7716535433070866,
          "duration": 0.32638856250000003
        },
        {
          "name": "G4",
          "midi": 67,
          "time": 93.99990599999992,
          "velocity": 0.6141732283464567,
          "duration": 0.32638856250000003
        },
        {
          "name": "E4",
          "midi": 64,
          "time": 93.99990599999992,
          "velocity": 0.6299212598425197,
          "duration": 0.32638856250000003
        },
        {
          "name": "B3",
          "midi": 59,
          "time": 93.99990599999992,
          "velocity": 0.7874015748031497,
          "duration": 0.32638856250000003
        },
        {
          "name": "E3",
          "midi": 52,
          "time": 94.33323899999992,
          "velocity": 0.7716535433070866,
          "duration": 0.21527756250000607
        },
        {
          "name": "B3",
          "midi": 59,
          "time": 94.33323899999992,
          "velocity": 0.7874015748031497,
          "duration": 0.21527756250000607
        },
        {
          "name": "G4",
          "midi": 67,
          "time": 94.33323899999992,
          "velocity": 0.6141732283464567,
          "duration": 0.21527756250000607
        },
        {
          "name": "E4",
          "midi": 64,
          "time": 94.33323899999992,
          "velocity": 0.6299212598425197,
          "duration": 0.21527756250000607
        },
        {
          "name": "E3",
          "midi": 52,
          "time": 94.55546099999992,
          "velocity": 0.7716535433070866,
          "duration": 0.1041665624999979
        },
        {
          "name": "G4",
          "midi": 67,
          "time": 94.55546099999992,
          "velocity": 0.6141732283464567,
          "duration": 0.1041665624999979
        },
        {
          "name": "E4",
          "midi": 64,
          "time": 94.55546099999992,
          "velocity": 0.6299212598425197,
          "duration": 0.1041665624999979
        },
        {
          "name": "B3",
          "midi": 59,
          "time": 94.55546099999992,
          "velocity": 0.7874015748031497,
          "duration": 0.1041665624999979
        },
        {
          "name": "G4",
          "midi": 67,
          "time": 94.66657199999992,
          "velocity": 0.6141732283464567,
          "duration": 0.21527756250000607
        },
        {
          "name": "E3",
          "midi": 52,
          "time": 94.66657199999992,
          "velocity": 0.7716535433070866,
          "duration": 0.21527756250000607
        },
        {
          "name": "E4",
          "midi": 64,
          "time": 94.66657199999992,
          "velocity": 0.6299212598425197,
          "duration": 0.21527756250000607
        },
        {
          "name": "B3",
          "midi": 59,
          "time": 94.66657199999992,
          "velocity": 0.7874015748031497,
          "duration": 0.21527756250000607
        },
        {
          "name": "E4",
          "midi": 64,
          "time": 94.88879399999992,
          "velocity": 0.6299212598425197,
          "duration": 0.1041665624999979
        },
        {
          "name": "G4",
          "midi": 67,
          "time": 94.88879399999992,
          "velocity": 0.6141732283464567,
          "duration": 0.1041665624999979
        },
        {
          "name": "E3",
          "midi": 52,
          "time": 94.88879399999992,
          "velocity": 0.7716535433070866,
          "duration": 0.1041665624999979
        },
        {
          "name": "B3",
          "midi": 59,
          "time": 94.88879399999992,
          "velocity": 0.7874015748031497,
          "duration": 0.1041665624999979
        },
        {
          "name": "B3",
          "midi": 59,
          "time": 94.99990499999991,
          "velocity": 0.7874015748031497,
          "duration": 0.32638856250000003
        },
        {
          "name": "G4",
          "midi": 67,
          "time": 94.99990499999991,
          "velocity": 0.6141732283464567,
          "duration": 0.32638856250000003
        },
        {
          "name": "E3",
          "midi": 52,
          "time": 94.99990499999991,
          "velocity": 0.7716535433070866,
          "duration": 0.32638856250000003
        },
        {
          "name": "E4",
          "midi": 64,
          "time": 94.99990499999991,
          "velocity": 0.6299212598425197,
          "duration": 0.32638856250000003
        },
        {
          "name": "E3",
          "midi": 52,
          "time": 95.33323799999991,
          "velocity": 0.7716535433070866,
          "duration": 0.21527756250000607
        },
        {
          "name": "G4",
          "midi": 67,
          "time": 95.33323799999991,
          "velocity": 0.6141732283464567,
          "duration": 0.21527756250000607
        },
        {
          "name": "B3",
          "midi": 59,
          "time": 95.33323799999991,
          "velocity": 0.7874015748031497,
          "duration": 0.21527756250000607
        },
        {
          "name": "E4",
          "midi": 64,
          "time": 95.33323799999991,
          "velocity": 0.6299212598425197,
          "duration": 0.21527756250000607
        },
        {
          "name": "E3",
          "midi": 52,
          "time": 95.55545999999991,
          "velocity": 0.7716535433070866,
          "duration": 0.1041665624999979
        },
        {
          "name": "G4",
          "midi": 67,
          "time": 95.55545999999991,
          "velocity": 0.6141732283464567,
          "duration": 0.1041665624999979
        },
        {
          "name": "E4",
          "midi": 64,
          "time": 95.55545999999991,
          "velocity": 0.6299212598425197,
          "duration": 0.1041665624999979
        },
        {
          "name": "B3",
          "midi": 59,
          "time": 95.55545999999991,
          "velocity": 0.7874015748031497,
          "duration": 0.1041665624999979
        },
        {
          "name": "E4",
          "midi": 64,
          "time": 95.6665709999999,
          "velocity": 0.6299212598425197,
          "duration": 0.21527756250000607
        },
        {
          "name": "G4",
          "midi": 67,
          "time": 95.6665709999999,
          "velocity": 0.6141732283464567,
          "duration": 0.21527756250000607
        },
        {
          "name": "B3",
          "midi": 59,
          "time": 95.6665709999999,
          "velocity": 0.7874015748031497,
          "duration": 0.21527756250000607
        },
        {
          "name": "E3",
          "midi": 52,
          "time": 95.6665709999999,
          "velocity": 0.7716535433070866,
          "duration": 0.21527756250000607
        },
        {
          "name": "B3",
          "midi": 59,
          "time": 95.88879299999991,
          "velocity": 0.7874015748031497,
          "duration": 0.1041665624999979
        },
        {
          "name": "E3",
          "midi": 52,
          "time": 95.88879299999991,
          "velocity": 0.7716535433070866,
          "duration": 0.1041665624999979
        },
        {
          "name": "G4",
          "midi": 67,
          "time": 95.88879299999991,
          "velocity": 0.6141732283464567,
          "duration": 0.1041665624999979
        },
        {
          "name": "E4",
          "midi": 64,
          "time": 95.88879299999991,
          "velocity": 0.6299212598425197,
          "duration": 0.1041665624999979
        },
        {
          "name": "A3",
          "midi": 57,
          "time": 95.9999039999999,
          "velocity": 0.7480314960629921,
          "duration": 0.32638856250000003
        },
        {
          "name": "C#4",
          "midi": 61,
          "time": 95.9999039999999,
          "velocity": 0.7322834645669292,
          "duration": 0.32638856250000003
        },
        {
          "name": "F#4",
          "midi": 66,
          "time": 95.9999039999999,
          "velocity": 0.7165354330708661,
          "duration": 0.32638856250000003
        },
        {
          "name": "C#3",
          "midi": 49,
          "time": 95.9999039999999,
          "velocity": 0.889763779527559,
          "duration": 0.32638856250000003
        },
        {
          "name": "F#3",
          "midi": 54,
          "time": 95.9999039999999,
          "velocity": 0.905511811023622,
          "duration": 0.32638856250000003
        },
        {
          "name": "C#4",
          "midi": 61,
          "time": 96.3332369999999,
          "velocity": 0.6141732283464567,
          "duration": 0.21527756250000607
        },
        {
          "name": "F#3",
          "midi": 54,
          "time": 96.3332369999999,
          "velocity": 0.7874015748031497,
          "duration": 0.21527756250000607
        },
        {
          "name": "A3",
          "midi": 57,
          "time": 96.3332369999999,
          "velocity": 0.6299212598425197,
          "duration": 0.21527756250000607
        },
        {
          "name": "F#4",
          "midi": 66,
          "time": 96.3332369999999,
          "velocity": 0.5984251968503937,
          "duration": 0.21527756250000607
        },
        {
          "name": "C#3",
          "midi": 49,
          "time": 96.3332369999999,
          "velocity": 0.7716535433070866,
          "duration": 0.21527756250000607
        },
        {
          "name": "F#4",
          "midi": 66,
          "time": 96.5554589999999,
          "velocity": 0.7165354330708661,
          "duration": 0.1041665624999979
        },
        {
          "name": "C#4",
          "midi": 61,
          "time": 96.5554589999999,
          "velocity": 0.7322834645669292,
          "duration": 0.1041665624999979
        },
        {
          "name": "F#3",
          "midi": 54,
          "time": 96.5554589999999,
          "velocity": 0.905511811023622,
          "duration": 0.1041665624999979
        },
        {
          "name": "A3",
          "midi": 57,
          "time": 96.5554589999999,
          "velocity": 0.7480314960629921,
          "duration": 0.1041665624999979
        },
        {
          "name": "C#3",
          "midi": 49,
          "time": 96.5554589999999,
          "velocity": 0.889763779527559,
          "duration": 0.1041665624999979
        },
        {
          "name": "A3",
          "midi": 57,
          "time": 96.6665699999999,
          "velocity": 0.6299212598425197,
          "duration": 0.21527756250000607
        },
        {
          "name": "C#3",
          "midi": 49,
          "time": 96.6665699999999,
          "velocity": 0.7716535433070866,
          "duration": 0.21527756250000607
        },
        {
          "name": "C#4",
          "midi": 61,
          "time": 96.6665699999999,
          "velocity": 0.6141732283464567,
          "duration": 0.21527756250000607
        },
        {
          "name": "F#3",
          "midi": 54,
          "time": 96.6665699999999,
          "velocity": 0.7874015748031497,
          "duration": 0.21527756250000607
        },
        {
          "name": "F#4",
          "midi": 66,
          "time": 96.6665699999999,
          "velocity": 0.5984251968503937,
          "duration": 0.21527756250000607
        },
        {
          "name": "F#4",
          "midi": 66,
          "time": 96.8887919999999,
          "velocity": 0.5984251968503937,
          "duration": 0.1041665624999979
        },
        {
          "name": "C#4",
          "midi": 61,
          "time": 96.8887919999999,
          "velocity": 0.6141732283464567,
          "duration": 0.1041665624999979
        },
        {
          "name": "C#3",
          "midi": 49,
          "time": 96.8887919999999,
          "velocity": 0.7716535433070866,
          "duration": 0.1041665624999979
        },
        {
          "name": "A3",
          "midi": 57,
          "time": 96.8887919999999,
          "velocity": 0.6299212598425197,
          "duration": 0.1041665624999979
        },
        {
          "name": "F#3",
          "midi": 54,
          "time": 96.8887919999999,
          "velocity": 0.7874015748031497,
          "duration": 0.1041665624999979
        },
        {
          "name": "A3",
          "midi": 57,
          "time": 96.99990299999989,
          "velocity": 0.7480314960629921,
          "duration": 0.32638856250000003
        },
        {
          "name": "F#4",
          "midi": 66,
          "time": 96.99990299999989,
          "velocity": 0.7165354330708661,
          "duration": 0.32638856250000003
        },
        {
          "name": "F#3",
          "midi": 54,
          "time": 96.99990299999989,
          "velocity": 0.905511811023622,
          "duration": 0.32638856250000003
        },
        {
          "name": "C#3",
          "midi": 49,
          "time": 96.99990299999989,
          "velocity": 0.889763779527559,
          "duration": 0.32638856250000003
        },
        {
          "name": "C#4",
          "midi": 61,
          "time": 96.99990299999989,
          "velocity": 0.7322834645669292,
          "duration": 0.32638856250000003
        },
        {
          "name": "F#4",
          "midi": 66,
          "time": 97.33323599999989,
          "velocity": 0.5984251968503937,
          "duration": 0.21527756250000607
        },
        {
          "name": "F#3",
          "midi": 54,
          "time": 97.33323599999989,
          "velocity": 0.7874015748031497,
          "duration": 0.21527756250000607
        },
        {
          "name": "C#3",
          "midi": 49,
          "time": 97.33323599999989,
          "velocity": 0.7716535433070866,
          "duration": 0.21527756250000607
        },
        {
          "name": "A3",
          "midi": 57,
          "time": 97.33323599999989,
          "velocity": 0.6299212598425197,
          "duration": 0.21527756250000607
        },
        {
          "name": "C#4",
          "midi": 61,
          "time": 97.33323599999989,
          "velocity": 0.6141732283464567,
          "duration": 0.21527756250000607
        },
        {
          "name": "F#4",
          "midi": 66,
          "time": 97.55545799999989,
          "velocity": 0.7165354330708661,
          "duration": 0.1041665624999979
        },
        {
          "name": "F#3",
          "midi": 54,
          "time": 97.55545799999989,
          "velocity": 0.905511811023622,
          "duration": 0.1041665624999979
        },
        {
          "name": "C#4",
          "midi": 61,
          "time": 97.55545799999989,
          "velocity": 0.7322834645669292,
          "duration": 0.1041665624999979
        },
        {
          "name": "A3",
          "midi": 57,
          "time": 97.55545799999989,
          "velocity": 0.7480314960629921,
          "duration": 0.1041665624999979
        },
        {
          "name": "C#3",
          "midi": 49,
          "time": 97.55545799999989,
          "velocity": 0.889763779527559,
          "duration": 0.1041665624999979
        },
        {
          "name": "A3",
          "midi": 57,
          "time": 97.66656899999988,
          "velocity": 0.6299212598425197,
          "duration": 0.21527756250000607
        },
        {
          "name": "F#4",
          "midi": 66,
          "time": 97.66656899999988,
          "velocity": 0.5984251968503937,
          "duration": 0.21527756250000607
        },
        {
          "name": "C#3",
          "midi": 49,
          "time": 97.66656899999988,
          "velocity": 0.7716535433070866,
          "duration": 0.21527756250000607
        },
        {
          "name": "F#3",
          "midi": 54,
          "time": 97.66656899999988,
          "velocity": 0.7874015748031497,
          "duration": 0.21527756250000607
        },
        {
          "name": "C#4",
          "midi": 61,
          "time": 97.66656899999988,
          "velocity": 0.6141732283464567,
          "duration": 0.21527756250000607
        },
        {
          "name": "F#4",
          "midi": 66,
          "time": 97.88879099999988,
          "velocity": 0.5984251968503937,
          "duration": 0.1041665624999979
        },
        {
          "name": "F#3",
          "midi": 54,
          "time": 97.88879099999988,
          "velocity": 0.7874015748031497,
          "duration": 0.1041665624999979
        },
        {
          "name": "C#4",
          "midi": 61,
          "time": 97.88879099999988,
          "velocity": 0.6141732283464567,
          "duration": 0.1041665624999979
        },
        {
          "name": "A3",
          "midi": 57,
          "time": 97.88879099999988,
          "velocity": 0.6299212598425197,
          "duration": 0.1041665624999979
        },
        {
          "name": "C#3",
          "midi": 49,
          "time": 97.88879099999988,
          "velocity": 0.7716535433070866,
          "duration": 0.1041665624999979
        },
        {
          "name": "A3",
          "midi": 57,
          "time": 97.99990199999988,
          "velocity": 0.7480314960629921,
          "duration": 0.32638856250000003
        },
        {
          "name": "F#4",
          "midi": 66,
          "time": 97.99990199999988,
          "velocity": 0.7165354330708661,
          "duration": 0.32638856250000003
        },
        {
          "name": "B2",
          "midi": 47,
          "time": 97.99990199999988,
          "velocity": 0.889763779527559,
          "duration": 0.32638856250000003
        },
        {
          "name": "D#4",
          "midi": 63,
          "time": 97.99990199999988,
          "velocity": 0.7322834645669292,
          "duration": 0.32638856250000003
        },
        {
          "name": "F#3",
          "midi": 54,
          "time": 97.99990199999988,
          "velocity": 0.905511811023622,
          "duration": 0.32638856250000003
        },
        {
          "name": "B2",
          "midi": 47,
          "time": 98.33323499999987,
          "velocity": 0.7716535433070866,
          "duration": 0.21527756250000607
        },
        {
          "name": "A3",
          "midi": 57,
          "time": 98.33323499999987,
          "velocity": 0.6299212598425197,
          "duration": 0.21527756250000607
        },
        {
          "name": "F#3",
          "midi": 54,
          "time": 98.33323499999987,
          "velocity": 0.7874015748031497,
          "duration": 0.21527756250000607
        },
        {
          "name": "F#4",
          "midi": 66,
          "time": 98.33323499999987,
          "velocity": 0.5984251968503937,
          "duration": 0.21527756250000607
        },
        {
          "name": "D#4",
          "midi": 63,
          "time": 98.33323499999987,
          "velocity": 0.6141732283464567,
          "duration": 0.21527756250000607
        },
        {
          "name": "D#4",
          "midi": 63,
          "time": 98.55545699999988,
          "velocity": 0.7322834645669292,
          "duration": 0.1041665624999979
        },
        {
          "name": "F#3",
          "midi": 54,
          "time": 98.55545699999988,
          "velocity": 0.905511811023622,
          "duration": 0.1041665624999979
        },
        {
          "name": "B2",
          "midi": 47,
          "time": 98.55545699999988,
          "velocity": 0.889763779527559,
          "duration": 0.1041665624999979
        },
        {
          "name": "A3",
          "midi": 57,
          "time": 98.55545699999988,
          "velocity": 0.7480314960629921,
          "duration": 0.1041665624999979
        },
        {
          "name": "F#4",
          "midi": 66,
          "time": 98.55545699999988,
          "velocity": 0.7165354330708661,
          "duration": 0.1041665624999979
        },
        {
          "name": "F#3",
          "midi": 54,
          "time": 98.66656799999987,
          "velocity": 0.7874015748031497,
          "duration": 0.21527756250000607
        },
        {
          "name": "A3",
          "midi": 57,
          "time": 98.66656799999987,
          "velocity": 0.6299212598425197,
          "duration": 0.21527756250000607
        },
        {
          "name": "B2",
          "midi": 47,
          "time": 98.66656799999987,
          "velocity": 0.7716535433070866,
          "duration": 0.21527756250000607
        },
        {
          "name": "D#4",
          "midi": 63,
          "time": 98.66656799999987,
          "velocity": 0.6141732283464567,
          "duration": 0.21527756250000607
        },
        {
          "name": "F#4",
          "midi": 66,
          "time": 98.66656799999987,
          "velocity": 0.5984251968503937,
          "duration": 0.21527756250000607
        },
        {
          "name": "F#3",
          "midi": 54,
          "time": 98.88878999999987,
          "velocity": 0.7874015748031497,
          "duration": 0.1041665624999979
        },
        {
          "name": "B2",
          "midi": 47,
          "time": 98.88878999999987,
          "velocity": 0.7716535433070866,
          "duration": 0.1041665624999979
        },
        {
          "name": "D#4",
          "midi": 63,
          "time": 98.88878999999987,
          "velocity": 0.6141732283464567,
          "duration": 0.1041665624999979
        },
        {
          "name": "F#4",
          "midi": 66,
          "time": 98.88878999999987,
          "velocity": 0.5984251968503937,
          "duration": 0.1041665624999979
        },
        {
          "name": "A3",
          "midi": 57,
          "time": 98.88878999999987,
          "velocity": 0.6299212598425197,
          "duration": 0.1041665624999979
        },
        {
          "name": "B2",
          "midi": 47,
          "time": 98.99990099999987,
          "velocity": 0.7716535433070866,
          "duration": 0.32638856250000003
        },
        {
          "name": "A3",
          "midi": 57,
          "time": 98.99990099999987,
          "velocity": 0.6299212598425197,
          "duration": 0.32638856250000003
        },
        {
          "name": "F#3",
          "midi": 54,
          "time": 98.99990099999987,
          "velocity": 0.7874015748031497,
          "duration": 0.32638856250000003
        },
        {
          "name": "F#4",
          "midi": 66,
          "time": 98.99990099999987,
          "velocity": 0.5984251968503937,
          "duration": 0.32638856250000003
        },
        {
          "name": "D#4",
          "midi": 63,
          "time": 98.99990099999987,
          "velocity": 0.6141732283464567,
          "duration": 0.32638856250000003
        },
        {
          "name": "F#4",
          "midi": 66,
          "time": 99.33323399999986,
          "velocity": 0.5984251968503937,
          "duration": 0.21527756250000607
        },
        {
          "name": "B2",
          "midi": 47,
          "time": 99.33323399999986,
          "velocity": 0.7716535433070866,
          "duration": 0.21527756250000607
        },
        {
          "name": "A3",
          "midi": 57,
          "time": 99.33323399999986,
          "velocity": 0.6299212598425197,
          "duration": 0.21527756250000607
        },
        {
          "name": "D#4",
          "midi": 63,
          "time": 99.33323399999986,
          "velocity": 0.6141732283464567,
          "duration": 0.21527756250000607
        },
        {
          "name": "F#3",
          "midi": 54,
          "time": 99.33323399999986,
          "velocity": 0.7874015748031497,
          "duration": 0.21527756250000607
        },
        {
          "name": "A3",
          "midi": 57,
          "time": 99.55545599999986,
          "velocity": 0.6299212598425197,
          "duration": 0.1041665624999979
        },
        {
          "name": "F#3",
          "midi": 54,
          "time": 99.55545599999986,
          "velocity": 0.7874015748031497,
          "duration": 0.1041665624999979
        },
        {
          "name": "D#4",
          "midi": 63,
          "time": 99.55545599999986,
          "velocity": 0.6141732283464567,
          "duration": 0.1041665624999979
        },
        {
          "name": "B2",
          "midi": 47,
          "time": 99.55545599999986,
          "velocity": 0.7716535433070866,
          "duration": 0.1041665624999979
        },
        {
          "name": "F#4",
          "midi": 66,
          "time": 99.55545599999986,
          "velocity": 0.5984251968503937,
          "duration": 0.1041665624999979
        },
        {
          "name": "F#3",
          "midi": 54,
          "time": 99.66656699999986,
          "velocity": 0.7874015748031497,
          "duration": 0.21527756250000607
        },
        {
          "name": "F#4",
          "midi": 66,
          "time": 99.66656699999986,
          "velocity": 0.5984251968503937,
          "duration": 0.21527756250000607
        },
        {
          "name": "D#4",
          "midi": 63,
          "time": 99.66656699999986,
          "velocity": 0.6141732283464567,
          "duration": 0.21527756250000607
        },
        {
          "name": "B2",
          "midi": 47,
          "time": 99.66656699999986,
          "velocity": 0.7716535433070866,
          "duration": 0.21527756250000607
        },
        {
          "name": "A3",
          "midi": 57,
          "time": 99.66656699999986,
          "velocity": 0.6299212598425197,
          "duration": 0.21527756250000607
        },
        {
          "name": "D#4",
          "midi": 63,
          "time": 99.88878899999986,
          "velocity": 0.6141732283464567,
          "duration": 0.1041665624999979
        },
        {
          "name": "A3",
          "midi": 57,
          "time": 99.88878899999986,
          "velocity": 0.6299212598425197,
          "duration": 0.1041665624999979
        },
        {
          "name": "F#3",
          "midi": 54,
          "time": 99.88878899999986,
          "velocity": 0.7874015748031497,
          "duration": 0.1041665624999979
        },
        {
          "name": "F#4",
          "midi": 66,
          "time": 99.88878899999986,
          "velocity": 0.5984251968503937,
          "duration": 0.1041665624999979
        },
        {
          "name": "B2",
          "midi": 47,
          "time": 99.88878899999986,
          "velocity": 0.7716535433070866,
          "duration": 0.1041665624999979
        },
        {
          "name": "E3",
          "midi": 52,
          "time": 99.99989999999985,
          "velocity": 0.8661417322834646,
          "duration": 0.9930545624999922
        },
        {
          "name": "B2",
          "midi": 47,
          "time": 99.99989999999985,
          "velocity": 0.7716535433070866,
          "duration": 2.6597195624999728
        },
        {
          "name": "B3",
          "midi": 59,
          "time": 99.99989999999985,
          "velocity": 0.8661417322834646,
          "duration": 0.32638856250000003
        },
        {
          "name": "B3",
          "midi": 59,
          "time": 100.33323299999985,
          "velocity": 0.6299212598425197,
          "duration": 0.32638856250000003
        },
        {
          "name": "E4",
          "midi": 64,
          "time": 100.33323299999985,
          "velocity": 0.6141732283464567,
          "duration": 0.21527756250000607
        },
        {
          "name": "E4",
          "midi": 64,
          "time": 100.55545499999985,
          "velocity": 0.6141732283464567,
          "duration": 0.1041665624999979
        },
        {
          "name": "G#4",
          "midi": 68,
          "time": 100.55545499999985,
          "velocity": 0.5984251968503937,
          "duration": 0.32638856250000003
        },
        {
          "name": "B3",
          "midi": 59,
          "time": 100.66656599999985,
          "velocity": 0.6299212598425197,
          "duration": 0.32638856250000003
        },
        {
          "name": "E4",
          "midi": 64,
          "time": 100.66656599999985,
          "velocity": 0.6141732283464567,
          "duration": 0.21527756250000607
        },
        {
          "name": "E4",
          "midi": 64,
          "time": 100.88878799999985,
          "velocity": 0.6141732283464567,
          "duration": 0.1041665624999979
        },
        {
          "name": "G#4",
          "midi": 68,
          "time": 100.88878799999985,
          "velocity": 0.5984251968503937,
          "duration": 0.32638856250000003
        },
        {
          "name": "B3",
          "midi": 59,
          "time": 100.99989899999984,
          "velocity": 0.8661417322834646,
          "duration": 0.21527756250000607
        },
        {
          "name": "E4",
          "midi": 64,
          "time": 100.99989899999984,
          "velocity": 0.6299212598425197,
          "duration": 0.32638856250000003
        },
        {
          "name": "G#4",
          "midi": 68,
          "time": 100.99989899999984,
          "velocity": 0.6141732283464567,
          "duration": 0.32638856250000003
        },
        {
          "name": "C#4",
          "midi": 61,
          "time": 101.22212099999985,
          "velocity": 0.8661417322834646,
          "duration": 0.1041665624999979
        },
        {
          "name": "E4",
          "midi": 64,
          "time": 101.33323199999984,
          "velocity": 0.6299212598425197,
          "duration": 0.32638856250000003
        },
        {
          "name": "G#4",
          "midi": 68,
          "time": 101.33323199999984,
          "velocity": 0.6141732283464567,
          "duration": 0.32638856250000003
        },
        {
          "name": "B3",
          "midi": 59,
          "time": 101.33323199999984,
          "velocity": 0.8661417322834646,
          "duration": 0.32638856250000003
        },
        {
          "name": "E4",
          "midi": 64,
          "time": 101.66656499999984,
          "velocity": 0.6299212598425197,
          "duration": 0.32638856250000003
        },
        {
          "name": "A3",
          "midi": 57,
          "time": 101.66656499999984,
          "velocity": 0.8661417322834646,
          "duration": 0.32638856250000003
        },
        {
          "name": "G#4",
          "midi": 68,
          "time": 101.66656499999984,
          "velocity": 0.6141732283464567,
          "duration": 0.32638856250000003
        },
        {
          "name": "E4",
          "midi": 64,
          "time": 101.99989799999983,
          "velocity": 0.6141732283464567,
          "duration": 0.32638856250000003
        },
        {
          "name": "G#3",
          "midi": 56,
          "time": 101.99989799999983,
          "velocity": 0.8661417322834646,
          "duration": 0.6597215624999961
        },
        {
          "name": "A3",
          "midi": 57,
          "time": 101.99989799999983,
          "velocity": 0.6299212598425197,
          "duration": 0.32638856250000003
        },
        {
          "name": "B3",
          "midi": 59,
          "time": 102.33323099999983,
          "velocity": 0.6299212598425197,
          "duration": 0.32638856250000003
        },
        {
          "name": "E4",
          "midi": 64,
          "time": 102.33323099999983,
          "velocity": 0.6141732283464567,
          "duration": 0.21527756250000607
        },
        {
          "name": "E4",
          "midi": 64,
          "time": 102.55545299999983,
          "velocity": 0.6141732283464567,
          "duration": 0.7708325624999901
        },
        {
          "name": "G#4",
          "midi": 68,
          "time": 102.55545299999983,
          "velocity": 0.5984251968503937,
          "duration": 1.7708315624999784
        },
        {
          "name": "B3",
          "midi": 59,
          "time": 102.66656399999982,
          "velocity": 0.6299212598425197,
          "duration": 0.9930545624999922
        },
        {
          "name": "E3",
          "midi": 52,
          "time": 102.66656399999982,
          "velocity": 0.8661417322834646,
          "duration": 0.32638856250000003
        },
        {
          "name": "B2",
          "midi": 47,
          "time": 102.66656399999982,
          "velocity": 0.7716535433070866,
          "duration": 1.3263875624999883
        },
        {
          "name": "F#3",
          "midi": 54,
          "time": 102.99989699999982,
          "velocity": 0.8661417322834646,
          "duration": 0.32638856250000003
        },
        {
          "name": "E4",
          "midi": 64,
          "time": 103.33322999999982,
          "velocity": 0.6141732283464567,
          "duration": 0.32638856250000003
        },
        {
          "name": "A3",
          "midi": 57,
          "time": 103.33322999999982,
          "velocity": 0.8661417322834646,
          "duration": 0.32638856250000003
        },
        {
          "name": "E4",
          "midi": 64,
          "time": 103.66656299999981,
          "velocity": 0.6141732283464567,
          "duration": 0.32638856250000003
        },
        {
          "name": "A3",
          "midi": 57,
          "time": 103.66656299999981,
          "velocity": 0.6299212598425197,
          "duration": 0.32638856250000003
        },
        {
          "name": "G#3",
          "midi": 56,
          "time": 103.66656299999981,
          "velocity": 0.8661417322834646,
          "duration": 0.32638856250000003
        },
        {
          "name": "E4",
          "midi": 64,
          "time": 103.99989599999981,
          "velocity": 0.6141732283464567,
          "duration": 0.32638856250000003
        },
        {
          "name": "E3",
          "midi": 52,
          "time": 103.99989599999981,
          "velocity": 0.8661417322834646,
          "duration": 0.6597215624999961
        },
        {
          "name": "B3",
          "midi": 59,
          "time": 103.99989599999981,
          "velocity": 0.6299212598425197,
          "duration": 0.32638856250000003
        },
        {
          "name": "B2",
          "midi": 47,
          "time": 103.99989599999981,
          "velocity": 0.7716535433070866,
          "duration": 0.6597215624999961
        },
        {
          "name": "E4",
          "midi": 64,
          "time": 104.3332289999998,
          "velocity": 0.6141732283464567,
          "duration": 0.21527756250000607
        },
        {
          "name": "B3",
          "midi": 59,
          "time": 104.3332289999998,
          "velocity": 0.6299212598425197,
          "duration": 0.9930545624999922
        },
        {
          "name": "G#4",
          "midi": 68,
          "time": 104.5554509999998,
          "velocity": 0.5984251968503937,
          "duration": 1.1041655624999862
        },
        {
          "name": "E4",
          "midi": 64,
          "time": 104.5554509999998,
          "velocity": 0.6141732283464567,
          "duration": 0.7708325624999901
        },
        {
          "name": "B2",
          "midi": 47,
          "time": 104.6665619999998,
          "velocity": 0.7716535433070866,
          "duration": 0.9930545624999922
        },
        {
          "name": "E3",
          "midi": 52,
          "time": 104.6665619999998,
          "velocity": 0.8661417322834646,
          "duration": 0.32638856250000003
        },
        {
          "name": "D3",
          "midi": 50,
          "time": 104.9998949999998,
          "velocity": 0.8661417322834646,
          "duration": 0.32638856250000003
        },
        {
          "name": "E4",
          "midi": 64,
          "time": 105.33322799999979,
          "velocity": 0.6299212598425197,
          "duration": 0.32638856250000003
        },
        {
          "name": "A3",
          "midi": 57,
          "time": 105.33322799999979,
          "velocity": 0.8661417322834646,
          "duration": 0.32638856250000003
        },
        {
          "name": "F#4",
          "midi": 66,
          "time": 105.33322799999979,
          "velocity": 0.6141732283464567,
          "duration": 0.32638856250000003
        },
        {
          "name": "E3",
          "midi": 52,
          "time": 105.66656099999979,
          "velocity": 0.8661417322834646,
          "duration": 0.32638856250000003
        },
        {
          "name": "A3",
          "midi": 57,
          "time": 105.66656099999979,
          "velocity": 0.6299212598425197,
          "duration": 0.32638856250000003
        },
        {
          "name": "E4",
          "midi": 64,
          "time": 105.66656099999979,
          "velocity": 0.6141732283464567,
          "duration": 0.32638856250000003
        },
        {
          "name": "F#4",
          "midi": 66,
          "time": 105.66656099999979,
          "velocity": 0.5984251968503937,
          "duration": 0.32638856250000003
        },
        {
          "name": "C#3",
          "midi": 49,
          "time": 105.66656099999979,
          "velocity": 0.7716535433070866,
          "duration": 0.32638856250000003
        },
        {
          "name": "F#4",
          "midi": 66,
          "time": 105.99989399999978,
          "velocity": 0.5984251968503937,
          "duration": 0.21527756250000607
        },
        {
          "name": "E4",
          "midi": 64,
          "time": 105.99989399999978,
          "velocity": 0.6141732283464567,
          "duration": 0.32638856250000003
        },
        {
          "name": "B3",
          "midi": 59,
          "time": 105.99989399999978,
          "velocity": 0.6299212598425197,
          "duration": 0.32638856250000003
        },
        {
          "name": "B2",
          "midi": 47,
          "time": 105.99989399999978,
          "velocity": 0.7716535433070866,
          "duration": 0.9930545624999922
        },
        {
          "name": "E3",
          "midi": 52,
          "time": 105.99989399999978,
          "velocity": 0.8661417322834646,
          "duration": 0.9930545624999922
        },
        {
          "name": "G#4",
          "midi": 68,
          "time": 106.22211599999979,
          "velocity": 0.5984251968503937,
          "duration": 0.1041665624999979
        },
        {
          "name": "E4",
          "midi": 64,
          "time": 106.33322699999978,
          "velocity": 0.6141732283464567,
          "duration": 0.21527756250000607
        },
        {
          "name": "G#4",
          "midi": 68,
          "time": 106.33322699999978,
          "velocity": 0.5984251968503937,
          "duration": 0.21527756250000607
        },
        {
          "name": "B3",
          "midi": 59,
          "time": 106.33322699999978,
          "velocity": 0.6299212598425197,
          "duration": 0.21527756250000607
        },
        {
          "name": "B3",
          "midi": 59,
          "time": 106.55544899999978,
          "velocity": 0.6299212598425197,
          "duration": 0.1041665624999979
        },
        {
          "name": "G#4",
          "midi": 68,
          "time": 106.55544899999978,
          "velocity": 0.5984251968503937,
          "duration": 0.1041665624999979
        },
        {
          "name": "E4",
          "midi": 64,
          "time": 106.55544899999978,
          "velocity": 0.6141732283464567,
          "duration": 0.1041665624999979
        },
        {
          "name": "E4",
          "midi": 64,
          "time": 106.66655999999978,
          "velocity": 0.6141732283464567,
          "duration": 0.21527756250000607
        },
        {
          "name": "G#4",
          "midi": 68,
          "time": 106.66655999999978,
          "velocity": 0.5984251968503937,
          "duration": 0.21527756250000607
        },
        {
          "name": "B3",
          "midi": 59,
          "time": 106.66655999999978,
          "velocity": 0.6299212598425197,
          "duration": 0.21527756250000607
        },
        {
          "name": "G#4",
          "midi": 68,
          "time": 106.88878199999978,
          "velocity": 0.5984251968503937,
          "duration": 0.1041665624999979
        },
        {
          "name": "B3",
          "midi": 59,
          "time": 106.88878199999978,
          "velocity": 0.6299212598425197,
          "duration": 0.1041665624999979
        },
        {
          "name": "E4",
          "midi": 64,
          "time": 106.88878199999978,
          "velocity": 0.6141732283464567,
          "duration": 0.1041665624999979
        },
        {
          "name": "B2",
          "midi": 47,
          "time": 106.99989299999977,
          "velocity": 0.7716535433070866,
          "duration": 0.9930545624999922
        },
        {
          "name": "B3",
          "midi": 59,
          "time": 106.99989299999977,
          "velocity": 0.6299212598425197,
          "duration": 0.32638856250000003
        },
        {
          "name": "E4",
          "midi": 64,
          "time": 106.99989299999977,
          "velocity": 0.6141732283464567,
          "duration": 0.32638856250000003
        },
        {
          "name": "G#4",
          "midi": 68,
          "time": 106.99989299999977,
          "velocity": 0.5984251968503937,
          "duration": 0.32638856250000003
        },
        {
          "name": "E3",
          "midi": 52,
          "time": 106.99989299999977,
          "velocity": 0.8661417322834646,
          "duration": 0.9930545624999922
        },
        {
          "name": "B3",
          "midi": 59,
          "time": 107.33322599999977,
          "velocity": 0.6299212598425197,
          "duration": 0.21527756250000607
        },
        {
          "name": "G#4",
          "midi": 68,
          "time": 107.33322599999977,
          "velocity": 0.5984251968503937,
          "duration": 0.21527756250000607
        },
        {
          "name": "E4",
          "midi": 64,
          "time": 107.33322599999977,
          "velocity": 0.6141732283464567,
          "duration": 0.21527756250000607
        },
        {
          "name": "G#4",
          "midi": 68,
          "time": 107.55544799999977,
          "velocity": 0.5984251968503937,
          "duration": 0.1041665624999979
        },
        {
          "name": "E4",
          "midi": 64,
          "time": 107.55544799999977,
          "velocity": 0.6141732283464567,
          "duration": 0.1041665624999979
        },
        {
          "name": "B3",
          "midi": 59,
          "time": 107.55544799999977,
          "velocity": 0.6299212598425197,
          "duration": 0.1041665624999979
        },
        {
          "name": "G#4",
          "midi": 68,
          "time": 107.66655899999976,
          "velocity": 0.5984251968503937,
          "duration": 0.21527756250000607
        },
        {
          "name": "E4",
          "midi": 64,
          "time": 107.66655899999976,
          "velocity": 0.6141732283464567,
          "duration": 0.21527756250000607
        },
        {
          "name": "B3",
          "midi": 59,
          "time": 107.66655899999976,
          "velocity": 0.6299212598425197,
          "duration": 0.21527756250000607
        },
        {
          "name": "E4",
          "midi": 64,
          "time": 107.88878099999977,
          "velocity": 0.6141732283464567,
          "duration": 0.1041665624999979
        },
        {
          "name": "G#4",
          "midi": 68,
          "time": 107.88878099999977,
          "velocity": 0.5984251968503937,
          "duration": 0.1041665624999979
        },
        {
          "name": "B3",
          "midi": 59,
          "time": 107.88878099999977,
          "velocity": 0.6299212598425197,
          "duration": 0.1041665624999979
        },
        {
          "name": "B2",
          "midi": 47,
          "time": 107.99989199999976,
          "velocity": 0.7716535433070866,
          "duration": 2.6597195624999728
        },
        {
          "name": "E3",
          "midi": 52,
          "time": 107.99989199999976,
          "velocity": 0.8661417322834646,
          "duration": 0.9930545624999922
        },
        {
          "name": "B3",
          "midi": 59,
          "time": 107.99989199999976,
          "velocity": 0.8661417322834646,
          "duration": 0.32638856250000003
        },
        {
          "name": "E4",
          "midi": 64,
          "time": 108.33322499999976,
          "velocity": 0.6141732283464567,
          "duration": 0.21527756250000607
        },
        {
          "name": "B3",
          "midi": 59,
          "time": 108.33322499999976,
          "velocity": 0.6299212598425197,
          "duration": 0.32638856250000003
        },
        {
          "name": "G#4",
          "midi": 68,
          "time": 108.55544699999976,
          "velocity": 0.5984251968503937,
          "duration": 0.32638856250000003
        },
        {
          "name": "E4",
          "midi": 64,
          "time": 108.55544699999976,
          "velocity": 0.6141732283464567,
          "duration": 0.1041665624999979
        },
        {
          "name": "B3",
          "midi": 59,
          "time": 108.66655799999975,
          "velocity": 0.6299212598425197,
          "duration": 0.32638856250000003
        },
        {
          "name": "E4",
          "midi": 64,
          "time": 108.66655799999975,
          "velocity": 0.6141732283464567,
          "duration": 0.21527756250000607
        },
        {
          "name": "E4",
          "midi": 64,
          "time": 108.88877999999976,
          "velocity": 0.6141732283464567,
          "duration": 0.1041665624999979
        },
        {
          "name": "G#4",
          "midi": 68,
          "time": 108.88877999999976,
          "velocity": 0.5984251968503937,
          "duration": 0.32638856250000003
        },
        {
          "name": "E4",
          "midi": 64,
          "time": 108.99989099999975,
          "velocity": 0.6299212598425197,
          "duration": 0.32638856250000003
        },
        {
          "name": "B3",
          "midi": 59,
          "time": 108.99989099999975,
          "velocity": 0.8661417322834646,
          "duration": 0.21527756250000607
        },
        {
          "name": "G#4",
          "midi": 68,
          "time": 108.99989099999975,
          "velocity": 0.6141732283464567,
          "duration": 0.32638856250000003
        },
        {
          "name": "C#4",
          "midi": 61,
          "time": 109.22211299999975,
          "velocity": 0.8661417322834646,
          "duration": 0.1041665624999979
        },
        {
          "name": "E4",
          "midi": 64,
          "time": 109.33322399999975,
          "velocity": 0.6299212598425197,
          "duration": 0.32638856250000003
        },
        {
          "name": "G#4",
          "midi": 68,
          "time": 109.33322399999975,
          "velocity": 0.6141732283464567,
          "duration": 0.32638856250000003
        },
        {
          "name": "B3",
          "midi": 59,
          "time": 109.33322399999975,
          "velocity": 0.8661417322834646,
          "duration": 0.32638856250000003
        },
        {
          "name": "G#4",
          "midi": 68,
          "time": 109.66655699999974,
          "velocity": 0.6141732283464567,
          "duration": 0.32638856250000003
        },
        {
          "name": "A3",
          "midi": 57,
          "time": 109.66655699999974,
          "velocity": 0.8661417322834646,
          "duration": 0.32638856250000003
        },
        {
          "name": "E4",
          "midi": 64,
          "time": 109.66655699999974,
          "velocity": 0.6299212598425197,
          "duration": 0.32638856250000003
        },
        {
          "name": "G#3",
          "midi": 56,
          "time": 109.99988999999974,
          "velocity": 0.8661417322834646,
          "duration": 0.6597215624999961
        },
        {
          "name": "A3",
          "midi": 57,
          "time": 109.99988999999974,
          "velocity": 0.6299212598425197,
          "duration": 0.32638856250000003
        },
        {
          "name": "E4",
          "midi": 64,
          "time": 109.99988999999974,
          "velocity": 0.6141732283464567,
          "duration": 0.32638856250000003
        },
        {
          "name": "E4",
          "midi": 64,
          "time": 110.33322299999973,
          "velocity": 0.6141732283464567,
          "duration": 0.21527756250000607
        },
        {
          "name": "B3",
          "midi": 59,
          "time": 110.33322299999973,
          "velocity": 0.6299212598425197,
          "duration": 0.32638856250000003
        },
        {
          "name": "G#4",
          "midi": 68,
          "time": 110.55544499999974,
          "velocity": 0.5984251968503937,
          "duration": 1.7708315624999784
        },
        {
          "name": "E4",
          "midi": 64,
          "time": 110.55544499999974,
          "velocity": 0.6141732283464567,
          "duration": 0.7708325624999901
        },
        {
          "name": "B3",
          "midi": 59,
          "time": 110.66655599999973,
          "velocity": 0.6299212598425197,
          "duration": 0.9930545624999922
        },
        {
          "name": "E3",
          "midi": 52,
          "time": 110.66655599999973,
          "velocity": 0.8661417322834646,
          "duration": 0.32638856250000003
        },
        {
          "name": "B2",
          "midi": 47,
          "time": 110.66655599999973,
          "velocity": 0.7716535433070866,
          "duration": 1.3263875624999883
        },
        {
          "name": "F#3",
          "midi": 54,
          "time": 110.99988899999973,
          "velocity": 0.8661417322834646,
          "duration": 0.32638856250000003
        },
        {
          "name": "A3",
          "midi": 57,
          "time": 111.33322199999972,
          "velocity": 0.8661417322834646,
          "duration": 0.32638856250000003
        },
        {
          "name": "E4",
          "midi": 64,
          "time": 111.33322199999972,
          "velocity": 0.6141732283464567,
          "duration": 0.32638856250000003
        },
        {
          "name": "E4",
          "midi": 64,
          "time": 111.66655499999972,
          "velocity": 0.6141732283464567,
          "duration": 0.32638856250000003
        },
        {
          "name": "A3",
          "midi": 57,
          "time": 111.66655499999972,
          "velocity": 0.6299212598425197,
          "duration": 0.32638856250000003
        },
        {
          "name": "G#3",
          "midi": 56,
          "time": 111.66655499999972,
          "velocity": 0.8661417322834646,
          "duration": 0.32638856250000003
        },
        {
          "name": "E4",
          "midi": 64,
          "time": 111.99988799999971,
          "velocity": 0.6141732283464567,
          "duration": 0.32638856250000003
        },
        {
          "name": "B2",
          "midi": 47,
          "time": 111.99988799999971,
          "velocity": 0.7716535433070866,
          "duration": 0.6597215624999961
        },
        {
          "name": "E3",
          "midi": 52,
          "time": 111.99988799999971,
          "velocity": 0.8661417322834646,
          "duration": 0.6597215624999961
        },
        {
          "name": "B3",
          "midi": 59,
          "time": 111.99988799999971,
          "velocity": 0.6299212598425197,
          "duration": 0.32638856250000003
        },
        {
          "name": "E4",
          "midi": 64,
          "time": 112.33322099999971,
          "velocity": 0.6141732283464567,
          "duration": 0.21527756250000607
        },
        {
          "name": "B3",
          "midi": 59,
          "time": 112.33322099999971,
          "velocity": 0.6299212598425197,
          "duration": 0.9930545624999922
        },
        {
          "name": "G#4",
          "midi": 68,
          "time": 112.55544299999971,
          "velocity": 0.5984251968503937,
          "duration": 1.1041655624999862
        },
        {
          "name": "E4",
          "midi": 64,
          "time": 112.55544299999971,
          "velocity": 0.6141732283464567,
          "duration": 0.7708325624999901
        },
        {
          "name": "B2",
          "midi": 47,
          "time": 112.6665539999997,
          "velocity": 0.7716535433070866,
          "duration": 0.9930545624999922
        },
        {
          "name": "E3",
          "midi": 52,
          "time": 112.6665539999997,
          "velocity": 0.8661417322834646,
          "duration": 0.32638856250000003
        },
        {
          "name": "D3",
          "midi": 50,
          "time": 112.9998869999997,
          "velocity": 0.8661417322834646,
          "duration": 0.32638856250000003
        },
        {
          "name": "F#4",
          "midi": 66,
          "time": 113.3332199999997,
          "velocity": 0.6141732283464567,
          "duration": 0.32638856250000003
        },
        {
          "name": "A3",
          "midi": 57,
          "time": 113.3332199999997,
          "velocity": 0.8661417322834646,
          "duration": 0.32638856250000003
        },
        {
          "name": "E4",
          "midi": 64,
          "time": 113.3332199999997,
          "velocity": 0.6299212598425197,
          "duration": 0.32638856250000003
        },
        {
          "name": "E4",
          "midi": 64,
          "time": 113.6665529999997,
          "velocity": 0.6141732283464567,
          "duration": 0.32638856250000003
        },
        {
          "name": "C#3",
          "midi": 49,
          "time": 113.6665529999997,
          "velocity": 0.7716535433070866,
          "duration": 0.32638856250000003
        },
        {
          "name": "A3",
          "midi": 57,
          "time": 113.6665529999997,
          "velocity": 0.6299212598425197,
          "duration": 0.32638856250000003
        },
        {
          "name": "E3",
          "midi": 52,
          "time": 113.6665529999997,
          "velocity": 0.8661417322834646,
          "duration": 0.32638856250000003
        },
        {
          "name": "F#4",
          "midi": 66,
          "time": 113.6665529999997,
          "velocity": 0.5984251968503937,
          "duration": 0.32638856250000003
        },
        {
          "name": "B2",
          "midi": 47,
          "time": 113.99988599999969,
          "velocity": 0.7716535433070866,
          "duration": 0.9930545624999922
        },
        {
          "name": "F#4",
          "midi": 66,
          "time": 113.99988599999969,
          "velocity": 0.5984251968503937,
          "duration": 0.21527756250000607
        },
        {
          "name": "E4",
          "midi": 64,
          "time": 113.99988599999969,
          "velocity": 0.6141732283464567,
          "duration": 0.32638856250000003
        },
        {
          "name": "B3",
          "midi": 59,
          "time": 113.99988599999969,
          "velocity": 0.6299212598425197,
          "duration": 0.32638856250000003
        },
        {
          "name": "E3",
          "midi": 52,
          "time": 113.99988599999969,
          "velocity": 0.8661417322834646,
          "duration": 0.9930545624999922
        },
        {
          "name": "G#4",
          "midi": 68,
          "time": 114.2221079999997,
          "velocity": 0.5984251968503937,
          "duration": 0.1041665624999979
        },
        {
          "name": "G#4",
          "midi": 68,
          "time": 114.33321899999969,
          "velocity": 0.5984251968503937,
          "duration": 0.21527756250000607
        },
        {
          "name": "E4",
          "midi": 64,
          "time": 114.33321899999969,
          "velocity": 0.6141732283464567,
          "duration": 0.21527756250000607
        },
        {
          "name": "B3",
          "midi": 59,
          "time": 114.33321899999969,
          "velocity": 0.6299212598425197,
          "duration": 0.21527756250000607
        },
        {
          "name": "G#4",
          "midi": 68,
          "time": 114.55544099999969,
          "velocity": 0.5984251968503937,
          "duration": 0.1041665624999979
        },
        {
          "name": "B3",
          "midi": 59,
          "time": 114.55544099999969,
          "velocity": 0.6299212598425197,
          "duration": 0.1041665624999979
        },
        {
          "name": "E4",
          "midi": 64,
          "time": 114.55544099999969,
          "velocity": 0.6141732283464567,
          "duration": 0.1041665624999979
        },
        {
          "name": "E4",
          "midi": 64,
          "time": 114.66655199999968,
          "velocity": 0.6141732283464567,
          "duration": 0.21527756250000607
        },
        {
          "name": "G#4",
          "midi": 68,
          "time": 114.66655199999968,
          "velocity": 0.5984251968503937,
          "duration": 0.21527756250000607
        },
        {
          "name": "B3",
          "midi": 59,
          "time": 114.66655199999968,
          "velocity": 0.6299212598425197,
          "duration": 0.21527756250000607
        },
        {
          "name": "E4",
          "midi": 64,
          "time": 114.88877399999969,
          "velocity": 0.6141732283464567,
          "duration": 0.1041665624999979
        },
        {
          "name": "B3",
          "midi": 59,
          "time": 114.88877399999969,
          "velocity": 0.6299212598425197,
          "duration": 0.1041665624999979
        },
        {
          "name": "G#4",
          "midi": 68,
          "time": 114.88877399999969,
          "velocity": 0.5984251968503937,
          "duration": 0.1041665624999979
        },
        {
          "name": "E4",
          "midi": 64,
          "time": 114.99988499999968,
          "velocity": 0.6141732283464567,
          "duration": 0.32638856250000003
        },
        {
          "name": "E3",
          "midi": 52,
          "time": 114.99988499999968,
          "velocity": 0.8661417322834646,
          "duration": 0.9930545624999922
        },
        {
          "name": "G#4",
          "midi": 68,
          "time": 114.99988499999968,
          "velocity": 0.5984251968503937,
          "duration": 0.32638856250000003
        },
        {
          "name": "B2",
          "midi": 47,
          "time": 114.99988499999968,
          "velocity": 0.7716535433070866,
          "duration": 0.9930545624999922
        },
        {
          "name": "B3",
          "midi": 59,
          "time": 114.99988499999968,
          "velocity": 0.6299212598425197,
          "duration": 0.32638856250000003
        },
        {
          "name": "B3",
          "midi": 59,
          "time": 115.33321799999968,
          "velocity": 0.6299212598425197,
          "duration": 0.21527756250000607
        },
        {
          "name": "G#4",
          "midi": 68,
          "time": 115.33321799999968,
          "velocity": 0.5984251968503937,
          "duration": 0.21527756250000607
        },
        {
          "name": "E4",
          "midi": 64,
          "time": 115.33321799999968,
          "velocity": 0.6141732283464567,
          "duration": 0.21527756250000607
        },
        {
          "name": "B3",
          "midi": 59,
          "time": 115.55543999999968,
          "velocity": 0.6299212598425197,
          "duration": 0.1041665624999979
        },
        {
          "name": "G#4",
          "midi": 68,
          "time": 115.55543999999968,
          "velocity": 0.5984251968503937,
          "duration": 0.1041665624999979
        },
        {
          "name": "E4",
          "midi": 64,
          "time": 115.55543999999968,
          "velocity": 0.6141732283464567,
          "duration": 0.1041665624999979
        },
        {
          "name": "B3",
          "midi": 59,
          "time": 115.66655099999967,
          "velocity": 0.6299212598425197,
          "duration": 0.21527756250000607
        },
        {
          "name": "E4",
          "midi": 64,
          "time": 115.66655099999967,
          "velocity": 0.6141732283464567,
          "duration": 0.21527756250000607
        },
        {
          "name": "G#4",
          "midi": 68,
          "time": 115.66655099999967,
          "velocity": 0.5984251968503937,
          "duration": 0.21527756250000607
        },
        {
          "name": "E4",
          "midi": 64,
          "time": 115.88877299999967,
          "velocity": 0.6141732283464567,
          "duration": 0.1041665624999979
        },
        {
          "name": "G#4",
          "midi": 68,
          "time": 115.88877299999967,
          "velocity": 0.5984251968503937,
          "duration": 0.1041665624999979
        },
        {
          "name": "B3",
          "midi": 59,
          "time": 115.88877299999967,
          "velocity": 0.6299212598425197,
          "duration": 0.1041665624999979
        },
        {
          "name": "B2",
          "midi": 47,
          "time": 115.99988399999967,
          "velocity": 0.7716535433070866,
          "duration": 2.6597195624999728
        },
        {
          "name": "E3",
          "midi": 52,
          "time": 115.99988399999967,
          "velocity": 0.8661417322834646,
          "duration": 0.9930545624999922
        },
        {
          "name": "B3",
          "midi": 59,
          "time": 115.99988399999967,
          "velocity": 0.8661417322834646,
          "duration": 0.32638856250000003
        },
        {
          "name": "E4",
          "midi": 64,
          "time": 116.33321699999966,
          "velocity": 0.6141732283464567,
          "duration": 0.21527756250000607
        },
        {
          "name": "B3",
          "midi": 59,
          "time": 116.33321699999966,
          "velocity": 0.6299212598425197,
          "duration": 0.32638856250000003
        },
        {
          "name": "E4",
          "midi": 64,
          "time": 116.55543899999967,
          "velocity": 0.6141732283464567,
          "duration": 0.1041665624999979
        },
        {
          "name": "G#4",
          "midi": 68,
          "time": 116.55543899999967,
          "velocity": 0.5984251968503937,
          "duration": 0.32638856250000003
        },
        {
          "name": "B3",
          "midi": 59,
          "time": 116.66654999999966,
          "velocity": 0.6299212598425197,
          "duration": 0.32638856250000003
        },
        {
          "name": "E4",
          "midi": 64,
          "time": 116.66654999999966,
          "velocity": 0.6141732283464567,
          "duration": 0.21527756250000607
        },
        {
          "name": "G#4",
          "midi": 68,
          "time": 116.88877199999966,
          "velocity": 0.5984251968503937,
          "duration": 0.32638856250000003
        },
        {
          "name": "E4",
          "midi": 64,
          "time": 116.88877199999966,
          "velocity": 0.6141732283464567,
          "duration": 0.1041665624999979
        },
        {
          "name": "B3",
          "midi": 59,
          "time": 116.99988299999966,
          "velocity": 0.8661417322834646,
          "duration": 0.21527756250000607
        },
        {
          "name": "G#4",
          "midi": 68,
          "time": 116.99988299999966,
          "velocity": 0.6141732283464567,
          "duration": 0.32638856250000003
        },
        {
          "name": "E4",
          "midi": 64,
          "time": 116.99988299999966,
          "velocity": 0.6299212598425197,
          "duration": 0.32638856250000003
        },
        {
          "name": "C#4",
          "midi": 61,
          "time": 117.22210499999966,
          "velocity": 0.8661417322834646,
          "duration": 0.1041665624999979
        },
        {
          "name": "E4",
          "midi": 64,
          "time": 117.33321599999965,
          "velocity": 0.6299212598425197,
          "duration": 0.32638856250000003
        },
        {
          "name": "B3",
          "midi": 59,
          "time": 117.33321599999965,
          "velocity": 0.8661417322834646,
          "duration": 0.32638856250000003
        },
        {
          "name": "G#4",
          "midi": 68,
          "time": 117.33321599999965,
          "velocity": 0.6141732283464567,
          "duration": 0.32638856250000003
        },
        {
          "name": "E4",
          "midi": 64,
          "time": 117.66654899999965,
          "velocity": 0.6299212598425197,
          "duration": 0.32638856250000003
        },
        {
          "name": "G#4",
          "midi": 68,
          "time": 117.66654899999965,
          "velocity": 0.6141732283464567,
          "duration": 0.32638856250000003
        },
        {
          "name": "A3",
          "midi": 57,
          "time": 117.66654899999965,
          "velocity": 0.8661417322834646,
          "duration": 0.32638856250000003
        },
        {
          "name": "G#3",
          "midi": 56,
          "time": 117.99988199999964,
          "velocity": 0.8661417322834646,
          "duration": 0.6597215624999961
        },
        {
          "name": "A3",
          "midi": 57,
          "time": 117.99988199999964,
          "velocity": 0.6299212598425197,
          "duration": 0.32638856250000003
        },
        {
          "name": "E4",
          "midi": 64,
          "time": 117.99988199999964,
          "velocity": 0.6141732283464567,
          "duration": 0.32638856250000003
        },
        {
          "name": "E4",
          "midi": 64,
          "time": 118.33321499999964,
          "velocity": 0.6141732283464567,
          "duration": 0.21527756250000607
        },
        {
          "name": "B3",
          "midi": 59,
          "time": 118.33321499999964,
          "velocity": 0.6299212598425197,
          "duration": 0.32638856250000003
        },
        {
          "name": "E4",
          "midi": 64,
          "time": 118.55543699999964,
          "velocity": 0.6141732283464567,
          "duration": 0.7708325624999901
        },
        {
          "name": "G#4",
          "midi": 68,
          "time": 118.55543699999964,
          "velocity": 0.5984251968503937,
          "duration": 1.7708315624999784
        },
        {
          "name": "E3",
          "midi": 52,
          "time": 118.66654799999964,
          "velocity": 0.8661417322834646,
          "duration": 0.32638856250000003
        },
        {
          "name": "B2",
          "midi": 47,
          "time": 118.66654799999964,
          "velocity": 0.7716535433070866,
          "duration": 1.3263875624999883
        },
        {
          "name": "B3",
          "midi": 59,
          "time": 118.66654799999964,
          "velocity": 0.6299212598425197,
          "duration": 0.9930545624999922
        },
        {
          "name": "F#3",
          "midi": 54,
          "time": 118.99988099999963,
          "velocity": 0.8661417322834646,
          "duration": 0.32638856250000003
        },
        {
          "name": "E4",
          "midi": 64,
          "time": 119.33321399999963,
          "velocity": 0.6141732283464567,
          "duration": 0.32638856250000003
        },
        {
          "name": "A3",
          "midi": 57,
          "time": 119.33321399999963,
          "velocity": 0.8661417322834646,
          "duration": 0.32638856250000003
        },
        {
          "name": "E4",
          "midi": 64,
          "time": 119.66654699999962,
          "velocity": 0.6141732283464567,
          "duration": 0.32638856250000003
        },
        {
          "name": "A3",
          "midi": 57,
          "time": 119.66654699999962,
          "velocity": 0.6299212598425197,
          "duration": 0.32638856250000003
        },
        {
          "name": "G#3",
          "midi": 56,
          "time": 119.66654699999962,
          "velocity": 0.8661417322834646,
          "duration": 0.32638856250000003
        },
        {
          "name": "E4",
          "midi": 64,
          "time": 119.99987999999962,
          "velocity": 0.6141732283464567,
          "duration": 0.32638856250000003
        },
        {
          "name": "B3",
          "midi": 59,
          "time": 119.99987999999962,
          "velocity": 0.6299212598425197,
          "duration": 0.32638856250000003
        },
        {
          "name": "B2",
          "midi": 47,
          "time": 119.99987999999962,
          "velocity": 0.7716535433070866,
          "duration": 0.6597215624999961
        },
        {
          "name": "E3",
          "midi": 52,
          "time": 119.99987999999962,
          "velocity": 0.8661417322834646,
          "duration": 0.6597215624999961
        },
        {
          "name": "E4",
          "midi": 64,
          "time": 120.33321299999962,
          "velocity": 0.6141732283464567,
          "duration": 0.21527756250000607
        },
        {
          "name": "B3",
          "midi": 59,
          "time": 120.33321299999962,
          "velocity": 0.6299212598425197,
          "duration": 0.9930545624999922
        },
        {
          "name": "G#4",
          "midi": 68,
          "time": 120.55543499999962,
          "velocity": 0.5984251968503937,
          "duration": 1.1041655624999862
        },
        {
          "name": "E4",
          "midi": 64,
          "time": 120.55543499999962,
          "velocity": 0.6141732283464567,
          "duration": 0.7708325624999901
        },
        {
          "name": "E3",
          "midi": 52,
          "time": 120.66654599999961,
          "velocity": 0.8661417322834646,
          "duration": 0.32638856250000003
        },
        {
          "name": "B2",
          "midi": 47,
          "time": 120.66654599999961,
          "velocity": 0.7716535433070866,
          "duration": 0.9930545624999922
        },
        {
          "name": "D3",
          "midi": 50,
          "time": 120.99987899999961,
          "velocity": 0.8661417322834646,
          "duration": 0.32638856250000003
        },
        {
          "name": "F#4",
          "midi": 66,
          "time": 121.3332119999996,
          "velocity": 0.6141732283464567,
          "duration": 0.32638856250000003
        },
        {
          "name": "A3",
          "midi": 57,
          "time": 121.3332119999996,
          "velocity": 0.8661417322834646,
          "duration": 0.32638856250000003
        },
        {
          "name": "E4",
          "midi": 64,
          "time": 121.3332119999996,
          "velocity": 0.6299212598425197,
          "duration": 0.32638856250000003
        },
        {
          "name": "A3",
          "midi": 57,
          "time": 121.6665449999996,
          "velocity": 0.6299212598425197,
          "duration": 0.32638856250000003
        },
        {
          "name": "C#3",
          "midi": 49,
          "time": 121.6665449999996,
          "velocity": 0.7716535433070866,
          "duration": 0.32638856250000003
        },
        {
          "name": "E4",
          "midi": 64,
          "time": 121.6665449999996,
          "velocity": 0.6141732283464567,
          "duration": 0.32638856250000003
        },
        {
          "name": "E3",
          "midi": 52,
          "time": 121.6665449999996,
          "velocity": 0.8661417322834646,
          "duration": 0.32638856250000003
        },
        {
          "name": "F#4",
          "midi": 66,
          "time": 121.6665449999996,
          "velocity": 0.5984251968503937,
          "duration": 0.32638856250000003
        },
        {
          "name": "B2",
          "midi": 47,
          "time": 121.9998779999996,
          "velocity": 0.7716535433070866,
          "duration": 5.993049562500005
        },
        {
          "name": "B3",
          "midi": 59,
          "time": 121.9998779999996,
          "velocity": 0.6299212598425197,
          "duration": 5.993049562500005
        },
        {
          "name": "E4",
          "midi": 64,
          "time": 121.9998779999996,
          "velocity": 0.6141732283464567,
          "duration": 5.993049562500005
        },
        {
          "name": "E3",
          "midi": 52,
          "time": 121.9998779999996,
          "velocity": 0.8661417322834646,
          "duration": 5.993049562500005
        },
        {
          "name": "F#4",
          "midi": 66,
          "time": 121.9998779999996,
          "velocity": 0.5984251968503937,
          "duration": 0.21527756250000607
        },
        {
          "name": "G#4",
          "midi": 68,
          "time": 122.2220999999996,
          "velocity": 0.5984251968503937,
          "duration": 5.770827562500003
        }
      ],
      "controlChanges": {
        "7": [
          {
            "number": 7,
            "time": 0.333333,
            "value": 0.7086614173228346
          }
        ],
        "10": [
          {
            "number": 10,
            "time": 0.3402774375,
            "value": 0.9448818897637795
          }
        ],
        "32": [
          {
            "number": 32,
            "time": 0.36111075000000004,
            "value": 0
          }
        ],
        "91": [
          {
            "number": 91,
            "time": 0.347221875,
            "value": 0.3937007874015748
          }
        ],
        "93": [
          {
            "number": 93,
            "time": 0.3541663125,
            "value": 0.15748031496062992
          }
        ],
        "121": [
          {
            "number": 121,
            "time": 0.333333,
            "value": 0
          }
        ]
      },
      "id": 4,
      "name": "Nylon Gtr 2 Bank 32",
      "instrumentNumber": 24,
      "instrument": "acoustic guitar (nylon)",
      "instrumentFamily": "guitar",
      "channelNumber": 3,
      "isPercussion": false
    },
    {
      "startTime": 11.999987999999998,
      "duration": 127.9929275625002,
      "length": 149,
      "notes": [
        {
          "name": "B5",
          "midi": 83,
          "time": 11.999987999999998,
          "velocity": 0.7401574803149606,
          "duration": 0.9930545624999993
        },
        {
          "name": "B5",
          "midi": 83,
          "time": 12.999986999999997,
          "velocity": 0.7401574803149606,
          "duration": 0.2361108749999996
        },
        {
          "name": "C#6",
          "midi": 85,
          "time": 13.222208999999998,
          "velocity": 0.7401574803149606,
          "duration": 0.1111109999999993
        },
        {
          "name": "B5",
          "midi": 83,
          "time": 13.333319999999997,
          "velocity": 0.7401574803149606,
          "duration": 0.6527771250000001
        },
        {
          "name": "A5",
          "midi": 81,
          "time": 13.666652999999997,
          "velocity": 0.7401574803149606,
          "duration": 0.6527771250000001
        },
        {
          "name": "G#5",
          "midi": 80,
          "time": 13.999985999999996,
          "velocity": 0.7401574803149606,
          "duration": 1.9861091250000005
        },
        {
          "name": "F#5",
          "midi": 78,
          "time": 14.999984999999997,
          "velocity": 0.7401574803149606,
          "duration": 0.6527771250000001
        },
        {
          "name": "A5",
          "midi": 81,
          "time": 15.333317999999997,
          "velocity": 0.7401574803149606,
          "duration": 0.6527771250000001
        },
        {
          "name": "G#5",
          "midi": 80,
          "time": 15.666650999999996,
          "velocity": 0.7401574803149606,
          "duration": 0.6527771249999983
        },
        {
          "name": "E5",
          "midi": 76,
          "time": 15.999983999999996,
          "velocity": 0.7401574803149606,
          "duration": 1.986109124999997
        },
        {
          "name": "D5",
          "midi": 74,
          "time": 16.999982999999993,
          "velocity": 0.7401574803149606,
          "duration": 0.6527771250000001
        },
        {
          "name": "A5",
          "midi": 81,
          "time": 17.333315999999993,
          "velocity": 0.7401574803149606,
          "duration": 0.6527771250000001
        },
        {
          "name": "C#5",
          "midi": 73,
          "time": 17.666648999999992,
          "velocity": 0.7401574803149606,
          "duration": 0.6527771250000001
        },
        {
          "name": "B4",
          "midi": 71,
          "time": 17.999981999999992,
          "velocity": 0.7401574803149606,
          "duration": 3.986107125
        },
        {
          "name": "C#5",
          "midi": 73,
          "time": 26.888861999999992,
          "velocity": 0.7401574803149606,
          "duration": 0.11111100000000107
        },
        {
          "name": "D5",
          "midi": 74,
          "time": 26.999972999999994,
          "velocity": 0.7401574803149606,
          "duration": 0.6527771250000001
        },
        {
          "name": "A5",
          "midi": 81,
          "time": 27.333305999999993,
          "velocity": 0.7401574803149606,
          "duration": 0.6527771250000001
        },
        {
          "name": "C#5",
          "midi": 73,
          "time": 27.666638999999993,
          "velocity": 0.7401574803149606,
          "duration": 0.6527771250000001
        },
        {
          "name": "B4",
          "midi": 71,
          "time": 27.999971999999993,
          "velocity": 0.7401574803149606,
          "duration": 3.986107125
        },
        {
          "name": "C#5",
          "midi": 73,
          "time": 34.888853999999995,
          "velocity": 0.7401574803149606,
          "duration": 0.11111100000000107
        },
        {
          "name": "D5",
          "midi": 74,
          "time": 34.999964999999996,
          "velocity": 0.7401574803149606,
          "duration": 0.6527771250000001
        },
        {
          "name": "A5",
          "midi": 81,
          "time": 35.333298,
          "velocity": 0.7401574803149606,
          "duration": 0.652777124999993
        },
        {
          "name": "C#5",
          "midi": 73,
          "time": 35.666630999999995,
          "velocity": 0.7401574803149606,
          "duration": 0.652777124999993
        },
        {
          "name": "B4",
          "midi": 71,
          "time": 35.99996399999999,
          "velocity": 0.7401574803149606,
          "duration": 3.9861071249999966
        },
        {
          "name": "B5",
          "midi": 83,
          "time": 37.99996199999999,
          "velocity": 0.6614173228346457,
          "duration": 1.9861091249999987
        },
        {
          "name": "G5",
          "midi": 79,
          "time": 37.99996199999999,
          "velocity": 0.6771653543307087,
          "duration": 1.9861091249999987
        },
        {
          "name": "B4",
          "midi": 71,
          "time": 37.99996199999999,
          "velocity": 0.7086614173228346,
          "duration": 1.9861091249999987
        },
        {
          "name": "E5",
          "midi": 76,
          "time": 37.99996199999999,
          "velocity": 0.6929133858267716,
          "duration": 1.9861091249999987
        },
        {
          "name": "C#5",
          "midi": 73,
          "time": 39.99995999999999,
          "velocity": 0.6929133858267716,
          "duration": 1.9861091249999987
        },
        {
          "name": "A5",
          "midi": 81,
          "time": 39.99995999999999,
          "velocity": 0.6614173228346457,
          "duration": 1.9861091249999987
        },
        {
          "name": "A4",
          "midi": 69,
          "time": 39.99995999999999,
          "velocity": 0.7086614173228346,
          "duration": 1.9861091249999987
        },
        {
          "name": "E5",
          "midi": 76,
          "time": 39.99995999999999,
          "velocity": 0.6771653543307087,
          "duration": 1.9861091249999987
        },
        {
          "name": "C#5",
          "midi": 73,
          "time": 41.999957999999985,
          "velocity": 0.6929133858267716,
          "duration": 1.9861091249999987
        },
        {
          "name": "A4",
          "midi": 69,
          "time": 41.999957999999985,
          "velocity": 0.7086614173228346,
          "duration": 1.9861091249999987
        },
        {
          "name": "A5",
          "midi": 81,
          "time": 41.999957999999985,
          "velocity": 0.6614173228346457,
          "duration": 1.9861091249999987
        },
        {
          "name": "E5",
          "midi": 76,
          "time": 41.999957999999985,
          "velocity": 0.6771653543307087,
          "duration": 1.9861091249999987
        },
        {
          "name": "B5",
          "midi": 83,
          "time": 43.99995599999998,
          "velocity": 0.6614173228346457,
          "duration": 1.9861091249999987
        },
        {
          "name": "G5",
          "midi": 79,
          "time": 43.99995599999998,
          "velocity": 0.6771653543307087,
          "duration": 1.9861091249999987
        },
        {
          "name": "B4",
          "midi": 71,
          "time": 43.99995599999998,
          "velocity": 0.7086614173228346,
          "duration": 1.9861091249999987
        },
        {
          "name": "E5",
          "midi": 76,
          "time": 43.99995599999998,
          "velocity": 0.6929133858267716,
          "duration": 1.9861091249999987
        },
        {
          "name": "G5",
          "midi": 79,
          "time": 45.99995399999998,
          "velocity": 0.6771653543307087,
          "duration": 1.9861091249999987
        },
        {
          "name": "E5",
          "midi": 76,
          "time": 45.99995399999998,
          "velocity": 0.6929133858267716,
          "duration": 1.9861091249999987
        },
        {
          "name": "B4",
          "midi": 71,
          "time": 45.99995399999998,
          "velocity": 0.7086614173228346,
          "duration": 1.9861091249999987
        },
        {
          "name": "B5",
          "midi": 83,
          "time": 45.99995399999998,
          "velocity": 0.6614173228346457,
          "duration": 1.9861091249999987
        },
        {
          "name": "A4",
          "midi": 69,
          "time": 47.99995199999998,
          "velocity": 0.6929133858267716,
          "duration": 1.9861091249999987
        },
        {
          "name": "C#5",
          "midi": 73,
          "time": 47.99995199999998,
          "velocity": 0.6771653543307087,
          "duration": 1.9861091249999987
        },
        {
          "name": "F#5",
          "midi": 78,
          "time": 47.99995199999998,
          "velocity": 0.6614173228346457,
          "duration": 1.9861091249999987
        },
        {
          "name": "F#4",
          "midi": 66,
          "time": 47.99995199999998,
          "velocity": 0.7086614173228346,
          "duration": 1.9861091249999987
        },
        {
          "name": "B4",
          "midi": 71,
          "time": 49.99994999999998,
          "velocity": 0.7086614173228346,
          "duration": 1.9861091249999987
        },
        {
          "name": "F#5",
          "midi": 78,
          "time": 49.99994999999998,
          "velocity": 0.7559055118110236,
          "duration": 1.9861091249999987
        },
        {
          "name": "D#5",
          "midi": 75,
          "time": 49.99994999999998,
          "velocity": 0.7716535433070866,
          "duration": 1.6527761250000026
        },
        {
          "name": "B5",
          "midi": 83,
          "time": 49.99994999999998,
          "velocity": 0.7401574803149606,
          "duration": 1.9861091249999987
        },
        {
          "name": "D#5",
          "midi": 75,
          "time": 50.99994899999998,
          "velocity": 0.7716535433070866,
          "duration": 0.9861101249999962
        },
        {
          "name": "B5",
          "midi": 83,
          "time": 50.99994899999998,
          "velocity": 0.7401574803149606,
          "duration": 1.9861091249999987
        },
        {
          "name": "F#5",
          "midi": 78,
          "time": 50.99994899999998,
          "velocity": 0.7559055118110236,
          "duration": 1.3194431249999923
        },
        {
          "name": "B4",
          "midi": 71,
          "time": 50.99994899999998,
          "velocity": 0.7874015748031497,
          "duration": 1.9861091249999987
        },
        {
          "name": "E5",
          "midi": 76,
          "time": 51.33328199999998,
          "velocity": 0.7716535433070866,
          "duration": 1.3194431249999923
        },
        {
          "name": "F#5",
          "midi": 78,
          "time": 51.66661499999998,
          "velocity": 0.7559055118110236,
          "duration": 0.652777124999993
        },
        {
          "name": "B3",
          "midi": 59,
          "time": 51.999947999999975,
          "velocity": 0.7401574803149606,
          "duration": 3.9861071250000037
        },
        {
          "name": "B3",
          "midi": 59,
          "time": 55.99994399999998,
          "velocity": 0.7401574803149606,
          "duration": 3.9861071249999966
        },
        {
          "name": "B3",
          "midi": 59,
          "time": 59.999939999999974,
          "velocity": 0.7401574803149606,
          "duration": 3.9861071249999966
        },
        {
          "name": "B3",
          "midi": 59,
          "time": 63.99993599999997,
          "velocity": 0.7401574803149606,
          "duration": 3.9861071249999966
        },
        {
          "name": "B5",
          "midi": 83,
          "time": 67.99993199999997,
          "velocity": 0.7401574803149606,
          "duration": 0.9930545625000065
        },
        {
          "name": "B5",
          "midi": 83,
          "time": 68.99993099999998,
          "velocity": 0.7401574803149606,
          "duration": 0.2291664374999982
        },
        {
          "name": "C#6",
          "midi": 85,
          "time": 69.22215299999998,
          "velocity": 0.6692913385826772,
          "duration": 0.1041665624999979
        },
        {
          "name": "B5",
          "midi": 83,
          "time": 69.33326399999997,
          "velocity": 0.7401574803149606,
          "duration": 0.6527771250000001
        },
        {
          "name": "A5",
          "midi": 81,
          "time": 69.66659699999997,
          "velocity": 0.7401574803149606,
          "duration": 0.6527771250000143
        },
        {
          "name": "G#5",
          "midi": 80,
          "time": 69.99992999999998,
          "velocity": 0.7401574803149606,
          "duration": 1.986109125000013
        },
        {
          "name": "F#5",
          "midi": 78,
          "time": 70.99992899999998,
          "velocity": 0.7401574803149606,
          "duration": 0.6527771250000001
        },
        {
          "name": "A5",
          "midi": 81,
          "time": 71.33326199999998,
          "velocity": 0.7401574803149606,
          "duration": 0.6527771250000143
        },
        {
          "name": "G#5",
          "midi": 80,
          "time": 71.66659499999999,
          "velocity": 0.7401574803149606,
          "duration": 0.6527771250000143
        },
        {
          "name": "E5",
          "midi": 76,
          "time": 71.999928,
          "velocity": 0.7401574803149606,
          "duration": 1.986109125000013
        },
        {
          "name": "D5",
          "midi": 74,
          "time": 72.999927,
          "velocity": 0.7401574803149606,
          "duration": 0.6527771250000001
        },
        {
          "name": "A5",
          "midi": 81,
          "time": 73.33326,
          "velocity": 0.7401574803149606,
          "duration": 0.6527771250000143
        },
        {
          "name": "C#5",
          "midi": 73,
          "time": 73.666593,
          "velocity": 0.7401574803149606,
          "duration": 0.6527771250000143
        },
        {
          "name": "B4",
          "midi": 71,
          "time": 73.99992600000002,
          "velocity": 0.7401574803149606,
          "duration": 1.9861091249999987
        },
        {
          "name": "B4",
          "midi": 71,
          "time": 74.99992500000002,
          "velocity": 0.7401574803149606,
          "duration": 1.986109125000013
        },
        {
          "name": "B5",
          "midi": 83,
          "time": 75.99992400000002,
          "velocity": 0.7401574803149606,
          "duration": 0.9930545625000065
        },
        {
          "name": "B5",
          "midi": 83,
          "time": 76.99992300000002,
          "velocity": 0.7401574803149606,
          "duration": 0.22222200000000214
        },
        {
          "name": "C#6",
          "midi": 85,
          "time": 77.22214500000003,
          "velocity": 0.6692913385826772,
          "duration": 0.1041665624999979
        },
        {
          "name": "B5",
          "midi": 83,
          "time": 77.33325600000002,
          "velocity": 0.7401574803149606,
          "duration": 0.6527771250000001
        },
        {
          "name": "A5",
          "midi": 81,
          "time": 77.66658900000002,
          "velocity": 0.7401574803149606,
          "duration": 0.6527771250000143
        },
        {
          "name": "G#5",
          "midi": 80,
          "time": 77.99992200000003,
          "velocity": 0.7401574803149606,
          "duration": 1.986109125000013
        },
        {
          "name": "F#5",
          "midi": 78,
          "time": 78.99992100000003,
          "velocity": 0.7401574803149606,
          "duration": 0.6527771250000001
        },
        {
          "name": "A5",
          "midi": 81,
          "time": 79.33325400000003,
          "velocity": 0.7401574803149606,
          "duration": 0.6527771250000143
        },
        {
          "name": "G#5",
          "midi": 80,
          "time": 79.66658700000004,
          "velocity": 0.7401574803149606,
          "duration": 0.6527771250000143
        },
        {
          "name": "E5",
          "midi": 76,
          "time": 79.99992000000005,
          "velocity": 0.7401574803149606,
          "duration": 1.986109125000013
        },
        {
          "name": "D5",
          "midi": 74,
          "time": 80.99991900000005,
          "velocity": 0.7401574803149606,
          "duration": 0.6527771250000001
        },
        {
          "name": "A5",
          "midi": 81,
          "time": 81.33325200000004,
          "velocity": 0.7401574803149606,
          "duration": 0.6527771250000143
        },
        {
          "name": "C#5",
          "midi": 73,
          "time": 81.66658500000005,
          "velocity": 0.7401574803149606,
          "duration": 0.6527771250000143
        },
        {
          "name": "B4",
          "midi": 71,
          "time": 81.99991800000006,
          "velocity": 0.7401574803149606,
          "duration": 3.9861071250000037
        },
        {
          "name": "B5",
          "midi": 83,
          "time": 83.99991600000007,
          "velocity": 0.6614173228346457,
          "duration": 1.9861091249999987
        },
        {
          "name": "G5",
          "midi": 79,
          "time": 83.99991600000007,
          "velocity": 0.6771653543307087,
          "duration": 1.9861091249999987
        },
        {
          "name": "E5",
          "midi": 76,
          "time": 83.99991600000007,
          "velocity": 0.6929133858267716,
          "duration": 1.9861091249999987
        },
        {
          "name": "B4",
          "midi": 71,
          "time": 83.99991600000007,
          "velocity": 0.7086614173228346,
          "duration": 1.9861091249999987
        },
        {
          "name": "B5",
          "midi": 83,
          "time": 85.99991400000008,
          "velocity": 0.6614173228346457,
          "duration": 1.9861091249999987
        },
        {
          "name": "B4",
          "midi": 71,
          "time": 85.99991400000008,
          "velocity": 0.7086614173228346,
          "duration": 1.9861091249999987
        },
        {
          "name": "E5",
          "midi": 76,
          "time": 85.99991400000008,
          "velocity": 0.6929133858267716,
          "duration": 1.9861091249999987
        },
        {
          "name": "G5",
          "midi": 79,
          "time": 85.99991400000008,
          "velocity": 0.6771653543307087,
          "duration": 1.9861091249999987
        },
        {
          "name": "E5",
          "midi": 76,
          "time": 87.99991200000008,
          "velocity": 0.6771653543307087,
          "duration": 1.9861091249999987
        },
        {
          "name": "C#5",
          "midi": 73,
          "time": 87.99991200000008,
          "velocity": 0.6929133858267716,
          "duration": 1.9861091249999987
        },
        {
          "name": "A4",
          "midi": 69,
          "time": 87.99991200000008,
          "velocity": 0.7086614173228346,
          "duration": 1.9861091249999987
        },
        {
          "name": "A5",
          "midi": 81,
          "time": 87.99991200000008,
          "velocity": 0.6614173228346457,
          "duration": 1.9861091249999987
        },
        {
          "name": "A5",
          "midi": 81,
          "time": 89.99991000000009,
          "velocity": 0.6614173228346457,
          "duration": 1.9861091249999987
        },
        {
          "name": "E5",
          "midi": 76,
          "time": 89.99991000000009,
          "velocity": 0.6771653543307087,
          "duration": 1.9861091249999987
        },
        {
          "name": "C#5",
          "midi": 73,
          "time": 89.99991000000009,
          "velocity": 0.6929133858267716,
          "duration": 1.9861091249999987
        },
        {
          "name": "A4",
          "midi": 69,
          "time": 89.99991000000009,
          "velocity": 0.7086614173228346,
          "duration": 1.9861091249999987
        },
        {
          "name": "B4",
          "midi": 71,
          "time": 91.99990800000009,
          "velocity": 0.7086614173228346,
          "duration": 1.9861091249999987
        },
        {
          "name": "G5",
          "midi": 79,
          "time": 91.99990800000009,
          "velocity": 0.6771653543307087,
          "duration": 1.9861091249999987
        },
        {
          "name": "B5",
          "midi": 83,
          "time": 91.99990800000009,
          "velocity": 0.6614173228346457,
          "duration": 1.9861091249999987
        },
        {
          "name": "E5",
          "midi": 76,
          "time": 91.99990800000009,
          "velocity": 0.6929133858267716,
          "duration": 1.9861091249999987
        },
        {
          "name": "B4",
          "midi": 71,
          "time": 93.9999060000001,
          "velocity": 0.7086614173228346,
          "duration": 1.9861091249999987
        },
        {
          "name": "E5",
          "midi": 76,
          "time": 93.9999060000001,
          "velocity": 0.6929133858267716,
          "duration": 1.9861091249999987
        },
        {
          "name": "G5",
          "midi": 79,
          "time": 93.9999060000001,
          "velocity": 0.6771653543307087,
          "duration": 1.9861091249999987
        },
        {
          "name": "B5",
          "midi": 83,
          "time": 93.9999060000001,
          "velocity": 0.6614173228346457,
          "duration": 1.9861091249999987
        },
        {
          "name": "F#5",
          "midi": 78,
          "time": 95.9999040000001,
          "velocity": 0.6614173228346457,
          "duration": 1.9861091249999987
        },
        {
          "name": "A4",
          "midi": 69,
          "time": 95.9999040000001,
          "velocity": 0.6929133858267716,
          "duration": 1.9861091249999987
        },
        {
          "name": "F#4",
          "midi": 66,
          "time": 95.9999040000001,
          "velocity": 0.7086614173228346,
          "duration": 1.9861091249999987
        },
        {
          "name": "C#5",
          "midi": 73,
          "time": 95.9999040000001,
          "velocity": 0.6771653543307087,
          "duration": 1.9861091249999987
        },
        {
          "name": "B5",
          "midi": 83,
          "time": 97.9999020000001,
          "velocity": 0.6614173228346457,
          "duration": 1.6527761250000026
        },
        {
          "name": "D#5",
          "midi": 75,
          "time": 97.9999020000001,
          "velocity": 0.6929133858267716,
          "duration": 1.6527761250000026
        },
        {
          "name": "F#5",
          "midi": 78,
          "time": 97.9999020000001,
          "velocity": 0.6771653543307087,
          "duration": 1.986109125000013
        },
        {
          "name": "B4",
          "midi": 71,
          "time": 97.9999020000001,
          "velocity": 0.7086614173228346,
          "duration": 1.986109125000013
        },
        {
          "name": "D#5",
          "midi": 75,
          "time": 98.99990100000011,
          "velocity": 0.7716535433070866,
          "duration": 0.9861101250000104
        },
        {
          "name": "B4",
          "midi": 71,
          "time": 98.99990100000011,
          "velocity": 0.7874015748031497,
          "duration": 1.986109125000013
        },
        {
          "name": "B5",
          "midi": 83,
          "time": 98.99990100000011,
          "velocity": 0.7401574803149606,
          "duration": 0.9861101250000104
        },
        {
          "name": "F#5",
          "midi": 78,
          "time": 98.99990100000011,
          "velocity": 0.7559055118110236,
          "duration": 1.3194431250000207
        },
        {
          "name": "E5",
          "midi": 76,
          "time": 99.3332340000001,
          "velocity": 0.7401574803149606,
          "duration": 0.6527771250000143
        },
        {
          "name": "E5",
          "midi": 76,
          "time": 99.3332340000001,
          "velocity": 0.7716535433070866,
          "duration": 1.3194431250000207
        },
        {
          "name": "F#5",
          "midi": 78,
          "time": 99.66656700000011,
          "velocity": 0.7559055118110236,
          "duration": 0.6527771250000143
        },
        {
          "name": "F#5",
          "midi": 78,
          "time": 99.66656700000011,
          "velocity": 0.7401574803149606,
          "duration": 0.6527771250000143
        },
        {
          "name": "B3",
          "midi": 59,
          "time": 99.99990000000012,
          "velocity": 0.7401574803149606,
          "duration": 3.9861071249999895
        },
        {
          "name": "B3",
          "midi": 59,
          "time": 103.99989600000012,
          "velocity": 0.7401574803149606,
          "duration": 3.9861071250000037
        },
        {
          "name": "B3",
          "midi": 59,
          "time": 107.99989200000013,
          "velocity": 0.7401574803149606,
          "duration": 3.9861071250000037
        },
        {
          "name": "B3",
          "midi": 59,
          "time": 111.99988800000014,
          "velocity": 0.7401574803149606,
          "duration": 3.9861071250000037
        },
        {
          "name": "B5",
          "midi": 83,
          "time": 115.99988400000015,
          "velocity": 0.7401574803149606,
          "duration": 0.9930545625000065
        },
        {
          "name": "B5",
          "midi": 83,
          "time": 116.99988300000015,
          "velocity": 0.7401574803149606,
          "duration": 0.22222200000000214
        },
        {
          "name": "C#6",
          "midi": 85,
          "time": 117.22210500000016,
          "velocity": 0.6692913385826772,
          "duration": 0.1041665624999979
        },
        {
          "name": "B5",
          "midi": 83,
          "time": 117.33321600000015,
          "velocity": 0.7401574803149606,
          "duration": 0.6527771250000001
        },
        {
          "name": "A5",
          "midi": 81,
          "time": 117.66654900000015,
          "velocity": 0.7401574803149606,
          "duration": 0.6527771250000143
        },
        {
          "name": "G#5",
          "midi": 80,
          "time": 117.99988200000016,
          "velocity": 0.7401574803149606,
          "duration": 1.986109125000013
        },
        {
          "name": "F#5",
          "midi": 78,
          "time": 118.99988100000016,
          "velocity": 0.7401574803149606,
          "duration": 0.6527771250000001
        },
        {
          "name": "A5",
          "midi": 81,
          "time": 119.33321400000015,
          "velocity": 0.7401574803149606,
          "duration": 0.6527771250000143
        },
        {
          "name": "G#5",
          "midi": 80,
          "time": 119.66654700000016,
          "velocity": 0.7401574803149606,
          "duration": 0.6527771250000143
        },
        {
          "name": "E5",
          "midi": 76,
          "time": 119.99988000000018,
          "velocity": 0.7401574803149606,
          "duration": 1.986109125000013
        },
        {
          "name": "D5",
          "midi": 74,
          "time": 120.99987900000018,
          "velocity": 0.7401574803149606,
          "duration": 0.6527771250000001
        },
        {
          "name": "A5",
          "midi": 81,
          "time": 121.33321200000017,
          "velocity": 0.7401574803149606,
          "duration": 0.6527771250000143
        },
        {
          "name": "C#5",
          "midi": 73,
          "time": 121.66654500000018,
          "velocity": 0.7401574803149606,
          "duration": 0.6527771250000143
        },
        {
          "name": "B4",
          "midi": 71,
          "time": 121.9998780000002,
          "velocity": 0.7401574803149606,
          "duration": 5.993049562500005
        }
      ],
      "controlChanges": {
        "1": [
          {
            "number": 1,
            "time": 122.3332110000002,
            "value": 0.49606299212598426
          }
        ],
        "5": [
          {
            "number": 5,
            "time": 11.999987999999998,
            "value": 0.5354330708661418
          }
        ],
        "7": [
          {
            "number": 7,
            "time": 0.333333,
            "value": 0.7086614173228346
          }
        ],
        "10": [
          {
            "number": 10,
            "time": 0.3402774375,
            "value": 0.1968503937007874
          }
        ],
        "32": [
          {
            "number": 32,
            "time": 0.36111075000000004,
            "value": 0
          }
        ],
        "65": [
          {
            "number": 65,
            "time": 11.999987999999998,
            "value": 0
          },
          {
            "number": 65,
            "time": 13.006931437499997,
            "value": 1
          },
          {
            "number": 65,
            "time": 13.333319999999997,
            "value": 0
          },
          {
            "number": 65,
            "time": 26.881917562499993,
            "value": 1
          },
          {
            "number": 65,
            "time": 27.333305999999993,
            "value": 0
          },
          {
            "number": 65,
            "time": 34.88190956249999,
            "value": 1
          },
          {
            "number": 65,
            "time": 35.333298,
            "value": 0
          },
          {
            "number": 65,
            "time": 68.06937637499998,
            "value": 1
          },
          {
            "number": 65,
            "time": 69.33326399999997,
            "value": 0
          },
          {
            "number": 65,
            "time": 76.06936837500002,
            "value": 1
          },
          {
            "number": 65,
            "time": 77.30547825000002,
            "value": 0
          },
          {
            "number": 65,
            "time": 116.09016168750016,
            "value": 1
          },
          {
            "number": 65,
            "time": 117.30543825000015,
            "value": 0
          }
        ],
        "66": [
          {
            "number": 66,
            "time": 120.99987900000018,
            "value": 1
          }
        ],
        "91": [
          {
            "number": 91,
            "time": 0.347221875,
            "value": 0.5039370078740157
          }
        ],
        "93": [
          {
            "number": 93,
            "time": 0.3541663125,
            "value": 0.14173228346456693
          }
        ],
        "121": [
          {
            "number": 121,
            "time": 0.333333,
            "value": 0
          }
        ]
      },
      "id": 5,
      "name": "Sitar",
      "instrumentNumber": 104,
      "instrument": "sitar",
      "instrumentFamily": "ethnic",
      "channelNumber": 4,
      "isPercussion": false
    },
    {
      "startTime": 11.999987999999998,
      "duration": 121.99293356249984,
      "length": 812,
      "notes": [
        {
          "name": "E3",
          "midi": 52,
          "time": 11.999987999999998,
          "velocity": 0.7480314960629921,
          "duration": 0.9930545624999993
        },
        {
          "name": "B3",
          "midi": 59,
          "time": 12.333320999999998,
          "velocity": 0.7086614173228346,
          "duration": 0.32638856250000003
        },
        {
          "name": "E4",
          "midi": 64,
          "time": 12.333320999999998,
          "velocity": 0.6929133858267716,
          "duration": 0.32638856250000003
        },
        {
          "name": "B4",
          "midi": 71,
          "time": 12.333320999999998,
          "velocity": 0.6771653543307087,
          "duration": 0.32638856250000003
        },
        {
          "name": "E4",
          "midi": 64,
          "time": 12.666653999999998,
          "velocity": 0.6929133858267716,
          "duration": 0.6597215624999997
        },
        {
          "name": "B3",
          "midi": 59,
          "time": 12.666653999999998,
          "velocity": 0.7086614173228346,
          "duration": 0.6597215624999997
        },
        {
          "name": "B4",
          "midi": 71,
          "time": 12.666653999999998,
          "velocity": 0.6771653543307087,
          "duration": 0.6597215624999997
        },
        {
          "name": "E3",
          "midi": 52,
          "time": 12.999986999999997,
          "velocity": 0.7480314960629921,
          "duration": 0.9930545624999993
        },
        {
          "name": "B4",
          "midi": 71,
          "time": 13.333319999999997,
          "velocity": 0.6771653543307087,
          "duration": 0.32638856250000003
        },
        {
          "name": "B3",
          "midi": 59,
          "time": 13.333319999999997,
          "velocity": 0.7086614173228346,
          "duration": 0.32638856250000003
        },
        {
          "name": "E4",
          "midi": 64,
          "time": 13.333319999999997,
          "velocity": 0.6929133858267716,
          "duration": 0.32638856250000003
        },
        {
          "name": "E4",
          "midi": 64,
          "time": 13.666652999999997,
          "velocity": 0.6929133858267716,
          "duration": 0.6597215624999997
        },
        {
          "name": "B4",
          "midi": 71,
          "time": 13.666652999999997,
          "velocity": 0.6771653543307087,
          "duration": 0.6597215624999997
        },
        {
          "name": "B3",
          "midi": 59,
          "time": 13.666652999999997,
          "velocity": 0.7086614173228346,
          "duration": 0.6597215624999997
        },
        {
          "name": "E3",
          "midi": 52,
          "time": 13.999985999999996,
          "velocity": 0.7480314960629921,
          "duration": 0.9930545624999993
        },
        {
          "name": "E4",
          "midi": 64,
          "time": 14.333318999999996,
          "velocity": 0.6929133858267716,
          "duration": 0.32638856250000003
        },
        {
          "name": "B4",
          "midi": 71,
          "time": 14.333318999999996,
          "velocity": 0.6771653543307087,
          "duration": 0.32638856250000003
        },
        {
          "name": "B3",
          "midi": 59,
          "time": 14.333318999999996,
          "velocity": 0.7086614173228346,
          "duration": 0.32638856250000003
        },
        {
          "name": "E4",
          "midi": 64,
          "time": 14.666651999999996,
          "velocity": 0.6929133858267716,
          "duration": 0.6597215624999997
        },
        {
          "name": "B3",
          "midi": 59,
          "time": 14.666651999999996,
          "velocity": 0.7086614173228346,
          "duration": 0.6597215624999997
        },
        {
          "name": "B4",
          "midi": 71,
          "time": 14.666651999999996,
          "velocity": 0.6771653543307087,
          "duration": 0.6597215624999997
        },
        {
          "name": "E3",
          "midi": 52,
          "time": 14.999984999999995,
          "velocity": 0.7480314960629921,
          "duration": 0.9930545624999993
        },
        {
          "name": "E4",
          "midi": 64,
          "time": 15.333317999999995,
          "velocity": 0.6929133858267716,
          "duration": 0.32638856250000003
        },
        {
          "name": "B3",
          "midi": 59,
          "time": 15.333317999999995,
          "velocity": 0.7086614173228346,
          "duration": 0.32638856250000003
        },
        {
          "name": "B4",
          "midi": 71,
          "time": 15.333317999999995,
          "velocity": 0.6771653543307087,
          "duration": 0.32638856250000003
        },
        {
          "name": "B3",
          "midi": 59,
          "time": 15.666650999999995,
          "velocity": 0.7086614173228346,
          "duration": 0.6597215624999997
        },
        {
          "name": "E4",
          "midi": 64,
          "time": 15.666650999999995,
          "velocity": 0.6929133858267716,
          "duration": 0.6597215624999997
        },
        {
          "name": "B4",
          "midi": 71,
          "time": 15.666650999999995,
          "velocity": 0.6771653543307087,
          "duration": 0.6597215624999997
        },
        {
          "name": "E3",
          "midi": 52,
          "time": 15.999983999999994,
          "velocity": 0.7480314960629921,
          "duration": 0.9930545624999993
        },
        {
          "name": "B4",
          "midi": 71,
          "time": 16.333316999999994,
          "velocity": 0.6771653543307087,
          "duration": 0.32638856250000003
        },
        {
          "name": "B3",
          "midi": 59,
          "time": 16.333316999999994,
          "velocity": 0.7086614173228346,
          "duration": 0.32638856250000003
        },
        {
          "name": "E4",
          "midi": 64,
          "time": 16.333316999999994,
          "velocity": 0.6929133858267716,
          "duration": 0.32638856250000003
        },
        {
          "name": "E4",
          "midi": 64,
          "time": 16.666649999999994,
          "velocity": 0.6929133858267716,
          "duration": 0.6597215624999997
        },
        {
          "name": "B3",
          "midi": 59,
          "time": 16.666649999999994,
          "velocity": 0.7086614173228346,
          "duration": 0.6597215624999997
        },
        {
          "name": "B4",
          "midi": 71,
          "time": 16.666649999999994,
          "velocity": 0.6771653543307087,
          "duration": 0.6597215624999997
        },
        {
          "name": "E3",
          "midi": 52,
          "time": 16.999982999999993,
          "velocity": 0.7480314960629921,
          "duration": 0.9930545624999993
        },
        {
          "name": "B3",
          "midi": 59,
          "time": 17.333315999999993,
          "velocity": 0.7086614173228346,
          "duration": 0.32638856250000003
        },
        {
          "name": "F#4",
          "midi": 66,
          "time": 17.333315999999993,
          "velocity": 0.6771653543307087,
          "duration": 0.32638856250000003
        },
        {
          "name": "E4",
          "midi": 64,
          "time": 17.333315999999993,
          "velocity": 0.6929133858267716,
          "duration": 0.32638856250000003
        },
        {
          "name": "F#4",
          "midi": 66,
          "time": 17.666648999999992,
          "velocity": 0.6771653543307087,
          "duration": 0.6597215624999997
        },
        {
          "name": "E4",
          "midi": 64,
          "time": 17.666648999999992,
          "velocity": 0.6929133858267716,
          "duration": 0.6597215624999997
        },
        {
          "name": "B3",
          "midi": 59,
          "time": 17.666648999999992,
          "velocity": 0.7086614173228346,
          "duration": 0.6597215624999997
        },
        {
          "name": "E3",
          "midi": 52,
          "time": 17.999981999999992,
          "velocity": 0.7480314960629921,
          "duration": 0.9930545624999993
        },
        {
          "name": "B4",
          "midi": 71,
          "time": 18.333314999999992,
          "velocity": 0.6771653543307087,
          "duration": 0.32638856250000003
        },
        {
          "name": "E4",
          "midi": 64,
          "time": 18.333314999999992,
          "velocity": 0.6929133858267716,
          "duration": 0.32638856250000003
        },
        {
          "name": "B3",
          "midi": 59,
          "time": 18.333314999999992,
          "velocity": 0.7086614173228346,
          "duration": 0.32638856250000003
        },
        {
          "name": "B3",
          "midi": 59,
          "time": 18.66664799999999,
          "velocity": 0.7086614173228346,
          "duration": 0.6597215624999997
        },
        {
          "name": "E4",
          "midi": 64,
          "time": 18.66664799999999,
          "velocity": 0.6929133858267716,
          "duration": 0.6597215624999997
        },
        {
          "name": "B4",
          "midi": 71,
          "time": 18.66664799999999,
          "velocity": 0.6771653543307087,
          "duration": 0.6597215624999997
        },
        {
          "name": "E3",
          "midi": 52,
          "time": 18.99998099999999,
          "velocity": 0.7480314960629921,
          "duration": 0.9930545624999993
        },
        {
          "name": "E4",
          "midi": 64,
          "time": 19.33331399999999,
          "velocity": 0.6929133858267716,
          "duration": 0.32638856250000003
        },
        {
          "name": "B3",
          "midi": 59,
          "time": 19.33331399999999,
          "velocity": 0.7086614173228346,
          "duration": 0.32638856250000003
        },
        {
          "name": "B4",
          "midi": 71,
          "time": 19.33331399999999,
          "velocity": 0.6771653543307087,
          "duration": 0.32638856250000003
        },
        {
          "name": "E4",
          "midi": 64,
          "time": 19.66664699999999,
          "velocity": 0.6929133858267716,
          "duration": 0.6597215624999997
        },
        {
          "name": "B4",
          "midi": 71,
          "time": 19.66664699999999,
          "velocity": 0.6771653543307087,
          "duration": 0.6597215624999997
        },
        {
          "name": "B3",
          "midi": 59,
          "time": 19.66664699999999,
          "velocity": 0.7086614173228346,
          "duration": 0.6597215624999997
        },
        {
          "name": "E3",
          "midi": 52,
          "time": 19.99997999999999,
          "velocity": 0.7480314960629921,
          "duration": 0.9930545624999993
        },
        {
          "name": "E4",
          "midi": 64,
          "time": 20.33331299999999,
          "velocity": 0.6929133858267716,
          "duration": 0.32638856250000003
        },
        {
          "name": "B4",
          "midi": 71,
          "time": 20.33331299999999,
          "velocity": 0.6771653543307087,
          "duration": 0.32638856250000003
        },
        {
          "name": "B3",
          "midi": 59,
          "time": 20.33331299999999,
          "velocity": 0.7086614173228346,
          "duration": 0.32638856250000003
        },
        {
          "name": "B3",
          "midi": 59,
          "time": 20.66664599999999,
          "velocity": 0.7086614173228346,
          "duration": 0.6597215624999997
        },
        {
          "name": "B4",
          "midi": 71,
          "time": 20.66664599999999,
          "velocity": 0.6771653543307087,
          "duration": 0.6597215624999997
        },
        {
          "name": "E4",
          "midi": 64,
          "time": 20.66664599999999,
          "velocity": 0.6929133858267716,
          "duration": 0.6597215624999997
        },
        {
          "name": "E3",
          "midi": 52,
          "time": 20.99997899999999,
          "velocity": 0.7480314960629921,
          "duration": 0.9930545624999993
        },
        {
          "name": "B3",
          "midi": 59,
          "time": 21.33331199999999,
          "velocity": 0.7086614173228346,
          "duration": 0.32638856250000003
        },
        {
          "name": "E4",
          "midi": 64,
          "time": 21.33331199999999,
          "velocity": 0.6929133858267716,
          "duration": 0.32638856250000003
        },
        {
          "name": "B4",
          "midi": 71,
          "time": 21.33331199999999,
          "velocity": 0.6771653543307087,
          "duration": 0.32638856250000003
        },
        {
          "name": "B3",
          "midi": 59,
          "time": 21.66664499999999,
          "velocity": 0.7086614173228346,
          "duration": 0.6597215624999997
        },
        {
          "name": "B4",
          "midi": 71,
          "time": 21.66664499999999,
          "velocity": 0.6771653543307087,
          "duration": 0.6597215624999997
        },
        {
          "name": "E4",
          "midi": 64,
          "time": 21.66664499999999,
          "velocity": 0.6929133858267716,
          "duration": 0.6597215624999997
        },
        {
          "name": "E3",
          "midi": 52,
          "time": 21.999977999999988,
          "velocity": 0.7480314960629921,
          "duration": 0.9930545624999993
        },
        {
          "name": "B3",
          "midi": 59,
          "time": 22.333310999999988,
          "velocity": 0.7086614173228346,
          "duration": 0.32638856250000003
        },
        {
          "name": "B4",
          "midi": 71,
          "time": 22.333310999999988,
          "velocity": 0.6771653543307087,
          "duration": 0.32638856250000003
        },
        {
          "name": "E4",
          "midi": 64,
          "time": 22.333310999999988,
          "velocity": 0.6929133858267716,
          "duration": 0.32638856250000003
        },
        {
          "name": "B4",
          "midi": 71,
          "time": 22.666643999999987,
          "velocity": 0.6771653543307087,
          "duration": 0.6597215624999997
        },
        {
          "name": "E4",
          "midi": 64,
          "time": 22.666643999999987,
          "velocity": 0.6929133858267716,
          "duration": 0.6597215624999997
        },
        {
          "name": "B3",
          "midi": 59,
          "time": 22.666643999999987,
          "velocity": 0.7086614173228346,
          "duration": 0.6597215624999997
        },
        {
          "name": "E3",
          "midi": 52,
          "time": 22.999976999999987,
          "velocity": 0.7480314960629921,
          "duration": 0.9930545624999993
        },
        {
          "name": "E4",
          "midi": 64,
          "time": 23.333309999999987,
          "velocity": 0.6929133858267716,
          "duration": 0.32638856250000003
        },
        {
          "name": "B3",
          "midi": 59,
          "time": 23.333309999999987,
          "velocity": 0.7086614173228346,
          "duration": 0.32638856250000003
        },
        {
          "name": "B4",
          "midi": 71,
          "time": 23.333309999999987,
          "velocity": 0.6771653543307087,
          "duration": 0.32638856250000003
        },
        {
          "name": "B4",
          "midi": 71,
          "time": 23.666642999999986,
          "velocity": 0.6771653543307087,
          "duration": 0.6597215624999997
        },
        {
          "name": "B3",
          "midi": 59,
          "time": 23.666642999999986,
          "velocity": 0.7086614173228346,
          "duration": 0.6597215624999997
        },
        {
          "name": "E4",
          "midi": 64,
          "time": 23.666642999999986,
          "velocity": 0.6929133858267716,
          "duration": 0.6597215624999997
        },
        {
          "name": "E3",
          "midi": 52,
          "time": 23.999975999999986,
          "velocity": 0.7480314960629921,
          "duration": 0.9930545624999993
        },
        {
          "name": "B4",
          "midi": 71,
          "time": 24.333308999999986,
          "velocity": 0.6771653543307087,
          "duration": 0.32638856250000003
        },
        {
          "name": "E4",
          "midi": 64,
          "time": 24.333308999999986,
          "velocity": 0.6929133858267716,
          "duration": 0.32638856250000003
        },
        {
          "name": "B3",
          "midi": 59,
          "time": 24.333308999999986,
          "velocity": 0.7086614173228346,
          "duration": 0.32638856250000003
        },
        {
          "name": "E4",
          "midi": 64,
          "time": 24.666641999999985,
          "velocity": 0.6929133858267716,
          "duration": 0.6597215624999997
        },
        {
          "name": "B3",
          "midi": 59,
          "time": 24.666641999999985,
          "velocity": 0.7086614173228346,
          "duration": 0.6597215624999997
        },
        {
          "name": "B4",
          "midi": 71,
          "time": 24.666641999999985,
          "velocity": 0.6771653543307087,
          "duration": 0.6597215624999997
        },
        {
          "name": "E3",
          "midi": 52,
          "time": 24.999974999999985,
          "velocity": 0.7480314960629921,
          "duration": 0.9930545624999993
        },
        {
          "name": "E4",
          "midi": 64,
          "time": 25.333307999999985,
          "velocity": 0.6929133858267716,
          "duration": 0.32638856250000003
        },
        {
          "name": "B3",
          "midi": 59,
          "time": 25.333307999999985,
          "velocity": 0.7086614173228346,
          "duration": 0.32638856250000003
        },
        {
          "name": "B4",
          "midi": 71,
          "time": 25.333307999999985,
          "velocity": 0.6771653543307087,
          "duration": 0.32638856250000003
        },
        {
          "name": "B4",
          "midi": 71,
          "time": 25.666640999999984,
          "velocity": 0.6771653543307087,
          "duration": 0.6597215624999997
        },
        {
          "name": "E4",
          "midi": 64,
          "time": 25.666640999999984,
          "velocity": 0.6929133858267716,
          "duration": 0.6597215624999997
        },
        {
          "name": "B3",
          "midi": 59,
          "time": 25.666640999999984,
          "velocity": 0.7086614173228346,
          "duration": 0.6597215624999997
        },
        {
          "name": "E3",
          "midi": 52,
          "time": 25.999973999999984,
          "velocity": 0.7480314960629921,
          "duration": 0.9930545624999993
        },
        {
          "name": "B4",
          "midi": 71,
          "time": 26.333306999999984,
          "velocity": 0.6771653543307087,
          "duration": 0.32638856250000003
        },
        {
          "name": "E4",
          "midi": 64,
          "time": 26.333306999999984,
          "velocity": 0.6929133858267716,
          "duration": 0.32638856250000003
        },
        {
          "name": "B3",
          "midi": 59,
          "time": 26.333306999999984,
          "velocity": 0.7086614173228346,
          "duration": 0.32638856250000003
        },
        {
          "name": "B3",
          "midi": 59,
          "time": 26.666639999999983,
          "velocity": 0.7086614173228346,
          "duration": 0.6597215624999997
        },
        {
          "name": "B4",
          "midi": 71,
          "time": 26.666639999999983,
          "velocity": 0.6771653543307087,
          "duration": 0.6597215624999997
        },
        {
          "name": "E4",
          "midi": 64,
          "time": 26.666639999999983,
          "velocity": 0.6929133858267716,
          "duration": 0.6597215624999997
        },
        {
          "name": "E3",
          "midi": 52,
          "time": 26.999972999999983,
          "velocity": 0.7480314960629921,
          "duration": 0.9930545624999993
        },
        {
          "name": "E4",
          "midi": 64,
          "time": 27.333305999999983,
          "velocity": 0.6929133858267716,
          "duration": 0.32638856250000003
        },
        {
          "name": "B4",
          "midi": 71,
          "time": 27.333305999999983,
          "velocity": 0.6771653543307087,
          "duration": 0.32638856250000003
        },
        {
          "name": "B3",
          "midi": 59,
          "time": 27.333305999999983,
          "velocity": 0.7086614173228346,
          "duration": 0.32638856250000003
        },
        {
          "name": "B4",
          "midi": 71,
          "time": 27.666638999999982,
          "velocity": 0.6771653543307087,
          "duration": 0.6597215624999997
        },
        {
          "name": "B3",
          "midi": 59,
          "time": 27.666638999999982,
          "velocity": 0.7086614173228346,
          "duration": 0.6597215624999997
        },
        {
          "name": "E4",
          "midi": 64,
          "time": 27.666638999999982,
          "velocity": 0.6929133858267716,
          "duration": 0.6597215624999997
        },
        {
          "name": "E3",
          "midi": 52,
          "time": 27.999971999999982,
          "velocity": 0.7480314960629921,
          "duration": 0.9930545624999993
        },
        {
          "name": "B3",
          "midi": 59,
          "time": 28.33330499999998,
          "velocity": 0.7086614173228346,
          "duration": 0.32638856250000003
        },
        {
          "name": "E4",
          "midi": 64,
          "time": 28.33330499999998,
          "velocity": 0.6929133858267716,
          "duration": 0.32638856250000003
        },
        {
          "name": "B4",
          "midi": 71,
          "time": 28.33330499999998,
          "velocity": 0.6771653543307087,
          "duration": 0.32638856250000003
        },
        {
          "name": "B4",
          "midi": 71,
          "time": 28.66663799999998,
          "velocity": 0.6771653543307087,
          "duration": 0.6597215624999997
        },
        {
          "name": "E4",
          "midi": 64,
          "time": 28.66663799999998,
          "velocity": 0.6929133858267716,
          "duration": 0.6597215624999997
        },
        {
          "name": "B3",
          "midi": 59,
          "time": 28.66663799999998,
          "velocity": 0.7086614173228346,
          "duration": 0.6597215624999997
        },
        {
          "name": "E3",
          "midi": 52,
          "time": 28.99997099999998,
          "velocity": 0.7480314960629921,
          "duration": 0.9930545624999993
        },
        {
          "name": "B4",
          "midi": 71,
          "time": 29.33330399999998,
          "velocity": 0.6771653543307087,
          "duration": 0.32638856250000003
        },
        {
          "name": "B3",
          "midi": 59,
          "time": 29.33330399999998,
          "velocity": 0.7086614173228346,
          "duration": 0.32638856250000003
        },
        {
          "name": "E4",
          "midi": 64,
          "time": 29.33330399999998,
          "velocity": 0.6929133858267716,
          "duration": 0.32638856250000003
        },
        {
          "name": "E4",
          "midi": 64,
          "time": 29.66663699999998,
          "velocity": 0.6929133858267716,
          "duration": 0.6597215624999997
        },
        {
          "name": "B3",
          "midi": 59,
          "time": 29.66663699999998,
          "velocity": 0.7086614173228346,
          "duration": 0.6597215624999997
        },
        {
          "name": "B4",
          "midi": 71,
          "time": 29.66663699999998,
          "velocity": 0.6771653543307087,
          "duration": 0.6597215624999997
        },
        {
          "name": "E3",
          "midi": 52,
          "time": 29.99996999999998,
          "velocity": 0.7480314960629921,
          "duration": 0.9930545624999993
        },
        {
          "name": "B4",
          "midi": 71,
          "time": 30.33330299999998,
          "velocity": 0.6771653543307087,
          "duration": 0.32638856250000003
        },
        {
          "name": "B3",
          "midi": 59,
          "time": 30.33330299999998,
          "velocity": 0.7086614173228346,
          "duration": 0.32638856250000003
        },
        {
          "name": "E4",
          "midi": 64,
          "time": 30.33330299999998,
          "velocity": 0.6929133858267716,
          "duration": 0.32638856250000003
        },
        {
          "name": "B3",
          "midi": 59,
          "time": 30.66663599999998,
          "velocity": 0.7086614173228346,
          "duration": 0.6597215624999997
        },
        {
          "name": "E4",
          "midi": 64,
          "time": 30.66663599999998,
          "velocity": 0.6929133858267716,
          "duration": 0.6597215624999997
        },
        {
          "name": "B4",
          "midi": 71,
          "time": 30.66663599999998,
          "velocity": 0.6771653543307087,
          "duration": 0.6597215624999997
        },
        {
          "name": "E3",
          "midi": 52,
          "time": 30.99996899999998,
          "velocity": 0.7480314960629921,
          "duration": 0.9930545624999993
        },
        {
          "name": "E4",
          "midi": 64,
          "time": 31.33330199999998,
          "velocity": 0.6929133858267716,
          "duration": 0.32638856250000003
        },
        {
          "name": "B3",
          "midi": 59,
          "time": 31.33330199999998,
          "velocity": 0.7086614173228346,
          "duration": 0.32638856250000003
        },
        {
          "name": "B4",
          "midi": 71,
          "time": 31.33330199999998,
          "velocity": 0.6771653543307087,
          "duration": 0.32638856250000003
        },
        {
          "name": "E4",
          "midi": 64,
          "time": 31.666634999999978,
          "velocity": 0.6929133858267716,
          "duration": 0.6597215624999961
        },
        {
          "name": "B4",
          "midi": 71,
          "time": 31.666634999999978,
          "velocity": 0.6771653543307087,
          "duration": 0.6597215624999961
        },
        {
          "name": "B3",
          "midi": 59,
          "time": 31.666634999999978,
          "velocity": 0.7086614173228346,
          "duration": 0.6597215624999961
        },
        {
          "name": "E3",
          "midi": 52,
          "time": 31.999967999999978,
          "velocity": 0.7480314960629921,
          "duration": 0.9930545625000029
        },
        {
          "name": "E4",
          "midi": 64,
          "time": 32.33330099999998,
          "velocity": 0.6929133858267716,
          "duration": 0.32638856250000003
        },
        {
          "name": "B4",
          "midi": 71,
          "time": 32.33330099999998,
          "velocity": 0.6771653543307087,
          "duration": 0.32638856250000003
        },
        {
          "name": "B3",
          "midi": 59,
          "time": 32.33330099999998,
          "velocity": 0.7086614173228346,
          "duration": 0.32638856250000003
        },
        {
          "name": "B3",
          "midi": 59,
          "time": 32.66663399999998,
          "velocity": 0.7086614173228346,
          "duration": 0.6597215625000032
        },
        {
          "name": "E4",
          "midi": 64,
          "time": 32.66663399999998,
          "velocity": 0.6929133858267716,
          "duration": 0.6597215625000032
        },
        {
          "name": "B4",
          "midi": 71,
          "time": 32.66663399999998,
          "velocity": 0.6771653543307087,
          "duration": 0.6597215625000032
        },
        {
          "name": "E3",
          "midi": 52,
          "time": 32.999966999999984,
          "velocity": 0.7480314960629921,
          "duration": 0.9930545625000065
        },
        {
          "name": "B4",
          "midi": 71,
          "time": 33.33329999999999,
          "velocity": 0.6771653543307087,
          "duration": 0.32638856250000003
        },
        {
          "name": "B3",
          "midi": 59,
          "time": 33.33329999999999,
          "velocity": 0.7086614173228346,
          "duration": 0.32638856250000003
        },
        {
          "name": "E4",
          "midi": 64,
          "time": 33.33329999999999,
          "velocity": 0.6929133858267716,
          "duration": 0.32638856250000003
        },
        {
          "name": "B4",
          "midi": 71,
          "time": 33.66663299999999,
          "velocity": 0.6771653543307087,
          "duration": 0.6597215625000032
        },
        {
          "name": "E4",
          "midi": 64,
          "time": 33.66663299999999,
          "velocity": 0.6929133858267716,
          "duration": 0.6597215625000032
        },
        {
          "name": "B3",
          "midi": 59,
          "time": 33.66663299999999,
          "velocity": 0.7086614173228346,
          "duration": 0.6597215625000032
        },
        {
          "name": "E3",
          "midi": 52,
          "time": 33.99996599999999,
          "velocity": 0.7480314960629921,
          "duration": 0.9930545625000065
        },
        {
          "name": "B3",
          "midi": 59,
          "time": 34.333299,
          "velocity": 0.7086614173228346,
          "duration": 0.32638856250000003
        },
        {
          "name": "E4",
          "midi": 64,
          "time": 34.333299,
          "velocity": 0.6929133858267716,
          "duration": 0.32638856250000003
        },
        {
          "name": "B4",
          "midi": 71,
          "time": 34.333299,
          "velocity": 0.6771653543307087,
          "duration": 0.32638856250000003
        },
        {
          "name": "E4",
          "midi": 64,
          "time": 34.666632,
          "velocity": 0.6929133858267716,
          "duration": 0.6597215625000032
        },
        {
          "name": "B4",
          "midi": 71,
          "time": 34.666632,
          "velocity": 0.6771653543307087,
          "duration": 0.6597215625000032
        },
        {
          "name": "B3",
          "midi": 59,
          "time": 34.666632,
          "velocity": 0.7086614173228346,
          "duration": 0.6597215625000032
        },
        {
          "name": "E3",
          "midi": 52,
          "time": 34.999965,
          "velocity": 0.7480314960629921,
          "duration": 0.9930545625000065
        },
        {
          "name": "B4",
          "midi": 71,
          "time": 35.333298000000006,
          "velocity": 0.6771653543307087,
          "duration": 0.32638856250000003
        },
        {
          "name": "B3",
          "midi": 59,
          "time": 35.333298000000006,
          "velocity": 0.7086614173228346,
          "duration": 0.32638856250000003
        },
        {
          "name": "E4",
          "midi": 64,
          "time": 35.333298000000006,
          "velocity": 0.6929133858267716,
          "duration": 0.32638856250000003
        },
        {
          "name": "E4",
          "midi": 64,
          "time": 35.66663100000001,
          "velocity": 0.6929133858267716,
          "duration": 0.32638856250000003
        },
        {
          "name": "B3",
          "midi": 59,
          "time": 35.66663100000001,
          "velocity": 0.7086614173228346,
          "duration": 0.32638856250000003
        },
        {
          "name": "B4",
          "midi": 71,
          "time": 35.66663100000001,
          "velocity": 0.6771653543307087,
          "duration": 0.32638856250000003
        },
        {
          "name": "G4",
          "midi": 67,
          "time": 35.99996400000001,
          "velocity": 0.6771653543307087,
          "duration": 0.9930545624999993
        },
        {
          "name": "E3",
          "midi": 52,
          "time": 35.99996400000001,
          "velocity": 0.7480314960629921,
          "duration": 0.9930545624999993
        },
        {
          "name": "B3",
          "midi": 59,
          "time": 35.99996400000001,
          "velocity": 0.7086614173228346,
          "duration": 0.9930545624999993
        },
        {
          "name": "E4",
          "midi": 64,
          "time": 35.99996400000001,
          "velocity": 0.6929133858267716,
          "duration": 0.9930545624999993
        },
        {
          "name": "G4",
          "midi": 67,
          "time": 36.999963000000015,
          "velocity": 0.6771653543307087,
          "duration": 0.21527756249999896
        },
        {
          "name": "E4",
          "midi": 64,
          "time": 36.999963000000015,
          "velocity": 0.6929133858267716,
          "duration": 0.21527756249999896
        },
        {
          "name": "B3",
          "midi": 59,
          "time": 36.999963000000015,
          "velocity": 0.7086614173228346,
          "duration": 0.21527756249999896
        },
        {
          "name": "E3",
          "midi": 52,
          "time": 36.999963000000015,
          "velocity": 0.7480314960629921,
          "duration": 0.21527756249999896
        },
        {
          "name": "E3",
          "midi": 52,
          "time": 37.33329600000001,
          "velocity": 0.7480314960629921,
          "duration": 0.21527756249999896
        },
        {
          "name": "E4",
          "midi": 64,
          "time": 37.33329600000001,
          "velocity": 0.6929133858267716,
          "duration": 0.21527756249999896
        },
        {
          "name": "B3",
          "midi": 59,
          "time": 37.33329600000001,
          "velocity": 0.7086614173228346,
          "duration": 0.21527756249999896
        },
        {
          "name": "G4",
          "midi": 67,
          "time": 37.33329600000001,
          "velocity": 0.6771653543307087,
          "duration": 0.21527756249999896
        },
        {
          "name": "B3",
          "midi": 59,
          "time": 37.66662900000001,
          "velocity": 0.7086614173228346,
          "duration": 0.21527756249999896
        },
        {
          "name": "E3",
          "midi": 52,
          "time": 37.66662900000001,
          "velocity": 0.7480314960629921,
          "duration": 0.21527756249999896
        },
        {
          "name": "G4",
          "midi": 67,
          "time": 37.66662900000001,
          "velocity": 0.6771653543307087,
          "duration": 0.21527756249999896
        },
        {
          "name": "E4",
          "midi": 64,
          "time": 37.66662900000001,
          "velocity": 0.6929133858267716,
          "duration": 0.21527756249999896
        },
        {
          "name": "E4",
          "midi": 64,
          "time": 37.999962000000004,
          "velocity": 0.6929133858267716,
          "duration": 0.9930545624999993
        },
        {
          "name": "E3",
          "midi": 52,
          "time": 37.999962000000004,
          "velocity": 0.7480314960629921,
          "duration": 0.9930545624999993
        },
        {
          "name": "G4",
          "midi": 67,
          "time": 37.999962000000004,
          "velocity": 0.6771653543307087,
          "duration": 0.9930545624999993
        },
        {
          "name": "B3",
          "midi": 59,
          "time": 37.999962000000004,
          "velocity": 0.7086614173228346,
          "duration": 0.9930545624999993
        },
        {
          "name": "B3",
          "midi": 59,
          "time": 38.999961000000006,
          "velocity": 0.7086614173228346,
          "duration": 0.21527756249999896
        },
        {
          "name": "E4",
          "midi": 64,
          "time": 38.999961000000006,
          "velocity": 0.6929133858267716,
          "duration": 0.21527756249999896
        },
        {
          "name": "E3",
          "midi": 52,
          "time": 38.999961000000006,
          "velocity": 0.7480314960629921,
          "duration": 0.21527756249999896
        },
        {
          "name": "G4",
          "midi": 67,
          "time": 38.999961000000006,
          "velocity": 0.6771653543307087,
          "duration": 0.21527756249999896
        },
        {
          "name": "E4",
          "midi": 64,
          "time": 39.333294,
          "velocity": 0.6929133858267716,
          "duration": 0.21527756249999896
        },
        {
          "name": "E3",
          "midi": 52,
          "time": 39.333294,
          "velocity": 0.7480314960629921,
          "duration": 0.21527756249999896
        },
        {
          "name": "G4",
          "midi": 67,
          "time": 39.333294,
          "velocity": 0.6771653543307087,
          "duration": 0.21527756249999896
        },
        {
          "name": "B3",
          "midi": 59,
          "time": 39.333294,
          "velocity": 0.7086614173228346,
          "duration": 0.21527756249999896
        },
        {
          "name": "G4",
          "midi": 67,
          "time": 39.666627,
          "velocity": 0.6771653543307087,
          "duration": 0.21527756249999896
        },
        {
          "name": "E4",
          "midi": 64,
          "time": 39.666627,
          "velocity": 0.6929133858267716,
          "duration": 0.21527756249999896
        },
        {
          "name": "E3",
          "midi": 52,
          "time": 39.666627,
          "velocity": 0.7480314960629921,
          "duration": 0.21527756249999896
        },
        {
          "name": "B3",
          "midi": 59,
          "time": 39.666627,
          "velocity": 0.7086614173228346,
          "duration": 0.21527756249999896
        },
        {
          "name": "E3",
          "midi": 52,
          "time": 39.999959999999994,
          "velocity": 0.7480314960629921,
          "duration": 0.9930545624999993
        },
        {
          "name": "C#4",
          "midi": 61,
          "time": 39.999959999999994,
          "velocity": 0.6929133858267716,
          "duration": 0.9930545624999993
        },
        {
          "name": "A3",
          "midi": 57,
          "time": 39.999959999999994,
          "velocity": 0.7086614173228346,
          "duration": 0.9930545624999993
        },
        {
          "name": "E4",
          "midi": 64,
          "time": 39.999959999999994,
          "velocity": 0.6771653543307087,
          "duration": 0.9930545624999993
        },
        {
          "name": "A4",
          "midi": 69,
          "time": 39.999959999999994,
          "velocity": 0.6614173228346457,
          "duration": 0.9930545624999993
        },
        {
          "name": "A3",
          "midi": 57,
          "time": 40.999959,
          "velocity": 0.7086614173228346,
          "duration": 0.21527756249999896
        },
        {
          "name": "C#4",
          "midi": 61,
          "time": 40.999959,
          "velocity": 0.6929133858267716,
          "duration": 0.21527756249999896
        },
        {
          "name": "E3",
          "midi": 52,
          "time": 40.999959,
          "velocity": 0.7480314960629921,
          "duration": 0.21527756249999896
        },
        {
          "name": "E4",
          "midi": 64,
          "time": 40.999959,
          "velocity": 0.6771653543307087,
          "duration": 0.21527756249999896
        },
        {
          "name": "A4",
          "midi": 69,
          "time": 40.999959,
          "velocity": 0.6614173228346457,
          "duration": 0.21527756249999896
        },
        {
          "name": "E3",
          "midi": 52,
          "time": 41.33329199999999,
          "velocity": 0.7480314960629921,
          "duration": 0.21527756249999896
        },
        {
          "name": "A3",
          "midi": 57,
          "time": 41.33329199999999,
          "velocity": 0.7086614173228346,
          "duration": 0.21527756249999896
        },
        {
          "name": "A4",
          "midi": 69,
          "time": 41.33329199999999,
          "velocity": 0.6614173228346457,
          "duration": 0.21527756249999896
        },
        {
          "name": "C#4",
          "midi": 61,
          "time": 41.33329199999999,
          "velocity": 0.6929133858267716,
          "duration": 0.21527756249999896
        },
        {
          "name": "E4",
          "midi": 64,
          "time": 41.33329199999999,
          "velocity": 0.6771653543307087,
          "duration": 0.21527756249999896
        },
        {
          "name": "E3",
          "midi": 52,
          "time": 41.66662499999999,
          "velocity": 0.7480314960629921,
          "duration": 0.21527756249999896
        },
        {
          "name": "A3",
          "midi": 57,
          "time": 41.66662499999999,
          "velocity": 0.7086614173228346,
          "duration": 0.21527756249999896
        },
        {
          "name": "C#4",
          "midi": 61,
          "time": 41.66662499999999,
          "velocity": 0.6929133858267716,
          "duration": 0.21527756249999896
        },
        {
          "name": "E4",
          "midi": 64,
          "time": 41.66662499999999,
          "velocity": 0.6771653543307087,
          "duration": 0.21527756249999896
        },
        {
          "name": "A4",
          "midi": 69,
          "time": 41.66662499999999,
          "velocity": 0.6614173228346457,
          "duration": 0.21527756249999896
        },
        {
          "name": "A4",
          "midi": 69,
          "time": 41.999957999999985,
          "velocity": 0.6614173228346457,
          "duration": 0.9930545624999993
        },
        {
          "name": "E4",
          "midi": 64,
          "time": 41.999957999999985,
          "velocity": 0.6771653543307087,
          "duration": 0.9930545624999993
        },
        {
          "name": "A3",
          "midi": 57,
          "time": 41.999957999999985,
          "velocity": 0.7086614173228346,
          "duration": 0.9930545624999993
        },
        {
          "name": "E3",
          "midi": 52,
          "time": 41.999957999999985,
          "velocity": 0.7480314960629921,
          "duration": 0.9930545624999993
        },
        {
          "name": "C#4",
          "midi": 61,
          "time": 41.999957999999985,
          "velocity": 0.6929133858267716,
          "duration": 0.9930545624999993
        },
        {
          "name": "C#4",
          "midi": 61,
          "time": 42.99995699999999,
          "velocity": 0.6929133858267716,
          "duration": 0.21527756249999896
        },
        {
          "name": "E4",
          "midi": 64,
          "time": 42.99995699999999,
          "velocity": 0.6771653543307087,
          "duration": 0.21527756249999896
        },
        {
          "name": "A4",
          "midi": 69,
          "time": 42.99995699999999,
          "velocity": 0.6614173228346457,
          "duration": 0.21527756249999896
        },
        {
          "name": "E3",
          "midi": 52,
          "time": 42.99995699999999,
          "velocity": 0.7480314960629921,
          "duration": 0.21527756249999896
        },
        {
          "name": "A3",
          "midi": 57,
          "time": 42.99995699999999,
          "velocity": 0.7086614173228346,
          "duration": 0.21527756249999896
        },
        {
          "name": "E3",
          "midi": 52,
          "time": 43.333289999999984,
          "velocity": 0.7480314960629921,
          "duration": 0.21527756249999896
        },
        {
          "name": "A3",
          "midi": 57,
          "time": 43.333289999999984,
          "velocity": 0.7086614173228346,
          "duration": 0.21527756249999896
        },
        {
          "name": "C#4",
          "midi": 61,
          "time": 43.333289999999984,
          "velocity": 0.6929133858267716,
          "duration": 0.21527756249999896
        },
        {
          "name": "E4",
          "midi": 64,
          "time": 43.333289999999984,
          "velocity": 0.6771653543307087,
          "duration": 0.21527756249999896
        },
        {
          "name": "A4",
          "midi": 69,
          "time": 43.333289999999984,
          "velocity": 0.6614173228346457,
          "duration": 0.21527756249999896
        },
        {
          "name": "C#4",
          "midi": 61,
          "time": 43.66662299999998,
          "velocity": 0.6929133858267716,
          "duration": 0.21527756249999896
        },
        {
          "name": "A3",
          "midi": 57,
          "time": 43.66662299999998,
          "velocity": 0.7086614173228346,
          "duration": 0.21527756249999896
        },
        {
          "name": "E4",
          "midi": 64,
          "time": 43.66662299999998,
          "velocity": 0.6771653543307087,
          "duration": 0.21527756249999896
        },
        {
          "name": "A4",
          "midi": 69,
          "time": 43.66662299999998,
          "velocity": 0.6614173228346457,
          "duration": 0.21527756249999896
        },
        {
          "name": "E3",
          "midi": 52,
          "time": 43.66662299999998,
          "velocity": 0.7480314960629921,
          "duration": 0.21527756249999896
        },
        {
          "name": "E4",
          "midi": 64,
          "time": 43.999955999999976,
          "velocity": 0.6929133858267716,
          "duration": 0.9930545624999993
        },
        {
          "name": "B3",
          "midi": 59,
          "time": 43.999955999999976,
          "velocity": 0.7086614173228346,
          "duration": 0.9930545624999993
        },
        {
          "name": "E3",
          "midi": 52,
          "time": 43.999955999999976,
          "velocity": 0.7480314960629921,
          "duration": 0.9930545624999993
        },
        {
          "name": "G4",
          "midi": 67,
          "time": 43.999955999999976,
          "velocity": 0.6771653543307087,
          "duration": 0.9930545624999993
        },
        {
          "name": "G4",
          "midi": 67,
          "time": 44.99995499999998,
          "velocity": 0.6771653543307087,
          "duration": 0.21527756249999896
        },
        {
          "name": "E4",
          "midi": 64,
          "time": 44.99995499999998,
          "velocity": 0.6929133858267716,
          "duration": 0.21527756249999896
        },
        {
          "name": "B3",
          "midi": 59,
          "time": 44.99995499999998,
          "velocity": 0.7086614173228346,
          "duration": 0.21527756249999896
        },
        {
          "name": "E3",
          "midi": 52,
          "time": 44.99995499999998,
          "velocity": 0.7480314960629921,
          "duration": 0.21527756249999896
        },
        {
          "name": "B3",
          "midi": 59,
          "time": 45.333287999999975,
          "velocity": 0.7086614173228346,
          "duration": 0.21527756249999896
        },
        {
          "name": "G4",
          "midi": 67,
          "time": 45.333287999999975,
          "velocity": 0.6771653543307087,
          "duration": 0.21527756249999896
        },
        {
          "name": "E4",
          "midi": 64,
          "time": 45.333287999999975,
          "velocity": 0.6929133858267716,
          "duration": 0.21527756249999896
        },
        {
          "name": "E3",
          "midi": 52,
          "time": 45.333287999999975,
          "velocity": 0.7480314960629921,
          "duration": 0.21527756249999896
        },
        {
          "name": "G4",
          "midi": 67,
          "time": 45.66662099999997,
          "velocity": 0.6771653543307087,
          "duration": 0.21527756249999896
        },
        {
          "name": "E4",
          "midi": 64,
          "time": 45.66662099999997,
          "velocity": 0.6929133858267716,
          "duration": 0.21527756249999896
        },
        {
          "name": "E3",
          "midi": 52,
          "time": 45.66662099999997,
          "velocity": 0.7480314960629921,
          "duration": 0.21527756249999896
        },
        {
          "name": "B3",
          "midi": 59,
          "time": 45.66662099999997,
          "velocity": 0.7086614173228346,
          "duration": 0.21527756249999896
        },
        {
          "name": "B3",
          "midi": 59,
          "time": 45.99995399999997,
          "velocity": 0.7086614173228346,
          "duration": 0.9930545624999993
        },
        {
          "name": "E4",
          "midi": 64,
          "time": 45.99995399999997,
          "velocity": 0.6929133858267716,
          "duration": 0.9930545624999993
        },
        {
          "name": "E3",
          "midi": 52,
          "time": 45.99995399999997,
          "velocity": 0.7480314960629921,
          "duration": 0.9930545624999993
        },
        {
          "name": "G4",
          "midi": 67,
          "time": 45.99995399999997,
          "velocity": 0.6771653543307087,
          "duration": 0.9930545624999993
        },
        {
          "name": "E3",
          "midi": 52,
          "time": 46.99995299999997,
          "velocity": 0.7480314960629921,
          "duration": 0.21527756249999896
        },
        {
          "name": "G4",
          "midi": 67,
          "time": 46.99995299999997,
          "velocity": 0.6771653543307087,
          "duration": 0.21527756249999896
        },
        {
          "name": "B3",
          "midi": 59,
          "time": 46.99995299999997,
          "velocity": 0.7086614173228346,
          "duration": 0.21527756249999896
        },
        {
          "name": "E4",
          "midi": 64,
          "time": 46.99995299999997,
          "velocity": 0.6929133858267716,
          "duration": 0.21527756249999896
        },
        {
          "name": "B3",
          "midi": 59,
          "time": 47.333285999999966,
          "velocity": 0.7086614173228346,
          "duration": 0.21527756249999896
        },
        {
          "name": "G4",
          "midi": 67,
          "time": 47.333285999999966,
          "velocity": 0.6771653543307087,
          "duration": 0.21527756249999896
        },
        {
          "name": "E4",
          "midi": 64,
          "time": 47.333285999999966,
          "velocity": 0.6929133858267716,
          "duration": 0.21527756249999896
        },
        {
          "name": "E3",
          "midi": 52,
          "time": 47.333285999999966,
          "velocity": 0.7480314960629921,
          "duration": 0.21527756249999896
        },
        {
          "name": "E3",
          "midi": 52,
          "time": 47.66661899999996,
          "velocity": 0.7480314960629921,
          "duration": 0.21527756249999896
        },
        {
          "name": "B3",
          "midi": 59,
          "time": 47.66661899999996,
          "velocity": 0.7086614173228346,
          "duration": 0.21527756249999896
        },
        {
          "name": "E4",
          "midi": 64,
          "time": 47.66661899999996,
          "velocity": 0.6929133858267716,
          "duration": 0.21527756249999896
        },
        {
          "name": "G4",
          "midi": 67,
          "time": 47.66661899999996,
          "velocity": 0.6771653543307087,
          "duration": 0.21527756249999896
        },
        {
          "name": "A3",
          "midi": 57,
          "time": 47.99995199999996,
          "velocity": 0.7086614173228346,
          "duration": 0.9930545624999993
        },
        {
          "name": "C#4",
          "midi": 61,
          "time": 47.99995199999996,
          "velocity": 0.6929133858267716,
          "duration": 0.9930545624999993
        },
        {
          "name": "F#4",
          "midi": 66,
          "time": 47.99995199999996,
          "velocity": 0.6771653543307087,
          "duration": 0.9930545624999993
        },
        {
          "name": "E3",
          "midi": 52,
          "time": 47.99995199999996,
          "velocity": 0.7480314960629921,
          "duration": 0.9930545624999993
        },
        {
          "name": "E3",
          "midi": 52,
          "time": 48.99995099999996,
          "velocity": 0.7480314960629921,
          "duration": 0.21527756249999896
        },
        {
          "name": "A3",
          "midi": 57,
          "time": 48.99995099999996,
          "velocity": 0.7086614173228346,
          "duration": 0.21527756249999896
        },
        {
          "name": "C#4",
          "midi": 61,
          "time": 48.99995099999996,
          "velocity": 0.6929133858267716,
          "duration": 0.21527756249999896
        },
        {
          "name": "F#4",
          "midi": 66,
          "time": 48.99995099999996,
          "velocity": 0.6771653543307087,
          "duration": 0.21527756249999896
        },
        {
          "name": "F#4",
          "midi": 66,
          "time": 49.333283999999956,
          "velocity": 0.6771653543307087,
          "duration": 0.21527756249999896
        },
        {
          "name": "E3",
          "midi": 52,
          "time": 49.333283999999956,
          "velocity": 0.7480314960629921,
          "duration": 0.21527756249999896
        },
        {
          "name": "C#4",
          "midi": 61,
          "time": 49.333283999999956,
          "velocity": 0.6929133858267716,
          "duration": 0.21527756249999896
        },
        {
          "name": "A3",
          "midi": 57,
          "time": 49.333283999999956,
          "velocity": 0.7086614173228346,
          "duration": 0.21527756249999896
        },
        {
          "name": "E3",
          "midi": 52,
          "time": 49.66661699999995,
          "velocity": 0.7480314960629921,
          "duration": 0.21527756249999896
        },
        {
          "name": "F#4",
          "midi": 66,
          "time": 49.66661699999995,
          "velocity": 0.6771653543307087,
          "duration": 0.21527756249999896
        },
        {
          "name": "A3",
          "midi": 57,
          "time": 49.66661699999995,
          "velocity": 0.7086614173228346,
          "duration": 0.21527756249999896
        },
        {
          "name": "C#4",
          "midi": 61,
          "time": 49.66661699999995,
          "velocity": 0.6929133858267716,
          "duration": 0.21527756249999896
        },
        {
          "name": "F#3",
          "midi": 54,
          "time": 49.99994999999995,
          "velocity": 0.7480314960629921,
          "duration": 0.9930545624999993
        },
        {
          "name": "F#4",
          "midi": 66,
          "time": 49.99994999999995,
          "velocity": 0.6771653543307087,
          "duration": 0.9930545624999993
        },
        {
          "name": "A3",
          "midi": 57,
          "time": 49.99994999999995,
          "velocity": 0.7086614173228346,
          "duration": 0.9930545624999993
        },
        {
          "name": "D#4",
          "midi": 63,
          "time": 49.99994999999995,
          "velocity": 0.6929133858267716,
          "duration": 0.9930545624999993
        },
        {
          "name": "A3",
          "midi": 57,
          "time": 50.99994899999995,
          "velocity": 0.7086614173228346,
          "duration": 0.21527756249999896
        },
        {
          "name": "F#3",
          "midi": 54,
          "time": 50.99994899999995,
          "velocity": 0.7480314960629921,
          "duration": 0.21527756249999896
        },
        {
          "name": "F#4",
          "midi": 66,
          "time": 50.99994899999995,
          "velocity": 0.6771653543307087,
          "duration": 0.21527756249999896
        },
        {
          "name": "D#4",
          "midi": 63,
          "time": 50.99994899999995,
          "velocity": 0.6929133858267716,
          "duration": 0.21527756249999896
        },
        {
          "name": "A3",
          "midi": 57,
          "time": 51.33328199999995,
          "velocity": 0.7086614173228346,
          "duration": 0.21527756249999896
        },
        {
          "name": "D#4",
          "midi": 63,
          "time": 51.33328199999995,
          "velocity": 0.6929133858267716,
          "duration": 0.21527756249999896
        },
        {
          "name": "F#4",
          "midi": 66,
          "time": 51.33328199999995,
          "velocity": 0.6771653543307087,
          "duration": 0.21527756249999896
        },
        {
          "name": "F#3",
          "midi": 54,
          "time": 51.33328199999995,
          "velocity": 0.7480314960629921,
          "duration": 0.21527756249999896
        },
        {
          "name": "F#4",
          "midi": 66,
          "time": 51.66661499999994,
          "velocity": 0.6771653543307087,
          "duration": 0.21527756249999896
        },
        {
          "name": "D#4",
          "midi": 63,
          "time": 51.66661499999994,
          "velocity": 0.6929133858267716,
          "duration": 0.21527756249999896
        },
        {
          "name": "A3",
          "midi": 57,
          "time": 51.66661499999994,
          "velocity": 0.7086614173228346,
          "duration": 0.21527756249999896
        },
        {
          "name": "F#3",
          "midi": 54,
          "time": 51.66661499999994,
          "velocity": 0.7480314960629921,
          "duration": 0.21527756249999896
        },
        {
          "name": "E3",
          "midi": 52,
          "time": 51.99994799999994,
          "velocity": 0.7480314960629921,
          "duration": 0.9930545625000065
        },
        {
          "name": "B4",
          "midi": 71,
          "time": 52.33328099999994,
          "velocity": 0.6771653543307087,
          "duration": 0.32638856250000003
        },
        {
          "name": "B3",
          "midi": 59,
          "time": 52.33328099999994,
          "velocity": 0.7086614173228346,
          "duration": 0.32638856250000003
        },
        {
          "name": "E4",
          "midi": 64,
          "time": 52.33328099999994,
          "velocity": 0.6929133858267716,
          "duration": 0.32638856250000003
        },
        {
          "name": "E4",
          "midi": 64,
          "time": 52.666613999999946,
          "velocity": 0.6929133858267716,
          "duration": 0.6597215625000032
        },
        {
          "name": "B3",
          "midi": 59,
          "time": 52.666613999999946,
          "velocity": 0.7086614173228346,
          "duration": 0.6597215625000032
        },
        {
          "name": "B4",
          "midi": 71,
          "time": 52.666613999999946,
          "velocity": 0.6771653543307087,
          "duration": 0.6597215625000032
        },
        {
          "name": "E3",
          "midi": 52,
          "time": 52.99994699999995,
          "velocity": 0.7480314960629921,
          "duration": 0.9930545625000065
        },
        {
          "name": "B3",
          "midi": 59,
          "time": 53.33327999999995,
          "velocity": 0.7086614173228346,
          "duration": 0.32638856250000003
        },
        {
          "name": "E4",
          "midi": 64,
          "time": 53.33327999999995,
          "velocity": 0.6929133858267716,
          "duration": 0.32638856250000003
        },
        {
          "name": "B4",
          "midi": 71,
          "time": 53.33327999999995,
          "velocity": 0.6771653543307087,
          "duration": 0.32638856250000003
        },
        {
          "name": "B3",
          "midi": 59,
          "time": 53.666612999999955,
          "velocity": 0.7086614173228346,
          "duration": 0.6597215625000032
        },
        {
          "name": "E4",
          "midi": 64,
          "time": 53.666612999999955,
          "velocity": 0.6929133858267716,
          "duration": 0.6597215625000032
        },
        {
          "name": "B4",
          "midi": 71,
          "time": 53.666612999999955,
          "velocity": 0.6771653543307087,
          "duration": 0.6597215625000032
        },
        {
          "name": "E3",
          "midi": 52,
          "time": 53.99994599999996,
          "velocity": 0.7480314960629921,
          "duration": 0.9930545625000065
        },
        {
          "name": "B3",
          "midi": 59,
          "time": 54.33327899999996,
          "velocity": 0.7086614173228346,
          "duration": 0.32638856250000003
        },
        {
          "name": "E4",
          "midi": 64,
          "time": 54.33327899999996,
          "velocity": 0.6929133858267716,
          "duration": 0.32638856250000003
        },
        {
          "name": "B4",
          "midi": 71,
          "time": 54.33327899999996,
          "velocity": 0.6771653543307087,
          "duration": 0.32638856250000003
        },
        {
          "name": "B3",
          "midi": 59,
          "time": 54.666611999999965,
          "velocity": 0.7086614173228346,
          "duration": 0.6597215625000032
        },
        {
          "name": "E4",
          "midi": 64,
          "time": 54.666611999999965,
          "velocity": 0.6929133858267716,
          "duration": 0.6597215625000032
        },
        {
          "name": "B4",
          "midi": 71,
          "time": 54.666611999999965,
          "velocity": 0.6771653543307087,
          "duration": 0.6597215625000032
        },
        {
          "name": "E3",
          "midi": 52,
          "time": 54.99994499999997,
          "velocity": 0.7480314960629921,
          "duration": 0.9930545625000065
        },
        {
          "name": "B4",
          "midi": 71,
          "time": 55.33327799999997,
          "velocity": 0.6771653543307087,
          "duration": 0.32638856250000003
        },
        {
          "name": "B3",
          "midi": 59,
          "time": 55.33327799999997,
          "velocity": 0.7086614173228346,
          "duration": 0.32638856250000003
        },
        {
          "name": "E4",
          "midi": 64,
          "time": 55.33327799999997,
          "velocity": 0.6929133858267716,
          "duration": 0.32638856250000003
        },
        {
          "name": "B3",
          "midi": 59,
          "time": 55.666610999999975,
          "velocity": 0.7086614173228346,
          "duration": 0.6597215625000032
        },
        {
          "name": "B4",
          "midi": 71,
          "time": 55.666610999999975,
          "velocity": 0.6771653543307087,
          "duration": 0.6597215625000032
        },
        {
          "name": "E4",
          "midi": 64,
          "time": 55.666610999999975,
          "velocity": 0.6929133858267716,
          "duration": 0.6597215625000032
        },
        {
          "name": "E3",
          "midi": 52,
          "time": 55.99994399999998,
          "velocity": 0.7480314960629921,
          "duration": 0.9930545625000065
        },
        {
          "name": "B3",
          "midi": 59,
          "time": 56.33327699999998,
          "velocity": 0.7086614173228346,
          "duration": 0.32638856250000003
        },
        {
          "name": "B4",
          "midi": 71,
          "time": 56.33327699999998,
          "velocity": 0.6771653543307087,
          "duration": 0.32638856250000003
        },
        {
          "name": "E4",
          "midi": 64,
          "time": 56.33327699999998,
          "velocity": 0.6929133858267716,
          "duration": 0.32638856250000003
        },
        {
          "name": "B3",
          "midi": 59,
          "time": 56.666609999999984,
          "velocity": 0.7086614173228346,
          "duration": 0.6597215625000032
        },
        {
          "name": "B4",
          "midi": 71,
          "time": 56.666609999999984,
          "velocity": 0.6771653543307087,
          "duration": 0.6597215625000032
        },
        {
          "name": "E4",
          "midi": 64,
          "time": 56.666609999999984,
          "velocity": 0.6929133858267716,
          "duration": 0.6597215625000032
        },
        {
          "name": "E3",
          "midi": 52,
          "time": 56.99994299999999,
          "velocity": 0.7480314960629921,
          "duration": 0.9930545625000065
        },
        {
          "name": "E4",
          "midi": 64,
          "time": 57.33327599999999,
          "velocity": 0.6929133858267716,
          "duration": 0.32638856250000003
        },
        {
          "name": "B4",
          "midi": 71,
          "time": 57.33327599999999,
          "velocity": 0.6771653543307087,
          "duration": 0.32638856250000003
        },
        {
          "name": "B3",
          "midi": 59,
          "time": 57.33327599999999,
          "velocity": 0.7086614173228346,
          "duration": 0.32638856250000003
        },
        {
          "name": "E4",
          "midi": 64,
          "time": 57.666608999999994,
          "velocity": 0.6929133858267716,
          "duration": 0.6597215625000032
        },
        {
          "name": "B3",
          "midi": 59,
          "time": 57.666608999999994,
          "velocity": 0.7086614173228346,
          "duration": 0.6597215625000032
        },
        {
          "name": "B4",
          "midi": 71,
          "time": 57.666608999999994,
          "velocity": 0.6771653543307087,
          "duration": 0.6597215625000032
        },
        {
          "name": "E3",
          "midi": 52,
          "time": 57.999942,
          "velocity": 0.7480314960629921,
          "duration": 0.9930545625000065
        },
        {
          "name": "B4",
          "midi": 71,
          "time": 58.333275,
          "velocity": 0.6771653543307087,
          "duration": 0.32638856250000003
        },
        {
          "name": "E4",
          "midi": 64,
          "time": 58.333275,
          "velocity": 0.6929133858267716,
          "duration": 0.32638856250000003
        },
        {
          "name": "B3",
          "midi": 59,
          "time": 58.333275,
          "velocity": 0.7086614173228346,
          "duration": 0.32638856250000003
        },
        {
          "name": "E4",
          "midi": 64,
          "time": 58.666608000000004,
          "velocity": 0.6929133858267716,
          "duration": 0.6597215625000032
        },
        {
          "name": "B3",
          "midi": 59,
          "time": 58.666608000000004,
          "velocity": 0.7086614173228346,
          "duration": 0.6597215625000032
        },
        {
          "name": "B4",
          "midi": 71,
          "time": 58.666608000000004,
          "velocity": 0.6771653543307087,
          "duration": 0.6597215625000032
        },
        {
          "name": "E3",
          "midi": 52,
          "time": 58.99994100000001,
          "velocity": 0.7480314960629921,
          "duration": 0.9930545625000065
        },
        {
          "name": "B4",
          "midi": 71,
          "time": 59.33327400000001,
          "velocity": 0.6771653543307087,
          "duration": 0.32638856250000003
        },
        {
          "name": "B3",
          "midi": 59,
          "time": 59.33327400000001,
          "velocity": 0.7086614173228346,
          "duration": 0.32638856250000003
        },
        {
          "name": "E4",
          "midi": 64,
          "time": 59.33327400000001,
          "velocity": 0.6929133858267716,
          "duration": 0.32638856250000003
        },
        {
          "name": "E4",
          "midi": 64,
          "time": 59.66660700000001,
          "velocity": 0.6929133858267716,
          "duration": 0.6597215625000032
        },
        {
          "name": "B3",
          "midi": 59,
          "time": 59.66660700000001,
          "velocity": 0.7086614173228346,
          "duration": 0.6597215625000032
        },
        {
          "name": "B4",
          "midi": 71,
          "time": 59.66660700000001,
          "velocity": 0.6771653543307087,
          "duration": 0.6597215625000032
        },
        {
          "name": "E3",
          "midi": 52,
          "time": 59.99994000000002,
          "velocity": 0.7480314960629921,
          "duration": 0.9930545625000065
        },
        {
          "name": "B3",
          "midi": 59,
          "time": 60.33327300000002,
          "velocity": 0.7086614173228346,
          "duration": 0.32638856250000003
        },
        {
          "name": "E4",
          "midi": 64,
          "time": 60.33327300000002,
          "velocity": 0.6929133858267716,
          "duration": 0.32638856250000003
        },
        {
          "name": "B4",
          "midi": 71,
          "time": 60.33327300000002,
          "velocity": 0.6771653543307087,
          "duration": 0.32638856250000003
        },
        {
          "name": "E4",
          "midi": 64,
          "time": 60.66660600000002,
          "velocity": 0.6929133858267716,
          "duration": 0.6597215625000032
        },
        {
          "name": "B4",
          "midi": 71,
          "time": 60.66660600000002,
          "velocity": 0.6771653543307087,
          "duration": 0.6597215625000032
        },
        {
          "name": "B3",
          "midi": 59,
          "time": 60.66660600000002,
          "velocity": 0.7086614173228346,
          "duration": 0.6597215625000032
        },
        {
          "name": "E3",
          "midi": 52,
          "time": 60.999939000000026,
          "velocity": 0.7480314960629921,
          "duration": 0.9930545625000065
        },
        {
          "name": "B3",
          "midi": 59,
          "time": 61.33327200000003,
          "velocity": 0.7086614173228346,
          "duration": 0.32638856250000003
        },
        {
          "name": "E4",
          "midi": 64,
          "time": 61.33327200000003,
          "velocity": 0.6929133858267716,
          "duration": 0.32638856250000003
        },
        {
          "name": "B4",
          "midi": 71,
          "time": 61.33327200000003,
          "velocity": 0.6771653543307087,
          "duration": 0.32638856250000003
        },
        {
          "name": "B4",
          "midi": 71,
          "time": 61.66660500000003,
          "velocity": 0.6771653543307087,
          "duration": 0.6597215625000032
        },
        {
          "name": "E4",
          "midi": 64,
          "time": 61.66660500000003,
          "velocity": 0.6929133858267716,
          "duration": 0.6597215625000032
        },
        {
          "name": "B3",
          "midi": 59,
          "time": 61.66660500000003,
          "velocity": 0.7086614173228346,
          "duration": 0.6597215625000032
        },
        {
          "name": "E3",
          "midi": 52,
          "time": 61.999938000000036,
          "velocity": 0.7480314960629921,
          "duration": 0.9930545625000065
        },
        {
          "name": "B4",
          "midi": 71,
          "time": 62.33327100000004,
          "velocity": 0.6771653543307087,
          "duration": 0.32638856250000003
        },
        {
          "name": "B3",
          "midi": 59,
          "time": 62.33327100000004,
          "velocity": 0.7086614173228346,
          "duration": 0.32638856250000003
        },
        {
          "name": "E4",
          "midi": 64,
          "time": 62.33327100000004,
          "velocity": 0.6929133858267716,
          "duration": 0.32638856250000003
        },
        {
          "name": "B3",
          "midi": 59,
          "time": 62.66660400000004,
          "velocity": 0.7086614173228346,
          "duration": 0.6597215625000032
        },
        {
          "name": "E4",
          "midi": 64,
          "time": 62.66660400000004,
          "velocity": 0.6929133858267716,
          "duration": 0.6597215625000032
        },
        {
          "name": "B4",
          "midi": 71,
          "time": 62.66660400000004,
          "velocity": 0.6771653543307087,
          "duration": 0.6597215625000032
        },
        {
          "name": "E3",
          "midi": 52,
          "time": 62.999937000000045,
          "velocity": 0.7480314960629921,
          "duration": 0.9930545625000065
        },
        {
          "name": "E4",
          "midi": 64,
          "time": 63.33327000000005,
          "velocity": 0.6929133858267716,
          "duration": 0.32638856250000003
        },
        {
          "name": "B3",
          "midi": 59,
          "time": 63.33327000000005,
          "velocity": 0.7086614173228346,
          "duration": 0.32638856250000003
        },
        {
          "name": "B4",
          "midi": 71,
          "time": 63.33327000000005,
          "velocity": 0.6771653543307087,
          "duration": 0.32638856250000003
        },
        {
          "name": "B4",
          "midi": 71,
          "time": 63.66660300000005,
          "velocity": 0.6771653543307087,
          "duration": 0.6597215624999961
        },
        {
          "name": "E4",
          "midi": 64,
          "time": 63.66660300000005,
          "velocity": 0.6929133858267716,
          "duration": 0.6597215624999961
        },
        {
          "name": "B3",
          "midi": 59,
          "time": 63.66660300000005,
          "velocity": 0.7086614173228346,
          "duration": 0.6597215624999961
        },
        {
          "name": "E3",
          "midi": 52,
          "time": 63.999936000000055,
          "velocity": 0.7480314960629921,
          "duration": 0.9930545624999851
        },
        {
          "name": "E4",
          "midi": 64,
          "time": 64.33326900000004,
          "velocity": 0.6929133858267716,
          "duration": 0.32638856250000003
        },
        {
          "name": "B4",
          "midi": 71,
          "time": 64.33326900000004,
          "velocity": 0.6771653543307087,
          "duration": 0.32638856250000003
        },
        {
          "name": "B3",
          "midi": 59,
          "time": 64.33326900000004,
          "velocity": 0.7086614173228346,
          "duration": 0.32638856250000003
        },
        {
          "name": "B3",
          "midi": 59,
          "time": 64.66660200000004,
          "velocity": 0.7086614173228346,
          "duration": 0.6597215624999961
        },
        {
          "name": "E4",
          "midi": 64,
          "time": 64.66660200000004,
          "velocity": 0.6929133858267716,
          "duration": 0.6597215624999961
        },
        {
          "name": "B4",
          "midi": 71,
          "time": 64.66660200000004,
          "velocity": 0.6771653543307087,
          "duration": 0.6597215624999961
        },
        {
          "name": "E3",
          "midi": 52,
          "time": 64.99993500000004,
          "velocity": 0.7480314960629921,
          "duration": 0.9930545624999922
        },
        {
          "name": "E4",
          "midi": 64,
          "time": 65.33326800000003,
          "velocity": 0.6929133858267716,
          "duration": 0.32638856250000003
        },
        {
          "name": "B4",
          "midi": 71,
          "time": 65.33326800000003,
          "velocity": 0.6771653543307087,
          "duration": 0.32638856250000003
        },
        {
          "name": "B3",
          "midi": 59,
          "time": 65.33326800000003,
          "velocity": 0.7086614173228346,
          "duration": 0.32638856250000003
        },
        {
          "name": "B3",
          "midi": 59,
          "time": 65.66660100000003,
          "velocity": 0.7086614173228346,
          "duration": 0.6597215624999961
        },
        {
          "name": "E4",
          "midi": 64,
          "time": 65.66660100000003,
          "velocity": 0.6929133858267716,
          "duration": 0.6597215624999961
        },
        {
          "name": "B4",
          "midi": 71,
          "time": 65.66660100000003,
          "velocity": 0.6771653543307087,
          "duration": 0.6597215624999961
        },
        {
          "name": "E3",
          "midi": 52,
          "time": 65.99993400000002,
          "velocity": 0.7480314960629921,
          "duration": 0.9930545624999922
        },
        {
          "name": "B3",
          "midi": 59,
          "time": 66.33326700000002,
          "velocity": 0.7086614173228346,
          "duration": 0.32638856250000003
        },
        {
          "name": "B4",
          "midi": 71,
          "time": 66.33326700000002,
          "velocity": 0.6771653543307087,
          "duration": 0.32638856250000003
        },
        {
          "name": "E4",
          "midi": 64,
          "time": 66.33326700000002,
          "velocity": 0.6929133858267716,
          "duration": 0.32638856250000003
        },
        {
          "name": "B3",
          "midi": 59,
          "time": 66.66660000000002,
          "velocity": 0.7086614173228346,
          "duration": 0.6597215624999961
        },
        {
          "name": "E4",
          "midi": 64,
          "time": 66.66660000000002,
          "velocity": 0.6929133858267716,
          "duration": 0.6597215624999961
        },
        {
          "name": "B4",
          "midi": 71,
          "time": 66.66660000000002,
          "velocity": 0.6771653543307087,
          "duration": 0.6597215624999961
        },
        {
          "name": "E3",
          "midi": 52,
          "time": 66.99993300000001,
          "velocity": 0.7480314960629921,
          "duration": 0.9930545624999922
        },
        {
          "name": "B3",
          "midi": 59,
          "time": 67.33326600000001,
          "velocity": 0.7086614173228346,
          "duration": 0.32638856250000003
        },
        {
          "name": "B4",
          "midi": 71,
          "time": 67.33326600000001,
          "velocity": 0.6771653543307087,
          "duration": 0.32638856250000003
        },
        {
          "name": "E4",
          "midi": 64,
          "time": 67.33326600000001,
          "velocity": 0.6929133858267716,
          "duration": 0.32638856250000003
        },
        {
          "name": "B3",
          "midi": 59,
          "time": 67.666599,
          "velocity": 0.7086614173228346,
          "duration": 0.6597215624999961
        },
        {
          "name": "B4",
          "midi": 71,
          "time": 67.666599,
          "velocity": 0.6771653543307087,
          "duration": 0.6597215624999961
        },
        {
          "name": "E4",
          "midi": 64,
          "time": 67.666599,
          "velocity": 0.6929133858267716,
          "duration": 0.6597215624999961
        },
        {
          "name": "E3",
          "midi": 52,
          "time": 67.999932,
          "velocity": 0.7480314960629921,
          "duration": 0.9930545624999922
        },
        {
          "name": "B3",
          "midi": 59,
          "time": 68.333265,
          "velocity": 0.7086614173228346,
          "duration": 0.32638856250000003
        },
        {
          "name": "E4",
          "midi": 64,
          "time": 68.333265,
          "velocity": 0.6929133858267716,
          "duration": 0.32638856250000003
        },
        {
          "name": "B4",
          "midi": 71,
          "time": 68.333265,
          "velocity": 0.6771653543307087,
          "duration": 0.32638856250000003
        },
        {
          "name": "B4",
          "midi": 71,
          "time": 68.666598,
          "velocity": 0.6771653543307087,
          "duration": 0.6597215624999961
        },
        {
          "name": "B3",
          "midi": 59,
          "time": 68.666598,
          "velocity": 0.7086614173228346,
          "duration": 0.6597215624999961
        },
        {
          "name": "E4",
          "midi": 64,
          "time": 68.666598,
          "velocity": 0.6929133858267716,
          "duration": 0.6597215624999961
        },
        {
          "name": "E3",
          "midi": 52,
          "time": 68.99993099999999,
          "velocity": 0.7480314960629921,
          "duration": 0.9930545624999922
        },
        {
          "name": "B3",
          "midi": 59,
          "time": 69.33326399999999,
          "velocity": 0.7086614173228346,
          "duration": 0.32638856250000003
        },
        {
          "name": "E4",
          "midi": 64,
          "time": 69.33326399999999,
          "velocity": 0.6929133858267716,
          "duration": 0.32638856250000003
        },
        {
          "name": "B4",
          "midi": 71,
          "time": 69.33326399999999,
          "velocity": 0.6771653543307087,
          "duration": 0.32638856250000003
        },
        {
          "name": "B4",
          "midi": 71,
          "time": 69.66659699999998,
          "velocity": 0.6771653543307087,
          "duration": 0.6597215624999961
        },
        {
          "name": "B3",
          "midi": 59,
          "time": 69.66659699999998,
          "velocity": 0.7086614173228346,
          "duration": 0.6597215624999961
        },
        {
          "name": "E4",
          "midi": 64,
          "time": 69.66659699999998,
          "velocity": 0.6929133858267716,
          "duration": 0.6597215624999961
        },
        {
          "name": "E3",
          "midi": 52,
          "time": 69.99992999999998,
          "velocity": 0.7480314960629921,
          "duration": 0.9930545624999922
        },
        {
          "name": "E4",
          "midi": 64,
          "time": 70.33326299999997,
          "velocity": 0.6929133858267716,
          "duration": 0.32638856250000003
        },
        {
          "name": "B3",
          "midi": 59,
          "time": 70.33326299999997,
          "velocity": 0.7086614173228346,
          "duration": 0.32638856250000003
        },
        {
          "name": "B4",
          "midi": 71,
          "time": 70.33326299999997,
          "velocity": 0.6771653543307087,
          "duration": 0.32638856250000003
        },
        {
          "name": "B4",
          "midi": 71,
          "time": 70.66659599999997,
          "velocity": 0.6771653543307087,
          "duration": 0.6597215624999961
        },
        {
          "name": "E4",
          "midi": 64,
          "time": 70.66659599999997,
          "velocity": 0.6929133858267716,
          "duration": 0.6597215624999961
        },
        {
          "name": "B3",
          "midi": 59,
          "time": 70.66659599999997,
          "velocity": 0.7086614173228346,
          "duration": 0.6597215624999961
        },
        {
          "name": "E3",
          "midi": 52,
          "time": 70.99992899999997,
          "velocity": 0.7480314960629921,
          "duration": 0.9930545624999922
        },
        {
          "name": "E4",
          "midi": 64,
          "time": 71.33326199999996,
          "velocity": 0.6929133858267716,
          "duration": 0.32638856250000003
        },
        {
          "name": "B4",
          "midi": 71,
          "time": 71.33326199999996,
          "velocity": 0.6771653543307087,
          "duration": 0.32638856250000003
        },
        {
          "name": "B3",
          "midi": 59,
          "time": 71.33326199999996,
          "velocity": 0.7086614173228346,
          "duration": 0.32638856250000003
        },
        {
          "name": "E4",
          "midi": 64,
          "time": 71.66659499999996,
          "velocity": 0.6929133858267716,
          "duration": 0.6597215624999961
        },
        {
          "name": "B3",
          "midi": 59,
          "time": 71.66659499999996,
          "velocity": 0.7086614173228346,
          "duration": 0.6597215624999961
        },
        {
          "name": "B4",
          "midi": 71,
          "time": 71.66659499999996,
          "velocity": 0.6771653543307087,
          "duration": 0.6597215624999961
        },
        {
          "name": "E3",
          "midi": 52,
          "time": 71.99992799999995,
          "velocity": 0.7480314960629921,
          "duration": 0.9930545624999922
        },
        {
          "name": "B4",
          "midi": 71,
          "time": 72.33326099999995,
          "velocity": 0.6771653543307087,
          "duration": 0.32638856250000003
        },
        {
          "name": "E4",
          "midi": 64,
          "time": 72.33326099999995,
          "velocity": 0.6929133858267716,
          "duration": 0.32638856250000003
        },
        {
          "name": "B3",
          "midi": 59,
          "time": 72.33326099999995,
          "velocity": 0.7086614173228346,
          "duration": 0.32638856250000003
        },
        {
          "name": "B3",
          "midi": 59,
          "time": 72.66659399999995,
          "velocity": 0.7086614173228346,
          "duration": 0.6597215624999961
        },
        {
          "name": "E4",
          "midi": 64,
          "time": 72.66659399999995,
          "velocity": 0.6929133858267716,
          "duration": 0.6597215624999961
        },
        {
          "name": "B4",
          "midi": 71,
          "time": 72.66659399999995,
          "velocity": 0.6771653543307087,
          "duration": 0.6597215624999961
        },
        {
          "name": "E3",
          "midi": 52,
          "time": 72.99992699999994,
          "velocity": 0.7480314960629921,
          "duration": 0.9930545624999922
        },
        {
          "name": "E4",
          "midi": 64,
          "time": 73.33325999999994,
          "velocity": 0.6929133858267716,
          "duration": 0.32638856250000003
        },
        {
          "name": "B4",
          "midi": 71,
          "time": 73.33325999999994,
          "velocity": 0.6771653543307087,
          "duration": 0.32638856250000003
        },
        {
          "name": "B3",
          "midi": 59,
          "time": 73.33325999999994,
          "velocity": 0.7086614173228346,
          "duration": 0.32638856250000003
        },
        {
          "name": "B3",
          "midi": 59,
          "time": 73.66659299999993,
          "velocity": 0.7086614173228346,
          "duration": 0.6597215624999961
        },
        {
          "name": "E4",
          "midi": 64,
          "time": 73.66659299999993,
          "velocity": 0.6929133858267716,
          "duration": 0.6597215624999961
        },
        {
          "name": "B4",
          "midi": 71,
          "time": 73.66659299999993,
          "velocity": 0.6771653543307087,
          "duration": 0.6597215624999961
        },
        {
          "name": "E3",
          "midi": 52,
          "time": 73.99992599999993,
          "velocity": 0.7480314960629921,
          "duration": 0.9930545624999922
        },
        {
          "name": "B4",
          "midi": 71,
          "time": 74.33325899999993,
          "velocity": 0.6771653543307087,
          "duration": 0.32638856250000003
        },
        {
          "name": "B3",
          "midi": 59,
          "time": 74.33325899999993,
          "velocity": 0.7086614173228346,
          "duration": 0.32638856250000003
        },
        {
          "name": "E4",
          "midi": 64,
          "time": 74.33325899999993,
          "velocity": 0.6929133858267716,
          "duration": 0.32638856250000003
        },
        {
          "name": "E4",
          "midi": 64,
          "time": 74.66659199999992,
          "velocity": 0.6929133858267716,
          "duration": 0.6597215624999961
        },
        {
          "name": "B3",
          "midi": 59,
          "time": 74.66659199999992,
          "velocity": 0.7086614173228346,
          "duration": 0.6597215624999961
        },
        {
          "name": "B4",
          "midi": 71,
          "time": 74.66659199999992,
          "velocity": 0.6771653543307087,
          "duration": 0.6597215624999961
        },
        {
          "name": "E3",
          "midi": 52,
          "time": 74.99992499999992,
          "velocity": 0.7480314960629921,
          "duration": 0.9930545624999922
        },
        {
          "name": "B3",
          "midi": 59,
          "time": 75.33325799999992,
          "velocity": 0.7086614173228346,
          "duration": 0.32638856250000003
        },
        {
          "name": "E4",
          "midi": 64,
          "time": 75.33325799999992,
          "velocity": 0.6929133858267716,
          "duration": 0.32638856250000003
        },
        {
          "name": "B4",
          "midi": 71,
          "time": 75.33325799999992,
          "velocity": 0.6771653543307087,
          "duration": 0.32638856250000003
        },
        {
          "name": "B3",
          "midi": 59,
          "time": 75.66659099999991,
          "velocity": 0.7086614173228346,
          "duration": 0.6597215624999961
        },
        {
          "name": "B4",
          "midi": 71,
          "time": 75.66659099999991,
          "velocity": 0.6771653543307087,
          "duration": 0.6597215624999961
        },
        {
          "name": "E4",
          "midi": 64,
          "time": 75.66659099999991,
          "velocity": 0.6929133858267716,
          "duration": 0.6597215624999961
        },
        {
          "name": "E3",
          "midi": 52,
          "time": 75.99992399999991,
          "velocity": 0.7480314960629921,
          "duration": 0.9930545624999922
        },
        {
          "name": "E4",
          "midi": 64,
          "time": 76.3332569999999,
          "velocity": 0.6929133858267716,
          "duration": 0.32638856250000003
        },
        {
          "name": "B4",
          "midi": 71,
          "time": 76.3332569999999,
          "velocity": 0.6771653543307087,
          "duration": 0.32638856250000003
        },
        {
          "name": "B3",
          "midi": 59,
          "time": 76.3332569999999,
          "velocity": 0.7086614173228346,
          "duration": 0.32638856250000003
        },
        {
          "name": "B3",
          "midi": 59,
          "time": 76.6665899999999,
          "velocity": 0.7086614173228346,
          "duration": 0.6597215624999961
        },
        {
          "name": "B4",
          "midi": 71,
          "time": 76.6665899999999,
          "velocity": 0.6771653543307087,
          "duration": 0.6597215624999961
        },
        {
          "name": "E4",
          "midi": 64,
          "time": 76.6665899999999,
          "velocity": 0.6929133858267716,
          "duration": 0.6597215624999961
        },
        {
          "name": "E3",
          "midi": 52,
          "time": 76.9999229999999,
          "velocity": 0.7480314960629921,
          "duration": 0.9930545624999922
        },
        {
          "name": "E4",
          "midi": 64,
          "time": 77.33325599999989,
          "velocity": 0.6929133858267716,
          "duration": 0.32638856250000003
        },
        {
          "name": "B3",
          "midi": 59,
          "time": 77.33325599999989,
          "velocity": 0.7086614173228346,
          "duration": 0.32638856250000003
        },
        {
          "name": "B4",
          "midi": 71,
          "time": 77.33325599999989,
          "velocity": 0.6771653543307087,
          "duration": 0.32638856250000003
        },
        {
          "name": "B4",
          "midi": 71,
          "time": 77.66658899999989,
          "velocity": 0.6771653543307087,
          "duration": 0.6597215624999961
        },
        {
          "name": "B3",
          "midi": 59,
          "time": 77.66658899999989,
          "velocity": 0.7086614173228346,
          "duration": 0.6597215624999961
        },
        {
          "name": "E4",
          "midi": 64,
          "time": 77.66658899999989,
          "velocity": 0.6929133858267716,
          "duration": 0.6597215624999961
        },
        {
          "name": "E3",
          "midi": 52,
          "time": 77.99992199999988,
          "velocity": 0.7480314960629921,
          "duration": 0.9930545624999922
        },
        {
          "name": "E4",
          "midi": 64,
          "time": 78.33325499999988,
          "velocity": 0.6929133858267716,
          "duration": 0.32638856250000003
        },
        {
          "name": "B3",
          "midi": 59,
          "time": 78.33325499999988,
          "velocity": 0.7086614173228346,
          "duration": 0.32638856250000003
        },
        {
          "name": "B4",
          "midi": 71,
          "time": 78.33325499999988,
          "velocity": 0.6771653543307087,
          "duration": 0.32638856250000003
        },
        {
          "name": "B4",
          "midi": 71,
          "time": 78.66658799999988,
          "velocity": 0.6771653543307087,
          "duration": 0.6597215624999961
        },
        {
          "name": "B3",
          "midi": 59,
          "time": 78.66658799999988,
          "velocity": 0.7086614173228346,
          "duration": 0.6597215624999961
        },
        {
          "name": "E4",
          "midi": 64,
          "time": 78.66658799999988,
          "velocity": 0.6929133858267716,
          "duration": 0.6597215624999961
        },
        {
          "name": "E3",
          "midi": 52,
          "time": 78.99992099999987,
          "velocity": 0.7480314960629921,
          "duration": 0.9930545624999922
        },
        {
          "name": "E4",
          "midi": 64,
          "time": 79.33325399999987,
          "velocity": 0.6929133858267716,
          "duration": 0.32638856250000003
        },
        {
          "name": "B4",
          "midi": 71,
          "time": 79.33325399999987,
          "velocity": 0.6771653543307087,
          "duration": 0.32638856250000003
        },
        {
          "name": "B3",
          "midi": 59,
          "time": 79.33325399999987,
          "velocity": 0.7086614173228346,
          "duration": 0.32638856250000003
        },
        {
          "name": "B3",
          "midi": 59,
          "time": 79.66658699999986,
          "velocity": 0.7086614173228346,
          "duration": 0.6597215624999961
        },
        {
          "name": "E4",
          "midi": 64,
          "time": 79.66658699999986,
          "velocity": 0.6929133858267716,
          "duration": 0.6597215624999961
        },
        {
          "name": "B4",
          "midi": 71,
          "time": 79.66658699999986,
          "velocity": 0.6771653543307087,
          "duration": 0.6597215624999961
        },
        {
          "name": "E3",
          "midi": 52,
          "time": 79.99991999999986,
          "velocity": 0.7480314960629921,
          "duration": 0.9930545624999922
        },
        {
          "name": "B4",
          "midi": 71,
          "time": 80.33325299999986,
          "velocity": 0.6771653543307087,
          "duration": 0.32638856250000003
        },
        {
          "name": "B3",
          "midi": 59,
          "time": 80.33325299999986,
          "velocity": 0.7086614173228346,
          "duration": 0.32638856250000003
        },
        {
          "name": "E4",
          "midi": 64,
          "time": 80.33325299999986,
          "velocity": 0.6929133858267716,
          "duration": 0.32638856250000003
        },
        {
          "name": "E4",
          "midi": 64,
          "time": 80.66658599999985,
          "velocity": 0.6929133858267716,
          "duration": 0.6597215624999961
        },
        {
          "name": "B3",
          "midi": 59,
          "time": 80.66658599999985,
          "velocity": 0.7086614173228346,
          "duration": 0.6597215624999961
        },
        {
          "name": "B4",
          "midi": 71,
          "time": 80.66658599999985,
          "velocity": 0.6771653543307087,
          "duration": 0.6597215624999961
        },
        {
          "name": "E3",
          "midi": 52,
          "time": 80.99991899999985,
          "velocity": 0.7480314960629921,
          "duration": 0.9930545624999922
        },
        {
          "name": "B3",
          "midi": 59,
          "time": 81.33325199999985,
          "velocity": 0.7086614173228346,
          "duration": 0.32638856250000003
        },
        {
          "name": "E4",
          "midi": 64,
          "time": 81.33325199999985,
          "velocity": 0.6929133858267716,
          "duration": 0.32638856250000003
        },
        {
          "name": "B4",
          "midi": 71,
          "time": 81.33325199999985,
          "velocity": 0.6771653543307087,
          "duration": 0.32638856250000003
        },
        {
          "name": "E4",
          "midi": 64,
          "time": 81.66658499999984,
          "velocity": 0.6929133858267716,
          "duration": 0.6597215624999961
        },
        {
          "name": "B4",
          "midi": 71,
          "time": 81.66658499999984,
          "velocity": 0.6771653543307087,
          "duration": 0.6597215624999961
        },
        {
          "name": "B3",
          "midi": 59,
          "time": 81.66658499999984,
          "velocity": 0.7086614173228346,
          "duration": 0.6597215624999961
        },
        {
          "name": "E3",
          "midi": 52,
          "time": 81.99991799999984,
          "velocity": 0.7480314960629921,
          "duration": 0.9930545624999922
        },
        {
          "name": "B4",
          "midi": 71,
          "time": 82.33325099999983,
          "velocity": 0.6771653543307087,
          "duration": 0.32638856250000003
        },
        {
          "name": "E4",
          "midi": 64,
          "time": 82.33325099999983,
          "velocity": 0.6929133858267716,
          "duration": 0.32638856250000003
        },
        {
          "name": "B3",
          "midi": 59,
          "time": 82.33325099999983,
          "velocity": 0.7086614173228346,
          "duration": 0.32638856250000003
        },
        {
          "name": "B4",
          "midi": 71,
          "time": 82.66658399999983,
          "velocity": 0.6771653543307087,
          "duration": 0.6597215624999961
        },
        {
          "name": "E4",
          "midi": 64,
          "time": 82.66658399999983,
          "velocity": 0.6929133858267716,
          "duration": 0.6597215624999961
        },
        {
          "name": "B3",
          "midi": 59,
          "time": 82.66658399999983,
          "velocity": 0.7086614173228346,
          "duration": 0.6597215624999961
        },
        {
          "name": "E3",
          "midi": 52,
          "time": 82.99991699999983,
          "velocity": 0.7480314960629921,
          "duration": 0.9930545624999922
        },
        {
          "name": "E4",
          "midi": 64,
          "time": 83.33324999999982,
          "velocity": 0.6929133858267716,
          "duration": 0.32638856250000003
        },
        {
          "name": "B4",
          "midi": 71,
          "time": 83.33324999999982,
          "velocity": 0.6771653543307087,
          "duration": 0.32638856250000003
        },
        {
          "name": "B3",
          "midi": 59,
          "time": 83.33324999999982,
          "velocity": 0.7086614173228346,
          "duration": 0.32638856250000003
        },
        {
          "name": "B3",
          "midi": 59,
          "time": 83.66658299999982,
          "velocity": 0.7086614173228346,
          "duration": 0.32638856250000003
        },
        {
          "name": "E4",
          "midi": 64,
          "time": 83.66658299999982,
          "velocity": 0.6929133858267716,
          "duration": 0.32638856250000003
        },
        {
          "name": "B4",
          "midi": 71,
          "time": 83.66658299999982,
          "velocity": 0.6771653543307087,
          "duration": 0.32638856250000003
        },
        {
          "name": "E4",
          "midi": 64,
          "time": 83.99991599999981,
          "velocity": 0.6929133858267716,
          "duration": 0.9930545625000065
        },
        {
          "name": "B3",
          "midi": 59,
          "time": 83.99991599999981,
          "velocity": 0.7086614173228346,
          "duration": 0.9930545625000065
        },
        {
          "name": "E3",
          "midi": 52,
          "time": 83.99991599999981,
          "velocity": 0.7480314960629921,
          "duration": 0.9930545625000065
        },
        {
          "name": "G4",
          "midi": 67,
          "time": 83.99991599999981,
          "velocity": 0.6771653543307087,
          "duration": 0.9930545625000065
        },
        {
          "name": "B3",
          "midi": 59,
          "time": 84.99991499999982,
          "velocity": 0.7086614173228346,
          "duration": 0.21527756250000607
        },
        {
          "name": "E3",
          "midi": 52,
          "time": 84.99991499999982,
          "velocity": 0.7480314960629921,
          "duration": 0.21527756250000607
        },
        {
          "name": "E4",
          "midi": 64,
          "time": 84.99991499999982,
          "velocity": 0.6929133858267716,
          "duration": 0.21527756250000607
        },
        {
          "name": "G4",
          "midi": 67,
          "time": 84.99991499999982,
          "velocity": 0.6771653543307087,
          "duration": 0.21527756250000607
        },
        {
          "name": "E3",
          "midi": 52,
          "time": 85.33324799999983,
          "velocity": 0.7480314960629921,
          "duration": 0.21527756250000607
        },
        {
          "name": "E4",
          "midi": 64,
          "time": 85.33324799999983,
          "velocity": 0.6929133858267716,
          "duration": 0.21527756250000607
        },
        {
          "name": "B3",
          "midi": 59,
          "time": 85.33324799999983,
          "velocity": 0.7086614173228346,
          "duration": 0.21527756250000607
        },
        {
          "name": "G4",
          "midi": 67,
          "time": 85.33324799999983,
          "velocity": 0.6771653543307087,
          "duration": 0.21527756250000607
        },
        {
          "name": "G4",
          "midi": 67,
          "time": 85.66658099999984,
          "velocity": 0.6771653543307087,
          "duration": 0.21527756250000607
        },
        {
          "name": "E3",
          "midi": 52,
          "time": 85.66658099999984,
          "velocity": 0.7480314960629921,
          "duration": 0.21527756250000607
        },
        {
          "name": "B3",
          "midi": 59,
          "time": 85.66658099999984,
          "velocity": 0.7086614173228346,
          "duration": 0.21527756250000607
        },
        {
          "name": "E4",
          "midi": 64,
          "time": 85.66658099999984,
          "velocity": 0.6929133858267716,
          "duration": 0.21527756250000607
        },
        {
          "name": "E3",
          "midi": 52,
          "time": 85.99991399999985,
          "velocity": 0.7480314960629921,
          "duration": 0.9930545625000065
        },
        {
          "name": "E4",
          "midi": 64,
          "time": 85.99991399999985,
          "velocity": 0.6929133858267716,
          "duration": 0.9930545625000065
        },
        {
          "name": "B3",
          "midi": 59,
          "time": 85.99991399999985,
          "velocity": 0.7086614173228346,
          "duration": 0.9930545625000065
        },
        {
          "name": "G4",
          "midi": 67,
          "time": 85.99991399999985,
          "velocity": 0.6771653543307087,
          "duration": 0.9930545625000065
        },
        {
          "name": "G4",
          "midi": 67,
          "time": 86.99991299999985,
          "velocity": 0.6771653543307087,
          "duration": 0.21527756250000607
        },
        {
          "name": "E4",
          "midi": 64,
          "time": 86.99991299999985,
          "velocity": 0.6929133858267716,
          "duration": 0.21527756250000607
        },
        {
          "name": "B3",
          "midi": 59,
          "time": 86.99991299999985,
          "velocity": 0.7086614173228346,
          "duration": 0.21527756250000607
        },
        {
          "name": "E3",
          "midi": 52,
          "time": 86.99991299999985,
          "velocity": 0.7480314960629921,
          "duration": 0.21527756250000607
        },
        {
          "name": "E4",
          "midi": 64,
          "time": 87.33324599999986,
          "velocity": 0.6929133858267716,
          "duration": 0.21527756250000607
        },
        {
          "name": "E3",
          "midi": 52,
          "time": 87.33324599999986,
          "velocity": 0.7480314960629921,
          "duration": 0.21527756250000607
        },
        {
          "name": "B3",
          "midi": 59,
          "time": 87.33324599999986,
          "velocity": 0.7086614173228346,
          "duration": 0.21527756250000607
        },
        {
          "name": "G4",
          "midi": 67,
          "time": 87.33324599999986,
          "velocity": 0.6771653543307087,
          "duration": 0.21527756250000607
        },
        {
          "name": "E3",
          "midi": 52,
          "time": 87.66657899999987,
          "velocity": 0.7480314960629921,
          "duration": 0.21527756250000607
        },
        {
          "name": "G4",
          "midi": 67,
          "time": 87.66657899999987,
          "velocity": 0.6771653543307087,
          "duration": 0.21527756250000607
        },
        {
          "name": "B3",
          "midi": 59,
          "time": 87.66657899999987,
          "velocity": 0.7086614173228346,
          "duration": 0.21527756250000607
        },
        {
          "name": "E4",
          "midi": 64,
          "time": 87.66657899999987,
          "velocity": 0.6929133858267716,
          "duration": 0.21527756250000607
        },
        {
          "name": "A3",
          "midi": 57,
          "time": 87.99991199999988,
          "velocity": 0.7086614173228346,
          "duration": 0.9930545625000065
        },
        {
          "name": "C#4",
          "midi": 61,
          "time": 87.99991199999988,
          "velocity": 0.6929133858267716,
          "duration": 0.9930545625000065
        },
        {
          "name": "E3",
          "midi": 52,
          "time": 87.99991199999988,
          "velocity": 0.7480314960629921,
          "duration": 0.9930545625000065
        },
        {
          "name": "A4",
          "midi": 69,
          "time": 87.99991199999988,
          "velocity": 0.6614173228346457,
          "duration": 0.9930545625000065
        },
        {
          "name": "E4",
          "midi": 64,
          "time": 87.99991199999988,
          "velocity": 0.6771653543307087,
          "duration": 0.9930545625000065
        },
        {
          "name": "E3",
          "midi": 52,
          "time": 88.99991099999988,
          "velocity": 0.7480314960629921,
          "duration": 0.21527756250000607
        },
        {
          "name": "A3",
          "midi": 57,
          "time": 88.99991099999988,
          "velocity": 0.7086614173228346,
          "duration": 0.21527756250000607
        },
        {
          "name": "A4",
          "midi": 69,
          "time": 88.99991099999988,
          "velocity": 0.6614173228346457,
          "duration": 0.21527756250000607
        },
        {
          "name": "E4",
          "midi": 64,
          "time": 88.99991099999988,
          "velocity": 0.6771653543307087,
          "duration": 0.21527756250000607
        },
        {
          "name": "C#4",
          "midi": 61,
          "time": 88.99991099999988,
          "velocity": 0.6929133858267716,
          "duration": 0.21527756250000607
        },
        {
          "name": "E3",
          "midi": 52,
          "time": 89.3332439999999,
          "velocity": 0.7480314960629921,
          "duration": 0.21527756250000607
        },
        {
          "name": "A4",
          "midi": 69,
          "time": 89.3332439999999,
          "velocity": 0.6614173228346457,
          "duration": 0.21527756250000607
        },
        {
          "name": "E4",
          "midi": 64,
          "time": 89.3332439999999,
          "velocity": 0.6771653543307087,
          "duration": 0.21527756250000607
        },
        {
          "name": "A3",
          "midi": 57,
          "time": 89.3332439999999,
          "velocity": 0.7086614173228346,
          "duration": 0.21527756250000607
        },
        {
          "name": "C#4",
          "midi": 61,
          "time": 89.3332439999999,
          "velocity": 0.6929133858267716,
          "duration": 0.21527756250000607
        },
        {
          "name": "E3",
          "midi": 52,
          "time": 89.6665769999999,
          "velocity": 0.7480314960629921,
          "duration": 0.21527756250000607
        },
        {
          "name": "A3",
          "midi": 57,
          "time": 89.6665769999999,
          "velocity": 0.7086614173228346,
          "duration": 0.21527756250000607
        },
        {
          "name": "E4",
          "midi": 64,
          "time": 89.6665769999999,
          "velocity": 0.6771653543307087,
          "duration": 0.21527756250000607
        },
        {
          "name": "A4",
          "midi": 69,
          "time": 89.6665769999999,
          "velocity": 0.6614173228346457,
          "duration": 0.21527756250000607
        },
        {
          "name": "C#4",
          "midi": 61,
          "time": 89.6665769999999,
          "velocity": 0.6929133858267716,
          "duration": 0.21527756250000607
        },
        {
          "name": "A4",
          "midi": 69,
          "time": 89.99990999999991,
          "velocity": 0.6614173228346457,
          "duration": 0.9930545625000065
        },
        {
          "name": "E3",
          "midi": 52,
          "time": 89.99990999999991,
          "velocity": 0.7480314960629921,
          "duration": 0.9930545625000065
        },
        {
          "name": "A3",
          "midi": 57,
          "time": 89.99990999999991,
          "velocity": 0.7086614173228346,
          "duration": 0.9930545625000065
        },
        {
          "name": "C#4",
          "midi": 61,
          "time": 89.99990999999991,
          "velocity": 0.6929133858267716,
          "duration": 0.9930545625000065
        },
        {
          "name": "E4",
          "midi": 64,
          "time": 89.99990999999991,
          "velocity": 0.6771653543307087,
          "duration": 0.9930545625000065
        },
        {
          "name": "E3",
          "midi": 52,
          "time": 90.99990899999992,
          "velocity": 0.7480314960629921,
          "duration": 0.21527756250000607
        },
        {
          "name": "E4",
          "midi": 64,
          "time": 90.99990899999992,
          "velocity": 0.6771653543307087,
          "duration": 0.21527756250000607
        },
        {
          "name": "A3",
          "midi": 57,
          "time": 90.99990899999992,
          "velocity": 0.7086614173228346,
          "duration": 0.21527756250000607
        },
        {
          "name": "C#4",
          "midi": 61,
          "time": 90.99990899999992,
          "velocity": 0.6929133858267716,
          "duration": 0.21527756250000607
        },
        {
          "name": "A4",
          "midi": 69,
          "time": 90.99990899999992,
          "velocity": 0.6614173228346457,
          "duration": 0.21527756250000607
        },
        {
          "name": "C#4",
          "midi": 61,
          "time": 91.33324199999993,
          "velocity": 0.6929133858267716,
          "duration": 0.21527756250000607
        },
        {
          "name": "E3",
          "midi": 52,
          "time": 91.33324199999993,
          "velocity": 0.7480314960629921,
          "duration": 0.21527756250000607
        },
        {
          "name": "E4",
          "midi": 64,
          "time": 91.33324199999993,
          "velocity": 0.6771653543307087,
          "duration": 0.21527756250000607
        },
        {
          "name": "A4",
          "midi": 69,
          "time": 91.33324199999993,
          "velocity": 0.6614173228346457,
          "duration": 0.21527756250000607
        },
        {
          "name": "A3",
          "midi": 57,
          "time": 91.33324199999993,
          "velocity": 0.7086614173228346,
          "duration": 0.21527756250000607
        },
        {
          "name": "A3",
          "midi": 57,
          "time": 91.66657499999994,
          "velocity": 0.7086614173228346,
          "duration": 0.21527756250000607
        },
        {
          "name": "C#4",
          "midi": 61,
          "time": 91.66657499999994,
          "velocity": 0.6929133858267716,
          "duration": 0.21527756250000607
        },
        {
          "name": "E4",
          "midi": 64,
          "time": 91.66657499999994,
          "velocity": 0.6771653543307087,
          "duration": 0.21527756250000607
        },
        {
          "name": "E3",
          "midi": 52,
          "time": 91.66657499999994,
          "velocity": 0.7480314960629921,
          "duration": 0.21527756250000607
        },
        {
          "name": "A4",
          "midi": 69,
          "time": 91.66657499999994,
          "velocity": 0.6614173228346457,
          "duration": 0.21527756250000607
        },
        {
          "name": "E3",
          "midi": 52,
          "time": 91.99990799999995,
          "velocity": 0.7480314960629921,
          "duration": 0.9930545625000065
        },
        {
          "name": "B3",
          "midi": 59,
          "time": 91.99990799999995,
          "velocity": 0.7086614173228346,
          "duration": 0.9930545625000065
        },
        {
          "name": "G4",
          "midi": 67,
          "time": 91.99990799999995,
          "velocity": 0.6771653543307087,
          "duration": 0.9930545625000065
        },
        {
          "name": "E4",
          "midi": 64,
          "time": 91.99990799999995,
          "velocity": 0.6929133858267716,
          "duration": 0.9930545625000065
        },
        {
          "name": "E4",
          "midi": 64,
          "time": 92.99990699999995,
          "velocity": 0.6929133858267716,
          "duration": 0.21527756250000607
        },
        {
          "name": "B3",
          "midi": 59,
          "time": 92.99990699999995,
          "velocity": 0.7086614173228346,
          "duration": 0.21527756250000607
        },
        {
          "name": "E3",
          "midi": 52,
          "time": 92.99990699999995,
          "velocity": 0.7480314960629921,
          "duration": 0.21527756250000607
        },
        {
          "name": "G4",
          "midi": 67,
          "time": 92.99990699999995,
          "velocity": 0.6771653543307087,
          "duration": 0.21527756250000607
        },
        {
          "name": "E4",
          "midi": 64,
          "time": 93.33323999999996,
          "velocity": 0.6929133858267716,
          "duration": 0.21527756250000607
        },
        {
          "name": "E3",
          "midi": 52,
          "time": 93.33323999999996,
          "velocity": 0.7480314960629921,
          "duration": 0.21527756250000607
        },
        {
          "name": "B3",
          "midi": 59,
          "time": 93.33323999999996,
          "velocity": 0.7086614173228346,
          "duration": 0.21527756250000607
        },
        {
          "name": "G4",
          "midi": 67,
          "time": 93.33323999999996,
          "velocity": 0.6771653543307087,
          "duration": 0.21527756250000607
        },
        {
          "name": "E3",
          "midi": 52,
          "time": 93.66657299999997,
          "velocity": 0.7480314960629921,
          "duration": 0.21527756250000607
        },
        {
          "name": "E4",
          "midi": 64,
          "time": 93.66657299999997,
          "velocity": 0.6929133858267716,
          "duration": 0.21527756250000607
        },
        {
          "name": "B3",
          "midi": 59,
          "time": 93.66657299999997,
          "velocity": 0.7086614173228346,
          "duration": 0.21527756250000607
        },
        {
          "name": "G4",
          "midi": 67,
          "time": 93.66657299999997,
          "velocity": 0.6771653543307087,
          "duration": 0.21527756250000607
        },
        {
          "name": "B3",
          "midi": 59,
          "time": 93.99990599999998,
          "velocity": 0.7086614173228346,
          "duration": 0.9930545625000065
        },
        {
          "name": "G4",
          "midi": 67,
          "time": 93.99990599999998,
          "velocity": 0.6771653543307087,
          "duration": 0.9930545625000065
        },
        {
          "name": "E4",
          "midi": 64,
          "time": 93.99990599999998,
          "velocity": 0.6929133858267716,
          "duration": 0.9930545625000065
        },
        {
          "name": "E3",
          "midi": 52,
          "time": 93.99990599999998,
          "velocity": 0.7480314960629921,
          "duration": 0.9930545625000065
        },
        {
          "name": "E4",
          "midi": 64,
          "time": 94.99990499999998,
          "velocity": 0.6929133858267716,
          "duration": 0.21527756250000607
        },
        {
          "name": "B3",
          "midi": 59,
          "time": 94.99990499999998,
          "velocity": 0.7086614173228346,
          "duration": 0.21527756250000607
        },
        {
          "name": "G4",
          "midi": 67,
          "time": 94.99990499999998,
          "velocity": 0.6771653543307087,
          "duration": 0.21527756250000607
        },
        {
          "name": "E3",
          "midi": 52,
          "time": 94.99990499999998,
          "velocity": 0.7480314960629921,
          "duration": 0.21527756250000607
        },
        {
          "name": "G4",
          "midi": 67,
          "time": 95.333238,
          "velocity": 0.6771653543307087,
          "duration": 0.21527756250000607
        },
        {
          "name": "E4",
          "midi": 64,
          "time": 95.333238,
          "velocity": 0.6929133858267716,
          "duration": 0.21527756250000607
        },
        {
          "name": "E3",
          "midi": 52,
          "time": 95.333238,
          "velocity": 0.7480314960629921,
          "duration": 0.21527756250000607
        },
        {
          "name": "B3",
          "midi": 59,
          "time": 95.333238,
          "velocity": 0.7086614173228346,
          "duration": 0.21527756250000607
        },
        {
          "name": "G4",
          "midi": 67,
          "time": 95.666571,
          "velocity": 0.6771653543307087,
          "duration": 0.21527756250000607
        },
        {
          "name": "E4",
          "midi": 64,
          "time": 95.666571,
          "velocity": 0.6929133858267716,
          "duration": 0.21527756250000607
        },
        {
          "name": "E3",
          "midi": 52,
          "time": 95.666571,
          "velocity": 0.7480314960629921,
          "duration": 0.21527756250000607
        },
        {
          "name": "B3",
          "midi": 59,
          "time": 95.666571,
          "velocity": 0.7086614173228346,
          "duration": 0.21527756250000607
        },
        {
          "name": "C#4",
          "midi": 61,
          "time": 95.99990400000002,
          "velocity": 0.6929133858267716,
          "duration": 0.9930545625000065
        },
        {
          "name": "E3",
          "midi": 52,
          "time": 95.99990400000002,
          "velocity": 0.7480314960629921,
          "duration": 0.9930545625000065
        },
        {
          "name": "A3",
          "midi": 57,
          "time": 95.99990400000002,
          "velocity": 0.7086614173228346,
          "duration": 0.9930545625000065
        },
        {
          "name": "F#4",
          "midi": 66,
          "time": 95.99990400000002,
          "velocity": 0.6771653543307087,
          "duration": 0.9930545625000065
        },
        {
          "name": "A3",
          "midi": 57,
          "time": 96.99990300000002,
          "velocity": 0.7086614173228346,
          "duration": 0.21527756250000607
        },
        {
          "name": "C#4",
          "midi": 61,
          "time": 96.99990300000002,
          "velocity": 0.6929133858267716,
          "duration": 0.21527756250000607
        },
        {
          "name": "F#4",
          "midi": 66,
          "time": 96.99990300000002,
          "velocity": 0.6771653543307087,
          "duration": 0.21527756250000607
        },
        {
          "name": "E3",
          "midi": 52,
          "time": 96.99990300000002,
          "velocity": 0.7480314960629921,
          "duration": 0.21527756250000607
        },
        {
          "name": "C#4",
          "midi": 61,
          "time": 97.33323600000003,
          "velocity": 0.6929133858267716,
          "duration": 0.21527756250000607
        },
        {
          "name": "A3",
          "midi": 57,
          "time": 97.33323600000003,
          "velocity": 0.7086614173228346,
          "duration": 0.21527756250000607
        },
        {
          "name": "E3",
          "midi": 52,
          "time": 97.33323600000003,
          "velocity": 0.7480314960629921,
          "duration": 0.21527756250000607
        },
        {
          "name": "F#4",
          "midi": 66,
          "time": 97.33323600000003,
          "velocity": 0.6771653543307087,
          "duration": 0.21527756250000607
        },
        {
          "name": "C#4",
          "midi": 61,
          "time": 97.66656900000004,
          "velocity": 0.6929133858267716,
          "duration": 0.21527756250000607
        },
        {
          "name": "A3",
          "midi": 57,
          "time": 97.66656900000004,
          "velocity": 0.7086614173228346,
          "duration": 0.21527756250000607
        },
        {
          "name": "F#4",
          "midi": 66,
          "time": 97.66656900000004,
          "velocity": 0.6771653543307087,
          "duration": 0.21527756250000607
        },
        {
          "name": "E3",
          "midi": 52,
          "time": 97.66656900000004,
          "velocity": 0.7480314960629921,
          "duration": 0.21527756250000607
        },
        {
          "name": "F#3",
          "midi": 54,
          "time": 97.99990200000005,
          "velocity": 0.7480314960629921,
          "duration": 0.9930545625000065
        },
        {
          "name": "F#4",
          "midi": 66,
          "time": 97.99990200000005,
          "velocity": 0.6771653543307087,
          "duration": 0.9930545625000065
        },
        {
          "name": "A3",
          "midi": 57,
          "time": 97.99990200000005,
          "velocity": 0.7086614173228346,
          "duration": 0.9930545625000065
        },
        {
          "name": "D#4",
          "midi": 63,
          "time": 97.99990200000005,
          "velocity": 0.6929133858267716,
          "duration": 0.9930545625000065
        },
        {
          "name": "F#4",
          "midi": 66,
          "time": 98.99990100000005,
          "velocity": 0.6771653543307087,
          "duration": 0.21527756250000607
        },
        {
          "name": "D#4",
          "midi": 63,
          "time": 98.99990100000005,
          "velocity": 0.6929133858267716,
          "duration": 0.21527756250000607
        },
        {
          "name": "F#3",
          "midi": 54,
          "time": 98.99990100000005,
          "velocity": 0.7480314960629921,
          "duration": 0.21527756250000607
        },
        {
          "name": "A3",
          "midi": 57,
          "time": 98.99990100000005,
          "velocity": 0.7086614173228346,
          "duration": 0.21527756250000607
        },
        {
          "name": "F#3",
          "midi": 54,
          "time": 99.33323400000006,
          "velocity": 0.7480314960629921,
          "duration": 0.21527756250000607
        },
        {
          "name": "A3",
          "midi": 57,
          "time": 99.33323400000006,
          "velocity": 0.7086614173228346,
          "duration": 0.21527756250000607
        },
        {
          "name": "F#4",
          "midi": 66,
          "time": 99.33323400000006,
          "velocity": 0.6771653543307087,
          "duration": 0.21527756250000607
        },
        {
          "name": "D#4",
          "midi": 63,
          "time": 99.33323400000006,
          "velocity": 0.6929133858267716,
          "duration": 0.21527756250000607
        },
        {
          "name": "A3",
          "midi": 57,
          "time": 99.66656700000007,
          "velocity": 0.7086614173228346,
          "duration": 0.21527756250000607
        },
        {
          "name": "F#4",
          "midi": 66,
          "time": 99.66656700000007,
          "velocity": 0.6771653543307087,
          "duration": 0.21527756250000607
        },
        {
          "name": "D#4",
          "midi": 63,
          "time": 99.66656700000007,
          "velocity": 0.6929133858267716,
          "duration": 0.21527756250000607
        },
        {
          "name": "F#3",
          "midi": 54,
          "time": 99.66656700000007,
          "velocity": 0.7480314960629921,
          "duration": 0.21527756250000607
        },
        {
          "name": "E3",
          "midi": 52,
          "time": 99.99990000000008,
          "velocity": 0.7480314960629921,
          "duration": 0.9930545624999922
        },
        {
          "name": "B4",
          "midi": 71,
          "time": 100.33323300000008,
          "velocity": 0.6771653543307087,
          "duration": 0.32638856250000003
        },
        {
          "name": "E4",
          "midi": 64,
          "time": 100.33323300000008,
          "velocity": 0.6929133858267716,
          "duration": 0.32638856250000003
        },
        {
          "name": "B3",
          "midi": 59,
          "time": 100.33323300000008,
          "velocity": 0.7086614173228346,
          "duration": 0.32638856250000003
        },
        {
          "name": "B3",
          "midi": 59,
          "time": 100.66656600000007,
          "velocity": 0.7086614173228346,
          "duration": 0.6597215624999961
        },
        {
          "name": "B4",
          "midi": 71,
          "time": 100.66656600000007,
          "velocity": 0.6771653543307087,
          "duration": 0.6597215624999961
        },
        {
          "name": "E4",
          "midi": 64,
          "time": 100.66656600000007,
          "velocity": 0.6929133858267716,
          "duration": 0.6597215624999961
        },
        {
          "name": "E3",
          "midi": 52,
          "time": 100.99989900000007,
          "velocity": 0.7480314960629921,
          "duration": 0.9930545624999922
        },
        {
          "name": "B3",
          "midi": 59,
          "time": 101.33323200000007,
          "velocity": 0.7086614173228346,
          "duration": 0.32638856250000003
        },
        {
          "name": "B4",
          "midi": 71,
          "time": 101.33323200000007,
          "velocity": 0.6771653543307087,
          "duration": 0.32638856250000003
        },
        {
          "name": "E4",
          "midi": 64,
          "time": 101.33323200000007,
          "velocity": 0.6929133858267716,
          "duration": 0.32638856250000003
        },
        {
          "name": "B4",
          "midi": 71,
          "time": 101.66656500000006,
          "velocity": 0.6771653543307087,
          "duration": 0.6597215624999961
        },
        {
          "name": "E4",
          "midi": 64,
          "time": 101.66656500000006,
          "velocity": 0.6929133858267716,
          "duration": 0.6597215624999961
        },
        {
          "name": "B3",
          "midi": 59,
          "time": 101.66656500000006,
          "velocity": 0.7086614173228346,
          "duration": 0.6597215624999961
        },
        {
          "name": "E3",
          "midi": 52,
          "time": 101.99989800000006,
          "velocity": 0.7480314960629921,
          "duration": 0.9930545624999922
        },
        {
          "name": "B4",
          "midi": 71,
          "time": 102.33323100000005,
          "velocity": 0.6771653543307087,
          "duration": 0.32638856250000003
        },
        {
          "name": "B3",
          "midi": 59,
          "time": 102.33323100000005,
          "velocity": 0.7086614173228346,
          "duration": 0.32638856250000003
        },
        {
          "name": "E4",
          "midi": 64,
          "time": 102.33323100000005,
          "velocity": 0.6929133858267716,
          "duration": 0.32638856250000003
        },
        {
          "name": "E4",
          "midi": 64,
          "time": 102.66656400000005,
          "velocity": 0.6929133858267716,
          "duration": 0.6597215624999961
        },
        {
          "name": "B4",
          "midi": 71,
          "time": 102.66656400000005,
          "velocity": 0.6771653543307087,
          "duration": 0.6597215624999961
        },
        {
          "name": "B3",
          "midi": 59,
          "time": 102.66656400000005,
          "velocity": 0.7086614173228346,
          "duration": 0.6597215624999961
        },
        {
          "name": "E3",
          "midi": 52,
          "time": 102.99989700000005,
          "velocity": 0.7480314960629921,
          "duration": 0.9930545624999922
        },
        {
          "name": "B3",
          "midi": 59,
          "time": 103.33323000000004,
          "velocity": 0.7086614173228346,
          "duration": 0.32638856250000003
        },
        {
          "name": "E4",
          "midi": 64,
          "time": 103.33323000000004,
          "velocity": 0.6929133858267716,
          "duration": 0.32638856250000003
        },
        {
          "name": "B4",
          "midi": 71,
          "time": 103.33323000000004,
          "velocity": 0.6771653543307087,
          "duration": 0.32638856250000003
        },
        {
          "name": "B3",
          "midi": 59,
          "time": 103.66656300000004,
          "velocity": 0.7086614173228346,
          "duration": 0.6597215624999961
        },
        {
          "name": "B4",
          "midi": 71,
          "time": 103.66656300000004,
          "velocity": 0.6771653543307087,
          "duration": 0.6597215624999961
        },
        {
          "name": "E4",
          "midi": 64,
          "time": 103.66656300000004,
          "velocity": 0.6929133858267716,
          "duration": 0.6597215624999961
        },
        {
          "name": "E3",
          "midi": 52,
          "time": 103.99989600000004,
          "velocity": 0.7480314960629921,
          "duration": 0.9930545624999922
        },
        {
          "name": "B3",
          "midi": 59,
          "time": 104.33322900000003,
          "velocity": 0.7086614173228346,
          "duration": 0.32638856250000003
        },
        {
          "name": "B4",
          "midi": 71,
          "time": 104.33322900000003,
          "velocity": 0.6771653543307087,
          "duration": 0.32638856250000003
        },
        {
          "name": "E4",
          "midi": 64,
          "time": 104.33322900000003,
          "velocity": 0.6929133858267716,
          "duration": 0.32638856250000003
        },
        {
          "name": "B4",
          "midi": 71,
          "time": 104.66656200000003,
          "velocity": 0.6771653543307087,
          "duration": 0.6597215624999961
        },
        {
          "name": "B3",
          "midi": 59,
          "time": 104.66656200000003,
          "velocity": 0.7086614173228346,
          "duration": 0.6597215624999961
        },
        {
          "name": "E4",
          "midi": 64,
          "time": 104.66656200000003,
          "velocity": 0.6929133858267716,
          "duration": 0.6597215624999961
        },
        {
          "name": "E3",
          "midi": 52,
          "time": 104.99989500000002,
          "velocity": 0.7480314960629921,
          "duration": 0.9930545624999922
        },
        {
          "name": "E4",
          "midi": 64,
          "time": 105.33322800000002,
          "velocity": 0.6929133858267716,
          "duration": 0.32638856250000003
        },
        {
          "name": "B3",
          "midi": 59,
          "time": 105.33322800000002,
          "velocity": 0.7086614173228346,
          "duration": 0.32638856250000003
        },
        {
          "name": "B4",
          "midi": 71,
          "time": 105.33322800000002,
          "velocity": 0.6771653543307087,
          "duration": 0.32638856250000003
        },
        {
          "name": "B3",
          "midi": 59,
          "time": 105.66656100000002,
          "velocity": 0.7086614173228346,
          "duration": 0.6597215624999961
        },
        {
          "name": "B4",
          "midi": 71,
          "time": 105.66656100000002,
          "velocity": 0.6771653543307087,
          "duration": 0.6597215624999961
        },
        {
          "name": "E4",
          "midi": 64,
          "time": 105.66656100000002,
          "velocity": 0.6929133858267716,
          "duration": 0.6597215624999961
        },
        {
          "name": "E3",
          "midi": 52,
          "time": 105.99989400000001,
          "velocity": 0.7480314960629921,
          "duration": 0.9930545624999922
        },
        {
          "name": "E4",
          "midi": 64,
          "time": 106.33322700000001,
          "velocity": 0.6929133858267716,
          "duration": 0.32638856250000003
        },
        {
          "name": "B3",
          "midi": 59,
          "time": 106.33322700000001,
          "velocity": 0.7086614173228346,
          "duration": 0.32638856250000003
        },
        {
          "name": "B4",
          "midi": 71,
          "time": 106.33322700000001,
          "velocity": 0.6771653543307087,
          "duration": 0.32638856250000003
        },
        {
          "name": "B3",
          "midi": 59,
          "time": 106.66656,
          "velocity": 0.7086614173228346,
          "duration": 0.6597215624999961
        },
        {
          "name": "E4",
          "midi": 64,
          "time": 106.66656,
          "velocity": 0.6929133858267716,
          "duration": 0.6597215624999961
        },
        {
          "name": "B4",
          "midi": 71,
          "time": 106.66656,
          "velocity": 0.6771653543307087,
          "duration": 0.6597215624999961
        },
        {
          "name": "E3",
          "midi": 52,
          "time": 106.999893,
          "velocity": 0.7480314960629921,
          "duration": 0.9930545624999922
        },
        {
          "name": "B4",
          "midi": 71,
          "time": 107.333226,
          "velocity": 0.6771653543307087,
          "duration": 0.32638856250000003
        },
        {
          "name": "E4",
          "midi": 64,
          "time": 107.333226,
          "velocity": 0.6929133858267716,
          "duration": 0.32638856250000003
        },
        {
          "name": "B3",
          "midi": 59,
          "time": 107.333226,
          "velocity": 0.7086614173228346,
          "duration": 0.32638856250000003
        },
        {
          "name": "B3",
          "midi": 59,
          "time": 107.66655899999999,
          "velocity": 0.7086614173228346,
          "duration": 0.6597215624999961
        },
        {
          "name": "E4",
          "midi": 64,
          "time": 107.66655899999999,
          "velocity": 0.6929133858267716,
          "duration": 0.6597215624999961
        },
        {
          "name": "B4",
          "midi": 71,
          "time": 107.66655899999999,
          "velocity": 0.6771653543307087,
          "duration": 0.6597215624999961
        },
        {
          "name": "E3",
          "midi": 52,
          "time": 107.99989199999999,
          "velocity": 0.7480314960629921,
          "duration": 0.9930545624999922
        },
        {
          "name": "B3",
          "midi": 59,
          "time": 108.33322499999998,
          "velocity": 0.7086614173228346,
          "duration": 0.32638856250000003
        },
        {
          "name": "E4",
          "midi": 64,
          "time": 108.33322499999998,
          "velocity": 0.6929133858267716,
          "duration": 0.32638856250000003
        },
        {
          "name": "B4",
          "midi": 71,
          "time": 108.33322499999998,
          "velocity": 0.6771653543307087,
          "duration": 0.32638856250000003
        },
        {
          "name": "E4",
          "midi": 64,
          "time": 108.66655799999998,
          "velocity": 0.6929133858267716,
          "duration": 0.6597215624999961
        },
        {
          "name": "B4",
          "midi": 71,
          "time": 108.66655799999998,
          "velocity": 0.6771653543307087,
          "duration": 0.6597215624999961
        },
        {
          "name": "B3",
          "midi": 59,
          "time": 108.66655799999998,
          "velocity": 0.7086614173228346,
          "duration": 0.6597215624999961
        },
        {
          "name": "E3",
          "midi": 52,
          "time": 108.99989099999998,
          "velocity": 0.7480314960629921,
          "duration": 0.9930545624999922
        },
        {
          "name": "E4",
          "midi": 64,
          "time": 109.33322399999997,
          "velocity": 0.6929133858267716,
          "duration": 0.32638856250000003
        },
        {
          "name": "B3",
          "midi": 59,
          "time": 109.33322399999997,
          "velocity": 0.7086614173228346,
          "duration": 0.32638856250000003
        },
        {
          "name": "B4",
          "midi": 71,
          "time": 109.33322399999997,
          "velocity": 0.6771653543307087,
          "duration": 0.32638856250000003
        },
        {
          "name": "E4",
          "midi": 64,
          "time": 109.66655699999997,
          "velocity": 0.6929133858267716,
          "duration": 0.6597215624999961
        },
        {
          "name": "B4",
          "midi": 71,
          "time": 109.66655699999997,
          "velocity": 0.6771653543307087,
          "duration": 0.6597215624999961
        },
        {
          "name": "B3",
          "midi": 59,
          "time": 109.66655699999997,
          "velocity": 0.7086614173228346,
          "duration": 0.6597215624999961
        },
        {
          "name": "E3",
          "midi": 52,
          "time": 109.99988999999997,
          "velocity": 0.7480314960629921,
          "duration": 0.9930545624999922
        },
        {
          "name": "B4",
          "midi": 71,
          "time": 110.33322299999996,
          "velocity": 0.6771653543307087,
          "duration": 0.32638856250000003
        },
        {
          "name": "E4",
          "midi": 64,
          "time": 110.33322299999996,
          "velocity": 0.6929133858267716,
          "duration": 0.32638856250000003
        },
        {
          "name": "B3",
          "midi": 59,
          "time": 110.33322299999996,
          "velocity": 0.7086614173228346,
          "duration": 0.32638856250000003
        },
        {
          "name": "E4",
          "midi": 64,
          "time": 110.66655599999996,
          "velocity": 0.6929133858267716,
          "duration": 0.6597215624999961
        },
        {
          "name": "B4",
          "midi": 71,
          "time": 110.66655599999996,
          "velocity": 0.6771653543307087,
          "duration": 0.6597215624999961
        },
        {
          "name": "B3",
          "midi": 59,
          "time": 110.66655599999996,
          "velocity": 0.7086614173228346,
          "duration": 0.6597215624999961
        },
        {
          "name": "E3",
          "midi": 52,
          "time": 110.99988899999995,
          "velocity": 0.7480314960629921,
          "duration": 0.9930545624999922
        },
        {
          "name": "B4",
          "midi": 71,
          "time": 111.33322199999995,
          "velocity": 0.6771653543307087,
          "duration": 0.32638856250000003
        },
        {
          "name": "B3",
          "midi": 59,
          "time": 111.33322199999995,
          "velocity": 0.7086614173228346,
          "duration": 0.32638856250000003
        },
        {
          "name": "E4",
          "midi": 64,
          "time": 111.33322199999995,
          "velocity": 0.6929133858267716,
          "duration": 0.32638856250000003
        },
        {
          "name": "B4",
          "midi": 71,
          "time": 111.66655499999995,
          "velocity": 0.6771653543307087,
          "duration": 0.6597215624999961
        },
        {
          "name": "B3",
          "midi": 59,
          "time": 111.66655499999995,
          "velocity": 0.7086614173228346,
          "duration": 0.6597215624999961
        },
        {
          "name": "E4",
          "midi": 64,
          "time": 111.66655499999995,
          "velocity": 0.6929133858267716,
          "duration": 0.6597215624999961
        },
        {
          "name": "E3",
          "midi": 52,
          "time": 111.99988799999994,
          "velocity": 0.7480314960629921,
          "duration": 0.9930545624999922
        },
        {
          "name": "E4",
          "midi": 64,
          "time": 112.33322099999994,
          "velocity": 0.6929133858267716,
          "duration": 0.32638856250000003
        },
        {
          "name": "B3",
          "midi": 59,
          "time": 112.33322099999994,
          "velocity": 0.7086614173228346,
          "duration": 0.32638856250000003
        },
        {
          "name": "B4",
          "midi": 71,
          "time": 112.33322099999994,
          "velocity": 0.6771653543307087,
          "duration": 0.32638856250000003
        },
        {
          "name": "B3",
          "midi": 59,
          "time": 112.66655399999993,
          "velocity": 0.7086614173228346,
          "duration": 0.6597215624999961
        },
        {
          "name": "B4",
          "midi": 71,
          "time": 112.66655399999993,
          "velocity": 0.6771653543307087,
          "duration": 0.6597215624999961
        },
        {
          "name": "E4",
          "midi": 64,
          "time": 112.66655399999993,
          "velocity": 0.6929133858267716,
          "duration": 0.6597215624999961
        },
        {
          "name": "E3",
          "midi": 52,
          "time": 112.99988699999993,
          "velocity": 0.7480314960629921,
          "duration": 0.9930545624999922
        },
        {
          "name": "B4",
          "midi": 71,
          "time": 113.33321999999993,
          "velocity": 0.6771653543307087,
          "duration": 0.32638856250000003
        },
        {
          "name": "B3",
          "midi": 59,
          "time": 113.33321999999993,
          "velocity": 0.7086614173228346,
          "duration": 0.32638856250000003
        },
        {
          "name": "E4",
          "midi": 64,
          "time": 113.33321999999993,
          "velocity": 0.6929133858267716,
          "duration": 0.32638856250000003
        },
        {
          "name": "E4",
          "midi": 64,
          "time": 113.66655299999992,
          "velocity": 0.6929133858267716,
          "duration": 0.6597215624999961
        },
        {
          "name": "B4",
          "midi": 71,
          "time": 113.66655299999992,
          "velocity": 0.6771653543307087,
          "duration": 0.6597215624999961
        },
        {
          "name": "B3",
          "midi": 59,
          "time": 113.66655299999992,
          "velocity": 0.7086614173228346,
          "duration": 0.6597215624999961
        },
        {
          "name": "E3",
          "midi": 52,
          "time": 113.99988599999992,
          "velocity": 0.7480314960629921,
          "duration": 0.9930545624999922
        },
        {
          "name": "E4",
          "midi": 64,
          "time": 114.33321899999991,
          "velocity": 0.6929133858267716,
          "duration": 0.32638856250000003
        },
        {
          "name": "B4",
          "midi": 71,
          "time": 114.33321899999991,
          "velocity": 0.6771653543307087,
          "duration": 0.32638856250000003
        },
        {
          "name": "B3",
          "midi": 59,
          "time": 114.33321899999991,
          "velocity": 0.7086614173228346,
          "duration": 0.32638856250000003
        },
        {
          "name": "E4",
          "midi": 64,
          "time": 114.66655199999991,
          "velocity": 0.6929133858267716,
          "duration": 0.6597215624999961
        },
        {
          "name": "B3",
          "midi": 59,
          "time": 114.66655199999991,
          "velocity": 0.7086614173228346,
          "duration": 0.6597215624999961
        },
        {
          "name": "B4",
          "midi": 71,
          "time": 114.66655199999991,
          "velocity": 0.6771653543307087,
          "duration": 0.6597215624999961
        },
        {
          "name": "E3",
          "midi": 52,
          "time": 114.9998849999999,
          "velocity": 0.7480314960629921,
          "duration": 0.9930545624999922
        },
        {
          "name": "B4",
          "midi": 71,
          "time": 115.3332179999999,
          "velocity": 0.6771653543307087,
          "duration": 0.32638856250000003
        },
        {
          "name": "B3",
          "midi": 59,
          "time": 115.3332179999999,
          "velocity": 0.7086614173228346,
          "duration": 0.32638856250000003
        },
        {
          "name": "E4",
          "midi": 64,
          "time": 115.3332179999999,
          "velocity": 0.6929133858267716,
          "duration": 0.32638856250000003
        },
        {
          "name": "B4",
          "midi": 71,
          "time": 115.6665509999999,
          "velocity": 0.6771653543307087,
          "duration": 0.6597215624999961
        },
        {
          "name": "B3",
          "midi": 59,
          "time": 115.6665509999999,
          "velocity": 0.7086614173228346,
          "duration": 0.6597215624999961
        },
        {
          "name": "E4",
          "midi": 64,
          "time": 115.6665509999999,
          "velocity": 0.6929133858267716,
          "duration": 0.6597215624999961
        },
        {
          "name": "E3",
          "midi": 52,
          "time": 115.9998839999999,
          "velocity": 0.7480314960629921,
          "duration": 0.9930545624999922
        },
        {
          "name": "E4",
          "midi": 64,
          "time": 116.33321699999989,
          "velocity": 0.6929133858267716,
          "duration": 0.32638856250000003
        },
        {
          "name": "B3",
          "midi": 59,
          "time": 116.33321699999989,
          "velocity": 0.7086614173228346,
          "duration": 0.32638856250000003
        },
        {
          "name": "B4",
          "midi": 71,
          "time": 116.33321699999989,
          "velocity": 0.6771653543307087,
          "duration": 0.32638856250000003
        },
        {
          "name": "B4",
          "midi": 71,
          "time": 116.66654999999989,
          "velocity": 0.6771653543307087,
          "duration": 0.6597215624999961
        },
        {
          "name": "B3",
          "midi": 59,
          "time": 116.66654999999989,
          "velocity": 0.7086614173228346,
          "duration": 0.6597215624999961
        },
        {
          "name": "E4",
          "midi": 64,
          "time": 116.66654999999989,
          "velocity": 0.6929133858267716,
          "duration": 0.6597215624999961
        },
        {
          "name": "E3",
          "midi": 52,
          "time": 116.99988299999988,
          "velocity": 0.7480314960629921,
          "duration": 0.9930545624999922
        },
        {
          "name": "B4",
          "midi": 71,
          "time": 117.33321599999988,
          "velocity": 0.6771653543307087,
          "duration": 0.32638856250000003
        },
        {
          "name": "E4",
          "midi": 64,
          "time": 117.33321599999988,
          "velocity": 0.6929133858267716,
          "duration": 0.32638856250000003
        },
        {
          "name": "B3",
          "midi": 59,
          "time": 117.33321599999988,
          "velocity": 0.7086614173228346,
          "duration": 0.32638856250000003
        },
        {
          "name": "B4",
          "midi": 71,
          "time": 117.66654899999988,
          "velocity": 0.6771653543307087,
          "duration": 0.6597215624999961
        },
        {
          "name": "E4",
          "midi": 64,
          "time": 117.66654899999988,
          "velocity": 0.6929133858267716,
          "duration": 0.6597215624999961
        },
        {
          "name": "B3",
          "midi": 59,
          "time": 117.66654899999988,
          "velocity": 0.7086614173228346,
          "duration": 0.6597215624999961
        },
        {
          "name": "E3",
          "midi": 52,
          "time": 117.99988199999987,
          "velocity": 0.7480314960629921,
          "duration": 0.9930545624999922
        },
        {
          "name": "B4",
          "midi": 71,
          "time": 118.33321499999987,
          "velocity": 0.6771653543307087,
          "duration": 0.32638856250000003
        },
        {
          "name": "E4",
          "midi": 64,
          "time": 118.33321499999987,
          "velocity": 0.6929133858267716,
          "duration": 0.32638856250000003
        },
        {
          "name": "B3",
          "midi": 59,
          "time": 118.33321499999987,
          "velocity": 0.7086614173228346,
          "duration": 0.32638856250000003
        },
        {
          "name": "B3",
          "midi": 59,
          "time": 118.66654799999986,
          "velocity": 0.7086614173228346,
          "duration": 0.6597215624999961
        },
        {
          "name": "B4",
          "midi": 71,
          "time": 118.66654799999986,
          "velocity": 0.6771653543307087,
          "duration": 0.6597215624999961
        },
        {
          "name": "E4",
          "midi": 64,
          "time": 118.66654799999986,
          "velocity": 0.6929133858267716,
          "duration": 0.6597215624999961
        },
        {
          "name": "E3",
          "midi": 52,
          "time": 118.99988099999986,
          "velocity": 0.7480314960629921,
          "duration": 0.9930545624999922
        },
        {
          "name": "E4",
          "midi": 64,
          "time": 119.33321399999986,
          "velocity": 0.6929133858267716,
          "duration": 0.32638856250000003
        },
        {
          "name": "B4",
          "midi": 71,
          "time": 119.33321399999986,
          "velocity": 0.6771653543307087,
          "duration": 0.32638856250000003
        },
        {
          "name": "B3",
          "midi": 59,
          "time": 119.33321399999986,
          "velocity": 0.7086614173228346,
          "duration": 0.32638856250000003
        },
        {
          "name": "B3",
          "midi": 59,
          "time": 119.66654699999985,
          "velocity": 0.7086614173228346,
          "duration": 0.6597215624999961
        },
        {
          "name": "B4",
          "midi": 71,
          "time": 119.66654699999985,
          "velocity": 0.6771653543307087,
          "duration": 0.6597215624999961
        },
        {
          "name": "E4",
          "midi": 64,
          "time": 119.66654699999985,
          "velocity": 0.6929133858267716,
          "duration": 0.6597215624999961
        },
        {
          "name": "E3",
          "midi": 52,
          "time": 119.99987999999985,
          "velocity": 0.7480314960629921,
          "duration": 0.9930545624999922
        },
        {
          "name": "B4",
          "midi": 71,
          "time": 120.33321299999984,
          "velocity": 0.6771653543307087,
          "duration": 0.32638856250000003
        },
        {
          "name": "E4",
          "midi": 64,
          "time": 120.33321299999984,
          "velocity": 0.6929133858267716,
          "duration": 0.32638856250000003
        },
        {
          "name": "B3",
          "midi": 59,
          "time": 120.33321299999984,
          "velocity": 0.7086614173228346,
          "duration": 0.32638856250000003
        },
        {
          "name": "B4",
          "midi": 71,
          "time": 120.66654599999984,
          "velocity": 0.6771653543307087,
          "duration": 0.6597215624999961
        },
        {
          "name": "B3",
          "midi": 59,
          "time": 120.66654599999984,
          "velocity": 0.7086614173228346,
          "duration": 0.6597215624999961
        },
        {
          "name": "E4",
          "midi": 64,
          "time": 120.66654599999984,
          "velocity": 0.6929133858267716,
          "duration": 0.6597215624999961
        },
        {
          "name": "E3",
          "midi": 52,
          "time": 120.99987899999984,
          "velocity": 0.7480314960629921,
          "duration": 0.9930545625000065
        }
      ],
      "controlChanges": {
        "7": [
          {
            "number": 7,
            "time": 0.333333,
            "value": 0.7086614173228346
          }
        ],
        "10": [
          {
            "number": 10,
            "time": 0.3402774375,
            "value": 0.09448818897637795
          }
        ],
        "32": [
          {
            "number": 32,
            "time": 0.36111075000000004,
            "value": 0
          }
        ],
        "91": [
          {
            "number": 91,
            "time": 0.347221875,
            "value": 0.3937007874015748
          }
        ],
        "93": [
          {
            "number": 93,
            "time": 0.3541663125,
            "value": 0.14173228346456693
          }
        ],
        "121": [
          {
            "number": 121,
            "time": 0.333333,
            "value": 0
          }
        ]
      },
      "id": 6,
      "name": "Nylon Gtr 1 Bank 0",
      "instrumentNumber": 24,
      "instrument": "acoustic guitar (nylon)",
      "instrumentFamily": "guitar",
      "channelNumber": 5,
      "isPercussion": false
    },
    {
      "startTime": 39.99996,
      "duration": 122.05543349999964,
      "length": 123,
      "notes": [
        {
          "name": "B1",
          "midi": 35,
          "time": 39.99996,
          "velocity": 0.7874015748031497,
          "duration": 0.05555549999999698
        },
        {
          "name": "B1",
          "midi": 35,
          "time": 40.555515,
          "velocity": 0.7874015748031497,
          "duration": 0.05555549999999698
        },
        {
          "name": "B1",
          "midi": 35,
          "time": 40.999959,
          "velocity": 0.7874015748031497,
          "duration": 0.05555549999999698
        },
        {
          "name": "B1",
          "midi": 35,
          "time": 41.555513999999995,
          "velocity": 0.7874015748031497,
          "duration": 0.05555549999999698
        },
        {
          "name": "B1",
          "midi": 35,
          "time": 41.99995799999999,
          "velocity": 0.7874015748031497,
          "duration": 0.05555549999999698
        },
        {
          "name": "B1",
          "midi": 35,
          "time": 42.55551299999999,
          "velocity": 0.7874015748031497,
          "duration": 0.05555549999999698
        },
        {
          "name": "B1",
          "midi": 35,
          "time": 42.99995699999999,
          "velocity": 0.7874015748031497,
          "duration": 0.05555549999999698
        },
        {
          "name": "B1",
          "midi": 35,
          "time": 43.555511999999986,
          "velocity": 0.7874015748031497,
          "duration": 0.05555549999999698
        },
        {
          "name": "B1",
          "midi": 35,
          "time": 43.99995599999998,
          "velocity": 0.7874015748031497,
          "duration": 0.05555549999999698
        },
        {
          "name": "B1",
          "midi": 35,
          "time": 44.55551099999998,
          "velocity": 0.7874015748031497,
          "duration": 0.05555549999999698
        },
        {
          "name": "B1",
          "midi": 35,
          "time": 44.99995499999998,
          "velocity": 0.7874015748031497,
          "duration": 0.05555549999999698
        },
        {
          "name": "B1",
          "midi": 35,
          "time": 45.55550999999998,
          "velocity": 0.7874015748031497,
          "duration": 0.05555549999999698
        },
        {
          "name": "B1",
          "midi": 35,
          "time": 45.999953999999974,
          "velocity": 0.7874015748031497,
          "duration": 0.05555549999999698
        },
        {
          "name": "B1",
          "midi": 35,
          "time": 46.55550899999997,
          "velocity": 0.7874015748031497,
          "duration": 0.05555549999999698
        },
        {
          "name": "B1",
          "midi": 35,
          "time": 46.99995299999997,
          "velocity": 0.7874015748031497,
          "duration": 0.05555549999999698
        },
        {
          "name": "B1",
          "midi": 35,
          "time": 47.55550799999997,
          "velocity": 0.7874015748031497,
          "duration": 0.05555549999999698
        },
        {
          "name": "B1",
          "midi": 35,
          "time": 47.999951999999965,
          "velocity": 0.7874015748031497,
          "duration": 0.05555549999999698
        },
        {
          "name": "B1",
          "midi": 35,
          "time": 48.55550699999996,
          "velocity": 0.7874015748031497,
          "duration": 0.05555549999999698
        },
        {
          "name": "B1",
          "midi": 35,
          "time": 48.99995099999996,
          "velocity": 0.7874015748031497,
          "duration": 0.05555549999999698
        },
        {
          "name": "B1",
          "midi": 35,
          "time": 49.55550599999996,
          "velocity": 0.7874015748031497,
          "duration": 0.05555549999999698
        },
        {
          "name": "B1",
          "midi": 35,
          "time": 49.999949999999956,
          "velocity": 0.7874015748031497,
          "duration": 0.05555549999999698
        },
        {
          "name": "B1",
          "midi": 35,
          "time": 50.555504999999954,
          "velocity": 0.7874015748031497,
          "duration": 0.05555549999999698
        },
        {
          "name": "B1",
          "midi": 35,
          "time": 50.99994899999995,
          "velocity": 0.7874015748031497,
          "duration": 0.05555549999999698
        },
        {
          "name": "B1",
          "midi": 35,
          "time": 51.55550399999995,
          "velocity": 0.7874015748031497,
          "duration": 0.05555549999999698
        },
        {
          "name": "B1",
          "midi": 35,
          "time": 83.88880499999993,
          "velocity": 0.7874015748031497,
          "duration": 0.05555549999999698
        },
        {
          "name": "B1",
          "midi": 35,
          "time": 83.99991599999993,
          "velocity": 0.7874015748031497,
          "duration": 0.05555549999999698
        },
        {
          "name": "F#3",
          "midi": 54,
          "time": 84.33324899999992,
          "velocity": 0.905511811023622,
          "duration": 0.05555549999999698
        },
        {
          "name": "F#3",
          "midi": 54,
          "time": 84.66658199999992,
          "velocity": 0.905511811023622,
          "duration": 0.05555549999999698
        },
        {
          "name": "B1",
          "midi": 35,
          "time": 84.88880399999992,
          "velocity": 0.7874015748031497,
          "duration": 0.05555549999999698
        },
        {
          "name": "B1",
          "midi": 35,
          "time": 84.99991499999992,
          "velocity": 0.7874015748031497,
          "duration": 0.05555549999999698
        },
        {
          "name": "F#3",
          "midi": 54,
          "time": 85.33324799999991,
          "velocity": 0.905511811023622,
          "duration": 0.05555549999999698
        },
        {
          "name": "F#3",
          "midi": 54,
          "time": 85.66658099999991,
          "velocity": 0.905511811023622,
          "duration": 0.05555549999999698
        },
        {
          "name": "B1",
          "midi": 35,
          "time": 85.88880299999991,
          "velocity": 0.7874015748031497,
          "duration": 0.05555549999999698
        },
        {
          "name": "B1",
          "midi": 35,
          "time": 85.9999139999999,
          "velocity": 0.7874015748031497,
          "duration": 0.05555549999999698
        },
        {
          "name": "F#3",
          "midi": 54,
          "time": 86.3332469999999,
          "velocity": 0.905511811023622,
          "duration": 0.05555549999999698
        },
        {
          "name": "F#3",
          "midi": 54,
          "time": 86.6665799999999,
          "velocity": 0.905511811023622,
          "duration": 0.05555549999999698
        },
        {
          "name": "B1",
          "midi": 35,
          "time": 86.8888019999999,
          "velocity": 0.7874015748031497,
          "duration": 0.05555549999999698
        },
        {
          "name": "B1",
          "midi": 35,
          "time": 86.99991299999989,
          "velocity": 0.7874015748031497,
          "duration": 0.05555549999999698
        },
        {
          "name": "F#3",
          "midi": 54,
          "time": 87.33324599999989,
          "velocity": 0.905511811023622,
          "duration": 0.05555549999999698
        },
        {
          "name": "F#3",
          "midi": 54,
          "time": 87.66657899999989,
          "velocity": 0.905511811023622,
          "duration": 0.05555549999999698
        },
        {
          "name": "B1",
          "midi": 35,
          "time": 87.88880099999989,
          "velocity": 0.7874015748031497,
          "duration": 0.05555549999999698
        },
        {
          "name": "B1",
          "midi": 35,
          "time": 87.99991199999988,
          "velocity": 0.7874015748031497,
          "duration": 0.05555549999999698
        },
        {
          "name": "F#3",
          "midi": 54,
          "time": 88.33324499999988,
          "velocity": 0.905511811023622,
          "duration": 0.05555549999999698
        },
        {
          "name": "F#3",
          "midi": 54,
          "time": 88.66657799999987,
          "velocity": 0.905511811023622,
          "duration": 0.05555549999999698
        },
        {
          "name": "B1",
          "midi": 35,
          "time": 88.88879999999988,
          "velocity": 0.7874015748031497,
          "duration": 0.05555549999999698
        },
        {
          "name": "B1",
          "midi": 35,
          "time": 88.99991099999987,
          "velocity": 0.7874015748031497,
          "duration": 0.05555549999999698
        },
        {
          "name": "F#3",
          "midi": 54,
          "time": 89.33324399999987,
          "velocity": 0.905511811023622,
          "duration": 0.05555549999999698
        },
        {
          "name": "F#3",
          "midi": 54,
          "time": 89.66657699999986,
          "velocity": 0.905511811023622,
          "duration": 0.05555549999999698
        },
        {
          "name": "B1",
          "midi": 35,
          "time": 89.88879899999986,
          "velocity": 0.7874015748031497,
          "duration": 0.05555549999999698
        },
        {
          "name": "B1",
          "midi": 35,
          "time": 89.99990999999986,
          "velocity": 0.7874015748031497,
          "duration": 0.05555549999999698
        },
        {
          "name": "F#3",
          "midi": 54,
          "time": 90.33324299999985,
          "velocity": 0.905511811023622,
          "duration": 0.05555549999999698
        },
        {
          "name": "F#3",
          "midi": 54,
          "time": 90.66657599999985,
          "velocity": 0.905511811023622,
          "duration": 0.05555549999999698
        },
        {
          "name": "B1",
          "midi": 35,
          "time": 90.88879799999985,
          "velocity": 0.7874015748031497,
          "duration": 0.05555549999999698
        },
        {
          "name": "B1",
          "midi": 35,
          "time": 90.99990899999985,
          "velocity": 0.7874015748031497,
          "duration": 0.05555549999999698
        },
        {
          "name": "F#3",
          "midi": 54,
          "time": 91.33324199999984,
          "velocity": 0.905511811023622,
          "duration": 0.05555549999999698
        },
        {
          "name": "F#3",
          "midi": 54,
          "time": 91.66657499999984,
          "velocity": 0.905511811023622,
          "duration": 0.05555549999999698
        },
        {
          "name": "B1",
          "midi": 35,
          "time": 91.88879699999984,
          "velocity": 0.7874015748031497,
          "duration": 0.05555549999999698
        },
        {
          "name": "B1",
          "midi": 35,
          "time": 91.99990799999983,
          "velocity": 0.7874015748031497,
          "duration": 0.05555549999999698
        },
        {
          "name": "F#3",
          "midi": 54,
          "time": 92.33324099999983,
          "velocity": 0.905511811023622,
          "duration": 0.05555549999999698
        },
        {
          "name": "F#3",
          "midi": 54,
          "time": 92.66657399999983,
          "velocity": 0.905511811023622,
          "duration": 0.05555549999999698
        },
        {
          "name": "B1",
          "midi": 35,
          "time": 92.88879599999983,
          "velocity": 0.7874015748031497,
          "duration": 0.05555549999999698
        },
        {
          "name": "B1",
          "midi": 35,
          "time": 92.99990699999982,
          "velocity": 0.7874015748031497,
          "duration": 0.05555549999999698
        },
        {
          "name": "F#3",
          "midi": 54,
          "time": 93.33323999999982,
          "velocity": 0.905511811023622,
          "duration": 0.05555549999999698
        },
        {
          "name": "F#3",
          "midi": 54,
          "time": 93.66657299999981,
          "velocity": 0.905511811023622,
          "duration": 0.05555549999999698
        },
        {
          "name": "B1",
          "midi": 35,
          "time": 93.88879499999982,
          "velocity": 0.7874015748031497,
          "duration": 0.05555549999999698
        },
        {
          "name": "B1",
          "midi": 35,
          "time": 93.99990599999981,
          "velocity": 0.7874015748031497,
          "duration": 0.05555549999999698
        },
        {
          "name": "F#3",
          "midi": 54,
          "time": 94.33323899999981,
          "velocity": 0.905511811023622,
          "duration": 0.05555549999999698
        },
        {
          "name": "F#3",
          "midi": 54,
          "time": 94.6665719999998,
          "velocity": 0.905511811023622,
          "duration": 0.05555549999999698
        },
        {
          "name": "B1",
          "midi": 35,
          "time": 94.8887939999998,
          "velocity": 0.7874015748031497,
          "duration": 0.05555549999999698
        },
        {
          "name": "B1",
          "midi": 35,
          "time": 94.9999049999998,
          "velocity": 0.7874015748031497,
          "duration": 0.05555549999999698
        },
        {
          "name": "F#3",
          "midi": 54,
          "time": 95.3332379999998,
          "velocity": 0.905511811023622,
          "duration": 0.05555549999999698
        },
        {
          "name": "F#3",
          "midi": 54,
          "time": 95.66657099999979,
          "velocity": 0.905511811023622,
          "duration": 0.05555549999999698
        },
        {
          "name": "B1",
          "midi": 35,
          "time": 95.8887929999998,
          "velocity": 0.7874015748031497,
          "duration": 0.05555549999999698
        },
        {
          "name": "B1",
          "midi": 35,
          "time": 95.99990399999979,
          "velocity": 0.7874015748031497,
          "duration": 0.05555549999999698
        },
        {
          "name": "F#3",
          "midi": 54,
          "time": 96.33323699999978,
          "velocity": 0.905511811023622,
          "duration": 0.05555549999999698
        },
        {
          "name": "F#3",
          "midi": 54,
          "time": 96.66656999999978,
          "velocity": 0.905511811023622,
          "duration": 0.05555549999999698
        },
        {
          "name": "B1",
          "midi": 35,
          "time": 96.88879199999978,
          "velocity": 0.7874015748031497,
          "duration": 0.05555549999999698
        },
        {
          "name": "B1",
          "midi": 35,
          "time": 96.99990299999978,
          "velocity": 0.7874015748031497,
          "duration": 0.05555549999999698
        },
        {
          "name": "F#3",
          "midi": 54,
          "time": 97.33323599999977,
          "velocity": 0.905511811023622,
          "duration": 0.05555549999999698
        },
        {
          "name": "F#3",
          "midi": 54,
          "time": 97.66656899999977,
          "velocity": 0.905511811023622,
          "duration": 0.05555549999999698
        },
        {
          "name": "B1",
          "midi": 35,
          "time": 97.88879099999977,
          "velocity": 0.7874015748031497,
          "duration": 0.05555549999999698
        },
        {
          "name": "B1",
          "midi": 35,
          "time": 97.99990199999976,
          "velocity": 0.7874015748031497,
          "duration": 0.05555549999999698
        },
        {
          "name": "F#3",
          "midi": 54,
          "time": 98.33323499999976,
          "velocity": 0.905511811023622,
          "duration": 0.05555549999999698
        },
        {
          "name": "F#3",
          "midi": 54,
          "time": 98.66656799999976,
          "velocity": 0.905511811023622,
          "duration": 0.05555549999999698
        },
        {
          "name": "B1",
          "midi": 35,
          "time": 98.88878999999976,
          "velocity": 0.7874015748031497,
          "duration": 0.05555549999999698
        },
        {
          "name": "B1",
          "midi": 35,
          "time": 98.99990099999975,
          "velocity": 0.7874015748031497,
          "duration": 0.05555549999999698
        },
        {
          "name": "F#3",
          "midi": 54,
          "time": 99.33323399999975,
          "velocity": 0.905511811023622,
          "duration": 0.05555549999999698
        },
        {
          "name": "F#3",
          "midi": 54,
          "time": 99.66656699999974,
          "velocity": 0.905511811023622,
          "duration": 0.05555549999999698
        },
        {
          "name": "B1",
          "midi": 35,
          "time": 99.88878899999975,
          "velocity": 0.7874015748031497,
          "duration": 0.05555549999999698
        },
        {
          "name": "B1",
          "midi": 35,
          "time": 99.99989999999974,
          "velocity": 0.7874015748031497,
          "duration": 0.05555549999999698
        },
        {
          "name": "F#3",
          "midi": 54,
          "time": 100.99989899999974,
          "velocity": 0.905511811023622,
          "duration": 0.05555549999999698
        },
        {
          "name": "B1",
          "midi": 35,
          "time": 101.88878699999974,
          "velocity": 0.7874015748031497,
          "duration": 0.05555549999999698
        },
        {
          "name": "B1",
          "midi": 35,
          "time": 101.99989799999973,
          "velocity": 0.7874015748031497,
          "duration": 0.05555549999999698
        },
        {
          "name": "F#3",
          "midi": 54,
          "time": 102.99989699999973,
          "velocity": 0.905511811023622,
          "duration": 0.05555549999999698
        },
        {
          "name": "B1",
          "midi": 35,
          "time": 103.88878499999973,
          "velocity": 0.7874015748031497,
          "duration": 0.05555549999999698
        },
        {
          "name": "B1",
          "midi": 35,
          "time": 103.99989599999972,
          "velocity": 0.7874015748031497,
          "duration": 0.05555549999999698
        },
        {
          "name": "F#3",
          "midi": 54,
          "time": 104.99989499999973,
          "velocity": 0.905511811023622,
          "duration": 0.05555549999999698
        },
        {
          "name": "B1",
          "midi": 35,
          "time": 105.88878299999972,
          "velocity": 0.7874015748031497,
          "duration": 0.05555549999999698
        },
        {
          "name": "B1",
          "midi": 35,
          "time": 105.99989399999971,
          "velocity": 0.7874015748031497,
          "duration": 0.05555549999999698
        },
        {
          "name": "F#3",
          "midi": 54,
          "time": 106.99989299999972,
          "velocity": 0.905511811023622,
          "duration": 0.05555549999999698
        },
        {
          "name": "B1",
          "midi": 35,
          "time": 107.88878099999971,
          "velocity": 0.7874015748031497,
          "duration": 0.05555549999999698
        },
        {
          "name": "B1",
          "midi": 35,
          "time": 107.9998919999997,
          "velocity": 0.7874015748031497,
          "duration": 0.05555549999999698
        },
        {
          "name": "F#3",
          "midi": 54,
          "time": 108.9998909999997,
          "velocity": 0.905511811023622,
          "duration": 0.05555549999999698
        },
        {
          "name": "B1",
          "midi": 35,
          "time": 109.8887789999997,
          "velocity": 0.7874015748031497,
          "duration": 0.05555549999999698
        },
        {
          "name": "B1",
          "midi": 35,
          "time": 109.9998899999997,
          "velocity": 0.7874015748031497,
          "duration": 0.05555549999999698
        },
        {
          "name": "F#3",
          "midi": 54,
          "time": 110.9998889999997,
          "velocity": 0.905511811023622,
          "duration": 0.05555549999999698
        },
        {
          "name": "B1",
          "midi": 35,
          "time": 111.88877699999969,
          "velocity": 0.7874015748031497,
          "duration": 0.05555549999999698
        },
        {
          "name": "B1",
          "midi": 35,
          "time": 111.99988799999969,
          "velocity": 0.7874015748031497,
          "duration": 0.05555549999999698
        },
        {
          "name": "F#3",
          "midi": 54,
          "time": 112.99988699999969,
          "velocity": 0.905511811023622,
          "duration": 0.05555549999999698
        },
        {
          "name": "B1",
          "midi": 35,
          "time": 113.88877499999968,
          "velocity": 0.7874015748031497,
          "duration": 0.05555549999999698
        },
        {
          "name": "B1",
          "midi": 35,
          "time": 113.99988599999968,
          "velocity": 0.7874015748031497,
          "duration": 0.05555549999999698
        },
        {
          "name": "F#3",
          "midi": 54,
          "time": 114.99988499999968,
          "velocity": 0.905511811023622,
          "duration": 0.05555549999999698
        },
        {
          "name": "B1",
          "midi": 35,
          "time": 115.88877299999967,
          "velocity": 0.7874015748031497,
          "duration": 0.05555549999999698
        },
        {
          "name": "B1",
          "midi": 35,
          "time": 115.99988399999967,
          "velocity": 0.7874015748031497,
          "duration": 0.05555549999999698
        },
        {
          "name": "F#3",
          "midi": 54,
          "time": 116.99988299999967,
          "velocity": 0.905511811023622,
          "duration": 0.05555549999999698
        },
        {
          "name": "B1",
          "midi": 35,
          "time": 117.88877099999966,
          "velocity": 0.7874015748031497,
          "duration": 0.05555549999999698
        },
        {
          "name": "B1",
          "midi": 35,
          "time": 117.99988199999966,
          "velocity": 0.7874015748031497,
          "duration": 0.05555549999999698
        },
        {
          "name": "F#3",
          "midi": 54,
          "time": 118.99988099999966,
          "velocity": 0.905511811023622,
          "duration": 0.05555549999999698
        },
        {
          "name": "B1",
          "midi": 35,
          "time": 119.88876899999966,
          "velocity": 0.7874015748031497,
          "duration": 0.05555549999999698
        },
        {
          "name": "B1",
          "midi": 35,
          "time": 119.99987999999965,
          "velocity": 0.7874015748031497,
          "duration": 0.05555549999999698
        },
        {
          "name": "F#3",
          "midi": 54,
          "time": 120.99987899999965,
          "velocity": 0.905511811023622,
          "duration": 0.05555549999999698
        },
        {
          "name": "B1",
          "midi": 35,
          "time": 121.88876699999965,
          "velocity": 0.7874015748031497,
          "duration": 0.05555549999999698
        },
        {
          "name": "B1",
          "midi": 35,
          "time": 121.99987799999964,
          "velocity": 0.7874015748031497,
          "duration": 0.05555549999999698
        }
      ],
      "controlChanges": {
        "7": [
          {
            "number": 7,
            "time": 0.333333,
            "value": 0.7874015748031497
          }
        ],
        "10": [
          {
            "number": 10,
            "time": 0.3402774375,
            "value": 0.5039370078740157
          }
        ],
        "32": [
          {
            "number": 32,
            "time": 0.36111075000000004,
            "value": 0
          }
        ],
        "91": [
          {
            "number": 91,
            "time": 0.347221875,
            "value": 0.5039370078740157
          }
        ],
        "93": [
          {
            "number": 93,
            "time": 0.3541663125,
            "value": 0.07874015748031496
          }
        ],
        "121": [
          {
            "number": 121,
            "time": 0.333333,
            "value": 0
          }
        ]
      },
      "id": 7,
      "name": "Std Drums",
      "instrumentNumber": 0,
      "instrument": "standard kit",
      "instrumentFamily": "drums",
      "channelNumber": 9,
      "isPercussion": true
    },
    {
      "startTime": 0,
      "duration": 0,
      "length": 0,
      "notes": [],
      "controlChanges": {},
      "id": 8,
      "name": "GS Reset SYX DWB"
    },
    {
      "startTime": 0,
      "duration": 0,
      "length": 0,
      "notes": [],
      "controlChanges": {},
      "id": 9,
      "name": "D.W.Barnes 5/2/95"
    }
  ]
}
